G04*
G04 #@! TF.GenerationSoftware,Altium Limited,Altium Designer,18.0.9 (584)*
G04*
G04 Layer_Color=32896*
%FSLAX25Y25*%
%MOIN*%
G70*
G01*
G75*
%ADD10C,0.00787*%
%ADD12C,0.00500*%
D10*
X485827Y574882D02*
G03*
X485827Y574882I-394J0D01*
G01*
D02*
G03*
X485827Y574882I-394J0D01*
G01*
X13386Y626063D02*
G03*
X13386Y626063I-394J0D01*
G01*
D02*
G03*
X13386Y626063I-394J0D01*
G01*
X13386Y574882D02*
G03*
X13386Y574882I-394J0D01*
G01*
D02*
G03*
X13386Y574882I-394J0D01*
G01*
X60630Y626063D02*
G03*
X60630Y626063I-394J0D01*
G01*
D02*
G03*
X60630Y626063I-394J0D01*
G01*
X60630Y574882D02*
G03*
X60630Y574882I-394J0D01*
G01*
D02*
G03*
X60630Y574882I-394J0D01*
G01*
Y523701D02*
G03*
X60630Y523701I-394J0D01*
G01*
D02*
G03*
X60630Y523701I-394J0D01*
G01*
X107874Y626063D02*
G03*
X107874Y626063I-394J0D01*
G01*
D02*
G03*
X107874Y626063I-394J0D01*
G01*
X107874Y574882D02*
G03*
X107874Y574882I-394J0D01*
G01*
D02*
G03*
X107874Y574882I-394J0D01*
G01*
Y523701D02*
G03*
X107874Y523701I-394J0D01*
G01*
D02*
G03*
X107874Y523701I-394J0D01*
G01*
X155118Y626063D02*
G03*
X155118Y626063I-394J0D01*
G01*
D02*
G03*
X155118Y626063I-394J0D01*
G01*
Y574882D02*
G03*
X155118Y574882I-394J0D01*
G01*
D02*
G03*
X155118Y574882I-394J0D01*
G01*
Y523701D02*
G03*
X155118Y523701I-394J0D01*
G01*
D02*
G03*
X155118Y523701I-394J0D01*
G01*
X202362Y626063D02*
G03*
X202362Y626063I-394J0D01*
G01*
D02*
G03*
X202362Y626063I-394J0D01*
G01*
X202362Y574882D02*
G03*
X202362Y574882I-394J0D01*
G01*
D02*
G03*
X202362Y574882I-394J0D01*
G01*
Y523701D02*
G03*
X202362Y523701I-394J0D01*
G01*
D02*
G03*
X202362Y523701I-394J0D01*
G01*
X249606Y626063D02*
G03*
X249606Y626063I-394J0D01*
G01*
D02*
G03*
X249606Y626063I-394J0D01*
G01*
Y574882D02*
G03*
X249606Y574882I-394J0D01*
G01*
D02*
G03*
X249606Y574882I-394J0D01*
G01*
Y523701D02*
G03*
X249606Y523701I-394J0D01*
G01*
D02*
G03*
X249606Y523701I-394J0D01*
G01*
X296850Y626063D02*
G03*
X296850Y626063I-394J0D01*
G01*
D02*
G03*
X296850Y626063I-394J0D01*
G01*
X296850Y574882D02*
G03*
X296850Y574882I-394J0D01*
G01*
D02*
G03*
X296850Y574882I-394J0D01*
G01*
Y523701D02*
G03*
X296850Y523701I-394J0D01*
G01*
D02*
G03*
X296850Y523701I-394J0D01*
G01*
X344094Y626063D02*
G03*
X344094Y626063I-394J0D01*
G01*
D02*
G03*
X344094Y626063I-394J0D01*
G01*
X344094Y574882D02*
G03*
X344094Y574882I-394J0D01*
G01*
D02*
G03*
X344094Y574882I-394J0D01*
G01*
Y523701D02*
G03*
X344094Y523701I-394J0D01*
G01*
D02*
G03*
X344094Y523701I-394J0D01*
G01*
X391339Y626063D02*
G03*
X391339Y626063I-394J0D01*
G01*
D02*
G03*
X391339Y626063I-394J0D01*
G01*
X391339Y574882D02*
G03*
X391339Y574882I-394J0D01*
G01*
D02*
G03*
X391339Y574882I-394J0D01*
G01*
Y523701D02*
G03*
X391339Y523701I-394J0D01*
G01*
D02*
G03*
X391339Y523701I-394J0D01*
G01*
X438583Y626063D02*
G03*
X438583Y626063I-394J0D01*
G01*
D02*
G03*
X438583Y626063I-394J0D01*
G01*
X438583Y574882D02*
G03*
X438583Y574882I-394J0D01*
G01*
D02*
G03*
X438583Y574882I-394J0D01*
G01*
Y523701D02*
G03*
X438583Y523701I-394J0D01*
G01*
D02*
G03*
X438583Y523701I-394J0D01*
G01*
X485827Y626063D02*
G03*
X485827Y626063I-394J0D01*
G01*
D02*
G03*
X485827Y626063I-394J0D01*
G01*
X485827Y523701D02*
G03*
X485827Y523701I-394J0D01*
G01*
D02*
G03*
X485827Y523701I-394J0D01*
G01*
X13386D02*
G03*
X13386Y523701I-394J0D01*
G01*
D02*
G03*
X13386Y523701I-394J0D01*
G01*
X170098Y419291D02*
G03*
X170098Y419291I-394J0D01*
G01*
D02*
G03*
X170098Y419291I-394J0D01*
G01*
X38169Y398917D02*
G03*
X38169Y398917I-394J0D01*
G01*
D02*
G03*
X38169Y398917I-394J0D01*
G01*
X73602Y408917D02*
G03*
X73602Y408917I-394J0D01*
G01*
D02*
G03*
X73602Y408917I-394J0D01*
G01*
X38169Y418917D02*
G03*
X38169Y418917I-394J0D01*
G01*
D02*
G03*
X38169Y418917I-394J0D01*
G01*
X73602Y428917D02*
G03*
X73602Y428917I-394J0D01*
G01*
D02*
G03*
X73602Y428917I-394J0D01*
G01*
X38169Y438917D02*
G03*
X38169Y438917I-394J0D01*
G01*
D02*
G03*
X38169Y438917I-394J0D01*
G01*
X73602Y448917D02*
G03*
X73602Y448917I-394J0D01*
G01*
D02*
G03*
X73602Y448917I-394J0D01*
G01*
X38169Y458917D02*
G03*
X38169Y458917I-394J0D01*
G01*
D02*
G03*
X38169Y458917I-394J0D01*
G01*
X73602Y468917D02*
G03*
X73602Y468917I-394J0D01*
G01*
D02*
G03*
X73602Y468917I-394J0D01*
G01*
X38169Y478917D02*
G03*
X38169Y478917I-394J0D01*
G01*
D02*
G03*
X38169Y478917I-394J0D01*
G01*
X73602Y488917D02*
G03*
X73602Y488917I-394J0D01*
G01*
D02*
G03*
X73602Y488917I-394J0D01*
G01*
X242894Y398917D02*
G03*
X242894Y398917I-394J0D01*
G01*
D02*
G03*
X242894Y398917I-394J0D01*
G01*
X140532D02*
G03*
X140532Y398917I-394J0D01*
G01*
D02*
G03*
X140532Y398917I-394J0D01*
G01*
X278327Y408917D02*
G03*
X278327Y408917I-394J0D01*
G01*
D02*
G03*
X278327Y408917I-394J0D01*
G01*
X175965D02*
G03*
X175965Y408917I-394J0D01*
G01*
D02*
G03*
X175965Y408917I-394J0D01*
G01*
X242894Y418917D02*
G03*
X242894Y418917I-394J0D01*
G01*
D02*
G03*
X242894Y418917I-394J0D01*
G01*
X278327Y428917D02*
G03*
X278327Y428917I-394J0D01*
G01*
D02*
G03*
X278327Y428917I-394J0D01*
G01*
X175965D02*
G03*
X175965Y428917I-394J0D01*
G01*
D02*
G03*
X175965Y428917I-394J0D01*
G01*
X242894Y438917D02*
G03*
X242894Y438917I-394J0D01*
G01*
D02*
G03*
X242894Y438917I-394J0D01*
G01*
X140532D02*
G03*
X140532Y438917I-394J0D01*
G01*
D02*
G03*
X140532Y438917I-394J0D01*
G01*
X278327Y448917D02*
G03*
X278327Y448917I-394J0D01*
G01*
D02*
G03*
X278327Y448917I-394J0D01*
G01*
X175965D02*
G03*
X175965Y448917I-394J0D01*
G01*
D02*
G03*
X175965Y448917I-394J0D01*
G01*
X242894Y458917D02*
G03*
X242894Y458917I-394J0D01*
G01*
D02*
G03*
X242894Y458917I-394J0D01*
G01*
X140532D02*
G03*
X140532Y458917I-394J0D01*
G01*
D02*
G03*
X140532Y458917I-394J0D01*
G01*
X278327Y468917D02*
G03*
X278327Y468917I-394J0D01*
G01*
D02*
G03*
X278327Y468917I-394J0D01*
G01*
X175965D02*
G03*
X175965Y468917I-394J0D01*
G01*
D02*
G03*
X175965Y468917I-394J0D01*
G01*
X242894Y478917D02*
G03*
X242894Y478917I-394J0D01*
G01*
D02*
G03*
X242894Y478917I-394J0D01*
G01*
X140532D02*
G03*
X140532Y478917I-394J0D01*
G01*
D02*
G03*
X140532Y478917I-394J0D01*
G01*
X278327Y488917D02*
G03*
X278327Y488917I-394J0D01*
G01*
D02*
G03*
X278327Y488917I-394J0D01*
G01*
X175965D02*
G03*
X175965Y488917I-394J0D01*
G01*
D02*
G03*
X175965Y488917I-394J0D01*
G01*
X345256Y398917D02*
G03*
X345256Y398917I-394J0D01*
G01*
D02*
G03*
X345256Y398917I-394J0D01*
G01*
X380689Y408917D02*
G03*
X380689Y408917I-394J0D01*
G01*
D02*
G03*
X380689Y408917I-394J0D01*
G01*
X345256Y418917D02*
G03*
X345256Y418917I-394J0D01*
G01*
D02*
G03*
X345256Y418917I-394J0D01*
G01*
X380689Y428917D02*
G03*
X380689Y428917I-394J0D01*
G01*
D02*
G03*
X380689Y428917I-394J0D01*
G01*
X345256Y438917D02*
G03*
X345256Y438917I-394J0D01*
G01*
D02*
G03*
X345256Y438917I-394J0D01*
G01*
X380689Y448917D02*
G03*
X380689Y448917I-394J0D01*
G01*
D02*
G03*
X380689Y448917I-394J0D01*
G01*
X345256Y458917D02*
G03*
X345256Y458917I-394J0D01*
G01*
D02*
G03*
X345256Y458917I-394J0D01*
G01*
X380689Y468917D02*
G03*
X380689Y468917I-394J0D01*
G01*
D02*
G03*
X380689Y468917I-394J0D01*
G01*
X345256Y478917D02*
G03*
X345256Y478917I-394J0D01*
G01*
D02*
G03*
X345256Y478917I-394J0D01*
G01*
X380689Y488917D02*
G03*
X380689Y488917I-394J0D01*
G01*
D02*
G03*
X380689Y488917I-394J0D01*
G01*
D12*
X489370Y567205D02*
X522835D01*
X489370D02*
Y598150D01*
X522835D01*
Y567205D02*
Y598150D01*
X489370Y567205D02*
X522835D01*
X489370D02*
Y598150D01*
X522835D01*
Y567205D02*
Y598150D01*
X16929Y618386D02*
X50394D01*
X16929D02*
Y649331D01*
X50394D01*
Y618386D02*
Y649331D01*
X16929Y618386D02*
X50394D01*
X16929D02*
Y649331D01*
X50394D01*
Y618386D02*
Y649331D01*
X16929Y567205D02*
X50394D01*
X16929D02*
Y598150D01*
X50394D01*
Y567205D02*
Y598150D01*
X16929Y567205D02*
X50394D01*
X16929D02*
Y598150D01*
X50394D01*
Y567205D02*
Y598150D01*
X64173Y618386D02*
X97638D01*
X64173D02*
Y649331D01*
X97638D01*
Y618386D02*
Y649331D01*
X64173Y618386D02*
X97638D01*
X64173D02*
Y649331D01*
X97638D01*
Y618386D02*
Y649331D01*
X64173Y567205D02*
X97638D01*
X64173D02*
Y598150D01*
X97638D01*
Y567205D02*
Y598150D01*
X64173Y567205D02*
X97638D01*
X64173D02*
Y598150D01*
X97638D01*
Y567205D02*
Y598150D01*
X64173Y516024D02*
X97638D01*
X64173D02*
Y546969D01*
X97638D01*
Y516024D02*
Y546969D01*
X64173Y516024D02*
X97638D01*
X64173D02*
Y546969D01*
X97638D01*
Y516024D02*
Y546969D01*
X111417Y618386D02*
X144882D01*
X111417D02*
Y649331D01*
X144882D01*
Y618386D02*
Y649331D01*
X111417Y618386D02*
X144882D01*
X111417D02*
Y649331D01*
X144882D01*
Y618386D02*
Y649331D01*
X111417Y567205D02*
X144882D01*
X111417D02*
Y598150D01*
X144882D01*
Y567205D02*
Y598150D01*
X111417Y567205D02*
X144882D01*
X111417D02*
Y598150D01*
X144882D01*
Y567205D02*
Y598150D01*
X111417Y516024D02*
X144882D01*
X111417D02*
Y546969D01*
X144882D01*
Y516024D02*
Y546969D01*
X111417Y516024D02*
X144882D01*
X111417D02*
Y546969D01*
X144882D01*
Y516024D02*
Y546969D01*
X158661Y618386D02*
X192126D01*
X158661D02*
Y649331D01*
X192126D01*
Y618386D02*
Y649331D01*
X158661Y618386D02*
X192126D01*
X158661D02*
Y649331D01*
X192126D01*
Y618386D02*
Y649331D01*
X158661Y567205D02*
X192126D01*
X158661D02*
Y598150D01*
X192126D01*
Y567205D02*
Y598150D01*
X158661Y567205D02*
X192126D01*
X158661D02*
Y598150D01*
X192126D01*
Y567205D02*
Y598150D01*
X158661Y516024D02*
X192126D01*
X158661D02*
Y546969D01*
X192126D01*
Y516024D02*
Y546969D01*
X158661Y516024D02*
X192126D01*
X158661D02*
Y546969D01*
X192126D01*
Y516024D02*
Y546969D01*
X205906Y618386D02*
X239370D01*
X205906D02*
Y649331D01*
X239370D01*
Y618386D02*
Y649331D01*
X205906Y618386D02*
X239370D01*
X205906D02*
Y649331D01*
X239370D01*
Y618386D02*
Y649331D01*
X205906Y567205D02*
X239370D01*
X205906D02*
Y598150D01*
X239370D01*
Y567205D02*
Y598150D01*
X205906Y567205D02*
X239370D01*
X205906D02*
Y598150D01*
X239370D01*
Y567205D02*
Y598150D01*
X205906Y516024D02*
X239370D01*
X205906D02*
Y546969D01*
X239370D01*
Y516024D02*
Y546969D01*
X205906Y516024D02*
X239370D01*
X205906D02*
Y546969D01*
X239370D01*
Y516024D02*
Y546969D01*
X253150Y618386D02*
X286614D01*
X253150D02*
Y649331D01*
X286614D01*
Y618386D02*
Y649331D01*
X253150Y618386D02*
X286614D01*
X253150D02*
Y649331D01*
X286614D01*
Y618386D02*
Y649331D01*
X253150Y567205D02*
X286614D01*
X253150D02*
Y598150D01*
X286614D01*
Y567205D02*
Y598150D01*
X253150Y567205D02*
X286614D01*
X253150D02*
Y598150D01*
X286614D01*
Y567205D02*
Y598150D01*
X253150Y516024D02*
X286614D01*
X253150D02*
Y546969D01*
X286614D01*
Y516024D02*
Y546969D01*
X253150Y516024D02*
X286614D01*
X253150D02*
Y546969D01*
X286614D01*
Y516024D02*
Y546969D01*
X300394Y618386D02*
X333858D01*
X300394D02*
Y649331D01*
X333858D01*
Y618386D02*
Y649331D01*
X300394Y618386D02*
X333858D01*
X300394D02*
Y649331D01*
X333858D01*
Y618386D02*
Y649331D01*
X300394Y567205D02*
X333858D01*
X300394D02*
Y598150D01*
X333858D01*
Y567205D02*
Y598150D01*
X300394Y567205D02*
X333858D01*
X300394D02*
Y598150D01*
X333858D01*
Y567205D02*
Y598150D01*
X300394Y516024D02*
X333858D01*
X300394D02*
Y546969D01*
X333858D01*
Y516024D02*
Y546969D01*
X300394Y516024D02*
X333858D01*
X300394D02*
Y546969D01*
X333858D01*
Y516024D02*
Y546969D01*
X347638Y618386D02*
X381102D01*
X347638D02*
Y649331D01*
X381102D01*
Y618386D02*
Y649331D01*
X347638Y618386D02*
X381102D01*
X347638D02*
Y649331D01*
X381102D01*
Y618386D02*
Y649331D01*
X347638Y567205D02*
X381102D01*
X347638D02*
Y598150D01*
X381102D01*
Y567205D02*
Y598150D01*
X347638Y567205D02*
X381102D01*
X347638D02*
Y598150D01*
X381102D01*
Y567205D02*
Y598150D01*
X347638Y516024D02*
X381102D01*
X347638D02*
Y546969D01*
X381102D01*
Y516024D02*
Y546969D01*
X347638Y516024D02*
X381102D01*
X347638D02*
Y546969D01*
X381102D01*
Y516024D02*
Y546969D01*
X394882Y618386D02*
X428346D01*
X394882D02*
Y649331D01*
X428346D01*
Y618386D02*
Y649331D01*
X394882Y618386D02*
X428346D01*
X394882D02*
Y649331D01*
X428346D01*
Y618386D02*
Y649331D01*
X394882Y567205D02*
X428346D01*
X394882D02*
Y598150D01*
X428346D01*
Y567205D02*
Y598150D01*
X394882Y567205D02*
X428346D01*
X394882D02*
Y598150D01*
X428346D01*
Y567205D02*
Y598150D01*
X394882Y516024D02*
X428346D01*
X394882D02*
Y546969D01*
X428346D01*
Y516024D02*
Y546969D01*
X394882Y516024D02*
X428346D01*
X394882D02*
Y546969D01*
X428346D01*
Y516024D02*
Y546969D01*
X442126Y618386D02*
X475591D01*
X442126D02*
Y649331D01*
X475591D01*
Y618386D02*
Y649331D01*
X442126Y618386D02*
X475591D01*
X442126D02*
Y649331D01*
X475591D01*
Y618386D02*
Y649331D01*
X442126Y567205D02*
X475591D01*
X442126D02*
Y598150D01*
X475591D01*
Y567205D02*
Y598150D01*
X442126Y567205D02*
X475591D01*
X442126D02*
Y598150D01*
X475591D01*
Y567205D02*
Y598150D01*
X442126Y516024D02*
X475591D01*
X442126D02*
Y546969D01*
X475591D01*
Y516024D02*
Y546969D01*
X442126Y516024D02*
X475591D01*
X442126D02*
Y546969D01*
X475591D01*
Y516024D02*
Y546969D01*
X489370Y618386D02*
X522835D01*
X489370D02*
Y649331D01*
X522835D01*
Y618386D02*
Y649331D01*
X489370Y618386D02*
X522835D01*
X489370D02*
Y649331D01*
X522835D01*
Y618386D02*
Y649331D01*
X489370Y516024D02*
X522835D01*
X489370D02*
Y546969D01*
X522835D01*
Y516024D02*
Y546969D01*
X489370Y516024D02*
X522835D01*
X489370D02*
Y546969D01*
X522835D01*
Y516024D02*
Y546969D01*
X16929Y516024D02*
X50394D01*
X16929D02*
Y546969D01*
X50394D01*
Y516024D02*
Y546969D01*
X16929Y516024D02*
X50394D01*
X16929D02*
Y546969D01*
X50394D01*
Y516024D02*
Y546969D01*
X143898Y425098D02*
X165945D01*
Y413484D02*
Y425098D01*
X143898Y413484D02*
X165945D01*
X143898D02*
Y425098D01*
X165945D01*
Y413484D02*
Y425098D01*
X143898Y413484D02*
X165945D01*
X143898D02*
Y425098D01*
X63583Y393110D02*
Y404724D01*
X41536D02*
X63583D01*
X41536Y393110D02*
Y404724D01*
Y393110D02*
X63583D01*
Y404724D01*
X41536D02*
X63583D01*
X41536Y393110D02*
Y404724D01*
Y393110D02*
X63583D01*
X99016Y403110D02*
Y414724D01*
X76969D02*
X99016D01*
X76969Y403110D02*
Y414724D01*
Y403110D02*
X99016D01*
Y414724D01*
X76969D02*
X99016D01*
X76969Y403110D02*
Y414724D01*
Y403110D02*
X99016D01*
X63583Y413110D02*
Y424724D01*
X41536D02*
X63583D01*
X41536Y413110D02*
Y424724D01*
Y413110D02*
X63583D01*
Y424724D01*
X41536D02*
X63583D01*
X41536Y413110D02*
Y424724D01*
Y413110D02*
X63583D01*
X99016Y423110D02*
Y434724D01*
X76969D02*
X99016D01*
X76969Y423110D02*
Y434724D01*
Y423110D02*
X99016D01*
Y434724D01*
X76969D02*
X99016D01*
X76969Y423110D02*
Y434724D01*
Y423110D02*
X99016D01*
X63583Y433110D02*
Y444724D01*
X41536D02*
X63583D01*
X41536Y433110D02*
Y444724D01*
Y433110D02*
X63583D01*
Y444724D01*
X41536D02*
X63583D01*
X41536Y433110D02*
Y444724D01*
Y433110D02*
X63583D01*
X99016Y443110D02*
Y454724D01*
X76969D02*
X99016D01*
X76969Y443110D02*
Y454724D01*
Y443110D02*
X99016D01*
Y454724D01*
X76969D02*
X99016D01*
X76969Y443110D02*
Y454724D01*
Y443110D02*
X99016D01*
X63583Y453110D02*
Y464724D01*
X41536D02*
X63583D01*
X41536Y453110D02*
Y464724D01*
Y453110D02*
X63583D01*
Y464724D01*
X41536D02*
X63583D01*
X41536Y453110D02*
Y464724D01*
Y453110D02*
X63583D01*
X99016Y463110D02*
Y474724D01*
X76969D02*
X99016D01*
X76969Y463110D02*
Y474724D01*
Y463110D02*
X99016D01*
Y474724D01*
X76969D02*
X99016D01*
X76969Y463110D02*
Y474724D01*
Y463110D02*
X99016D01*
X63583Y473110D02*
Y484724D01*
X41536D02*
X63583D01*
X41536Y473110D02*
Y484724D01*
Y473110D02*
X63583D01*
Y484724D01*
X41536D02*
X63583D01*
X41536Y473110D02*
Y484724D01*
Y473110D02*
X63583D01*
X99016Y483110D02*
Y494724D01*
X76969D02*
X99016D01*
X76969Y483110D02*
Y494724D01*
Y483110D02*
X99016D01*
Y494724D01*
X76969D02*
X99016D01*
X76969Y483110D02*
Y494724D01*
Y483110D02*
X99016D01*
X246260Y393110D02*
X268307D01*
X246260D02*
Y404724D01*
X268307D01*
Y393110D02*
Y404724D01*
X246260Y393110D02*
X268307D01*
X246260D02*
Y404724D01*
X268307D01*
Y393110D02*
Y404724D01*
X143898Y393110D02*
X165945D01*
X143898D02*
Y404724D01*
X165945D01*
Y393110D02*
Y404724D01*
X143898Y393110D02*
X165945D01*
X143898D02*
Y404724D01*
X165945D01*
Y393110D02*
Y404724D01*
X281693Y403110D02*
X303740D01*
X281693D02*
Y414724D01*
X303740D01*
Y403110D02*
Y414724D01*
X281693Y403110D02*
X303740D01*
X281693D02*
Y414724D01*
X303740D01*
Y403110D02*
Y414724D01*
X179331Y403110D02*
X201378D01*
X179331D02*
Y414724D01*
X201378D01*
Y403110D02*
Y414724D01*
X179331Y403110D02*
X201378D01*
X179331D02*
Y414724D01*
X201378D01*
Y403110D02*
Y414724D01*
X246260Y413110D02*
X268307D01*
X246260D02*
Y424724D01*
X268307D01*
Y413110D02*
Y424724D01*
X246260Y413110D02*
X268307D01*
X246260D02*
Y424724D01*
X268307D01*
Y413110D02*
Y424724D01*
X281693Y423110D02*
X303740D01*
X281693D02*
Y434724D01*
X303740D01*
Y423110D02*
Y434724D01*
X281693Y423110D02*
X303740D01*
X281693D02*
Y434724D01*
X303740D01*
Y423110D02*
Y434724D01*
X179331Y423110D02*
X201378D01*
X179331D02*
Y434724D01*
X201378D01*
Y423110D02*
Y434724D01*
X179331Y423110D02*
X201378D01*
X179331D02*
Y434724D01*
X201378D01*
Y423110D02*
Y434724D01*
X246260Y433110D02*
X268307D01*
X246260D02*
Y444724D01*
X268307D01*
Y433110D02*
Y444724D01*
X246260Y433110D02*
X268307D01*
X246260D02*
Y444724D01*
X268307D01*
Y433110D02*
Y444724D01*
X143898Y433110D02*
X165945D01*
X143898D02*
Y444724D01*
X165945D01*
Y433110D02*
Y444724D01*
X143898Y433110D02*
X165945D01*
X143898D02*
Y444724D01*
X165945D01*
Y433110D02*
Y444724D01*
X281693Y443110D02*
X303740D01*
X281693D02*
Y454724D01*
X303740D01*
Y443110D02*
Y454724D01*
X281693Y443110D02*
X303740D01*
X281693D02*
Y454724D01*
X303740D01*
Y443110D02*
Y454724D01*
X179331Y443110D02*
X201378D01*
X179331D02*
Y454724D01*
X201378D01*
Y443110D02*
Y454724D01*
X179331Y443110D02*
X201378D01*
X179331D02*
Y454724D01*
X201378D01*
Y443110D02*
Y454724D01*
X246260Y453110D02*
X268307D01*
X246260D02*
Y464724D01*
X268307D01*
Y453110D02*
Y464724D01*
X246260Y453110D02*
X268307D01*
X246260D02*
Y464724D01*
X268307D01*
Y453110D02*
Y464724D01*
X143898Y453110D02*
X165945D01*
X143898D02*
Y464724D01*
X165945D01*
Y453110D02*
Y464724D01*
X143898Y453110D02*
X165945D01*
X143898D02*
Y464724D01*
X165945D01*
Y453110D02*
Y464724D01*
X281693Y463110D02*
X303740D01*
X281693D02*
Y474724D01*
X303740D01*
Y463110D02*
Y474724D01*
X281693Y463110D02*
X303740D01*
X281693D02*
Y474724D01*
X303740D01*
Y463110D02*
Y474724D01*
X179331Y463110D02*
X201378D01*
X179331D02*
Y474724D01*
X201378D01*
Y463110D02*
Y474724D01*
X179331Y463110D02*
X201378D01*
X179331D02*
Y474724D01*
X201378D01*
Y463110D02*
Y474724D01*
X246260Y473110D02*
X268307D01*
X246260D02*
Y484724D01*
X268307D01*
Y473110D02*
Y484724D01*
X246260Y473110D02*
X268307D01*
X246260D02*
Y484724D01*
X268307D01*
Y473110D02*
Y484724D01*
X143898Y473110D02*
X165945D01*
X143898D02*
Y484724D01*
X165945D01*
Y473110D02*
Y484724D01*
X143898Y473110D02*
X165945D01*
X143898D02*
Y484724D01*
X165945D01*
Y473110D02*
Y484724D01*
X281693Y483110D02*
X303740D01*
X281693D02*
Y494724D01*
X303740D01*
Y483110D02*
Y494724D01*
X281693Y483110D02*
X303740D01*
X281693D02*
Y494724D01*
X303740D01*
Y483110D02*
Y494724D01*
X179331Y483110D02*
X201378D01*
X179331D02*
Y494724D01*
X201378D01*
Y483110D02*
Y494724D01*
X179331Y483110D02*
X201378D01*
X179331D02*
Y494724D01*
X201378D01*
Y483110D02*
Y494724D01*
X348622Y393110D02*
X370669D01*
X348622D02*
Y404724D01*
X370669D01*
Y393110D02*
Y404724D01*
X348622Y393110D02*
X370669D01*
X348622D02*
Y404724D01*
X370669D01*
Y393110D02*
Y404724D01*
X384055Y403110D02*
X406103D01*
X384055D02*
Y414724D01*
X406103D01*
Y403110D02*
Y414724D01*
X384055Y403110D02*
X406103D01*
X384055D02*
Y414724D01*
X406103D01*
Y403110D02*
Y414724D01*
X348622Y413110D02*
X370669D01*
X348622D02*
Y424724D01*
X370669D01*
Y413110D02*
Y424724D01*
X348622Y413110D02*
X370669D01*
X348622D02*
Y424724D01*
X370669D01*
Y413110D02*
Y424724D01*
X384055Y423110D02*
X406103D01*
X384055D02*
Y434724D01*
X406103D01*
Y423110D02*
Y434724D01*
X384055Y423110D02*
X406103D01*
X384055D02*
Y434724D01*
X406103D01*
Y423110D02*
Y434724D01*
X348622Y433110D02*
X370669D01*
X348622D02*
Y444724D01*
X370669D01*
Y433110D02*
Y444724D01*
X348622Y433110D02*
X370669D01*
X348622D02*
Y444724D01*
X370669D01*
Y433110D02*
Y444724D01*
X384055Y443110D02*
X406103D01*
X384055D02*
Y454724D01*
X406103D01*
Y443110D02*
Y454724D01*
X384055Y443110D02*
X406103D01*
X384055D02*
Y454724D01*
X406103D01*
Y443110D02*
Y454724D01*
X348622Y453110D02*
X370669D01*
X348622D02*
Y464724D01*
X370669D01*
Y453110D02*
Y464724D01*
X348622Y453110D02*
X370669D01*
X348622D02*
Y464724D01*
X370669D01*
Y453110D02*
Y464724D01*
X384055Y463110D02*
X406103D01*
X384055D02*
Y474724D01*
X406103D01*
Y463110D02*
Y474724D01*
X384055Y463110D02*
X406103D01*
X384055D02*
Y474724D01*
X406103D01*
Y463110D02*
Y474724D01*
X348622Y473110D02*
X370669D01*
X348622D02*
Y484724D01*
X370669D01*
Y473110D02*
Y484724D01*
X348622Y473110D02*
X370669D01*
X348622D02*
Y484724D01*
X370669D01*
Y473110D02*
Y484724D01*
X384055Y483110D02*
X406103D01*
X384055D02*
Y494724D01*
X406103D01*
Y483110D02*
Y494724D01*
X384055Y483110D02*
X406103D01*
X384055D02*
Y494724D01*
X406103D01*
Y483110D02*
Y494724D01*
M02*
