G04*
G04 #@! TF.GenerationSoftware,Altium Limited,Altium Designer,18.0.9 (584)*
G04*
G04 Layer_Color=8388736*
%FSLAX25Y25*%
%MOIN*%
G70*
G01*
G75*
%ADD17R,0.09973X0.06942*%
%ADD18R,0.05918X0.04737*%
%ADD19O,0.08280X0.03162*%
%ADD20C,0.06800*%
%ADD21R,0.10544X0.10544*%
%ADD22C,0.10544*%
%ADD23C,0.06706*%
%ADD24R,0.06706X0.06706*%
%ADD25C,0.12611*%
%ADD26C,0.04737*%
D17*
X379961Y419291D02*
D03*
X396811D02*
D03*
X482323Y398917D02*
D03*
X499173D02*
D03*
X446890Y408917D02*
D03*
X463740D02*
D03*
X482323Y418917D02*
D03*
X499173D02*
D03*
X446890Y428917D02*
D03*
X463740D02*
D03*
X482323Y438917D02*
D03*
X499173D02*
D03*
X446890Y448917D02*
D03*
X463740D02*
D03*
X482323Y458917D02*
D03*
X499173D02*
D03*
X446890Y468917D02*
D03*
X463740D02*
D03*
X482323Y478917D02*
D03*
X499173D02*
D03*
X446890Y488917D02*
D03*
X463740D02*
D03*
X294449Y398917D02*
D03*
X277598D02*
D03*
X396811D02*
D03*
X379960D02*
D03*
X259016Y408917D02*
D03*
X242165D02*
D03*
X361378D02*
D03*
X344527D02*
D03*
X294449Y418917D02*
D03*
X277598D02*
D03*
X259016Y428917D02*
D03*
X242165D02*
D03*
X361378D02*
D03*
X344527D02*
D03*
X294449Y438917D02*
D03*
X277598D02*
D03*
X396811D02*
D03*
X379960D02*
D03*
X259016Y448917D02*
D03*
X242165D02*
D03*
X361378D02*
D03*
X344527D02*
D03*
X294449Y458917D02*
D03*
X277598D02*
D03*
X396811D02*
D03*
X379960D02*
D03*
X259016Y468917D02*
D03*
X242165D02*
D03*
X361378D02*
D03*
X344527D02*
D03*
X294449Y478917D02*
D03*
X277598D02*
D03*
X396811D02*
D03*
X379960D02*
D03*
X259016Y488917D02*
D03*
X242165D02*
D03*
X361378D02*
D03*
X344527D02*
D03*
X192087Y398917D02*
D03*
X175236D02*
D03*
X156653Y408917D02*
D03*
X139803D02*
D03*
X192087Y418917D02*
D03*
X175236D02*
D03*
X156653Y428917D02*
D03*
X139803D02*
D03*
X192087Y438917D02*
D03*
X175236D02*
D03*
X156653Y448917D02*
D03*
X139803D02*
D03*
X192087Y458917D02*
D03*
X175236D02*
D03*
X156653Y468917D02*
D03*
X139803D02*
D03*
X192087Y478917D02*
D03*
X175236D02*
D03*
X156653Y488917D02*
D03*
X139803D02*
D03*
D18*
X509842Y380709D02*
D03*
Y387008D02*
D03*
X304921Y381299D02*
D03*
Y387598D02*
D03*
X407283Y381299D02*
D03*
Y387598D02*
D03*
X202559Y381299D02*
D03*
Y387598D02*
D03*
D19*
X269094Y316713D02*
D03*
Y311713D02*
D03*
Y306713D02*
D03*
Y301713D02*
D03*
Y296713D02*
D03*
Y291713D02*
D03*
Y286713D02*
D03*
Y281713D02*
D03*
X250590Y316713D02*
D03*
Y311713D02*
D03*
Y306713D02*
D03*
Y301713D02*
D03*
Y296713D02*
D03*
Y291713D02*
D03*
Y286713D02*
D03*
Y281713D02*
D03*
X269094Y151358D02*
D03*
Y146358D02*
D03*
Y141358D02*
D03*
Y136358D02*
D03*
Y131358D02*
D03*
Y126358D02*
D03*
Y121358D02*
D03*
Y116358D02*
D03*
X250590Y151358D02*
D03*
Y146358D02*
D03*
Y141358D02*
D03*
Y136358D02*
D03*
Y131358D02*
D03*
Y126358D02*
D03*
Y121358D02*
D03*
Y116358D02*
D03*
X64370Y316713D02*
D03*
Y311713D02*
D03*
Y306713D02*
D03*
Y301713D02*
D03*
Y296713D02*
D03*
Y291713D02*
D03*
Y286713D02*
D03*
Y281713D02*
D03*
X45866Y316713D02*
D03*
Y311713D02*
D03*
Y306713D02*
D03*
Y301713D02*
D03*
Y296713D02*
D03*
Y291713D02*
D03*
Y286713D02*
D03*
Y281713D02*
D03*
X166732Y316713D02*
D03*
Y311713D02*
D03*
Y306713D02*
D03*
Y301713D02*
D03*
Y296713D02*
D03*
Y291713D02*
D03*
Y286713D02*
D03*
Y281713D02*
D03*
X148228Y316713D02*
D03*
Y311713D02*
D03*
Y306713D02*
D03*
Y301713D02*
D03*
Y296713D02*
D03*
Y291713D02*
D03*
Y286713D02*
D03*
Y281713D02*
D03*
X166732Y151358D02*
D03*
Y146358D02*
D03*
Y141358D02*
D03*
Y136358D02*
D03*
Y131358D02*
D03*
Y126358D02*
D03*
Y121358D02*
D03*
Y116358D02*
D03*
X148228Y151358D02*
D03*
Y146358D02*
D03*
Y141358D02*
D03*
Y136358D02*
D03*
Y131358D02*
D03*
Y126358D02*
D03*
Y121358D02*
D03*
Y116358D02*
D03*
X64370Y151358D02*
D03*
Y146358D02*
D03*
Y141358D02*
D03*
Y136358D02*
D03*
Y131358D02*
D03*
Y126358D02*
D03*
Y121358D02*
D03*
Y116358D02*
D03*
X45866Y151358D02*
D03*
Y146358D02*
D03*
Y141358D02*
D03*
Y136358D02*
D03*
Y131358D02*
D03*
Y126358D02*
D03*
Y121358D02*
D03*
Y116358D02*
D03*
X269094Y237972D02*
D03*
Y232972D02*
D03*
Y227972D02*
D03*
Y222972D02*
D03*
Y217972D02*
D03*
Y212972D02*
D03*
Y207972D02*
D03*
Y202972D02*
D03*
X250590Y237972D02*
D03*
Y232972D02*
D03*
Y227972D02*
D03*
Y222972D02*
D03*
Y217972D02*
D03*
Y212972D02*
D03*
Y207972D02*
D03*
Y202972D02*
D03*
X269094Y80492D02*
D03*
Y75492D02*
D03*
Y70492D02*
D03*
Y65492D02*
D03*
Y60492D02*
D03*
Y55492D02*
D03*
Y50492D02*
D03*
Y45492D02*
D03*
X250590Y80492D02*
D03*
Y75492D02*
D03*
Y70492D02*
D03*
Y65492D02*
D03*
Y60492D02*
D03*
Y55492D02*
D03*
Y50492D02*
D03*
Y45492D02*
D03*
X64370Y237972D02*
D03*
Y232972D02*
D03*
Y227972D02*
D03*
Y222972D02*
D03*
Y217972D02*
D03*
Y212972D02*
D03*
Y207972D02*
D03*
Y202972D02*
D03*
X45866Y237972D02*
D03*
Y232972D02*
D03*
Y227972D02*
D03*
Y222972D02*
D03*
Y217972D02*
D03*
Y212972D02*
D03*
Y207972D02*
D03*
Y202972D02*
D03*
X166732Y237972D02*
D03*
X166732Y232972D02*
D03*
X166732Y227972D02*
D03*
Y222972D02*
D03*
Y217972D02*
D03*
Y212972D02*
D03*
X166732Y207972D02*
D03*
X166732Y202972D02*
D03*
X148228Y237972D02*
D03*
X148228Y232972D02*
D03*
X148228Y227972D02*
D03*
Y222972D02*
D03*
Y217972D02*
D03*
Y212972D02*
D03*
X148228Y207972D02*
D03*
X148228Y202972D02*
D03*
X166732Y80492D02*
D03*
Y75492D02*
D03*
Y70492D02*
D03*
Y65492D02*
D03*
Y60492D02*
D03*
Y55492D02*
D03*
Y50492D02*
D03*
Y45492D02*
D03*
X148228Y80492D02*
D03*
Y75492D02*
D03*
Y70492D02*
D03*
Y65492D02*
D03*
Y60492D02*
D03*
Y55492D02*
D03*
Y50492D02*
D03*
Y45492D02*
D03*
X64370Y80492D02*
D03*
Y75492D02*
D03*
Y70492D02*
D03*
Y65492D02*
D03*
Y60492D02*
D03*
Y55492D02*
D03*
Y50492D02*
D03*
Y45492D02*
D03*
X45866Y80492D02*
D03*
Y75492D02*
D03*
Y70492D02*
D03*
Y65492D02*
D03*
Y60492D02*
D03*
Y55492D02*
D03*
Y50492D02*
D03*
Y45492D02*
D03*
X371457Y316713D02*
D03*
Y311713D02*
D03*
Y306713D02*
D03*
Y301713D02*
D03*
Y296713D02*
D03*
Y291713D02*
D03*
Y286713D02*
D03*
Y281713D02*
D03*
X352953Y316713D02*
D03*
Y311713D02*
D03*
Y306713D02*
D03*
Y301713D02*
D03*
Y296713D02*
D03*
Y291713D02*
D03*
Y286713D02*
D03*
Y281713D02*
D03*
X371457Y237972D02*
D03*
Y232972D02*
D03*
Y227972D02*
D03*
Y222972D02*
D03*
Y217972D02*
D03*
Y212972D02*
D03*
Y207972D02*
D03*
Y202972D02*
D03*
X352953Y237972D02*
D03*
Y232972D02*
D03*
Y227972D02*
D03*
Y222972D02*
D03*
Y217972D02*
D03*
Y212972D02*
D03*
Y207972D02*
D03*
Y202972D02*
D03*
X371457Y151358D02*
D03*
Y146358D02*
D03*
Y141358D02*
D03*
Y136358D02*
D03*
Y131358D02*
D03*
Y126358D02*
D03*
Y121358D02*
D03*
Y116358D02*
D03*
X352953Y151358D02*
D03*
Y146358D02*
D03*
Y141358D02*
D03*
Y136358D02*
D03*
Y131358D02*
D03*
Y126358D02*
D03*
Y121358D02*
D03*
Y116358D02*
D03*
X371457Y80492D02*
D03*
Y75492D02*
D03*
Y70492D02*
D03*
Y65492D02*
D03*
Y60492D02*
D03*
Y55492D02*
D03*
Y50492D02*
D03*
Y45492D02*
D03*
X352953Y80492D02*
D03*
Y75492D02*
D03*
Y70492D02*
D03*
Y65492D02*
D03*
Y60492D02*
D03*
Y55492D02*
D03*
Y50492D02*
D03*
Y45492D02*
D03*
X477756Y316713D02*
D03*
Y311713D02*
D03*
Y306713D02*
D03*
Y301713D02*
D03*
Y296713D02*
D03*
Y291713D02*
D03*
Y286713D02*
D03*
Y281713D02*
D03*
X459252Y316713D02*
D03*
Y311713D02*
D03*
Y306713D02*
D03*
Y301713D02*
D03*
Y296713D02*
D03*
Y291713D02*
D03*
Y286713D02*
D03*
Y281713D02*
D03*
X477756Y237972D02*
D03*
Y232972D02*
D03*
Y227972D02*
D03*
Y222972D02*
D03*
Y217972D02*
D03*
Y212972D02*
D03*
Y207972D02*
D03*
Y202972D02*
D03*
X459252Y237972D02*
D03*
Y232972D02*
D03*
Y227972D02*
D03*
Y222972D02*
D03*
Y217972D02*
D03*
Y212972D02*
D03*
Y207972D02*
D03*
Y202972D02*
D03*
X477756Y151358D02*
D03*
Y146358D02*
D03*
Y141358D02*
D03*
Y136358D02*
D03*
Y131358D02*
D03*
Y126358D02*
D03*
Y121358D02*
D03*
Y116358D02*
D03*
X459252Y151358D02*
D03*
Y146358D02*
D03*
Y141358D02*
D03*
Y136358D02*
D03*
Y131358D02*
D03*
Y126358D02*
D03*
Y121358D02*
D03*
Y116358D02*
D03*
X477756Y80492D02*
D03*
Y75492D02*
D03*
Y70492D02*
D03*
Y65492D02*
D03*
Y60492D02*
D03*
Y55492D02*
D03*
Y50492D02*
D03*
Y45492D02*
D03*
X459252Y80492D02*
D03*
Y75492D02*
D03*
Y70492D02*
D03*
Y65492D02*
D03*
Y60492D02*
D03*
Y55492D02*
D03*
Y50492D02*
D03*
Y45492D02*
D03*
D20*
X200787Y239173D02*
D03*
D21*
X39370Y574882D02*
D03*
X511811Y626063D02*
D03*
X511811Y574882D02*
D03*
X464567Y626063D02*
D03*
X464567Y574882D02*
D03*
Y523701D02*
D03*
X417323Y626063D02*
D03*
X417323Y574882D02*
D03*
Y523701D02*
D03*
X370079Y626063D02*
D03*
Y574882D02*
D03*
Y523701D02*
D03*
X322835Y626063D02*
D03*
X322835Y574882D02*
D03*
Y523701D02*
D03*
X275590Y626063D02*
D03*
Y574882D02*
D03*
Y523701D02*
D03*
X228346Y626063D02*
D03*
X228346Y574882D02*
D03*
Y523701D02*
D03*
X181102Y626063D02*
D03*
X181102Y574882D02*
D03*
Y523701D02*
D03*
X133858Y626063D02*
D03*
X133858Y574882D02*
D03*
Y523701D02*
D03*
X86614Y626063D02*
D03*
X86614Y574882D02*
D03*
Y523701D02*
D03*
X39370Y626063D02*
D03*
X39370Y523701D02*
D03*
X511811D02*
D03*
D22*
X39370Y590473D02*
D03*
X511811Y641653D02*
D03*
X511811Y590473D02*
D03*
X464567Y641653D02*
D03*
X464567Y590473D02*
D03*
Y539291D02*
D03*
X417323Y641653D02*
D03*
X417323Y590473D02*
D03*
Y539291D02*
D03*
X370079Y641653D02*
D03*
Y590473D02*
D03*
Y539291D02*
D03*
X322835Y641653D02*
D03*
X322835Y590473D02*
D03*
Y539291D02*
D03*
X275590Y641653D02*
D03*
Y590473D02*
D03*
Y539291D02*
D03*
X228346Y641653D02*
D03*
X228346Y590473D02*
D03*
Y539291D02*
D03*
X181102Y641653D02*
D03*
X181102Y590473D02*
D03*
Y539291D02*
D03*
X133858Y641653D02*
D03*
X133858Y590473D02*
D03*
Y539291D02*
D03*
X86614Y641653D02*
D03*
X86614Y590473D02*
D03*
Y539291D02*
D03*
X39370Y641653D02*
D03*
X39370Y539291D02*
D03*
X511811D02*
D03*
D23*
X523622Y342047D02*
D03*
Y352047D02*
D03*
Y362047D02*
D03*
X425787Y408917D02*
D03*
Y428917D02*
D03*
Y438917D02*
D03*
Y448917D02*
D03*
Y458917D02*
D03*
Y468917D02*
D03*
Y478917D02*
D03*
Y488917D02*
D03*
Y418917D02*
D03*
X118701D02*
D03*
Y488917D02*
D03*
Y478917D02*
D03*
Y468917D02*
D03*
Y458917D02*
D03*
Y448917D02*
D03*
Y438917D02*
D03*
Y428917D02*
D03*
Y408917D02*
D03*
X221063Y418917D02*
D03*
Y488917D02*
D03*
Y478917D02*
D03*
Y468917D02*
D03*
Y458917D02*
D03*
Y448917D02*
D03*
Y438917D02*
D03*
Y428917D02*
D03*
Y408917D02*
D03*
X323425Y418917D02*
D03*
Y488917D02*
D03*
Y478917D02*
D03*
Y468917D02*
D03*
Y458917D02*
D03*
Y448917D02*
D03*
Y438917D02*
D03*
Y428917D02*
D03*
Y408917D02*
D03*
X220472Y198976D02*
D03*
Y208976D02*
D03*
Y218976D02*
D03*
Y228976D02*
D03*
Y238976D02*
D03*
Y248976D02*
D03*
Y258976D02*
D03*
Y268976D02*
D03*
Y278976D02*
D03*
Y288976D02*
D03*
Y298976D02*
D03*
Y308976D02*
D03*
Y318976D02*
D03*
Y328976D02*
D03*
Y338976D02*
D03*
Y33622D02*
D03*
Y43622D02*
D03*
Y53622D02*
D03*
Y63622D02*
D03*
Y73622D02*
D03*
Y83622D02*
D03*
Y93622D02*
D03*
Y103622D02*
D03*
Y113622D02*
D03*
Y123622D02*
D03*
Y133622D02*
D03*
Y143622D02*
D03*
Y153622D02*
D03*
Y163622D02*
D03*
Y173622D02*
D03*
X15748Y198976D02*
D03*
Y208976D02*
D03*
Y218976D02*
D03*
Y228976D02*
D03*
Y238976D02*
D03*
Y248976D02*
D03*
Y258976D02*
D03*
Y268976D02*
D03*
Y278976D02*
D03*
Y288976D02*
D03*
Y298976D02*
D03*
Y308976D02*
D03*
Y318976D02*
D03*
Y328976D02*
D03*
Y338976D02*
D03*
X118110Y198976D02*
D03*
Y208976D02*
D03*
Y218976D02*
D03*
Y228976D02*
D03*
Y238976D02*
D03*
Y248976D02*
D03*
Y258976D02*
D03*
Y268976D02*
D03*
Y278976D02*
D03*
Y288976D02*
D03*
Y298976D02*
D03*
Y308976D02*
D03*
Y318976D02*
D03*
Y328976D02*
D03*
Y338976D02*
D03*
Y33622D02*
D03*
Y43622D02*
D03*
Y53622D02*
D03*
Y63622D02*
D03*
Y73622D02*
D03*
Y83622D02*
D03*
Y93622D02*
D03*
Y103622D02*
D03*
Y113622D02*
D03*
Y123622D02*
D03*
Y133622D02*
D03*
Y143622D02*
D03*
Y153622D02*
D03*
Y163622D02*
D03*
Y173622D02*
D03*
X15748Y33622D02*
D03*
Y43622D02*
D03*
Y53622D02*
D03*
Y63622D02*
D03*
Y73622D02*
D03*
Y83622D02*
D03*
Y93622D02*
D03*
Y103622D02*
D03*
Y113622D02*
D03*
Y123622D02*
D03*
Y133622D02*
D03*
Y143622D02*
D03*
Y153622D02*
D03*
Y163622D02*
D03*
Y173622D02*
D03*
X322835Y198976D02*
D03*
Y208976D02*
D03*
Y218976D02*
D03*
Y228976D02*
D03*
Y238976D02*
D03*
Y248976D02*
D03*
Y258976D02*
D03*
Y268976D02*
D03*
Y278976D02*
D03*
Y288976D02*
D03*
Y298976D02*
D03*
Y308976D02*
D03*
Y318976D02*
D03*
Y328976D02*
D03*
Y338976D02*
D03*
Y33622D02*
D03*
Y43622D02*
D03*
Y53622D02*
D03*
Y63622D02*
D03*
Y73622D02*
D03*
Y83622D02*
D03*
Y93622D02*
D03*
Y103622D02*
D03*
Y113622D02*
D03*
Y123622D02*
D03*
Y133622D02*
D03*
Y143622D02*
D03*
Y153622D02*
D03*
Y163622D02*
D03*
Y173622D02*
D03*
X425197Y198976D02*
D03*
Y208976D02*
D03*
Y218976D02*
D03*
Y228976D02*
D03*
Y238976D02*
D03*
Y248976D02*
D03*
Y258976D02*
D03*
Y268976D02*
D03*
Y278976D02*
D03*
Y288976D02*
D03*
Y298976D02*
D03*
Y308976D02*
D03*
Y318976D02*
D03*
Y328976D02*
D03*
Y338976D02*
D03*
Y33622D02*
D03*
Y43622D02*
D03*
Y53622D02*
D03*
Y63622D02*
D03*
Y73622D02*
D03*
Y83622D02*
D03*
Y93622D02*
D03*
Y103622D02*
D03*
Y113622D02*
D03*
Y123622D02*
D03*
Y133622D02*
D03*
Y143622D02*
D03*
Y153622D02*
D03*
Y163622D02*
D03*
Y173622D02*
D03*
X515748Y118740D02*
D03*
Y108740D02*
D03*
Y98740D02*
D03*
Y88740D02*
D03*
D24*
X523622Y372047D02*
D03*
X425787Y398917D02*
D03*
X118701D02*
D03*
X221063D02*
D03*
X323425D02*
D03*
X220472Y188976D02*
D03*
Y23622D02*
D03*
X15748Y188976D02*
D03*
X118110D02*
D03*
Y23622D02*
D03*
X15748D02*
D03*
X322835Y188976D02*
D03*
Y23622D02*
D03*
X425197Y188976D02*
D03*
Y23622D02*
D03*
X515748Y78740D02*
D03*
D25*
X511811Y31496D02*
D03*
X54368Y15748D02*
D03*
X15748Y610236D02*
D03*
X529528Y608268D02*
D03*
D26*
X176673Y13386D02*
D03*
X193110Y16043D02*
D03*
X139567Y93307D02*
D03*
X107579Y48228D02*
D03*
X80709Y313976D02*
D03*
X93504Y61024D02*
D03*
X92520Y72835D02*
D03*
X85630Y57087D02*
D03*
X97441Y36417D02*
D03*
X86614Y83661D02*
D03*
X75787Y116142D02*
D03*
X76772Y90551D02*
D03*
X79724Y125000D02*
D03*
Y147638D02*
D03*
X80709Y156496D02*
D03*
X78740Y201772D02*
D03*
X80709Y211614D02*
D03*
X81693Y235236D02*
D03*
X79724Y290354D02*
D03*
X74803Y243110D02*
D03*
X64370Y272244D02*
D03*
X241634Y93504D02*
D03*
X296555Y16043D02*
D03*
X280118Y13386D02*
D03*
X175197Y330709D02*
D03*
X166732Y272244D02*
D03*
X177165Y243110D02*
D03*
X182087Y290354D02*
D03*
X184055Y235236D02*
D03*
X183071Y211614D02*
D03*
X181102Y201772D02*
D03*
X183071Y156496D02*
D03*
X182087Y147638D02*
D03*
Y125000D02*
D03*
X179134Y90551D02*
D03*
X178149Y116142D02*
D03*
X188976Y83661D02*
D03*
X199803Y36417D02*
D03*
X187992Y57087D02*
D03*
X194882Y72835D02*
D03*
X195866Y61024D02*
D03*
X183071Y313976D02*
D03*
X209941Y48228D02*
D03*
X344390Y93110D02*
D03*
X381693Y12992D02*
D03*
X398130Y15650D02*
D03*
X312303Y48228D02*
D03*
X285433Y313976D02*
D03*
X298228Y61024D02*
D03*
X297244Y72835D02*
D03*
X290354Y57087D02*
D03*
X302165Y36417D02*
D03*
X291338Y83661D02*
D03*
X280512Y116142D02*
D03*
X281496Y90551D02*
D03*
X284449Y125000D02*
D03*
Y147638D02*
D03*
X285433Y156496D02*
D03*
X283465Y201772D02*
D03*
X285433Y211614D02*
D03*
X286417Y235236D02*
D03*
X284449Y290354D02*
D03*
X279527Y243110D02*
D03*
X269094Y272244D02*
D03*
X277559Y330709D02*
D03*
X379921Y330709D02*
D03*
X371457Y272244D02*
D03*
X381890Y243110D02*
D03*
X386811Y290354D02*
D03*
X388779Y235236D02*
D03*
X387795Y211614D02*
D03*
X385827Y201772D02*
D03*
X387795Y156496D02*
D03*
X386811Y147638D02*
D03*
Y125000D02*
D03*
X383858Y90551D02*
D03*
X382874Y116142D02*
D03*
X393701Y83661D02*
D03*
X414370Y48228D02*
D03*
X404528Y36417D02*
D03*
X392717Y57087D02*
D03*
X399606Y72835D02*
D03*
X400591Y61024D02*
D03*
X387795Y313976D02*
D03*
X500000D02*
D03*
D03*
X493110Y322835D02*
D03*
X489173Y284449D02*
D03*
X475394Y267717D02*
D03*
X489173Y246063D02*
D03*
X495079Y236221D02*
D03*
X478346Y189961D02*
D03*
X488189Y210630D02*
D03*
D03*
X500000Y156496D02*
D03*
X488189Y76772D02*
D03*
X493110Y146653D02*
D03*
X469488Y103347D02*
D03*
X488189Y124016D02*
D03*
Y83661D02*
D03*
X498032Y62008D02*
D03*
M02*
