G04*
G04 #@! TF.GenerationSoftware,Altium Limited,Altium Designer,18.0.9 (584)*
G04*
G04 Layer_Color=8421504*
%FSLAX25Y25*%
%MOIN*%
G70*
G01*
G75*
%ADD14R,0.09173X0.06142*%
%ADD15R,0.05118X0.03937*%
%ADD16O,0.07480X0.02362*%
D14*
X379961Y419291D02*
D03*
X396811D02*
D03*
X482323Y398917D02*
D03*
X499173D02*
D03*
X446890Y408917D02*
D03*
X463740D02*
D03*
X482323Y418917D02*
D03*
X499173D02*
D03*
X446890Y428917D02*
D03*
X463740D02*
D03*
X482323Y438917D02*
D03*
X499173D02*
D03*
X446890Y448917D02*
D03*
X463740D02*
D03*
X482323Y458917D02*
D03*
X499173D02*
D03*
X446890Y468917D02*
D03*
X463740D02*
D03*
X482323Y478917D02*
D03*
X499173D02*
D03*
X446890Y488917D02*
D03*
X463740D02*
D03*
X294449Y398917D02*
D03*
X277598D02*
D03*
X396811D02*
D03*
X379960D02*
D03*
X259016Y408917D02*
D03*
X242165D02*
D03*
X361378D02*
D03*
X344527D02*
D03*
X294449Y418917D02*
D03*
X277598D02*
D03*
X259016Y428917D02*
D03*
X242165D02*
D03*
X361378D02*
D03*
X344527D02*
D03*
X294449Y438917D02*
D03*
X277598D02*
D03*
X396811D02*
D03*
X379960D02*
D03*
X259016Y448917D02*
D03*
X242165D02*
D03*
X361378D02*
D03*
X344527D02*
D03*
X294449Y458917D02*
D03*
X277598D02*
D03*
X396811D02*
D03*
X379960D02*
D03*
X259016Y468917D02*
D03*
X242165D02*
D03*
X361378D02*
D03*
X344527D02*
D03*
X294449Y478917D02*
D03*
X277598D02*
D03*
X396811D02*
D03*
X379960D02*
D03*
X259016Y488917D02*
D03*
X242165D02*
D03*
X361378D02*
D03*
X344527D02*
D03*
X192087Y398917D02*
D03*
X175236D02*
D03*
X156653Y408917D02*
D03*
X139803D02*
D03*
X192087Y418917D02*
D03*
X175236D02*
D03*
X156653Y428917D02*
D03*
X139803D02*
D03*
X192087Y438917D02*
D03*
X175236D02*
D03*
X156653Y448917D02*
D03*
X139803D02*
D03*
X192087Y458917D02*
D03*
X175236D02*
D03*
X156653Y468917D02*
D03*
X139803D02*
D03*
X192087Y478917D02*
D03*
X175236D02*
D03*
X156653Y488917D02*
D03*
X139803D02*
D03*
D15*
X509842Y380709D02*
D03*
Y387008D02*
D03*
X304921Y381299D02*
D03*
Y387598D02*
D03*
X407283Y381299D02*
D03*
Y387598D02*
D03*
X202559Y381299D02*
D03*
Y387598D02*
D03*
D16*
X269094Y316713D02*
D03*
Y311713D02*
D03*
Y306713D02*
D03*
Y301713D02*
D03*
Y296713D02*
D03*
Y291713D02*
D03*
Y286713D02*
D03*
Y281713D02*
D03*
X250590Y316713D02*
D03*
Y311713D02*
D03*
Y306713D02*
D03*
Y301713D02*
D03*
Y296713D02*
D03*
Y291713D02*
D03*
Y286713D02*
D03*
Y281713D02*
D03*
X269094Y151358D02*
D03*
Y146358D02*
D03*
Y141358D02*
D03*
Y136358D02*
D03*
Y131358D02*
D03*
Y126358D02*
D03*
Y121358D02*
D03*
Y116358D02*
D03*
X250590Y151358D02*
D03*
Y146358D02*
D03*
Y141358D02*
D03*
Y136358D02*
D03*
Y131358D02*
D03*
Y126358D02*
D03*
Y121358D02*
D03*
Y116358D02*
D03*
X64370Y316713D02*
D03*
Y311713D02*
D03*
Y306713D02*
D03*
Y301713D02*
D03*
Y296713D02*
D03*
Y291713D02*
D03*
Y286713D02*
D03*
Y281713D02*
D03*
X45866Y316713D02*
D03*
Y311713D02*
D03*
Y306713D02*
D03*
Y301713D02*
D03*
Y296713D02*
D03*
Y291713D02*
D03*
Y286713D02*
D03*
Y281713D02*
D03*
X166732Y316713D02*
D03*
Y311713D02*
D03*
Y306713D02*
D03*
Y301713D02*
D03*
Y296713D02*
D03*
Y291713D02*
D03*
Y286713D02*
D03*
Y281713D02*
D03*
X148228Y316713D02*
D03*
Y311713D02*
D03*
Y306713D02*
D03*
Y301713D02*
D03*
Y296713D02*
D03*
Y291713D02*
D03*
Y286713D02*
D03*
Y281713D02*
D03*
X166732Y151358D02*
D03*
Y146358D02*
D03*
Y141358D02*
D03*
Y136358D02*
D03*
Y131358D02*
D03*
Y126358D02*
D03*
Y121358D02*
D03*
Y116358D02*
D03*
X148228Y151358D02*
D03*
Y146358D02*
D03*
Y141358D02*
D03*
Y136358D02*
D03*
Y131358D02*
D03*
Y126358D02*
D03*
Y121358D02*
D03*
Y116358D02*
D03*
X64370Y151358D02*
D03*
Y146358D02*
D03*
Y141358D02*
D03*
Y136358D02*
D03*
Y131358D02*
D03*
Y126358D02*
D03*
Y121358D02*
D03*
Y116358D02*
D03*
X45866Y151358D02*
D03*
Y146358D02*
D03*
Y141358D02*
D03*
Y136358D02*
D03*
Y131358D02*
D03*
Y126358D02*
D03*
Y121358D02*
D03*
Y116358D02*
D03*
X269094Y237972D02*
D03*
Y232972D02*
D03*
Y227972D02*
D03*
Y222972D02*
D03*
Y217972D02*
D03*
Y212972D02*
D03*
Y207972D02*
D03*
Y202972D02*
D03*
X250590Y237972D02*
D03*
Y232972D02*
D03*
Y227972D02*
D03*
Y222972D02*
D03*
Y217972D02*
D03*
Y212972D02*
D03*
Y207972D02*
D03*
Y202972D02*
D03*
X269094Y80492D02*
D03*
Y75492D02*
D03*
Y70492D02*
D03*
Y65492D02*
D03*
Y60492D02*
D03*
Y55492D02*
D03*
Y50492D02*
D03*
Y45492D02*
D03*
X250590Y80492D02*
D03*
Y75492D02*
D03*
Y70492D02*
D03*
Y65492D02*
D03*
Y60492D02*
D03*
Y55492D02*
D03*
Y50492D02*
D03*
Y45492D02*
D03*
X64370Y237972D02*
D03*
Y232972D02*
D03*
Y227972D02*
D03*
Y222972D02*
D03*
Y217972D02*
D03*
Y212972D02*
D03*
Y207972D02*
D03*
Y202972D02*
D03*
X45866Y237972D02*
D03*
Y232972D02*
D03*
Y227972D02*
D03*
Y222972D02*
D03*
Y217972D02*
D03*
Y212972D02*
D03*
Y207972D02*
D03*
Y202972D02*
D03*
X166732Y237972D02*
D03*
X166732Y232972D02*
D03*
X166732Y227972D02*
D03*
Y222972D02*
D03*
Y217972D02*
D03*
Y212972D02*
D03*
X166732Y207972D02*
D03*
X166732Y202972D02*
D03*
X148228Y237972D02*
D03*
X148228Y232972D02*
D03*
X148228Y227972D02*
D03*
Y222972D02*
D03*
Y217972D02*
D03*
Y212972D02*
D03*
X148228Y207972D02*
D03*
X148228Y202972D02*
D03*
X166732Y80492D02*
D03*
Y75492D02*
D03*
Y70492D02*
D03*
Y65492D02*
D03*
Y60492D02*
D03*
Y55492D02*
D03*
Y50492D02*
D03*
Y45492D02*
D03*
X148228Y80492D02*
D03*
Y75492D02*
D03*
Y70492D02*
D03*
Y65492D02*
D03*
Y60492D02*
D03*
Y55492D02*
D03*
Y50492D02*
D03*
Y45492D02*
D03*
X64370Y80492D02*
D03*
Y75492D02*
D03*
Y70492D02*
D03*
Y65492D02*
D03*
Y60492D02*
D03*
Y55492D02*
D03*
Y50492D02*
D03*
Y45492D02*
D03*
X45866Y80492D02*
D03*
Y75492D02*
D03*
Y70492D02*
D03*
Y65492D02*
D03*
Y60492D02*
D03*
Y55492D02*
D03*
Y50492D02*
D03*
Y45492D02*
D03*
X371457Y316713D02*
D03*
Y311713D02*
D03*
Y306713D02*
D03*
Y301713D02*
D03*
Y296713D02*
D03*
Y291713D02*
D03*
Y286713D02*
D03*
Y281713D02*
D03*
X352953Y316713D02*
D03*
Y311713D02*
D03*
Y306713D02*
D03*
Y301713D02*
D03*
Y296713D02*
D03*
Y291713D02*
D03*
Y286713D02*
D03*
Y281713D02*
D03*
X371457Y237972D02*
D03*
Y232972D02*
D03*
Y227972D02*
D03*
Y222972D02*
D03*
Y217972D02*
D03*
Y212972D02*
D03*
Y207972D02*
D03*
Y202972D02*
D03*
X352953Y237972D02*
D03*
Y232972D02*
D03*
Y227972D02*
D03*
Y222972D02*
D03*
Y217972D02*
D03*
Y212972D02*
D03*
Y207972D02*
D03*
Y202972D02*
D03*
X371457Y151358D02*
D03*
Y146358D02*
D03*
Y141358D02*
D03*
Y136358D02*
D03*
Y131358D02*
D03*
Y126358D02*
D03*
Y121358D02*
D03*
Y116358D02*
D03*
X352953Y151358D02*
D03*
Y146358D02*
D03*
Y141358D02*
D03*
Y136358D02*
D03*
Y131358D02*
D03*
Y126358D02*
D03*
Y121358D02*
D03*
Y116358D02*
D03*
X371457Y80492D02*
D03*
Y75492D02*
D03*
Y70492D02*
D03*
Y65492D02*
D03*
Y60492D02*
D03*
Y55492D02*
D03*
Y50492D02*
D03*
Y45492D02*
D03*
X352953Y80492D02*
D03*
Y75492D02*
D03*
Y70492D02*
D03*
Y65492D02*
D03*
Y60492D02*
D03*
Y55492D02*
D03*
Y50492D02*
D03*
Y45492D02*
D03*
X477756Y316713D02*
D03*
Y311713D02*
D03*
Y306713D02*
D03*
Y301713D02*
D03*
Y296713D02*
D03*
Y291713D02*
D03*
Y286713D02*
D03*
Y281713D02*
D03*
X459252Y316713D02*
D03*
Y311713D02*
D03*
Y306713D02*
D03*
Y301713D02*
D03*
Y296713D02*
D03*
Y291713D02*
D03*
Y286713D02*
D03*
Y281713D02*
D03*
X477756Y237972D02*
D03*
Y232972D02*
D03*
Y227972D02*
D03*
Y222972D02*
D03*
Y217972D02*
D03*
Y212972D02*
D03*
Y207972D02*
D03*
Y202972D02*
D03*
X459252Y237972D02*
D03*
Y232972D02*
D03*
Y227972D02*
D03*
Y222972D02*
D03*
Y217972D02*
D03*
Y212972D02*
D03*
Y207972D02*
D03*
Y202972D02*
D03*
X477756Y151358D02*
D03*
Y146358D02*
D03*
Y141358D02*
D03*
Y136358D02*
D03*
Y131358D02*
D03*
Y126358D02*
D03*
Y121358D02*
D03*
Y116358D02*
D03*
X459252Y151358D02*
D03*
Y146358D02*
D03*
Y141358D02*
D03*
Y136358D02*
D03*
Y131358D02*
D03*
Y126358D02*
D03*
Y121358D02*
D03*
Y116358D02*
D03*
X477756Y80492D02*
D03*
Y75492D02*
D03*
Y70492D02*
D03*
Y65492D02*
D03*
Y60492D02*
D03*
Y55492D02*
D03*
Y50492D02*
D03*
Y45492D02*
D03*
X459252Y80492D02*
D03*
Y75492D02*
D03*
Y70492D02*
D03*
Y65492D02*
D03*
Y60492D02*
D03*
Y55492D02*
D03*
Y50492D02*
D03*
Y45492D02*
D03*
M02*
