G04*
G04 #@! TF.GenerationSoftware,Altium Limited,Altium Designer,18.0.9 (584)*
G04*
G04 Layer_Color=16711935*
%FSLAX25Y25*%
%MOIN*%
G70*
G01*
G75*
%ADD40C,0.00394*%
D40*
X289764Y283071D02*
G03*
X289764Y283071I-1969J0D01*
G01*
Y117717D02*
G03*
X289764Y117717I-1969J0D01*
G01*
X494488Y283071D02*
G03*
X494488Y283071I-1969J0D01*
G01*
X392126D02*
G03*
X392126Y283071I-1969J0D01*
G01*
Y117717D02*
G03*
X392126Y117717I-1969J0D01*
G01*
X494488D02*
G03*
X494488Y117717I-1969J0D01*
G01*
X289764Y204331D02*
G03*
X289764Y204331I-1969J0D01*
G01*
Y46850D02*
G03*
X289764Y46850I-1969J0D01*
G01*
X494488Y204331D02*
G03*
X494488Y204331I-1969J0D01*
G01*
X392126D02*
G03*
X392126Y204331I-1969J0D01*
G01*
Y46850D02*
G03*
X392126Y46850I-1969J0D01*
G01*
X494488D02*
G03*
X494488Y46850I-1969J0D01*
G01*
X187402Y283071D02*
G03*
X187402Y283071I-1969J0D01*
G01*
Y204331D02*
G03*
X187402Y204331I-1969J0D01*
G01*
Y117717D02*
G03*
X187402Y117717I-1969J0D01*
G01*
Y46850D02*
G03*
X187402Y46850I-1969J0D01*
G01*
X81102Y283071D02*
G03*
X81102Y283071I-1969J0D01*
G01*
Y204331D02*
G03*
X81102Y204331I-1969J0D01*
G01*
Y117717D02*
G03*
X81102Y117717I-1969J0D01*
G01*
Y46850D02*
G03*
X81102Y46850I-1969J0D01*
G01*
X30709Y379626D02*
Y388090D01*
X36220Y379626D02*
Y388090D01*
X30709Y379626D02*
X36220D01*
X30709Y388090D02*
X36220D01*
X235630Y380217D02*
Y388681D01*
X241142Y380217D02*
Y388681D01*
X235630Y380217D02*
X241142D01*
X235630Y388681D02*
X241142D01*
X133268Y380217D02*
Y388681D01*
X138779Y380217D02*
Y388681D01*
X133268Y380217D02*
X138779D01*
X133268Y388681D02*
X138779D01*
X337992Y380217D02*
Y388681D01*
X343504Y380217D02*
Y388681D01*
X337992Y380217D02*
X343504D01*
X337992Y388681D02*
X343504D01*
X275591Y318898D02*
X291339D01*
X275591Y279528D02*
X291339D01*
X275591D02*
Y318898D01*
X291339Y279528D02*
Y318898D01*
X275591Y153543D02*
X291339D01*
X275591Y114173D02*
X291339D01*
X275591D02*
Y153543D01*
X291339Y114173D02*
Y153543D01*
X480315Y318898D02*
X496063D01*
X480315Y279528D02*
X496063D01*
X480315D02*
Y318898D01*
X496063Y279528D02*
Y318898D01*
X377953D02*
X393701D01*
X377953Y279528D02*
X393701D01*
X377953D02*
Y318898D01*
X393701Y279528D02*
Y318898D01*
X377953Y153543D02*
X393701D01*
X377953Y114173D02*
X393701D01*
X377953D02*
Y153543D01*
X393701Y114173D02*
Y153543D01*
X480315D02*
X496063D01*
X480315Y114173D02*
X496063D01*
X480315D02*
Y153543D01*
X496063Y114173D02*
Y153543D01*
X275591Y240158D02*
X291339D01*
X275591Y200787D02*
X291339D01*
X275591D02*
Y240158D01*
X291339Y200787D02*
Y240158D01*
X275591Y82677D02*
X291339D01*
X275591Y43307D02*
X291339D01*
X275591D02*
Y82677D01*
X291339Y43307D02*
Y82677D01*
X480315Y240158D02*
X496063D01*
X480315Y200787D02*
X496063D01*
X480315D02*
Y240158D01*
X496063Y200787D02*
Y240158D01*
X377953D02*
X393701D01*
X377953Y200787D02*
X393701D01*
X377953D02*
Y240158D01*
X393701Y200787D02*
Y240158D01*
X377953Y82677D02*
X393701D01*
X377953Y43307D02*
X393701D01*
X377953D02*
Y82677D01*
X393701Y43307D02*
Y82677D01*
X480315D02*
X496063D01*
X480315Y43307D02*
X496063D01*
X480315D02*
Y82677D01*
X496063Y43307D02*
Y82677D01*
X173228Y318898D02*
X188976D01*
X173228Y279528D02*
X188976D01*
X173228D02*
Y318898D01*
X188976Y279528D02*
Y318898D01*
X173228Y240158D02*
X188976D01*
X173228Y200787D02*
X188976D01*
X173228D02*
Y240158D01*
X188976Y200787D02*
Y240158D01*
X173228Y153543D02*
X188976D01*
X173228Y114173D02*
X188976D01*
X173228D02*
Y153543D01*
X188976Y114173D02*
Y153543D01*
X173228Y82677D02*
X188976D01*
X173228Y43307D02*
X188976D01*
X173228D02*
Y82677D01*
X188976Y43307D02*
Y82677D01*
X66929Y318898D02*
X82677D01*
X66929Y279528D02*
X82677D01*
X66929D02*
Y318898D01*
X82677Y279528D02*
Y318898D01*
X66929Y240158D02*
X82677D01*
X66929Y200787D02*
X82677D01*
X66929D02*
Y240158D01*
X82677Y200787D02*
Y240158D01*
X66929Y153543D02*
X82677D01*
X66929Y114173D02*
X82677D01*
X66929D02*
Y153543D01*
X82677Y114173D02*
Y153543D01*
X66929Y82677D02*
X82677D01*
X66929Y43307D02*
X82677D01*
X66929D02*
Y82677D01*
X82677Y43307D02*
Y82677D01*
M02*
