G04*
G04 #@! TF.GenerationSoftware,Altium Limited,Altium Designer,18.0.9 (584)*
G04*
G04 Layer_Color=0*
%FSLAX25Y25*%
%MOIN*%
G70*
G01*
G75*
%ADD41C,0.00197*%
D41*
X488386Y566221D02*
X523819D01*
X488386D02*
Y599134D01*
X523819D01*
Y566221D02*
Y599134D01*
X15945Y617402D02*
X51378D01*
X15945D02*
Y650315D01*
X51378D01*
Y617402D02*
Y650315D01*
X15945Y566221D02*
X51378D01*
X15945D02*
Y599134D01*
X51378D01*
Y566221D02*
Y599134D01*
X63189Y617402D02*
X98622D01*
X63189D02*
Y650315D01*
X98622D01*
Y617402D02*
Y650315D01*
X63189Y566221D02*
X98622D01*
X63189D02*
Y599134D01*
X98622D01*
Y566221D02*
Y599134D01*
X63189Y515039D02*
X98622D01*
X63189D02*
Y547953D01*
X98622D01*
Y515039D02*
Y547953D01*
X110433Y617402D02*
X145866D01*
X110433D02*
Y650315D01*
X145866D01*
Y617402D02*
Y650315D01*
X110433Y566221D02*
X145866D01*
X110433D02*
Y599134D01*
X145866D01*
Y566221D02*
Y599134D01*
X110433Y515039D02*
X145866D01*
X110433D02*
Y547953D01*
X145866D01*
Y515039D02*
Y547953D01*
X157677Y617402D02*
X193110D01*
X157677D02*
Y650315D01*
X193110D01*
Y617402D02*
Y650315D01*
X157677Y566221D02*
X193110D01*
X157677D02*
Y599134D01*
X193110D01*
Y566221D02*
Y599134D01*
X157677Y515039D02*
X193110D01*
X157677D02*
Y547953D01*
X193110D01*
Y515039D02*
Y547953D01*
X204921Y617402D02*
X240354D01*
X204921D02*
Y650315D01*
X240354D01*
Y617402D02*
Y650315D01*
X204921Y566221D02*
X240354D01*
X204921D02*
Y599134D01*
X240354D01*
Y566221D02*
Y599134D01*
X204921Y515039D02*
X240354D01*
X204921D02*
Y547953D01*
X240354D01*
Y515039D02*
Y547953D01*
X252165Y617402D02*
X287598D01*
X252165D02*
Y650315D01*
X287598D01*
Y617402D02*
Y650315D01*
X252165Y566221D02*
X287598D01*
X252165D02*
Y599134D01*
X287598D01*
Y566221D02*
Y599134D01*
X252165Y515039D02*
X287598D01*
X252165D02*
Y547953D01*
X287598D01*
Y515039D02*
Y547953D01*
X299410Y617402D02*
X334842D01*
X299410D02*
Y650315D01*
X334842D01*
Y617402D02*
Y650315D01*
X299410Y566221D02*
X334842D01*
X299410D02*
Y599134D01*
X334842D01*
Y566221D02*
Y599134D01*
X299410Y515039D02*
X334842D01*
X299410D02*
Y547953D01*
X334842D01*
Y515039D02*
Y547953D01*
X346654Y617402D02*
X382087D01*
X346654D02*
Y650315D01*
X382087D01*
Y617402D02*
Y650315D01*
X346654Y566221D02*
X382087D01*
X346654D02*
Y599134D01*
X382087D01*
Y566221D02*
Y599134D01*
X346654Y515039D02*
X382087D01*
X346654D02*
Y547953D01*
X382087D01*
Y515039D02*
Y547953D01*
X393898Y617402D02*
X429331D01*
X393898D02*
Y650315D01*
X429331D01*
Y617402D02*
Y650315D01*
X393898Y566221D02*
X429331D01*
X393898D02*
Y599134D01*
X429331D01*
Y566221D02*
Y599134D01*
X393898Y515039D02*
X429331D01*
X393898D02*
Y547953D01*
X429331D01*
Y515039D02*
Y547953D01*
X441142Y617402D02*
X476575D01*
X441142D02*
Y650315D01*
X476575D01*
Y617402D02*
Y650315D01*
X441142Y566221D02*
X476575D01*
X441142D02*
Y599134D01*
X476575D01*
Y566221D02*
Y599134D01*
X441142Y515039D02*
X476575D01*
X441142D02*
Y547953D01*
X476575D01*
Y515039D02*
Y547953D01*
X488386Y617402D02*
X523819D01*
X488386D02*
Y650315D01*
X523819D01*
Y617402D02*
Y650315D01*
X488386Y515039D02*
X523819D01*
X488386D02*
Y547953D01*
X523819D01*
Y515039D02*
Y547953D01*
X15945Y515039D02*
X51378D01*
X15945D02*
Y547953D01*
X51378D01*
Y515039D02*
Y547953D01*
X168917Y412500D02*
Y426083D01*
X140925Y412500D02*
X168917D01*
X140925D02*
Y426083D01*
X168917D01*
X38563Y392126D02*
X66555D01*
Y405709D01*
X38563D02*
X66555D01*
X38563Y392126D02*
Y405709D01*
X73996Y402126D02*
X101988D01*
Y415709D01*
X73996D02*
X101988D01*
X73996Y402126D02*
Y415709D01*
X38563Y412126D02*
X66555D01*
Y425709D01*
X38563D02*
X66555D01*
X38563Y412126D02*
Y425709D01*
X73996Y422126D02*
X101988D01*
Y435709D01*
X73996D02*
X101988D01*
X73996Y422126D02*
Y435709D01*
X38563Y432126D02*
X66555D01*
Y445709D01*
X38563D02*
X66555D01*
X38563Y432126D02*
Y445709D01*
X73996Y442126D02*
X101988D01*
Y455709D01*
X73996D02*
X101988D01*
X73996Y442126D02*
Y455709D01*
X38563Y452126D02*
X66555D01*
Y465709D01*
X38563D02*
X66555D01*
X38563Y452126D02*
Y465709D01*
X73996Y462126D02*
X101988D01*
Y475709D01*
X73996D02*
X101988D01*
X73996Y462126D02*
Y475709D01*
X38563Y472126D02*
X66555D01*
Y485709D01*
X38563D02*
X66555D01*
X38563Y472126D02*
Y485709D01*
X73996Y482126D02*
X101988D01*
Y495709D01*
X73996D02*
X101988D01*
X73996Y482126D02*
Y495709D01*
X243287Y392126D02*
Y405709D01*
X271280D01*
Y392126D02*
Y405709D01*
X243287Y392126D02*
X271280D01*
X140925D02*
Y405709D01*
X168917D01*
Y392126D02*
Y405709D01*
X140925Y392126D02*
X168917D01*
X278721Y402126D02*
Y415709D01*
X306713D01*
Y402126D02*
Y415709D01*
X278721Y402126D02*
X306713D01*
X176358D02*
Y415709D01*
X204350D01*
Y402126D02*
Y415709D01*
X176358Y402126D02*
X204350D01*
X243287Y412126D02*
Y425709D01*
X271280D01*
Y412126D02*
Y425709D01*
X243287Y412126D02*
X271280D01*
X278721Y422126D02*
Y435709D01*
X306713D01*
Y422126D02*
Y435709D01*
X278721Y422126D02*
X306713D01*
X176358D02*
Y435709D01*
X204350D01*
Y422126D02*
Y435709D01*
X176358Y422126D02*
X204350D01*
X243287Y432126D02*
Y445709D01*
X271280D01*
Y432126D02*
Y445709D01*
X243287Y432126D02*
X271280D01*
X140925D02*
Y445709D01*
X168917D01*
Y432126D02*
Y445709D01*
X140925Y432126D02*
X168917D01*
X278721Y442126D02*
Y455709D01*
X306713D01*
Y442126D02*
Y455709D01*
X278721Y442126D02*
X306713D01*
X176358D02*
Y455709D01*
X204350D01*
Y442126D02*
Y455709D01*
X176358Y442126D02*
X204350D01*
X243287Y452126D02*
Y465709D01*
X271280D01*
Y452126D02*
Y465709D01*
X243287Y452126D02*
X271280D01*
X140925D02*
Y465709D01*
X168917D01*
Y452126D02*
Y465709D01*
X140925Y452126D02*
X168917D01*
X278721Y462126D02*
Y475709D01*
X306713D01*
Y462126D02*
Y475709D01*
X278721Y462126D02*
X306713D01*
X176358D02*
Y475709D01*
X204350D01*
Y462126D02*
Y475709D01*
X176358Y462126D02*
X204350D01*
X243287Y472126D02*
Y485709D01*
X271280D01*
Y472126D02*
Y485709D01*
X243287Y472126D02*
X271280D01*
X140925D02*
Y485709D01*
X168917D01*
Y472126D02*
Y485709D01*
X140925Y472126D02*
X168917D01*
X278721Y482126D02*
Y495709D01*
X306713D01*
Y482126D02*
Y495709D01*
X278721Y482126D02*
X306713D01*
X176358D02*
Y495709D01*
X204350D01*
Y482126D02*
Y495709D01*
X176358Y482126D02*
X204350D01*
X345650Y392126D02*
Y405709D01*
X373642D01*
Y392126D02*
Y405709D01*
X345650Y392126D02*
X373642D01*
X381083Y402126D02*
Y415709D01*
X409075D01*
Y402126D02*
Y415709D01*
X381083Y402126D02*
X409075D01*
X345650Y412126D02*
Y425709D01*
X373642D01*
Y412126D02*
Y425709D01*
X345650Y412126D02*
X373642D01*
X381083Y422126D02*
Y435709D01*
X409075D01*
Y422126D02*
Y435709D01*
X381083Y422126D02*
X409075D01*
X345650Y432126D02*
Y445709D01*
X373642D01*
Y432126D02*
Y445709D01*
X345650Y432126D02*
X373642D01*
X381083Y442126D02*
Y455709D01*
X409075D01*
Y442126D02*
Y455709D01*
X381083Y442126D02*
X409075D01*
X345650Y452126D02*
Y465709D01*
X373642D01*
Y452126D02*
Y465709D01*
X345650Y452126D02*
X373642D01*
X381083Y462126D02*
Y475709D01*
X409075D01*
Y462126D02*
Y475709D01*
X381083Y462126D02*
X409075D01*
X345650Y472126D02*
Y485709D01*
X373642D01*
Y472126D02*
Y485709D01*
X345650Y472126D02*
X373642D01*
X381083Y482126D02*
Y495709D01*
X409075D01*
Y482126D02*
Y495709D01*
X381083Y482126D02*
X409075D01*
M02*
