G04*
G04 #@! TF.GenerationSoftware,Altium Limited,Altium Designer,18.0.9 (584)*
G04*
G04 Layer_Physical_Order=1*
G04 Layer_Color=255*
%FSLAX25Y25*%
%MOIN*%
G70*
G01*
G75*
%ADD10R,0.05906X0.05512*%
%ADD11R,0.05512X0.05906*%
%ADD12C,0.03937*%
%ADD13C,0.00000*%
%ADD14R,0.05906X0.06299*%
%ADD15R,0.04331X0.05512*%
%ADD16R,0.07677X0.03937*%
%ADD17C,0.03543*%
%ADD18C,0.06000*%
%ADD19R,0.05906X0.05906*%
%ADD20C,0.05906*%
G36*
X59055Y0D02*
X0D01*
Y41900D01*
X500Y42147D01*
X1157Y41642D01*
X2498Y41087D01*
X3347Y40975D01*
Y40157D01*
X4283D01*
Y15748D01*
X4473Y14309D01*
X5028Y12968D01*
X5911Y11817D01*
X9849Y7880D01*
X11000Y6996D01*
X12341Y6441D01*
X13189Y6329D01*
Y5315D01*
X26181D01*
Y9063D01*
X26681Y9233D01*
X26866Y8992D01*
X27692Y8358D01*
X28653Y7960D01*
X29185Y7890D01*
Y11811D01*
Y15732D01*
X28653Y15662D01*
X27692Y15264D01*
X26866Y14630D01*
X26681Y14389D01*
X26181Y14559D01*
Y18307D01*
X15402D01*
Y36893D01*
X15778Y37222D01*
X16260Y37159D01*
X16586Y37202D01*
X16839Y36590D01*
X17722Y35439D01*
X18416Y34745D01*
X18677Y34315D01*
X18043Y33490D01*
X17645Y32528D01*
X17575Y31996D01*
X21496D01*
Y31496D01*
X21996D01*
Y27575D01*
X22528Y27645D01*
X23490Y28043D01*
X24315Y28677D01*
X24500Y28918D01*
X25000Y28748D01*
Y25000D01*
X37992D01*
Y37992D01*
X36728D01*
X36311Y39000D01*
X35427Y40152D01*
X33378Y42201D01*
X33480Y42701D01*
X33480D01*
Y45957D01*
X29528D01*
Y46957D01*
X33480D01*
Y48031D01*
X36024D01*
Y48771D01*
X42717D01*
Y40157D01*
X43653D01*
Y27500D01*
X35754Y19600D01*
X34870Y18449D01*
X34315Y17108D01*
X34126Y15669D01*
Y15191D01*
X33654Y14309D01*
X33562Y14005D01*
X33024Y13953D01*
X32504Y14630D01*
X31679Y15264D01*
X30717Y15662D01*
X30185Y15732D01*
Y11811D01*
Y7890D01*
X30717Y7960D01*
X31679Y8358D01*
X32504Y8992D01*
X33024Y9669D01*
X33562Y9617D01*
X33654Y9313D01*
X34258Y8185D01*
X35069Y7195D01*
X36059Y6384D01*
X37187Y5780D01*
X38412Y5409D01*
X39685Y5283D01*
X40958Y5409D01*
X42183Y5780D01*
X43312Y6384D01*
X44301Y7195D01*
X45112Y8185D01*
X45716Y9313D01*
X46087Y10538D01*
X46213Y11811D01*
X46087Y13084D01*
X45825Y13947D01*
X53144Y21266D01*
X53144Y21266D01*
X54027Y22417D01*
X54583Y23758D01*
X54772Y25197D01*
Y40157D01*
X55709D01*
Y48031D01*
Y60630D01*
X42717D01*
Y59890D01*
X36024D01*
Y60626D01*
X36311Y61000D01*
X36866Y62341D01*
X37055Y63779D01*
Y65551D01*
X37992D01*
Y72561D01*
X38120Y72578D01*
X39413Y73113D01*
X40523Y73965D01*
X41375Y75076D01*
X41910Y76368D01*
X42093Y77756D01*
X41910Y79143D01*
X41375Y80436D01*
X40523Y81547D01*
X39413Y82398D01*
X38120Y82934D01*
X36732Y83117D01*
X36614Y83220D01*
Y92323D01*
X16142D01*
Y81244D01*
X16052Y81126D01*
X15496Y79785D01*
X15307Y78347D01*
Y77607D01*
X11024D01*
X9585Y77417D01*
X8244Y76862D01*
X7092Y75978D01*
X462Y69348D01*
X0Y69539D01*
Y122047D01*
X59055D01*
Y0D01*
D02*
G37*
%LPC*%
G36*
X26378Y120518D02*
X24526Y120336D01*
X22745Y119795D01*
X21103Y118918D01*
X19664Y117737D01*
X18484Y116298D01*
X17606Y114657D01*
X17066Y112876D01*
X16883Y111024D01*
X17066Y109171D01*
X17606Y107390D01*
X18484Y105749D01*
X19664Y104310D01*
X21103Y103129D01*
X22745Y102252D01*
X24526Y101711D01*
X26378Y101529D01*
X28230Y101711D01*
X30011Y102252D01*
X31653Y103129D01*
X33092Y104310D01*
X34272Y105749D01*
X35150Y107390D01*
X35690Y109171D01*
X35873Y111024D01*
X35690Y112876D01*
X35150Y114657D01*
X34272Y116298D01*
X33092Y117737D01*
X31653Y118918D01*
X30011Y119795D01*
X28230Y120336D01*
X26378Y120518D01*
D02*
G37*
G36*
X20996Y30996D02*
X17575D01*
X17645Y30464D01*
X18043Y29503D01*
X18677Y28677D01*
X19503Y28043D01*
X20464Y27645D01*
X20996Y27575D01*
Y30996D01*
D02*
G37*
%LPD*%
D10*
X9843Y46457D02*
D03*
Y54331D02*
D03*
X29528Y46457D02*
D03*
Y54331D02*
D03*
X49213D02*
D03*
Y46457D02*
D03*
D11*
X30315Y85827D02*
D03*
X22441D02*
D03*
D12*
X19291Y52362D02*
X21654Y50000D01*
X19291Y52362D02*
Y52756D01*
X17717Y54331D02*
X19291Y52756D01*
X9843Y54331D02*
X17717D01*
X21654Y39370D02*
Y50000D01*
Y39370D02*
X22441Y38583D01*
X29134D01*
X11024Y72047D02*
X21496D01*
X2756Y63779D02*
X11024Y72047D01*
X2756Y47638D02*
Y63779D01*
Y47638D02*
X3937Y46457D01*
X9843D01*
X49213Y25197D02*
Y46457D01*
X39685Y15669D02*
X49213Y25197D01*
X39685Y11811D02*
Y15669D01*
X29528Y54331D02*
X49213D01*
X30315Y78740D02*
Y85827D01*
Y78740D02*
X31496Y77559D01*
Y72047D02*
Y77559D01*
X22441Y79921D02*
Y85827D01*
X20866Y78347D02*
X22441Y79921D01*
X20866Y72441D02*
Y78347D01*
X29134Y38583D02*
X31496Y36220D01*
Y31496D02*
Y36220D01*
X9843Y15748D02*
Y46457D01*
Y15748D02*
X13780Y11811D01*
X19685D01*
X31496Y63779D02*
Y72047D01*
X29528Y61811D02*
X31496Y63779D01*
X29528Y54331D02*
Y61811D01*
D13*
X30315Y85827D02*
X31496Y84646D01*
D14*
X19882Y29528D02*
D03*
D15*
X30118Y15748D02*
D03*
D16*
X32185Y46063D02*
D03*
D17*
X16260Y42520D02*
D03*
X36732Y77756D02*
D03*
D18*
X26378Y111024D02*
D03*
D19*
X31496Y72047D02*
D03*
Y31496D02*
D03*
X19685Y11811D02*
D03*
D20*
X21496Y72047D02*
D03*
Y31496D02*
D03*
X29685Y11811D02*
D03*
X39685D02*
D03*
M02*
