G04*
G04 #@! TF.GenerationSoftware,Altium Limited,Altium Designer,18.0.9 (584)*
G04*
G04 Layer_Color=255*
%FSLAX25Y25*%
%MOIN*%
G70*
G01*
G75*
%ADD15R,0.03937X0.05118*%
%ADD16R,0.19685X0.39370*%
%ADD17R,0.09173X0.06142*%
%ADD18R,0.08268X0.16535*%
%ADD19R,0.05906X0.05512*%
%ADD20R,0.16535X0.08268*%
%ADD36R,0.09744X0.09744*%
%ADD37C,0.09744*%
%ADD38R,0.07874X0.05512*%
%ADD39O,0.07874X0.05512*%
%ADD40R,0.05622X0.05622*%
%ADD41C,0.05622*%
%ADD42C,0.13055*%
D15*
X157677Y15748D02*
D03*
X151378D02*
D03*
X139961D02*
D03*
X133661D02*
D03*
D16*
X15335Y86721D02*
D03*
X55335D02*
D03*
D17*
X123071Y31791D02*
D03*
X139921D02*
D03*
D18*
X60000Y40567D02*
D03*
Y11433D02*
D03*
D19*
X172835Y27854D02*
D03*
Y19980D02*
D03*
D20*
X81398Y82382D02*
D03*
X110531D02*
D03*
D36*
X18701Y26496D02*
D03*
D37*
Y10905D02*
D03*
D38*
X101500Y38886D02*
D03*
D39*
Y32193D02*
D03*
Y25500D02*
D03*
Y18807D02*
D03*
Y12114D02*
D03*
D40*
X134488Y91929D02*
D03*
D41*
Y82087D02*
D03*
Y74213D02*
D03*
Y64370D02*
D03*
D42*
X145158Y104016D02*
D03*
Y52284D02*
D03*
M02*
