G04*
G04 #@! TF.GenerationSoftware,Altium Limited,Altium Designer,18.0.9 (584)*
G04*
G04 Layer_Color=16711935*
%FSLAX25Y25*%
%MOIN*%
G70*
G01*
G75*
%ADD44C,0.00394*%
D44*
X158760Y12992D02*
Y18504D01*
X150295Y12992D02*
Y18504D01*
Y12992D02*
X158760D01*
X150295Y18504D02*
X158760D01*
X90476Y4634D02*
X109768D01*
X92445D02*
Y46366D01*
X90476D02*
X109768D01*
Y4634D02*
Y46366D01*
X90476Y4634D02*
Y46366D01*
X100398Y27508D02*
X102602D01*
X100398Y23492D02*
X102602D01*
X100398D02*
Y27508D01*
X102602Y23492D02*
Y27508D01*
X100398Y34201D02*
X102602D01*
X100398Y30185D02*
X102602D01*
X100398D02*
Y34201D01*
X102602Y30185D02*
Y34201D01*
X100398Y40894D02*
X102602D01*
X100398Y36878D02*
X102602D01*
X100398D02*
Y40894D01*
X102602Y36878D02*
Y40894D01*
X100398Y20815D02*
X102602D01*
X100398Y16799D02*
X102602D01*
X100398D02*
Y20815D01*
X102602Y16799D02*
Y20815D01*
X100398Y14122D02*
X102602D01*
X100398Y10106D02*
X102602D01*
X100398D02*
Y14122D01*
X102602Y10106D02*
Y14122D01*
X132579Y12992D02*
X141043D01*
X132579Y18504D02*
X141043D01*
Y12992D02*
Y18504D01*
X132579Y12992D02*
Y18504D01*
X170079Y28150D02*
X175591D01*
X170079Y19685D02*
X175591D01*
Y28150D01*
X170079Y19685D02*
Y28150D01*
M02*
