G04*
G04 #@! TF.GenerationSoftware,Altium Limited,Altium Designer,18.0.9 (584)*
G04*
G04 Layer_Physical_Order=2*
G04 Layer_Color=16711680*
%FSLAX44Y44*%
%MOMM*%
G71*
G01*
G75*
%ADD10R,1.3000X1.0000*%
%ADD11R,1.0000X1.3000*%
%ADD12O,0.6000X1.9000*%
%ADD13C,1.0000*%
%ADD14C,0.7000*%
%ADD15C,0.6000*%
%ADD16C,1.5000*%
%ADD17R,1.5000X1.5000*%
%ADD18R,1.5000X1.5000*%
%ADD19R,2.0000X1.4000*%
%ADD20O,2.0000X1.4000*%
%ADD21C,1.6000*%
%ADD22R,1.6000X1.6000*%
%ADD23C,3.8000*%
%ADD24C,1.5240*%
G36*
X895000Y1928000D02*
X535000D01*
Y2228000D01*
X895000D01*
Y1928000D01*
D02*
G37*
G36*
X897000Y1573000D02*
X537000D01*
Y1873000D01*
X897000D01*
Y1573000D01*
D02*
G37*
G36*
X888000Y1182000D02*
X528000D01*
Y1482000D01*
X888000D01*
Y1182000D01*
D02*
G37*
G36*
X890000Y797000D02*
X530000D01*
Y1097000D01*
X890000D01*
Y797000D01*
D02*
G37*
G36*
X901000Y400000D02*
X541000D01*
Y700000D01*
X901000D01*
Y400000D01*
D02*
G37*
G36*
X900000Y13000D02*
X540000D01*
Y313000D01*
X900000D01*
Y13000D01*
D02*
G37*
G36*
X360000Y0D02*
X0D01*
Y300000D01*
X360000D01*
Y0D01*
D02*
G37*
%LPC*%
G36*
X568106Y2189111D02*
Y2168862D01*
X588355D01*
X588064Y2171815D01*
X586833Y2175875D01*
X584832Y2179617D01*
X582141Y2182897D01*
X578861Y2185589D01*
X575119Y2187589D01*
X571059Y2188820D01*
X568106Y2189111D01*
D02*
G37*
G36*
X565566D02*
X562613Y2188820D01*
X558553Y2187589D01*
X554811Y2185589D01*
X551531Y2182897D01*
X548839Y2179617D01*
X546839Y2175875D01*
X545608Y2171815D01*
X545317Y2168862D01*
X565566D01*
Y2189111D01*
D02*
G37*
G36*
X642950Y2225267D02*
X640010Y2224977D01*
X637182Y2224119D01*
X634576Y2222726D01*
X632292Y2220852D01*
X632292Y2220852D01*
X611878Y2200438D01*
X610004Y2198154D01*
X608611Y2195548D01*
X607753Y2192720D01*
X607463Y2189780D01*
Y2153652D01*
X605826Y2151657D01*
X604681Y2149515D01*
X603440Y2149247D01*
X602851Y2149699D01*
X600287Y2150761D01*
X598806Y2150956D01*
Y2140492D01*
Y2130028D01*
X600287Y2130223D01*
X602851Y2131285D01*
X603440Y2131737D01*
X604681Y2131469D01*
X605826Y2129327D01*
X608325Y2126281D01*
X611371Y2123782D01*
X614845Y2121925D01*
X618615Y2120781D01*
X622536Y2120395D01*
X626457Y2120781D01*
X630227Y2121925D01*
X632536Y2123159D01*
X634845Y2121925D01*
X636123Y2121537D01*
X650673Y2106987D01*
X650364Y2105755D01*
X649882Y2105609D01*
X647276Y2104216D01*
X644992Y2102342D01*
X643118Y2100058D01*
X641725Y2097452D01*
X640867Y2094624D01*
X640577Y2091684D01*
X640867Y2088743D01*
X641725Y2085916D01*
X643118Y2083310D01*
X644992Y2081026D01*
X666678Y2059340D01*
X665913Y2058309D01*
X663148Y2059787D01*
X659473Y2060902D01*
X655650Y2061278D01*
X651827Y2060902D01*
X648152Y2059787D01*
X644764Y2057976D01*
X641795Y2055539D01*
X639358Y2052570D01*
X637547Y2049182D01*
X636432Y2045507D01*
X636056Y2041684D01*
X636432Y2037861D01*
X637547Y2034186D01*
X639358Y2030798D01*
X641795Y2027829D01*
X644764Y2025392D01*
X648152Y2023581D01*
X651827Y2022466D01*
X655650Y2022090D01*
X659473Y2022466D01*
X663148Y2023581D01*
X666536Y2025392D01*
X669505Y2027829D01*
X671942Y2030798D01*
X673753Y2034186D01*
X674868Y2037861D01*
X675244Y2041684D01*
X674868Y2045507D01*
X673753Y2049182D01*
X672275Y2051947D01*
X673306Y2052712D01*
X711394Y2014624D01*
X712566Y2013662D01*
X712112Y2012392D01*
X704340D01*
X703161Y2012750D01*
X699338Y2013126D01*
X695515Y2012750D01*
X691840Y2011635D01*
X688452Y2009824D01*
X685483Y2007387D01*
X683046Y2004418D01*
X681235Y2001030D01*
X680120Y1997355D01*
X679744Y1993532D01*
X680120Y1989709D01*
X680486Y1988505D01*
X679838Y1987632D01*
X679838D01*
Y1948632D01*
X718838D01*
Y1978228D01*
X765886D01*
X769219Y1978556D01*
X772423Y1979528D01*
X775376Y1981107D01*
X777965Y1983231D01*
X779705Y1985351D01*
X781220Y1985506D01*
X782152Y1984370D01*
X784436Y1982496D01*
X787042Y1981103D01*
X789870Y1980245D01*
X792810Y1979955D01*
X795751Y1980245D01*
X798578Y1981103D01*
X799160Y1981414D01*
X799742Y1981103D01*
X802570Y1980245D01*
X805510Y1979955D01*
X808450Y1980245D01*
X811278Y1981103D01*
X812552Y1981784D01*
X823926D01*
X827259Y1982112D01*
X830463Y1983084D01*
X833416Y1984663D01*
X834371Y1985446D01*
X862006D01*
Y1996788D01*
X871183Y2005965D01*
X873307Y2008554D01*
X874886Y2011507D01*
X875858Y2014711D01*
X876186Y2018044D01*
Y2051824D01*
X875858Y2055157D01*
X875550Y2056171D01*
Y2155312D01*
X875222Y2158645D01*
X874250Y2161849D01*
X873904Y2162497D01*
X873858Y2162963D01*
X872743Y2166638D01*
X870932Y2170026D01*
X868495Y2172995D01*
X865526Y2175432D01*
X862139Y2177243D01*
X858463Y2178358D01*
X854640Y2178734D01*
X850817Y2178358D01*
X847142Y2177243D01*
X843754Y2175432D01*
X840785Y2172995D01*
X838348Y2170026D01*
X836537Y2166638D01*
X835422Y2162963D01*
X835046Y2159140D01*
X835422Y2155317D01*
X835860Y2153874D01*
X834737Y2153201D01*
X816719Y2171219D01*
X814130Y2173343D01*
X811177Y2174922D01*
X807973Y2175894D01*
X804640Y2176222D01*
X800684D01*
X797351Y2175894D01*
X794147Y2174922D01*
X791194Y2173343D01*
X788605Y2171219D01*
X779701Y2162315D01*
X778528Y2162801D01*
Y2181942D01*
X750479D01*
Y2201812D01*
X750189Y2204753D01*
X749331Y2207580D01*
X747938Y2210186D01*
X746064Y2212470D01*
X746064Y2212470D01*
X737682Y2220852D01*
X735398Y2222726D01*
X732792Y2224119D01*
X729965Y2224977D01*
X727024Y2225267D01*
X642950D01*
X642950Y2225267D01*
D02*
G37*
G36*
X588355Y2166322D02*
X568106D01*
Y2146073D01*
X571059Y2146364D01*
X575119Y2147595D01*
X578861Y2149595D01*
X582141Y2152287D01*
X584832Y2155567D01*
X586833Y2159309D01*
X588064Y2163369D01*
X588355Y2166322D01*
D02*
G37*
G36*
X565566D02*
X545317D01*
X545608Y2163369D01*
X546839Y2159309D01*
X548839Y2155567D01*
X551531Y2152287D01*
X554811Y2149595D01*
X558553Y2147595D01*
X562613Y2146364D01*
X565566Y2146073D01*
Y2166322D01*
D02*
G37*
G36*
X596266Y2150956D02*
X594784Y2150761D01*
X592220Y2149699D01*
X590019Y2148009D01*
X588329Y2145807D01*
X587267Y2143244D01*
X587072Y2141762D01*
X596266D01*
Y2150956D01*
D02*
G37*
G36*
Y2139222D02*
X587072D01*
X587267Y2137741D01*
X588329Y2135177D01*
X590019Y2132975D01*
X592220Y2131285D01*
X594784Y2130223D01*
X596266Y2130028D01*
Y2139222D01*
D02*
G37*
G36*
X597426Y2122506D02*
X558426D01*
Y2112599D01*
X557156Y2111955D01*
X555147Y2112788D01*
X553796Y2112965D01*
Y2103006D01*
Y2093047D01*
X555147Y2093224D01*
X557156Y2094057D01*
X558426Y2093413D01*
Y2083506D01*
X597426D01*
Y2122506D01*
D02*
G37*
G36*
X551256Y2112965D02*
X549905Y2112788D01*
X547463Y2111776D01*
X545365Y2110167D01*
X543756Y2108069D01*
X542744Y2105627D01*
X542567Y2104276D01*
X551256D01*
Y2112965D01*
D02*
G37*
G36*
Y2101736D02*
X542567D01*
X542744Y2100385D01*
X543756Y2097943D01*
X545365Y2095845D01*
X547463Y2094236D01*
X549905Y2093224D01*
X551256Y2093047D01*
Y2101736D01*
D02*
G37*
G36*
X595720Y2055930D02*
X551720D01*
Y2020863D01*
X551628Y2019930D01*
X551720Y2018997D01*
Y2017930D01*
X551825D01*
X551995Y2016205D01*
X553081Y2012624D01*
X554846Y2009323D01*
X557220Y2006430D01*
X560113Y2004056D01*
X561078Y2003540D01*
Y2002320D01*
X560113Y2001804D01*
X557220Y1999430D01*
X554846Y1996537D01*
X553081Y1993236D01*
X551995Y1989655D01*
X551628Y1985930D01*
X551995Y1982205D01*
X553081Y1978624D01*
X554846Y1975323D01*
X557220Y1972430D01*
X560113Y1970056D01*
X561171Y1969490D01*
X561098Y1968930D01*
X561426Y1966440D01*
X562387Y1964119D01*
X563916Y1962126D01*
X565909Y1960597D01*
X568229Y1959636D01*
X570720Y1959308D01*
X576720D01*
X579210Y1959636D01*
X581531Y1960597D01*
X583524Y1962126D01*
X585053Y1964119D01*
X586014Y1966440D01*
X586342Y1968930D01*
X586269Y1969490D01*
X587327Y1970056D01*
X590220Y1972430D01*
X592594Y1975323D01*
X594359Y1978624D01*
X595445Y1982205D01*
X595812Y1985930D01*
X595445Y1989655D01*
X594359Y1993236D01*
X592594Y1996537D01*
X590220Y1999430D01*
X587327Y2001804D01*
X586362Y2002320D01*
Y2003540D01*
X587327Y2004056D01*
X590220Y2006430D01*
X592594Y2009323D01*
X594359Y2012624D01*
X595445Y2016205D01*
X595615Y2017930D01*
X595720D01*
Y2018997D01*
X595812Y2019930D01*
X595720Y2020863D01*
Y2055930D01*
D02*
G37*
%LPD*%
G36*
X720333Y2173324D02*
X719063Y2173136D01*
X718232Y2175875D01*
X716232Y2179617D01*
X713541Y2182897D01*
X710261Y2185589D01*
X706519Y2187589D01*
X702458Y2188820D01*
X699506Y2189111D01*
Y2167592D01*
Y2146073D01*
X702458Y2146364D01*
X706519Y2147595D01*
X710261Y2149595D01*
X713541Y2152287D01*
X716232Y2155567D01*
X718232Y2159309D01*
X719063Y2162048D01*
X720333Y2161860D01*
Y2122766D01*
X719160Y2122280D01*
X716092Y2125348D01*
X713808Y2127222D01*
X711202Y2128615D01*
X708374Y2129473D01*
X705434Y2129763D01*
X687536D01*
Y2147652D01*
X688625Y2148305D01*
X689953Y2147595D01*
X694013Y2146364D01*
X696966Y2146073D01*
Y2166322D01*
X676717D01*
X677008Y2163369D01*
X677571Y2161512D01*
X676814Y2160492D01*
X647536D01*
X647536Y2160492D01*
X646266Y2160221D01*
X642536Y2160589D01*
X638879Y2160228D01*
X637730Y2160859D01*
X637608Y2160949D01*
Y2183537D01*
X649193Y2195121D01*
X720333D01*
Y2173324D01*
D02*
G37*
%LPC*%
G36*
X696966Y2189111D02*
X694013Y2188820D01*
X689953Y2187589D01*
X686211Y2185589D01*
X682931Y2182897D01*
X680239Y2179617D01*
X678239Y2175875D01*
X677008Y2171815D01*
X676717Y2168862D01*
X696966D01*
Y2189111D01*
D02*
G37*
G36*
X570106Y1834111D02*
Y1813862D01*
X590355D01*
X590064Y1816815D01*
X588833Y1820875D01*
X586832Y1824617D01*
X584141Y1827897D01*
X580861Y1830589D01*
X577119Y1832589D01*
X573059Y1833820D01*
X570106Y1834111D01*
D02*
G37*
G36*
X567566D02*
X564613Y1833820D01*
X560553Y1832589D01*
X556811Y1830589D01*
X553531Y1827897D01*
X550839Y1824617D01*
X548839Y1820875D01*
X547608Y1816815D01*
X547317Y1813862D01*
X567566D01*
Y1834111D01*
D02*
G37*
G36*
X644950Y1870267D02*
X642010Y1869977D01*
X639182Y1869119D01*
X636576Y1867726D01*
X634292Y1865852D01*
X634292Y1865852D01*
X613878Y1845438D01*
X612004Y1843154D01*
X610611Y1840548D01*
X609753Y1837720D01*
X609463Y1834780D01*
Y1798652D01*
X607826Y1796657D01*
X606681Y1794515D01*
X605440Y1794247D01*
X604851Y1794699D01*
X602287Y1795761D01*
X600806Y1795956D01*
Y1785492D01*
Y1775028D01*
X602287Y1775223D01*
X604851Y1776285D01*
X605440Y1776737D01*
X606681Y1776469D01*
X607826Y1774327D01*
X610325Y1771281D01*
X613371Y1768782D01*
X616845Y1766925D01*
X620615Y1765781D01*
X624536Y1765395D01*
X628457Y1765781D01*
X632227Y1766925D01*
X634536Y1768159D01*
X636845Y1766925D01*
X638123Y1766537D01*
X652673Y1751987D01*
X652364Y1750755D01*
X651882Y1750609D01*
X649276Y1749216D01*
X646992Y1747342D01*
X645118Y1745058D01*
X643725Y1742452D01*
X642867Y1739624D01*
X642578Y1736684D01*
X642867Y1733743D01*
X643725Y1730916D01*
X645118Y1728310D01*
X646992Y1726026D01*
X668678Y1704340D01*
X667913Y1703309D01*
X665148Y1704787D01*
X661473Y1705902D01*
X657650Y1706278D01*
X653827Y1705902D01*
X650152Y1704787D01*
X646764Y1702976D01*
X643795Y1700539D01*
X641358Y1697570D01*
X639547Y1694182D01*
X638432Y1690507D01*
X638056Y1686684D01*
X638432Y1682861D01*
X639547Y1679186D01*
X641358Y1675798D01*
X643795Y1672829D01*
X646764Y1670392D01*
X650152Y1668581D01*
X653827Y1667466D01*
X657650Y1667090D01*
X661473Y1667466D01*
X665148Y1668581D01*
X668536Y1670392D01*
X671505Y1672829D01*
X673942Y1675798D01*
X675753Y1679186D01*
X676868Y1682861D01*
X677244Y1686684D01*
X676868Y1690507D01*
X675753Y1694182D01*
X674275Y1696947D01*
X675306Y1697712D01*
X713394Y1659624D01*
X714566Y1658662D01*
X714112Y1657392D01*
X706340D01*
X705161Y1657750D01*
X701338Y1658126D01*
X697515Y1657750D01*
X693840Y1656635D01*
X690452Y1654824D01*
X687483Y1652387D01*
X685046Y1649418D01*
X683235Y1646030D01*
X682120Y1642355D01*
X681744Y1638532D01*
X682120Y1634709D01*
X682486Y1633505D01*
X681838Y1632632D01*
X681838D01*
Y1593632D01*
X720838D01*
Y1623228D01*
X767886D01*
X771219Y1623556D01*
X774423Y1624528D01*
X777376Y1626107D01*
X779965Y1628231D01*
X781704Y1630351D01*
X783220Y1630506D01*
X784152Y1629370D01*
X786436Y1627496D01*
X789042Y1626103D01*
X791870Y1625245D01*
X794810Y1624955D01*
X797750Y1625245D01*
X800578Y1626103D01*
X801160Y1626414D01*
X801742Y1626103D01*
X804569Y1625245D01*
X807510Y1624955D01*
X810451Y1625245D01*
X813278Y1626103D01*
X814552Y1626784D01*
X825926D01*
X829259Y1627112D01*
X832463Y1628084D01*
X835416Y1629663D01*
X836371Y1630446D01*
X864006D01*
Y1641788D01*
X873183Y1650965D01*
X875307Y1653554D01*
X876886Y1656507D01*
X877858Y1659711D01*
X878186Y1663044D01*
Y1696824D01*
X877858Y1700157D01*
X877550Y1701171D01*
Y1800312D01*
X877222Y1803645D01*
X876250Y1806849D01*
X875904Y1807497D01*
X875858Y1807963D01*
X874743Y1811638D01*
X872932Y1815026D01*
X870495Y1817995D01*
X867526Y1820432D01*
X864138Y1822243D01*
X860463Y1823358D01*
X856640Y1823734D01*
X852817Y1823358D01*
X849142Y1822243D01*
X845754Y1820432D01*
X842785Y1817995D01*
X840348Y1815026D01*
X838537Y1811638D01*
X837422Y1807963D01*
X837046Y1804140D01*
X837422Y1800317D01*
X837860Y1798874D01*
X836737Y1798201D01*
X818719Y1816219D01*
X816130Y1818343D01*
X813177Y1819922D01*
X809973Y1820894D01*
X806640Y1821222D01*
X802684D01*
X799351Y1820894D01*
X796147Y1819922D01*
X793194Y1818343D01*
X790605Y1816219D01*
X781701Y1807315D01*
X780528Y1807801D01*
Y1826942D01*
X752479D01*
Y1846812D01*
X752189Y1849753D01*
X751331Y1852580D01*
X749938Y1855186D01*
X748064Y1857470D01*
X748064Y1857470D01*
X739682Y1865852D01*
X737398Y1867726D01*
X734792Y1869119D01*
X731964Y1869977D01*
X729024Y1870267D01*
X644950D01*
X644950Y1870267D01*
D02*
G37*
G36*
X590355Y1811322D02*
X570106D01*
Y1791073D01*
X573059Y1791364D01*
X577119Y1792595D01*
X580861Y1794595D01*
X584141Y1797287D01*
X586832Y1800567D01*
X588833Y1804309D01*
X590064Y1808369D01*
X590355Y1811322D01*
D02*
G37*
G36*
X567566D02*
X547317D01*
X547608Y1808369D01*
X548839Y1804309D01*
X550839Y1800567D01*
X553531Y1797287D01*
X556811Y1794595D01*
X560553Y1792595D01*
X564613Y1791364D01*
X567566Y1791073D01*
Y1811322D01*
D02*
G37*
G36*
X598266Y1795956D02*
X596784Y1795761D01*
X594220Y1794699D01*
X592019Y1793009D01*
X590329Y1790807D01*
X589267Y1788244D01*
X589072Y1786762D01*
X598266D01*
Y1795956D01*
D02*
G37*
G36*
Y1784222D02*
X589072D01*
X589267Y1782741D01*
X590329Y1780177D01*
X592019Y1777975D01*
X594220Y1776285D01*
X596784Y1775223D01*
X598266Y1775028D01*
Y1784222D01*
D02*
G37*
G36*
X599426Y1767506D02*
X560426D01*
Y1757599D01*
X559156Y1756955D01*
X557147Y1757788D01*
X555796Y1757965D01*
Y1748006D01*
Y1738047D01*
X557147Y1738224D01*
X559156Y1739057D01*
X560426Y1738413D01*
Y1728506D01*
X599426D01*
Y1767506D01*
D02*
G37*
G36*
X553256Y1757965D02*
X551905Y1757788D01*
X549463Y1756776D01*
X547365Y1755167D01*
X545756Y1753069D01*
X544744Y1750627D01*
X544567Y1749276D01*
X553256D01*
Y1757965D01*
D02*
G37*
G36*
Y1746736D02*
X544567D01*
X544744Y1745385D01*
X545756Y1742943D01*
X547365Y1740845D01*
X549463Y1739236D01*
X551905Y1738224D01*
X553256Y1738047D01*
Y1746736D01*
D02*
G37*
G36*
X597720Y1700930D02*
X553720D01*
Y1665863D01*
X553628Y1664930D01*
X553720Y1663997D01*
Y1662930D01*
X553825D01*
X553995Y1661205D01*
X555081Y1657624D01*
X556846Y1654323D01*
X559220Y1651430D01*
X562113Y1649056D01*
X563078Y1648540D01*
Y1647320D01*
X562113Y1646804D01*
X559220Y1644430D01*
X556846Y1641537D01*
X555081Y1638236D01*
X553995Y1634655D01*
X553628Y1630930D01*
X553995Y1627205D01*
X555081Y1623624D01*
X556846Y1620323D01*
X559220Y1617430D01*
X562113Y1615056D01*
X563171Y1614490D01*
X563098Y1613930D01*
X563425Y1611440D01*
X564387Y1609119D01*
X565916Y1607126D01*
X567909Y1605597D01*
X570229Y1604636D01*
X572720Y1604308D01*
X578720D01*
X581210Y1604636D01*
X583531Y1605597D01*
X585524Y1607126D01*
X587053Y1609119D01*
X588014Y1611440D01*
X588342Y1613930D01*
X588269Y1614490D01*
X589327Y1615056D01*
X592220Y1617430D01*
X594594Y1620323D01*
X596359Y1623624D01*
X597445Y1627205D01*
X597812Y1630930D01*
X597445Y1634655D01*
X596359Y1638236D01*
X594594Y1641537D01*
X592220Y1644430D01*
X589327Y1646804D01*
X588362Y1647320D01*
Y1648540D01*
X589327Y1649056D01*
X592220Y1651430D01*
X594594Y1654323D01*
X596359Y1657624D01*
X597445Y1661205D01*
X597615Y1662930D01*
X597720D01*
Y1663997D01*
X597812Y1664930D01*
X597720Y1665863D01*
Y1700930D01*
D02*
G37*
%LPD*%
G36*
X722334Y1818324D02*
X721064Y1818136D01*
X720232Y1820875D01*
X718232Y1824617D01*
X715541Y1827897D01*
X712261Y1830589D01*
X708519Y1832589D01*
X704458Y1833820D01*
X701506Y1834111D01*
Y1812592D01*
Y1791073D01*
X704458Y1791364D01*
X708519Y1792595D01*
X712261Y1794595D01*
X715541Y1797287D01*
X718232Y1800567D01*
X720232Y1804309D01*
X721064Y1807048D01*
X722334Y1806860D01*
Y1767766D01*
X721160Y1767280D01*
X718092Y1770348D01*
X715808Y1772222D01*
X713202Y1773615D01*
X710375Y1774473D01*
X707434Y1774763D01*
X689536D01*
Y1792652D01*
X690625Y1793305D01*
X691953Y1792595D01*
X696013Y1791364D01*
X698966Y1791073D01*
Y1811322D01*
X678717D01*
X679008Y1808369D01*
X679571Y1806512D01*
X678814Y1805492D01*
X649536D01*
X649536Y1805492D01*
X648266Y1805221D01*
X644536Y1805589D01*
X640879Y1805228D01*
X639730Y1805859D01*
X639608Y1805949D01*
Y1828537D01*
X651193Y1840121D01*
X722334D01*
Y1818324D01*
D02*
G37*
%LPC*%
G36*
X698966Y1834111D02*
X696013Y1833820D01*
X691953Y1832589D01*
X688211Y1830589D01*
X684931Y1827897D01*
X682239Y1824617D01*
X680239Y1820875D01*
X679008Y1816815D01*
X678717Y1813862D01*
X698966D01*
Y1834111D01*
D02*
G37*
G36*
X561106Y1443111D02*
Y1422862D01*
X581355D01*
X581064Y1425815D01*
X579832Y1429875D01*
X577832Y1433617D01*
X575141Y1436897D01*
X571861Y1439588D01*
X568119Y1441589D01*
X564058Y1442820D01*
X561106Y1443111D01*
D02*
G37*
G36*
X558566D02*
X555613Y1442820D01*
X551553Y1441589D01*
X547811Y1439588D01*
X544531Y1436897D01*
X541839Y1433617D01*
X539839Y1429875D01*
X538608Y1425815D01*
X538317Y1422862D01*
X558566D01*
Y1443111D01*
D02*
G37*
G36*
X635950Y1479267D02*
X633009Y1478977D01*
X630182Y1478119D01*
X627576Y1476726D01*
X625292Y1474852D01*
X625292Y1474852D01*
X604878Y1454438D01*
X603004Y1452154D01*
X601611Y1449548D01*
X600753Y1446720D01*
X600463Y1443780D01*
Y1407652D01*
X598826Y1405657D01*
X597681Y1403515D01*
X596440Y1403247D01*
X595851Y1403699D01*
X593287Y1404761D01*
X591806Y1404956D01*
Y1394492D01*
Y1384028D01*
X593287Y1384223D01*
X595851Y1385285D01*
X596440Y1385737D01*
X597681Y1385469D01*
X598826Y1383327D01*
X601325Y1380281D01*
X604371Y1377782D01*
X607845Y1375925D01*
X611615Y1374781D01*
X615536Y1374395D01*
X619457Y1374781D01*
X623227Y1375925D01*
X625536Y1377159D01*
X627845Y1375925D01*
X629123Y1375538D01*
X643673Y1360987D01*
X643364Y1359756D01*
X642882Y1359609D01*
X640276Y1358216D01*
X637992Y1356342D01*
X636118Y1354058D01*
X634725Y1351452D01*
X633867Y1348625D01*
X633577Y1345684D01*
X633867Y1342744D01*
X634725Y1339916D01*
X636118Y1337310D01*
X637992Y1335026D01*
X659678Y1313340D01*
X658913Y1312309D01*
X656148Y1313787D01*
X652473Y1314902D01*
X648650Y1315278D01*
X644827Y1314902D01*
X641152Y1313787D01*
X637764Y1311976D01*
X634795Y1309539D01*
X632358Y1306570D01*
X630547Y1303182D01*
X629432Y1299507D01*
X629056Y1295684D01*
X629432Y1291861D01*
X630547Y1288186D01*
X632358Y1284798D01*
X634795Y1281829D01*
X637764Y1279392D01*
X641152Y1277581D01*
X644827Y1276466D01*
X648650Y1276090D01*
X652473Y1276466D01*
X656148Y1277581D01*
X659536Y1279392D01*
X662505Y1281829D01*
X664942Y1284798D01*
X666753Y1288186D01*
X667868Y1291861D01*
X668244Y1295684D01*
X667868Y1299507D01*
X666753Y1303182D01*
X665275Y1305947D01*
X666306Y1306712D01*
X704394Y1268624D01*
X705566Y1267662D01*
X705112Y1266392D01*
X697340D01*
X696161Y1266750D01*
X692338Y1267126D01*
X688515Y1266750D01*
X684840Y1265635D01*
X681452Y1263824D01*
X678483Y1261387D01*
X676046Y1258418D01*
X674235Y1255030D01*
X673120Y1251355D01*
X672744Y1247532D01*
X673120Y1243709D01*
X673485Y1242505D01*
X672838Y1241632D01*
X672838D01*
Y1202632D01*
X711838D01*
Y1232228D01*
X758886D01*
X762219Y1232556D01*
X765423Y1233528D01*
X768376Y1235107D01*
X770965Y1237231D01*
X772704Y1239351D01*
X774220Y1239506D01*
X775152Y1238370D01*
X777436Y1236496D01*
X780042Y1235103D01*
X782869Y1234245D01*
X785810Y1233955D01*
X788751Y1234245D01*
X791578Y1235103D01*
X792160Y1235414D01*
X792742Y1235103D01*
X795570Y1234245D01*
X798510Y1233955D01*
X801451Y1234245D01*
X804278Y1235103D01*
X805552Y1235784D01*
X816926D01*
X820259Y1236112D01*
X823463Y1237084D01*
X826416Y1238663D01*
X827371Y1239446D01*
X855006D01*
Y1250788D01*
X864183Y1259965D01*
X866307Y1262554D01*
X867886Y1265507D01*
X868858Y1268711D01*
X869186Y1272044D01*
Y1305824D01*
X868858Y1309157D01*
X868550Y1310171D01*
Y1409312D01*
X868222Y1412645D01*
X867250Y1415849D01*
X866904Y1416497D01*
X866858Y1416963D01*
X865743Y1420638D01*
X863932Y1424026D01*
X861495Y1426995D01*
X858526Y1429432D01*
X855138Y1431243D01*
X851463Y1432358D01*
X847640Y1432734D01*
X843817Y1432358D01*
X840142Y1431243D01*
X836754Y1429432D01*
X833785Y1426995D01*
X831348Y1424026D01*
X829537Y1420638D01*
X828422Y1416963D01*
X828046Y1413140D01*
X828422Y1409317D01*
X828860Y1407874D01*
X827737Y1407201D01*
X809719Y1425219D01*
X807130Y1427343D01*
X804177Y1428922D01*
X800973Y1429894D01*
X797640Y1430222D01*
X793684D01*
X790351Y1429894D01*
X787147Y1428922D01*
X784194Y1427343D01*
X781605Y1425219D01*
X772701Y1416315D01*
X771528Y1416801D01*
Y1435942D01*
X743479D01*
Y1455812D01*
X743189Y1458752D01*
X742331Y1461580D01*
X740938Y1464186D01*
X739064Y1466470D01*
X739064Y1466470D01*
X730682Y1474852D01*
X728398Y1476726D01*
X725792Y1478119D01*
X722964Y1478977D01*
X720024Y1479267D01*
X635950D01*
X635950Y1479267D01*
D02*
G37*
G36*
X581355Y1420322D02*
X561106D01*
Y1400073D01*
X564058Y1400364D01*
X568119Y1401595D01*
X571861Y1403595D01*
X575141Y1406287D01*
X577832Y1409567D01*
X579832Y1413309D01*
X581064Y1417369D01*
X581355Y1420322D01*
D02*
G37*
G36*
X558566D02*
X538317D01*
X538608Y1417369D01*
X539839Y1413309D01*
X541839Y1409567D01*
X544531Y1406287D01*
X547811Y1403595D01*
X551553Y1401595D01*
X555613Y1400364D01*
X558566Y1400073D01*
Y1420322D01*
D02*
G37*
G36*
X589266Y1404956D02*
X587784Y1404761D01*
X585220Y1403699D01*
X583019Y1402009D01*
X581329Y1399807D01*
X580267Y1397243D01*
X580072Y1395762D01*
X589266D01*
Y1404956D01*
D02*
G37*
G36*
Y1393222D02*
X580072D01*
X580267Y1391741D01*
X581329Y1389177D01*
X583019Y1386975D01*
X585220Y1385285D01*
X587784Y1384223D01*
X589266Y1384028D01*
Y1393222D01*
D02*
G37*
G36*
X590426Y1376506D02*
X551426D01*
Y1366599D01*
X550156Y1365955D01*
X548147Y1366788D01*
X546796Y1366965D01*
Y1357006D01*
Y1347047D01*
X548147Y1347224D01*
X550156Y1348057D01*
X551426Y1347413D01*
Y1337506D01*
X590426D01*
Y1376506D01*
D02*
G37*
G36*
X544256Y1366965D02*
X542905Y1366788D01*
X540463Y1365776D01*
X538365Y1364167D01*
X536756Y1362069D01*
X535744Y1359627D01*
X535567Y1358276D01*
X544256D01*
Y1366965D01*
D02*
G37*
G36*
Y1355736D02*
X535567D01*
X535744Y1354385D01*
X536756Y1351943D01*
X538365Y1349845D01*
X540463Y1348236D01*
X542905Y1347224D01*
X544256Y1347047D01*
Y1355736D01*
D02*
G37*
G36*
X588720Y1309930D02*
X544720D01*
Y1274863D01*
X544628Y1273930D01*
X544720Y1272997D01*
Y1271930D01*
X544825D01*
X544995Y1270205D01*
X546081Y1266624D01*
X547846Y1263323D01*
X550220Y1260430D01*
X553113Y1258056D01*
X554078Y1257540D01*
Y1256320D01*
X553113Y1255804D01*
X550220Y1253430D01*
X547846Y1250537D01*
X546081Y1247236D01*
X544995Y1243655D01*
X544628Y1239930D01*
X544995Y1236205D01*
X546081Y1232624D01*
X547846Y1229323D01*
X550220Y1226430D01*
X553113Y1224056D01*
X554171Y1223490D01*
X554098Y1222930D01*
X554426Y1220440D01*
X555387Y1218119D01*
X556916Y1216126D01*
X558909Y1214597D01*
X561230Y1213635D01*
X563720Y1213308D01*
X569720D01*
X572210Y1213635D01*
X574531Y1214597D01*
X576524Y1216126D01*
X578053Y1218119D01*
X579014Y1220440D01*
X579342Y1222930D01*
X579268Y1223490D01*
X580327Y1224056D01*
X583220Y1226430D01*
X585594Y1229323D01*
X587359Y1232624D01*
X588445Y1236205D01*
X588812Y1239930D01*
X588445Y1243655D01*
X587359Y1247236D01*
X585594Y1250537D01*
X583220Y1253430D01*
X580327Y1255804D01*
X579362Y1256320D01*
Y1257540D01*
X580327Y1258056D01*
X583220Y1260430D01*
X585594Y1263323D01*
X587359Y1266624D01*
X588445Y1270205D01*
X588615Y1271930D01*
X588720D01*
Y1272997D01*
X588812Y1273930D01*
X588720Y1274863D01*
Y1309930D01*
D02*
G37*
%LPD*%
G36*
X713333Y1427324D02*
X712063Y1427136D01*
X711233Y1429875D01*
X709232Y1433617D01*
X706541Y1436897D01*
X703261Y1439588D01*
X699519Y1441589D01*
X695459Y1442820D01*
X692506Y1443111D01*
Y1421592D01*
Y1400073D01*
X695459Y1400364D01*
X699519Y1401595D01*
X703261Y1403595D01*
X706541Y1406287D01*
X709232Y1409567D01*
X711233Y1413309D01*
X712063Y1416048D01*
X713333Y1415860D01*
Y1376766D01*
X712160Y1376280D01*
X709092Y1379348D01*
X706808Y1381222D01*
X704202Y1382615D01*
X701375Y1383473D01*
X698434Y1383763D01*
X680536D01*
Y1401652D01*
X681625Y1402305D01*
X682953Y1401595D01*
X687013Y1400364D01*
X689966Y1400073D01*
Y1420322D01*
X669717D01*
X670008Y1417369D01*
X670571Y1415512D01*
X669815Y1414492D01*
X640536D01*
X640536Y1414492D01*
X639266Y1414221D01*
X635536Y1414589D01*
X631879Y1414229D01*
X630730Y1414859D01*
X630608Y1414949D01*
Y1437537D01*
X642193Y1449121D01*
X713333D01*
Y1427324D01*
D02*
G37*
%LPC*%
G36*
X689966Y1443111D02*
X687013Y1442820D01*
X682953Y1441589D01*
X679211Y1439588D01*
X675931Y1436897D01*
X673239Y1433617D01*
X671239Y1429875D01*
X670008Y1425815D01*
X669717Y1422862D01*
X689966D01*
Y1443111D01*
D02*
G37*
G36*
X563106Y1058111D02*
Y1037862D01*
X583355D01*
X583064Y1040815D01*
X581833Y1044875D01*
X579832Y1048617D01*
X577141Y1051897D01*
X573861Y1054588D01*
X570119Y1056589D01*
X566059Y1057820D01*
X563106Y1058111D01*
D02*
G37*
G36*
X560566D02*
X557613Y1057820D01*
X553553Y1056589D01*
X549811Y1054588D01*
X546531Y1051897D01*
X543839Y1048617D01*
X541839Y1044875D01*
X540608Y1040815D01*
X540317Y1037862D01*
X560566D01*
Y1058111D01*
D02*
G37*
G36*
X637950Y1094267D02*
X635009Y1093977D01*
X632182Y1093119D01*
X629576Y1091726D01*
X627292Y1089852D01*
X627292Y1089852D01*
X606878Y1069438D01*
X605004Y1067154D01*
X603611Y1064548D01*
X602753Y1061720D01*
X602463Y1058780D01*
Y1022652D01*
X600826Y1020657D01*
X599681Y1018515D01*
X598440Y1018247D01*
X597851Y1018699D01*
X595287Y1019761D01*
X593806Y1019956D01*
Y1009492D01*
Y999028D01*
X595287Y999223D01*
X597851Y1000285D01*
X598440Y1000737D01*
X599681Y1000469D01*
X600826Y998327D01*
X603325Y995281D01*
X606371Y992782D01*
X609845Y990925D01*
X613615Y989781D01*
X617536Y989395D01*
X621457Y989781D01*
X625227Y990925D01*
X627536Y992159D01*
X629845Y990925D01*
X631123Y990537D01*
X645673Y975987D01*
X645364Y974755D01*
X644882Y974609D01*
X642276Y973216D01*
X639992Y971342D01*
X638118Y969058D01*
X636725Y966452D01*
X635867Y963624D01*
X635577Y960684D01*
X635867Y957744D01*
X636725Y954916D01*
X638118Y952310D01*
X639992Y950026D01*
X661678Y928340D01*
X660913Y927309D01*
X658148Y928787D01*
X654473Y929902D01*
X650650Y930278D01*
X646827Y929902D01*
X643152Y928787D01*
X639764Y926976D01*
X636795Y924539D01*
X634358Y921570D01*
X632547Y918182D01*
X631432Y914507D01*
X631056Y910684D01*
X631432Y906861D01*
X632547Y903186D01*
X634358Y899798D01*
X636795Y896829D01*
X639764Y894392D01*
X643152Y892581D01*
X646827Y891466D01*
X650650Y891090D01*
X654473Y891466D01*
X658148Y892581D01*
X661536Y894392D01*
X664505Y896829D01*
X666942Y899798D01*
X668753Y903186D01*
X669868Y906861D01*
X670244Y910684D01*
X669868Y914507D01*
X668753Y918182D01*
X667275Y920947D01*
X668306Y921712D01*
X706394Y883624D01*
X707566Y882662D01*
X707112Y881392D01*
X699340D01*
X698161Y881750D01*
X694338Y882126D01*
X690515Y881750D01*
X686840Y880635D01*
X683452Y878824D01*
X680483Y876387D01*
X678046Y873418D01*
X676235Y870030D01*
X675120Y866355D01*
X674744Y862532D01*
X675120Y858709D01*
X675486Y857505D01*
X674838Y856632D01*
X674838D01*
Y817632D01*
X713838D01*
Y847228D01*
X760886D01*
X764219Y847556D01*
X767423Y848528D01*
X770376Y850107D01*
X772965Y852231D01*
X774704Y854351D01*
X776220Y854506D01*
X777152Y853370D01*
X779436Y851496D01*
X782042Y850103D01*
X784870Y849245D01*
X787810Y848956D01*
X790751Y849245D01*
X793578Y850103D01*
X794160Y850414D01*
X794742Y850103D01*
X797570Y849245D01*
X800510Y848956D01*
X803450Y849245D01*
X806278Y850103D01*
X807552Y850784D01*
X818926D01*
X822259Y851112D01*
X825463Y852084D01*
X828416Y853663D01*
X829371Y854446D01*
X857006D01*
Y865788D01*
X866183Y874965D01*
X868307Y877554D01*
X869886Y880507D01*
X870858Y883711D01*
X871186Y887044D01*
Y920824D01*
X870858Y924157D01*
X870550Y925171D01*
Y1024312D01*
X870222Y1027645D01*
X869250Y1030849D01*
X868904Y1031497D01*
X868858Y1031963D01*
X867743Y1035638D01*
X865932Y1039026D01*
X863495Y1041995D01*
X860526Y1044432D01*
X857138Y1046243D01*
X853463Y1047358D01*
X849640Y1047734D01*
X845817Y1047358D01*
X842142Y1046243D01*
X838754Y1044432D01*
X835785Y1041995D01*
X833348Y1039026D01*
X831537Y1035638D01*
X830422Y1031963D01*
X830046Y1028140D01*
X830422Y1024317D01*
X830860Y1022874D01*
X829737Y1022201D01*
X811719Y1040219D01*
X809130Y1042343D01*
X806177Y1043922D01*
X802973Y1044894D01*
X799640Y1045222D01*
X795684D01*
X792351Y1044894D01*
X789147Y1043922D01*
X786194Y1042343D01*
X783605Y1040219D01*
X774701Y1031315D01*
X773528Y1031801D01*
Y1050942D01*
X745479D01*
Y1070812D01*
X745189Y1073753D01*
X744331Y1076580D01*
X742938Y1079186D01*
X741064Y1081470D01*
X741064Y1081470D01*
X732682Y1089852D01*
X730398Y1091726D01*
X727792Y1093119D01*
X724965Y1093977D01*
X722024Y1094267D01*
X637950D01*
X637950Y1094267D01*
D02*
G37*
G36*
X583355Y1035322D02*
X563106D01*
Y1015073D01*
X566059Y1015364D01*
X570119Y1016595D01*
X573861Y1018596D01*
X577141Y1021287D01*
X579832Y1024567D01*
X581833Y1028309D01*
X583064Y1032369D01*
X583355Y1035322D01*
D02*
G37*
G36*
X560566D02*
X540317D01*
X540608Y1032369D01*
X541839Y1028309D01*
X543839Y1024567D01*
X546531Y1021287D01*
X549811Y1018596D01*
X553553Y1016595D01*
X557613Y1015364D01*
X560566Y1015073D01*
Y1035322D01*
D02*
G37*
G36*
X591266Y1019956D02*
X589784Y1019761D01*
X587220Y1018699D01*
X585019Y1017009D01*
X583329Y1014808D01*
X582267Y1012243D01*
X582072Y1010762D01*
X591266D01*
Y1019956D01*
D02*
G37*
G36*
Y1008222D02*
X582072D01*
X582267Y1006741D01*
X583329Y1004177D01*
X585019Y1001975D01*
X587220Y1000285D01*
X589784Y999223D01*
X591266Y999028D01*
Y1008222D01*
D02*
G37*
G36*
X592426Y991506D02*
X553426D01*
Y981599D01*
X552156Y980955D01*
X550147Y981788D01*
X548796Y981965D01*
Y972006D01*
Y962047D01*
X550147Y962224D01*
X552156Y963057D01*
X553426Y962413D01*
Y952506D01*
X592426D01*
Y991506D01*
D02*
G37*
G36*
X546256Y981965D02*
X544905Y981788D01*
X542463Y980776D01*
X540365Y979167D01*
X538756Y977069D01*
X537744Y974627D01*
X537567Y973276D01*
X546256D01*
Y981965D01*
D02*
G37*
G36*
Y970736D02*
X537567D01*
X537744Y969385D01*
X538756Y966943D01*
X540365Y964845D01*
X542463Y963236D01*
X544905Y962224D01*
X546256Y962047D01*
Y970736D01*
D02*
G37*
G36*
X590720Y924930D02*
X546720D01*
Y889863D01*
X546628Y888930D01*
X546720Y887997D01*
Y886930D01*
X546825D01*
X546995Y885205D01*
X548081Y881624D01*
X549846Y878323D01*
X552220Y875430D01*
X555113Y873056D01*
X556078Y872540D01*
Y871320D01*
X555113Y870804D01*
X552220Y868430D01*
X549846Y865537D01*
X548081Y862236D01*
X546995Y858655D01*
X546628Y854930D01*
X546995Y851205D01*
X548081Y847624D01*
X549846Y844323D01*
X552220Y841430D01*
X555113Y839056D01*
X556171Y838490D01*
X556098Y837930D01*
X556426Y835440D01*
X557387Y833119D01*
X558916Y831126D01*
X560909Y829597D01*
X563229Y828636D01*
X565720Y828308D01*
X571720D01*
X574210Y828636D01*
X576531Y829597D01*
X578524Y831126D01*
X580053Y833119D01*
X581014Y835440D01*
X581342Y837930D01*
X581269Y838490D01*
X582327Y839056D01*
X585220Y841430D01*
X587594Y844323D01*
X589359Y847624D01*
X590445Y851205D01*
X590812Y854930D01*
X590445Y858655D01*
X589359Y862236D01*
X587594Y865537D01*
X585220Y868430D01*
X582327Y870804D01*
X581362Y871320D01*
Y872540D01*
X582327Y873056D01*
X585220Y875430D01*
X587594Y878323D01*
X589359Y881624D01*
X590445Y885205D01*
X590615Y886930D01*
X590720D01*
Y887997D01*
X590812Y888930D01*
X590720Y889863D01*
Y924930D01*
D02*
G37*
%LPD*%
G36*
X715333Y1042324D02*
X714063Y1042136D01*
X713232Y1044875D01*
X711232Y1048617D01*
X708541Y1051897D01*
X705261Y1054588D01*
X701519Y1056589D01*
X697458Y1057820D01*
X694506Y1058111D01*
Y1036592D01*
Y1015073D01*
X697458Y1015364D01*
X701519Y1016595D01*
X705261Y1018596D01*
X708541Y1021287D01*
X711232Y1024567D01*
X713232Y1028309D01*
X714063Y1031048D01*
X715333Y1030860D01*
Y991766D01*
X714160Y991280D01*
X711092Y994348D01*
X708808Y996222D01*
X706202Y997615D01*
X703374Y998473D01*
X700434Y998763D01*
X682536D01*
Y1016652D01*
X683625Y1017305D01*
X684953Y1016595D01*
X689013Y1015364D01*
X691966Y1015073D01*
Y1035322D01*
X671717D01*
X672008Y1032369D01*
X672571Y1030512D01*
X671814Y1029492D01*
X642536D01*
X642536Y1029492D01*
X641266Y1029221D01*
X637536Y1029589D01*
X633879Y1029229D01*
X632730Y1029859D01*
X632608Y1029949D01*
Y1052537D01*
X644193Y1064121D01*
X715333D01*
Y1042324D01*
D02*
G37*
%LPC*%
G36*
X691966Y1058111D02*
X689013Y1057820D01*
X684953Y1056589D01*
X681211Y1054588D01*
X677931Y1051897D01*
X675239Y1048617D01*
X673239Y1044875D01*
X672008Y1040815D01*
X671717Y1037862D01*
X691966D01*
Y1058111D01*
D02*
G37*
G36*
X574106Y661111D02*
Y640862D01*
X594355D01*
X594064Y643815D01*
X592832Y647875D01*
X590832Y651617D01*
X588141Y654897D01*
X584861Y657589D01*
X581119Y659589D01*
X577058Y660820D01*
X574106Y661111D01*
D02*
G37*
G36*
X571566D02*
X568613Y660820D01*
X564553Y659589D01*
X560811Y657589D01*
X557531Y654897D01*
X554839Y651617D01*
X552839Y647875D01*
X551608Y643815D01*
X551317Y640862D01*
X571566D01*
Y661111D01*
D02*
G37*
G36*
X648950Y697267D02*
X646010Y696977D01*
X643182Y696119D01*
X640576Y694726D01*
X638292Y692852D01*
X638292Y692852D01*
X617878Y672438D01*
X616003Y670154D01*
X614611Y667548D01*
X613753Y664720D01*
X613463Y661780D01*
Y625652D01*
X611826Y623657D01*
X610681Y621515D01*
X609440Y621247D01*
X608851Y621699D01*
X606287Y622761D01*
X604806Y622956D01*
Y612492D01*
Y602028D01*
X606287Y602223D01*
X608851Y603285D01*
X609440Y603737D01*
X610681Y603469D01*
X611826Y601327D01*
X614325Y598281D01*
X617371Y595782D01*
X620845Y593925D01*
X624615Y592781D01*
X628536Y592395D01*
X632457Y592781D01*
X636227Y593925D01*
X638536Y595159D01*
X640845Y593925D01*
X642123Y593537D01*
X656673Y578987D01*
X656364Y577756D01*
X655882Y577609D01*
X653276Y576216D01*
X650992Y574342D01*
X649118Y572058D01*
X647725Y569452D01*
X646867Y566624D01*
X646577Y563684D01*
X646867Y560743D01*
X647725Y557916D01*
X649118Y555310D01*
X650992Y553026D01*
X672678Y531340D01*
X671913Y530309D01*
X669148Y531787D01*
X665473Y532902D01*
X661650Y533278D01*
X657827Y532902D01*
X654152Y531787D01*
X650764Y529976D01*
X647795Y527539D01*
X645358Y524570D01*
X643547Y521182D01*
X642432Y517507D01*
X642056Y513684D01*
X642432Y509861D01*
X643547Y506186D01*
X645358Y502798D01*
X647795Y499829D01*
X650764Y497392D01*
X654152Y495581D01*
X657827Y494466D01*
X661650Y494090D01*
X665473Y494466D01*
X669148Y495581D01*
X672536Y497392D01*
X675505Y499829D01*
X677942Y502798D01*
X679753Y506186D01*
X680868Y509861D01*
X681244Y513684D01*
X680868Y517507D01*
X679753Y521182D01*
X678275Y523947D01*
X679306Y524712D01*
X717394Y486624D01*
X718566Y485662D01*
X718112Y484392D01*
X710340D01*
X709161Y484750D01*
X705338Y485126D01*
X701515Y484750D01*
X697840Y483635D01*
X694452Y481824D01*
X691483Y479387D01*
X689046Y476418D01*
X687235Y473030D01*
X686120Y469355D01*
X685744Y465532D01*
X686120Y461709D01*
X686486Y460505D01*
X685838Y459632D01*
X685838D01*
Y420632D01*
X724838D01*
Y450228D01*
X771886D01*
X775219Y450556D01*
X778423Y451528D01*
X781376Y453107D01*
X783965Y455231D01*
X785704Y457351D01*
X787220Y457506D01*
X788152Y456370D01*
X790436Y454496D01*
X793042Y453103D01*
X795870Y452245D01*
X798810Y451955D01*
X801750Y452245D01*
X804578Y453103D01*
X805160Y453414D01*
X805742Y453103D01*
X808569Y452245D01*
X811510Y451955D01*
X814451Y452245D01*
X817278Y453103D01*
X818552Y453784D01*
X829926D01*
X833259Y454112D01*
X836463Y455084D01*
X839416Y456663D01*
X840371Y457446D01*
X868006D01*
Y468788D01*
X877183Y477965D01*
X879307Y480554D01*
X880886Y483507D01*
X881858Y486711D01*
X882186Y490044D01*
Y523824D01*
X881858Y527157D01*
X881550Y528171D01*
Y627312D01*
X881222Y630645D01*
X880250Y633849D01*
X879904Y634497D01*
X879858Y634963D01*
X878743Y638638D01*
X876932Y642026D01*
X874495Y644995D01*
X871526Y647432D01*
X868138Y649243D01*
X864463Y650358D01*
X860640Y650734D01*
X856817Y650358D01*
X853142Y649243D01*
X849754Y647432D01*
X846785Y644995D01*
X844348Y642026D01*
X842537Y638638D01*
X841422Y634963D01*
X841046Y631140D01*
X841422Y627317D01*
X841860Y625874D01*
X840737Y625201D01*
X822719Y643219D01*
X820130Y645343D01*
X817177Y646922D01*
X813973Y647894D01*
X810640Y648222D01*
X806684D01*
X803351Y647894D01*
X800147Y646922D01*
X797194Y645343D01*
X794605Y643219D01*
X785701Y634315D01*
X784528Y634801D01*
Y653942D01*
X756479D01*
Y673812D01*
X756189Y676752D01*
X755331Y679580D01*
X753938Y682186D01*
X752064Y684470D01*
X752064Y684470D01*
X743682Y692852D01*
X741398Y694726D01*
X738792Y696119D01*
X735965Y696977D01*
X733024Y697267D01*
X648950D01*
X648950Y697267D01*
D02*
G37*
G36*
X594355Y638322D02*
X574106D01*
Y618073D01*
X577058Y618364D01*
X581119Y619595D01*
X584861Y621595D01*
X588141Y624287D01*
X590832Y627567D01*
X592832Y631309D01*
X594064Y635369D01*
X594355Y638322D01*
D02*
G37*
G36*
X571566D02*
X551317D01*
X551608Y635369D01*
X552839Y631309D01*
X554839Y627567D01*
X557531Y624287D01*
X560811Y621595D01*
X564553Y619595D01*
X568613Y618364D01*
X571566Y618073D01*
Y638322D01*
D02*
G37*
G36*
X602266Y622956D02*
X600784Y622761D01*
X598220Y621699D01*
X596019Y620009D01*
X594329Y617808D01*
X593267Y615243D01*
X593072Y613762D01*
X602266D01*
Y622956D01*
D02*
G37*
G36*
Y611222D02*
X593072D01*
X593267Y609740D01*
X594329Y607177D01*
X596019Y604975D01*
X598220Y603285D01*
X600784Y602223D01*
X602266Y602028D01*
Y611222D01*
D02*
G37*
G36*
X603426Y594506D02*
X564426D01*
Y584599D01*
X563156Y583955D01*
X561147Y584788D01*
X559796Y584965D01*
Y575006D01*
Y565047D01*
X561147Y565224D01*
X563156Y566057D01*
X564426Y565413D01*
Y555506D01*
X603426D01*
Y594506D01*
D02*
G37*
G36*
X557256Y584965D02*
X555905Y584788D01*
X553463Y583776D01*
X551365Y582167D01*
X549756Y580069D01*
X548744Y577627D01*
X548567Y576276D01*
X557256D01*
Y584965D01*
D02*
G37*
G36*
Y573736D02*
X548567D01*
X548744Y572385D01*
X549756Y569943D01*
X551365Y567845D01*
X553463Y566236D01*
X555905Y565224D01*
X557256Y565047D01*
Y573736D01*
D02*
G37*
G36*
X601720Y527930D02*
X557720D01*
Y492863D01*
X557628Y491930D01*
X557720Y490997D01*
Y489930D01*
X557825D01*
X557995Y488205D01*
X559081Y484624D01*
X560846Y481323D01*
X563220Y478430D01*
X566113Y476056D01*
X567078Y475540D01*
Y474320D01*
X566113Y473804D01*
X563220Y471430D01*
X560846Y468537D01*
X559081Y465236D01*
X557995Y461655D01*
X557628Y457930D01*
X557995Y454205D01*
X559081Y450624D01*
X560846Y447323D01*
X563220Y444430D01*
X566113Y442056D01*
X567171Y441490D01*
X567098Y440930D01*
X567425Y438439D01*
X568387Y436119D01*
X569916Y434126D01*
X571909Y432597D01*
X574230Y431636D01*
X576720Y431308D01*
X582720D01*
X585210Y431636D01*
X587531Y432597D01*
X589524Y434126D01*
X591053Y436119D01*
X592014Y438439D01*
X592342Y440930D01*
X592268Y441490D01*
X593327Y442056D01*
X596220Y444430D01*
X598594Y447323D01*
X600359Y450624D01*
X601445Y454205D01*
X601812Y457930D01*
X601445Y461655D01*
X600359Y465236D01*
X598594Y468537D01*
X596220Y471430D01*
X593327Y473804D01*
X592362Y474320D01*
Y475540D01*
X593327Y476056D01*
X596220Y478430D01*
X598594Y481323D01*
X600359Y484624D01*
X601445Y488205D01*
X601615Y489930D01*
X601720D01*
Y490997D01*
X601812Y491930D01*
X601720Y492863D01*
Y527930D01*
D02*
G37*
%LPD*%
G36*
X726333Y645324D02*
X725063Y645136D01*
X724232Y647875D01*
X722232Y651617D01*
X719541Y654897D01*
X716261Y657589D01*
X712519Y659589D01*
X708458Y660820D01*
X705506Y661111D01*
Y639592D01*
Y618073D01*
X708458Y618364D01*
X712519Y619595D01*
X716261Y621595D01*
X719541Y624287D01*
X722232Y627567D01*
X724232Y631309D01*
X725063Y634048D01*
X726333Y633860D01*
Y594766D01*
X725160Y594280D01*
X722092Y597348D01*
X719808Y599222D01*
X717202Y600615D01*
X714374Y601473D01*
X711434Y601763D01*
X693536D01*
Y619652D01*
X694625Y620305D01*
X695953Y619595D01*
X700013Y618364D01*
X702966Y618073D01*
Y638322D01*
X682717D01*
X683008Y635369D01*
X683571Y633512D01*
X682814Y632492D01*
X653536D01*
X653536Y632492D01*
X652266Y632221D01*
X648536Y632589D01*
X644878Y632229D01*
X643730Y632859D01*
X643608Y632949D01*
Y655537D01*
X655193Y667121D01*
X726333D01*
Y645324D01*
D02*
G37*
%LPC*%
G36*
X702966Y661111D02*
X700013Y660820D01*
X695953Y659589D01*
X692211Y657589D01*
X688931Y654897D01*
X686239Y651617D01*
X684239Y647875D01*
X683008Y643815D01*
X682717Y640862D01*
X702966D01*
Y661111D01*
D02*
G37*
G36*
X573106Y274111D02*
Y253862D01*
X593355D01*
X593064Y256815D01*
X591833Y260875D01*
X589832Y264617D01*
X587141Y267897D01*
X583861Y270588D01*
X580119Y272589D01*
X576059Y273820D01*
X573106Y274111D01*
D02*
G37*
G36*
X570566D02*
X567613Y273820D01*
X563553Y272589D01*
X559811Y270588D01*
X556531Y267897D01*
X553839Y264617D01*
X551839Y260875D01*
X550608Y256815D01*
X550317Y253862D01*
X570566D01*
Y274111D01*
D02*
G37*
G36*
X647950Y310267D02*
X645010Y309977D01*
X642182Y309119D01*
X639576Y307726D01*
X637292Y305852D01*
X637292Y305852D01*
X616878Y285438D01*
X615004Y283154D01*
X613611Y280548D01*
X612753Y277720D01*
X612463Y274780D01*
Y238652D01*
X610826Y236657D01*
X609681Y234515D01*
X608440Y234247D01*
X607851Y234699D01*
X605287Y235761D01*
X603806Y235956D01*
Y225492D01*
Y215028D01*
X605287Y215223D01*
X607851Y216285D01*
X608440Y216737D01*
X609681Y216469D01*
X610826Y214327D01*
X613325Y211281D01*
X616371Y208782D01*
X619845Y206925D01*
X623615Y205781D01*
X627536Y205395D01*
X631457Y205781D01*
X635227Y206925D01*
X637536Y208159D01*
X639845Y206925D01*
X641123Y206537D01*
X655673Y191987D01*
X655364Y190756D01*
X654882Y190609D01*
X652276Y189216D01*
X649992Y187342D01*
X648118Y185058D01*
X646725Y182452D01*
X645867Y179625D01*
X645577Y176684D01*
X645867Y173743D01*
X646725Y170916D01*
X648118Y168310D01*
X649992Y166026D01*
X671678Y144340D01*
X670913Y143309D01*
X668148Y144787D01*
X664473Y145902D01*
X660650Y146278D01*
X656827Y145902D01*
X653152Y144787D01*
X649764Y142976D01*
X646795Y140539D01*
X644358Y137570D01*
X642547Y134182D01*
X641432Y130507D01*
X641056Y126684D01*
X641432Y122861D01*
X642547Y119186D01*
X644358Y115798D01*
X646795Y112829D01*
X649764Y110392D01*
X653152Y108581D01*
X656827Y107466D01*
X660650Y107090D01*
X664473Y107466D01*
X668148Y108581D01*
X671536Y110392D01*
X674505Y112829D01*
X676942Y115798D01*
X678753Y119186D01*
X679868Y122861D01*
X680244Y126684D01*
X679868Y130507D01*
X678753Y134182D01*
X677275Y136947D01*
X678306Y137712D01*
X716394Y99624D01*
X717566Y98662D01*
X717112Y97392D01*
X709340D01*
X708161Y97750D01*
X704338Y98126D01*
X700515Y97750D01*
X696840Y96635D01*
X693452Y94824D01*
X690483Y92387D01*
X688046Y89418D01*
X686235Y86030D01*
X685120Y82355D01*
X684744Y78532D01*
X685120Y74709D01*
X685486Y73505D01*
X684838Y72632D01*
X684838D01*
Y33632D01*
X723838D01*
Y63228D01*
X770886D01*
X774219Y63556D01*
X777423Y64528D01*
X780376Y66107D01*
X782965Y68231D01*
X784705Y70351D01*
X786220Y70506D01*
X787152Y69370D01*
X789436Y67496D01*
X792042Y66103D01*
X794870Y65245D01*
X797810Y64955D01*
X800751Y65245D01*
X803578Y66103D01*
X804160Y66414D01*
X804742Y66103D01*
X807570Y65245D01*
X810510Y64955D01*
X813450Y65245D01*
X816278Y66103D01*
X817552Y66784D01*
X828926D01*
X832259Y67112D01*
X835463Y68084D01*
X838416Y69663D01*
X839371Y70446D01*
X867006D01*
Y81788D01*
X876183Y90965D01*
X878307Y93554D01*
X879886Y96507D01*
X880858Y99711D01*
X881186Y103044D01*
Y136824D01*
X880858Y140157D01*
X880550Y141171D01*
Y240312D01*
X880222Y243645D01*
X879250Y246849D01*
X878904Y247497D01*
X878858Y247963D01*
X877743Y251638D01*
X875932Y255026D01*
X873495Y257995D01*
X870526Y260432D01*
X867138Y262243D01*
X863463Y263358D01*
X859640Y263734D01*
X855817Y263358D01*
X852142Y262243D01*
X848754Y260432D01*
X845785Y257995D01*
X843348Y255026D01*
X841537Y251638D01*
X840422Y247963D01*
X840046Y244140D01*
X840422Y240317D01*
X840860Y238874D01*
X839737Y238201D01*
X821719Y256219D01*
X819130Y258343D01*
X816177Y259922D01*
X812973Y260894D01*
X809640Y261222D01*
X805684D01*
X802351Y260894D01*
X799147Y259922D01*
X796194Y258343D01*
X793605Y256219D01*
X784701Y247315D01*
X783528Y247801D01*
Y266942D01*
X755479D01*
Y286812D01*
X755189Y289753D01*
X754331Y292580D01*
X752938Y295186D01*
X751064Y297470D01*
X751064Y297470D01*
X742682Y305852D01*
X740398Y307726D01*
X737792Y309119D01*
X734965Y309977D01*
X732024Y310267D01*
X647950D01*
X647950Y310267D01*
D02*
G37*
G36*
X593355Y251322D02*
X573106D01*
Y231073D01*
X576059Y231364D01*
X580119Y232595D01*
X583861Y234596D01*
X587141Y237287D01*
X589832Y240567D01*
X591833Y244309D01*
X593064Y248369D01*
X593355Y251322D01*
D02*
G37*
G36*
X570566D02*
X550317D01*
X550608Y248369D01*
X551839Y244309D01*
X553839Y240567D01*
X556531Y237287D01*
X559811Y234596D01*
X563553Y232595D01*
X567613Y231364D01*
X570566Y231073D01*
Y251322D01*
D02*
G37*
G36*
X601266Y235956D02*
X599784Y235761D01*
X597220Y234699D01*
X595019Y233009D01*
X593329Y230807D01*
X592267Y228244D01*
X592072Y226762D01*
X601266D01*
Y235956D01*
D02*
G37*
G36*
Y224222D02*
X592072D01*
X592267Y222741D01*
X593329Y220177D01*
X595019Y217975D01*
X597220Y216285D01*
X599784Y215223D01*
X601266Y215028D01*
Y224222D01*
D02*
G37*
G36*
X602426Y207506D02*
X563426D01*
Y197599D01*
X562156Y196955D01*
X560147Y197788D01*
X558796Y197965D01*
Y188006D01*
Y178047D01*
X560147Y178224D01*
X562156Y179057D01*
X563426Y178413D01*
Y168506D01*
X602426D01*
Y207506D01*
D02*
G37*
G36*
X556256Y197965D02*
X554905Y197788D01*
X552463Y196776D01*
X550365Y195167D01*
X548756Y193069D01*
X547744Y190627D01*
X547567Y189276D01*
X556256D01*
Y197965D01*
D02*
G37*
G36*
Y186736D02*
X547567D01*
X547744Y185385D01*
X548756Y182943D01*
X550365Y180845D01*
X552463Y179236D01*
X554905Y178224D01*
X556256Y178047D01*
Y186736D01*
D02*
G37*
G36*
X600720Y140930D02*
X556720D01*
Y105863D01*
X556628Y104930D01*
X556720Y103997D01*
Y102930D01*
X556825D01*
X556995Y101205D01*
X558081Y97624D01*
X559846Y94323D01*
X562220Y91430D01*
X565113Y89056D01*
X566078Y88540D01*
Y87320D01*
X565113Y86804D01*
X562220Y84430D01*
X559846Y81537D01*
X558081Y78236D01*
X556995Y74655D01*
X556628Y70930D01*
X556995Y67205D01*
X558081Y63624D01*
X559846Y60323D01*
X562220Y57430D01*
X565113Y55056D01*
X566171Y54490D01*
X566098Y53930D01*
X566426Y51439D01*
X567387Y49119D01*
X568916Y47126D01*
X570909Y45597D01*
X573229Y44636D01*
X575720Y44308D01*
X581720D01*
X584210Y44636D01*
X586531Y45597D01*
X588524Y47126D01*
X590053Y49119D01*
X591014Y51439D01*
X591342Y53930D01*
X591269Y54490D01*
X592327Y55056D01*
X595220Y57430D01*
X597594Y60323D01*
X599359Y63624D01*
X600445Y67205D01*
X600812Y70930D01*
X600445Y74655D01*
X599359Y78236D01*
X597594Y81537D01*
X595220Y84430D01*
X592327Y86804D01*
X591362Y87320D01*
Y88540D01*
X592327Y89056D01*
X595220Y91430D01*
X597594Y94323D01*
X599359Y97624D01*
X600445Y101205D01*
X600615Y102930D01*
X600720D01*
Y103997D01*
X600812Y104930D01*
X600720Y105863D01*
Y140930D01*
D02*
G37*
%LPD*%
G36*
X725333Y258324D02*
X724063Y258136D01*
X723232Y260875D01*
X721232Y264617D01*
X718541Y267897D01*
X715261Y270588D01*
X711519Y272589D01*
X707458Y273820D01*
X704506Y274111D01*
Y252592D01*
Y231073D01*
X707458Y231364D01*
X711519Y232595D01*
X715261Y234596D01*
X718541Y237287D01*
X721232Y240567D01*
X723232Y244309D01*
X724063Y247048D01*
X725333Y246860D01*
Y207766D01*
X724160Y207280D01*
X721092Y210348D01*
X718808Y212222D01*
X716202Y213615D01*
X713374Y214473D01*
X710434Y214763D01*
X692536D01*
Y232652D01*
X693625Y233305D01*
X694953Y232595D01*
X699013Y231364D01*
X701966Y231073D01*
Y251322D01*
X681717D01*
X682008Y248369D01*
X682571Y246512D01*
X681814Y245492D01*
X652536D01*
X652536Y245492D01*
X651266Y245221D01*
X647536Y245589D01*
X643878Y245229D01*
X642730Y245859D01*
X642608Y245949D01*
Y268537D01*
X654193Y280121D01*
X725333D01*
Y258324D01*
D02*
G37*
%LPC*%
G36*
X701966Y274111D02*
X699013Y273820D01*
X694953Y272589D01*
X691211Y270588D01*
X687931Y267897D01*
X685239Y264617D01*
X683239Y260875D01*
X682008Y256815D01*
X681717Y253862D01*
X701966D01*
Y274111D01*
D02*
G37*
G36*
X33106Y261111D02*
Y240862D01*
X53355D01*
X53064Y243815D01*
X51832Y247875D01*
X49832Y251617D01*
X47141Y254897D01*
X43861Y257589D01*
X40119Y259589D01*
X36058Y260820D01*
X33106Y261111D01*
D02*
G37*
G36*
X30566D02*
X27613Y260820D01*
X23553Y259589D01*
X19811Y257589D01*
X16531Y254897D01*
X13839Y251617D01*
X11839Y247875D01*
X10608Y243815D01*
X10317Y240862D01*
X30566D01*
Y261111D01*
D02*
G37*
G36*
X107950Y297267D02*
X105009Y296977D01*
X102182Y296119D01*
X99576Y294726D01*
X97292Y292852D01*
X97292Y292852D01*
X76878Y272438D01*
X75003Y270154D01*
X73611Y267548D01*
X72753Y264720D01*
X72463Y261780D01*
Y225652D01*
X70826Y223657D01*
X69681Y221515D01*
X68440Y221247D01*
X67851Y221699D01*
X65287Y222761D01*
X63806Y222956D01*
Y212492D01*
Y202028D01*
X65287Y202223D01*
X67851Y203285D01*
X68440Y203737D01*
X69681Y203469D01*
X70826Y201327D01*
X73325Y198281D01*
X76371Y195782D01*
X79845Y193925D01*
X83615Y192781D01*
X87536Y192395D01*
X91457Y192781D01*
X95227Y193925D01*
X97536Y195159D01*
X99845Y193925D01*
X101123Y193538D01*
X115673Y178987D01*
X115364Y177756D01*
X114882Y177609D01*
X112276Y176216D01*
X109992Y174342D01*
X108118Y172058D01*
X106725Y169452D01*
X105867Y166625D01*
X105577Y163684D01*
X105867Y160744D01*
X106725Y157916D01*
X108118Y155310D01*
X109992Y153026D01*
X131678Y131340D01*
X130913Y130309D01*
X128148Y131787D01*
X124473Y132902D01*
X120650Y133278D01*
X116827Y132902D01*
X113152Y131787D01*
X109764Y129976D01*
X106795Y127539D01*
X104358Y124570D01*
X102547Y121182D01*
X101432Y117507D01*
X101056Y113684D01*
X101432Y109861D01*
X102547Y106186D01*
X104358Y102798D01*
X106795Y99829D01*
X109764Y97392D01*
X113152Y95581D01*
X116827Y94466D01*
X120650Y94090D01*
X124473Y94466D01*
X128148Y95581D01*
X131536Y97392D01*
X134505Y99829D01*
X136942Y102798D01*
X138753Y106186D01*
X139868Y109861D01*
X140244Y113684D01*
X139868Y117507D01*
X138753Y121182D01*
X137275Y123947D01*
X138306Y124712D01*
X176394Y86624D01*
X177566Y85662D01*
X177112Y84392D01*
X169340D01*
X168161Y84750D01*
X164338Y85126D01*
X160515Y84750D01*
X156840Y83635D01*
X153452Y81824D01*
X150483Y79387D01*
X148046Y76418D01*
X146235Y73030D01*
X145120Y69355D01*
X144744Y65532D01*
X145120Y61709D01*
X145485Y60505D01*
X144838Y59632D01*
X144838D01*
Y20632D01*
X183838D01*
Y50228D01*
X230886D01*
X234219Y50556D01*
X237423Y51528D01*
X240376Y53107D01*
X242965Y55231D01*
X244704Y57351D01*
X246220Y57506D01*
X247152Y56370D01*
X249436Y54496D01*
X252042Y53103D01*
X254869Y52245D01*
X257810Y51955D01*
X260751Y52245D01*
X263578Y53103D01*
X264160Y53414D01*
X264742Y53103D01*
X267570Y52245D01*
X270510Y51955D01*
X273451Y52245D01*
X276278Y53103D01*
X277552Y53784D01*
X288926D01*
X292259Y54112D01*
X295463Y55084D01*
X298416Y56663D01*
X299371Y57446D01*
X327006D01*
Y68788D01*
X336183Y77965D01*
X338307Y80554D01*
X339886Y83507D01*
X340858Y86711D01*
X341186Y90044D01*
Y123824D01*
X340858Y127157D01*
X340550Y128171D01*
Y227312D01*
X340222Y230645D01*
X339250Y233849D01*
X338904Y234497D01*
X338858Y234963D01*
X337743Y238638D01*
X335932Y242026D01*
X333495Y244995D01*
X330526Y247432D01*
X327138Y249243D01*
X323463Y250358D01*
X319640Y250734D01*
X315817Y250358D01*
X312142Y249243D01*
X308754Y247432D01*
X305785Y244995D01*
X303348Y242026D01*
X301537Y238638D01*
X300422Y234963D01*
X300046Y231140D01*
X300422Y227317D01*
X300860Y225874D01*
X299737Y225201D01*
X281719Y243219D01*
X279130Y245343D01*
X276177Y246922D01*
X272973Y247894D01*
X269640Y248222D01*
X265684D01*
X262351Y247894D01*
X259147Y246922D01*
X256194Y245343D01*
X253605Y243219D01*
X244701Y234315D01*
X243528Y234801D01*
Y253942D01*
X215479D01*
Y273812D01*
X215189Y276752D01*
X214331Y279580D01*
X212938Y282186D01*
X211064Y284470D01*
X211064Y284470D01*
X202682Y292852D01*
X200398Y294726D01*
X197792Y296119D01*
X194965Y296977D01*
X192024Y297267D01*
X107950D01*
X107950Y297267D01*
D02*
G37*
G36*
X53355Y238322D02*
X33106D01*
Y218073D01*
X36058Y218364D01*
X40119Y219595D01*
X43861Y221595D01*
X47141Y224287D01*
X49832Y227567D01*
X51832Y231309D01*
X53064Y235369D01*
X53355Y238322D01*
D02*
G37*
G36*
X30566D02*
X10317D01*
X10608Y235369D01*
X11839Y231309D01*
X13839Y227567D01*
X16531Y224287D01*
X19811Y221595D01*
X23553Y219595D01*
X27613Y218364D01*
X30566Y218073D01*
Y238322D01*
D02*
G37*
G36*
X61266Y222956D02*
X59784Y222761D01*
X57220Y221699D01*
X55019Y220009D01*
X53329Y217808D01*
X52267Y215243D01*
X52072Y213762D01*
X61266D01*
Y222956D01*
D02*
G37*
G36*
Y211222D02*
X52072D01*
X52267Y209741D01*
X53329Y207177D01*
X55019Y204975D01*
X57220Y203285D01*
X59784Y202223D01*
X61266Y202028D01*
Y211222D01*
D02*
G37*
G36*
X62426Y194506D02*
X23426D01*
Y184599D01*
X22156Y183955D01*
X20147Y184788D01*
X18796Y184965D01*
Y175006D01*
Y165047D01*
X20147Y165224D01*
X22156Y166057D01*
X23426Y165413D01*
Y155506D01*
X62426D01*
Y194506D01*
D02*
G37*
G36*
X16256Y184965D02*
X14905Y184788D01*
X12463Y183776D01*
X10365Y182167D01*
X8756Y180069D01*
X7744Y177627D01*
X7567Y176276D01*
X16256D01*
Y184965D01*
D02*
G37*
G36*
Y173736D02*
X7567D01*
X7744Y172385D01*
X8756Y169943D01*
X10365Y167845D01*
X12463Y166236D01*
X14905Y165224D01*
X16256Y165047D01*
Y173736D01*
D02*
G37*
G36*
X60720Y127930D02*
X16720D01*
Y92863D01*
X16628Y91930D01*
X16720Y90997D01*
Y89930D01*
X16825D01*
X16995Y88205D01*
X18081Y84624D01*
X19846Y81323D01*
X22220Y78430D01*
X25113Y76056D01*
X26078Y75540D01*
Y74320D01*
X25113Y73804D01*
X22220Y71430D01*
X19846Y68537D01*
X18081Y65236D01*
X16995Y61655D01*
X16628Y57930D01*
X16995Y54205D01*
X18081Y50624D01*
X19846Y47323D01*
X22220Y44430D01*
X25113Y42056D01*
X26171Y41490D01*
X26098Y40930D01*
X26425Y38440D01*
X27387Y36119D01*
X28916Y34126D01*
X30909Y32597D01*
X33229Y31635D01*
X35720Y31308D01*
X41720D01*
X44210Y31635D01*
X46531Y32597D01*
X48524Y34126D01*
X50053Y36119D01*
X51014Y38440D01*
X51342Y40930D01*
X51269Y41490D01*
X52327Y42056D01*
X55220Y44430D01*
X57594Y47323D01*
X59359Y50624D01*
X60445Y54205D01*
X60812Y57930D01*
X60445Y61655D01*
X59359Y65236D01*
X57594Y68537D01*
X55220Y71430D01*
X52327Y73804D01*
X51362Y74320D01*
Y75540D01*
X52327Y76056D01*
X55220Y78430D01*
X57594Y81323D01*
X59359Y84624D01*
X60445Y88205D01*
X60615Y89930D01*
X60720D01*
Y90997D01*
X60812Y91930D01*
X60720Y92863D01*
Y127930D01*
D02*
G37*
%LPD*%
G36*
X185333Y245324D02*
X184063Y245136D01*
X183232Y247875D01*
X181232Y251617D01*
X178541Y254897D01*
X175261Y257589D01*
X171519Y259589D01*
X167458Y260820D01*
X164506Y261111D01*
Y239592D01*
Y218073D01*
X167458Y218364D01*
X171519Y219595D01*
X175261Y221595D01*
X178541Y224287D01*
X181232Y227567D01*
X183232Y231309D01*
X184063Y234048D01*
X185333Y233860D01*
Y194766D01*
X184160Y194280D01*
X181092Y197348D01*
X178808Y199222D01*
X176202Y200615D01*
X173375Y201473D01*
X170434Y201763D01*
X152536D01*
Y219652D01*
X153625Y220305D01*
X154953Y219595D01*
X159013Y218364D01*
X161966Y218073D01*
Y238322D01*
X141717D01*
X142008Y235369D01*
X142571Y233512D01*
X141814Y232492D01*
X112536D01*
X112536Y232492D01*
X111266Y232221D01*
X107536Y232589D01*
X103878Y232229D01*
X102730Y232859D01*
X102608Y232949D01*
Y255537D01*
X114193Y267121D01*
X185333D01*
Y245324D01*
D02*
G37*
%LPC*%
G36*
X161966Y261111D02*
X159013Y260820D01*
X154953Y259589D01*
X151211Y257589D01*
X147931Y254897D01*
X145239Y251617D01*
X143239Y247875D01*
X142008Y243815D01*
X141717Y240862D01*
X161966D01*
Y261111D01*
D02*
G37*
%LPD*%
D10*
X825576Y2073416D02*
D03*
Y2089416D02*
D03*
X797128Y2071638D02*
D03*
Y2087638D02*
D03*
X827576Y1718416D02*
D03*
Y1734416D02*
D03*
X799128Y1716638D02*
D03*
Y1732638D02*
D03*
X818576Y1327416D02*
D03*
Y1343416D02*
D03*
X790128Y1325638D02*
D03*
Y1341638D02*
D03*
X820576Y942416D02*
D03*
Y958416D02*
D03*
X792128Y940638D02*
D03*
Y956638D02*
D03*
X831576Y545416D02*
D03*
Y561416D02*
D03*
X803128Y543638D02*
D03*
Y559638D02*
D03*
X830576Y158416D02*
D03*
Y174416D02*
D03*
X802128Y156638D02*
D03*
Y172638D02*
D03*
X262128Y159638D02*
D03*
Y143638D02*
D03*
X290576Y161416D02*
D03*
Y145416D02*
D03*
D11*
X842468Y2052460D02*
D03*
X858468D02*
D03*
X829006Y2003946D02*
D03*
X845006D02*
D03*
X844468Y1697460D02*
D03*
X860468D02*
D03*
X831006Y1648946D02*
D03*
X847006D02*
D03*
X835468Y1306460D02*
D03*
X851468D02*
D03*
X822006Y1257946D02*
D03*
X838006D02*
D03*
X837468Y921460D02*
D03*
X853468D02*
D03*
X824006Y872946D02*
D03*
X840006D02*
D03*
X848468Y524460D02*
D03*
X864468D02*
D03*
X835006Y475946D02*
D03*
X851006D02*
D03*
X847468Y137460D02*
D03*
X863468D02*
D03*
X834006Y88946D02*
D03*
X850006D02*
D03*
X310006Y75946D02*
D03*
X294006D02*
D03*
X323468Y124460D02*
D03*
X307468D02*
D03*
D12*
X767410Y2048528D02*
D03*
X780110D02*
D03*
X792810D02*
D03*
X805510D02*
D03*
X767410Y2001528D02*
D03*
X780110D02*
D03*
X792810D02*
D03*
X805510D02*
D03*
X769410Y1693528D02*
D03*
X782110D02*
D03*
X794810D02*
D03*
X807510D02*
D03*
X769410Y1646528D02*
D03*
X782110D02*
D03*
X794810D02*
D03*
X807510D02*
D03*
X760410Y1302528D02*
D03*
X773110D02*
D03*
X785810D02*
D03*
X798510D02*
D03*
X760410Y1255528D02*
D03*
X773110D02*
D03*
X785810D02*
D03*
X798510D02*
D03*
X762410Y917528D02*
D03*
X775110D02*
D03*
X787810D02*
D03*
X800510D02*
D03*
X762410Y870528D02*
D03*
X775110D02*
D03*
X787810D02*
D03*
X800510D02*
D03*
X773410Y520528D02*
D03*
X786110D02*
D03*
X798810D02*
D03*
X811510D02*
D03*
X773410Y473528D02*
D03*
X786110D02*
D03*
X798810D02*
D03*
X811510D02*
D03*
X772410Y133528D02*
D03*
X785110D02*
D03*
X797810D02*
D03*
X810510D02*
D03*
X772410Y86528D02*
D03*
X785110D02*
D03*
X797810D02*
D03*
X810510D02*
D03*
X270510Y73528D02*
D03*
X257810D02*
D03*
X245110D02*
D03*
X232410D02*
D03*
X270510Y120528D02*
D03*
X257810D02*
D03*
X245110D02*
D03*
X232410D02*
D03*
D13*
X701116Y1995310D02*
X765886D01*
X809956Y2051318D02*
X836498D01*
X823798Y2053222D02*
Y2066558D01*
X825576Y2089416D02*
Y2138204D01*
X804640Y2159140D02*
X825576Y2138204D01*
X797128Y2087638D02*
Y2139074D01*
X804640Y2146586D01*
Y2159140D01*
X858468Y2052460D02*
Y2155312D01*
X854640Y2159140D02*
X858468Y2155312D01*
X857834Y2051826D02*
X858468Y2052460D01*
X859104Y2051824D01*
Y2018044D02*
Y2051824D01*
X845006Y2003946D02*
X859104Y2018044D01*
X823926Y1998866D02*
X829006Y2003946D01*
X807542Y1998866D02*
X823926D01*
X759028Y2137042D02*
X778586D01*
X800684Y2159140D01*
X804640D01*
X703116Y1640310D02*
X767886D01*
X811956Y1696318D02*
X838498D01*
X825798Y1698222D02*
Y1711558D01*
X827576Y1734416D02*
Y1783204D01*
X806640Y1804140D02*
X827576Y1783204D01*
X799128Y1732638D02*
Y1784074D01*
X806640Y1791586D01*
Y1804140D01*
X860468Y1697460D02*
Y1800312D01*
X856640Y1804140D02*
X860468Y1800312D01*
X859834Y1696826D02*
X860468Y1697460D01*
X861104Y1696824D01*
Y1663044D02*
Y1696824D01*
X847006Y1648946D02*
X861104Y1663044D01*
X825926Y1643866D02*
X831006Y1648946D01*
X809542Y1643866D02*
X825926D01*
X761028Y1782042D02*
X780586D01*
X802684Y1804140D01*
X806640D01*
X694116Y1249310D02*
X758886D01*
X802956Y1305318D02*
X829498D01*
X816798Y1307222D02*
Y1320558D01*
X818576Y1343416D02*
Y1392204D01*
X797640Y1413140D02*
X818576Y1392204D01*
X790128Y1341638D02*
Y1393074D01*
X797640Y1400586D01*
Y1413140D01*
X851468Y1306460D02*
Y1409312D01*
X847640Y1413140D02*
X851468Y1409312D01*
X850834Y1305826D02*
X851468Y1306460D01*
X852104Y1305824D01*
Y1272044D02*
Y1305824D01*
X838006Y1257946D02*
X852104Y1272044D01*
X816926Y1252866D02*
X822006Y1257946D01*
X800542Y1252866D02*
X816926D01*
X752028Y1391042D02*
X771586D01*
X793684Y1413140D01*
X797640D01*
X696116Y864310D02*
X760886D01*
X804956Y920318D02*
X831498D01*
X818798Y922222D02*
Y935558D01*
X820576Y958416D02*
Y1007204D01*
X799640Y1028140D02*
X820576Y1007204D01*
X792128Y956638D02*
Y1008074D01*
X799640Y1015586D01*
Y1028140D01*
X853468Y921460D02*
Y1024312D01*
X849640Y1028140D02*
X853468Y1024312D01*
X852834Y920826D02*
X853468Y921460D01*
X854104Y920824D01*
Y887044D02*
Y920824D01*
X840006Y872946D02*
X854104Y887044D01*
X818926Y867866D02*
X824006Y872946D01*
X802542Y867866D02*
X818926D01*
X754028Y1006042D02*
X773586D01*
X795684Y1028140D01*
X799640D01*
X707116Y467310D02*
X771886D01*
X815956Y523318D02*
X842498D01*
X829798Y525222D02*
Y538558D01*
X831576Y561416D02*
Y610204D01*
X810640Y631140D02*
X831576Y610204D01*
X803128Y559638D02*
Y611074D01*
X810640Y618586D01*
Y631140D01*
X864468Y524460D02*
Y627312D01*
X860640Y631140D02*
X864468Y627312D01*
X863834Y523826D02*
X864468Y524460D01*
X865104Y523824D01*
Y490044D02*
Y523824D01*
X851006Y475946D02*
X865104Y490044D01*
X829926Y470866D02*
X835006Y475946D01*
X813542Y470866D02*
X829926D01*
X765028Y609042D02*
X784586D01*
X806684Y631140D01*
X810640D01*
X706116Y80310D02*
X770886D01*
X814956Y136318D02*
X841498D01*
X828798Y138222D02*
Y151558D01*
X830576Y174416D02*
Y223204D01*
X809640Y244140D02*
X830576Y223204D01*
X802128Y172638D02*
Y224074D01*
X809640Y231586D01*
Y244140D01*
X863468Y137460D02*
Y240312D01*
X859640Y244140D02*
X863468Y240312D01*
X862834Y136826D02*
X863468Y137460D01*
X864104Y136824D01*
Y103044D02*
Y136824D01*
X850006Y88946D02*
X864104Y103044D01*
X828926Y83866D02*
X834006Y88946D01*
X812542Y83866D02*
X828926D01*
X764028Y222042D02*
X783586D01*
X805684Y244140D01*
X809640D01*
X265684Y231140D02*
X269640D01*
X243586Y209042D02*
X265684Y231140D01*
X224028Y209042D02*
X243586D01*
X272542Y70866D02*
X288926D01*
X294006Y75946D01*
X310006D02*
X324104Y90044D01*
Y123824D01*
X323468Y124460D02*
X324104Y123824D01*
X322834Y123826D02*
X323468Y124460D01*
X319640Y231140D02*
X323468Y227312D01*
Y124460D02*
Y227312D01*
X269640Y218586D02*
Y231140D01*
X262128Y211074D02*
X269640Y218586D01*
X262128Y159638D02*
Y211074D01*
X269640Y231140D02*
X290576Y210204D01*
Y161416D02*
Y210204D01*
X288798Y125222D02*
Y138558D01*
X274956Y123318D02*
X301498D01*
X166116Y67310D02*
X230886D01*
D14*
X793064Y2055254D02*
Y2069860D01*
X795064Y1700254D02*
Y1714860D01*
X786064Y1309254D02*
Y1323860D01*
X788064Y924254D02*
Y938860D01*
X799064Y527254D02*
Y541860D01*
X798064Y140254D02*
Y154860D01*
X258064Y127254D02*
Y141860D01*
D15*
X642950Y2210194D02*
X727024D01*
X762076Y2109610D02*
X780110Y2091576D01*
X735406Y2119008D02*
X744804Y2109610D01*
X780110Y2048904D02*
Y2091576D01*
X622536Y2140492D02*
Y2189780D01*
X735406Y2119008D02*
Y2201812D01*
X727024Y2210194D02*
X735406Y2201812D01*
X744804Y2109610D02*
X762076D01*
X622536Y2189780D02*
X642950Y2210194D01*
X705434Y2114690D02*
X736930Y2083194D01*
X767156Y2048904D02*
X767664D01*
X642536Y2136440D02*
X664286Y2114690D01*
X766902Y2049666D02*
X767664Y2048904D01*
X664286Y2114690D02*
X705434D01*
X736930Y2083194D02*
X760044D01*
X766902Y2076336D01*
Y2049666D02*
Y2076336D01*
X779856Y2004200D02*
Y2020202D01*
X774776Y2025282D02*
X779856Y2020202D01*
X722052Y2025282D02*
X774776D01*
X655650Y2091684D02*
X722052Y2025282D01*
X644950Y1855194D02*
X729024D01*
X764076Y1754610D02*
X782110Y1736576D01*
X737406Y1764008D02*
X746804Y1754610D01*
X782110Y1693904D02*
Y1736576D01*
X624536Y1785492D02*
Y1834780D01*
X737406Y1764008D02*
Y1846812D01*
X729024Y1855194D02*
X737406Y1846812D01*
X746804Y1754610D02*
X764076D01*
X624536Y1834780D02*
X644950Y1855194D01*
X707434Y1759690D02*
X738930Y1728194D01*
X769156Y1693904D02*
X769664D01*
X644536Y1781440D02*
X666286Y1759690D01*
X768902Y1694666D02*
X769664Y1693904D01*
X666286Y1759690D02*
X707434D01*
X738930Y1728194D02*
X762044D01*
X768902Y1721336D01*
Y1694666D02*
Y1721336D01*
X781856Y1649200D02*
Y1665202D01*
X776776Y1670282D02*
X781856Y1665202D01*
X724052Y1670282D02*
X776776D01*
X657650Y1736684D02*
X724052Y1670282D01*
X635950Y1464194D02*
X720024D01*
X755076Y1363610D02*
X773110Y1345576D01*
X728406Y1373008D02*
X737804Y1363610D01*
X773110Y1302904D02*
Y1345576D01*
X615536Y1394492D02*
Y1443780D01*
X728406Y1373008D02*
Y1455812D01*
X720024Y1464194D02*
X728406Y1455812D01*
X737804Y1363610D02*
X755076D01*
X615536Y1443780D02*
X635950Y1464194D01*
X698434Y1368690D02*
X729930Y1337194D01*
X760156Y1302904D02*
X760664D01*
X635536Y1390440D02*
X657286Y1368690D01*
X759902Y1303666D02*
X760664Y1302904D01*
X657286Y1368690D02*
X698434D01*
X729930Y1337194D02*
X753044D01*
X759902Y1330336D01*
Y1303666D02*
Y1330336D01*
X772856Y1258200D02*
Y1274202D01*
X767776Y1279282D02*
X772856Y1274202D01*
X715052Y1279282D02*
X767776D01*
X648650Y1345684D02*
X715052Y1279282D01*
X637950Y1079194D02*
X722024D01*
X757076Y978610D02*
X775110Y960576D01*
X730406Y988008D02*
X739804Y978610D01*
X775110Y917904D02*
Y960576D01*
X617536Y1009492D02*
Y1058780D01*
X730406Y988008D02*
Y1070812D01*
X722024Y1079194D02*
X730406Y1070812D01*
X739804Y978610D02*
X757076D01*
X617536Y1058780D02*
X637950Y1079194D01*
X700434Y983690D02*
X731930Y952194D01*
X762156Y917904D02*
X762664D01*
X637536Y1005440D02*
X659286Y983690D01*
X761902Y918666D02*
X762664Y917904D01*
X659286Y983690D02*
X700434D01*
X731930Y952194D02*
X755044D01*
X761902Y945336D01*
Y918666D02*
Y945336D01*
X774856Y873200D02*
Y889202D01*
X769776Y894282D02*
X774856Y889202D01*
X717052Y894282D02*
X769776D01*
X650650Y960684D02*
X717052Y894282D01*
X648950Y682194D02*
X733024D01*
X768076Y581610D02*
X786110Y563576D01*
X741406Y591008D02*
X750804Y581610D01*
X786110Y520904D02*
Y563576D01*
X628536Y612492D02*
Y661780D01*
X741406Y591008D02*
Y673812D01*
X733024Y682194D02*
X741406Y673812D01*
X750804Y581610D02*
X768076D01*
X628536Y661780D02*
X648950Y682194D01*
X711434Y586690D02*
X742930Y555194D01*
X773156Y520904D02*
X773664D01*
X648536Y608440D02*
X670286Y586690D01*
X772902Y521666D02*
X773664Y520904D01*
X670286Y586690D02*
X711434D01*
X742930Y555194D02*
X766044D01*
X772902Y548336D01*
Y521666D02*
Y548336D01*
X785856Y476200D02*
Y492202D01*
X780776Y497282D02*
X785856Y492202D01*
X728052Y497282D02*
X780776D01*
X661650Y563684D02*
X728052Y497282D01*
X647950Y295194D02*
X732024D01*
X767076Y194610D02*
X785110Y176576D01*
X740406Y204008D02*
X749804Y194610D01*
X785110Y133904D02*
Y176576D01*
X627536Y225492D02*
Y274780D01*
X740406Y204008D02*
Y286812D01*
X732024Y295194D02*
X740406Y286812D01*
X749804Y194610D02*
X767076D01*
X627536Y274780D02*
X647950Y295194D01*
X710434Y199690D02*
X741930Y168194D01*
X772156Y133904D02*
X772664D01*
X647536Y221440D02*
X669286Y199690D01*
X771902Y134666D02*
X772664Y133904D01*
X669286Y199690D02*
X710434D01*
X741930Y168194D02*
X765044D01*
X771902Y161336D01*
Y134666D02*
Y161336D01*
X784856Y89200D02*
Y105202D01*
X779776Y110282D02*
X784856Y105202D01*
X727052Y110282D02*
X779776D01*
X660650Y176684D02*
X727052Y110282D01*
X120650Y163684D02*
X187052Y97282D01*
X239776D01*
X244856Y92202D01*
Y76200D02*
Y92202D01*
X231902Y121666D02*
Y148336D01*
X225044Y155194D02*
X231902Y148336D01*
X201930Y155194D02*
X225044D01*
X129286Y186690D02*
X170434D01*
X231902Y121666D02*
X232664Y120904D01*
X107536Y208440D02*
X129286Y186690D01*
X232156Y120904D02*
X232664D01*
X170434Y186690D02*
X201930Y155194D01*
X87536Y261780D02*
X107950Y282194D01*
X209804Y181610D02*
X227076D01*
X192024Y282194D02*
X200406Y273812D01*
Y191008D02*
Y273812D01*
X87536Y212492D02*
Y261780D01*
X245110Y120904D02*
Y163576D01*
X200406Y191008D02*
X209804Y181610D01*
X227076D02*
X245110Y163576D01*
X107950Y282194D02*
X192024D01*
D16*
X655650Y2091684D02*
D03*
Y2041684D02*
D03*
X804640Y2159140D02*
D03*
X854640D02*
D03*
X699338Y1993532D02*
D03*
X552526Y2103006D02*
D03*
X759028Y2137042D02*
D03*
X657650Y1736684D02*
D03*
Y1686684D02*
D03*
X806640Y1804140D02*
D03*
X856640D02*
D03*
X701338Y1638532D02*
D03*
X554526Y1748006D02*
D03*
X761028Y1782042D02*
D03*
X648650Y1345684D02*
D03*
Y1295684D02*
D03*
X797640Y1413140D02*
D03*
X847640D02*
D03*
X692338Y1247532D02*
D03*
X545526Y1357006D02*
D03*
X752028Y1391042D02*
D03*
X650650Y960684D02*
D03*
Y910684D02*
D03*
X799640Y1028140D02*
D03*
X849640D02*
D03*
X694338Y862532D02*
D03*
X547526Y972006D02*
D03*
X754028Y1006042D02*
D03*
X661650Y563684D02*
D03*
Y513684D02*
D03*
X810640Y631140D02*
D03*
X860640D02*
D03*
X705338Y465532D02*
D03*
X558526Y575006D02*
D03*
X765028Y609042D02*
D03*
X660650Y176684D02*
D03*
Y126684D02*
D03*
X809640Y244140D02*
D03*
X859640D02*
D03*
X704338Y78532D02*
D03*
X557526Y188006D02*
D03*
X764028Y222042D02*
D03*
X224028Y209042D02*
D03*
X164338Y65532D02*
D03*
X319640Y231140D02*
D03*
X269640D02*
D03*
X120650Y113684D02*
D03*
Y163684D02*
D03*
X17526Y175006D02*
D03*
D17*
X699338Y1968132D02*
D03*
X759028Y2162442D02*
D03*
X701338Y1613132D02*
D03*
X761028Y1807442D02*
D03*
X692338Y1222132D02*
D03*
X752028Y1416442D02*
D03*
X694338Y837132D02*
D03*
X754028Y1031442D02*
D03*
X705338Y440132D02*
D03*
X765028Y634442D02*
D03*
X704338Y53132D02*
D03*
X764028Y247442D02*
D03*
X224028Y234442D02*
D03*
X164338Y40132D02*
D03*
D18*
X577926Y2103006D02*
D03*
X579926Y1748006D02*
D03*
X570926Y1357006D02*
D03*
X572926Y972006D02*
D03*
X583926Y575006D02*
D03*
X582926Y188006D02*
D03*
X42926Y175006D02*
D03*
D19*
X573720Y2036930D02*
D03*
X575720Y1681930D02*
D03*
X566720Y1290930D02*
D03*
X568720Y905930D02*
D03*
X579720Y508930D02*
D03*
X578720Y121930D02*
D03*
X38720Y108930D02*
D03*
D20*
X573720Y2019930D02*
D03*
Y2002930D02*
D03*
Y1985930D02*
D03*
Y1968930D02*
D03*
X575720Y1664930D02*
D03*
Y1647930D02*
D03*
Y1630930D02*
D03*
Y1613930D02*
D03*
X566720Y1273930D02*
D03*
Y1256930D02*
D03*
Y1239930D02*
D03*
Y1222930D02*
D03*
X568720Y888930D02*
D03*
Y871930D02*
D03*
Y854930D02*
D03*
Y837930D02*
D03*
X579720Y491930D02*
D03*
Y474930D02*
D03*
Y457930D02*
D03*
Y440930D02*
D03*
X578720Y104930D02*
D03*
Y87930D02*
D03*
Y70930D02*
D03*
Y53930D02*
D03*
X38720Y40930D02*
D03*
Y57930D02*
D03*
Y74930D02*
D03*
Y91930D02*
D03*
D21*
X622536Y2140492D02*
D03*
X597536Y2140492D02*
D03*
X642536Y2140492D02*
D03*
X624536Y1785492D02*
D03*
X599536Y1785492D02*
D03*
X644536Y1785492D02*
D03*
X615536Y1394492D02*
D03*
X590536Y1394492D02*
D03*
X635536Y1394492D02*
D03*
X617536Y1009492D02*
D03*
X592536Y1009492D02*
D03*
X637536Y1009492D02*
D03*
X628536Y612492D02*
D03*
X603536Y612492D02*
D03*
X648536Y612492D02*
D03*
X627536Y225492D02*
D03*
X602536Y225492D02*
D03*
X647536Y225492D02*
D03*
X107536Y212492D02*
D03*
X62536Y212492D02*
D03*
X87536Y212492D02*
D03*
D22*
X667536Y2140492D02*
D03*
X669536Y1785492D02*
D03*
X660536Y1394492D02*
D03*
X662536Y1009492D02*
D03*
X673536Y612492D02*
D03*
X672536Y225492D02*
D03*
X132536Y212492D02*
D03*
D23*
X698236Y2167592D02*
D03*
X566836D02*
D03*
X700236Y1812592D02*
D03*
X568836D02*
D03*
X691236Y1421592D02*
D03*
X559836D02*
D03*
X693236Y1036592D02*
D03*
X561836D02*
D03*
X704236Y639592D02*
D03*
X572836D02*
D03*
X703236Y252592D02*
D03*
X571836D02*
D03*
X31836Y239592D02*
D03*
X163236D02*
D03*
D24*
X548000Y2216000D02*
D03*
X878000Y1944000D02*
D03*
X550000Y1861000D02*
D03*
X880000Y1589000D02*
D03*
X541000Y1470000D02*
D03*
X871000Y1198000D02*
D03*
X543000Y1085000D02*
D03*
X873000Y813000D02*
D03*
X554000Y688000D02*
D03*
X884000Y416000D02*
D03*
X553000Y301000D02*
D03*
X883000Y29000D02*
D03*
X343000Y16000D02*
D03*
X13000Y288000D02*
D03*
M02*
