G04*
G04 #@! TF.GenerationSoftware,Altium Limited,Altium Designer,18.0.9 (584)*
G04*
G04 Layer_Physical_Order=1*
G04 Layer_Color=255*
%FSLAX25Y25*%
%MOIN*%
G70*
G01*
G75*
%ADD10R,0.05906X0.05512*%
%ADD11C,0.02362*%
%ADD12C,0.01968*%
%ADD13C,0.02756*%
%ADD14C,0.05906*%
%ADD15R,0.05906X0.05906*%
%ADD16R,0.05906X0.05906*%
%ADD17C,0.15748*%
G36*
X64961Y0D02*
X0D01*
Y125000D01*
X64961D01*
Y0D01*
D02*
G37*
%LPC*%
G36*
X48228Y121073D02*
X46738Y120877D01*
X45349Y120301D01*
X44280Y119481D01*
X41496D01*
X40520Y119352D01*
X39610Y118976D01*
X38829Y118376D01*
X36703Y116250D01*
X36103Y115469D01*
X35726Y114559D01*
X35598Y113583D01*
Y111024D01*
X24803D01*
Y105896D01*
X19004Y100097D01*
X18504Y100304D01*
Y111024D01*
X7087D01*
Y101960D01*
X5910Y100783D01*
X5247Y99919D01*
X4831Y98914D01*
X4689Y97835D01*
Y95079D01*
X3150D01*
Y84055D01*
Y76181D01*
X4689D01*
Y40748D01*
X4831Y39669D01*
X5247Y38663D01*
X5910Y37800D01*
X10594Y33115D01*
Y23031D01*
X10736Y21952D01*
X11153Y20947D01*
X11816Y20083D01*
X14961Y16938D01*
Y6496D01*
X26378D01*
Y17913D01*
X24735D01*
X24697Y18205D01*
X24280Y19211D01*
X23618Y20074D01*
X18933Y24759D01*
Y34843D01*
X18791Y35922D01*
X18375Y36927D01*
X17712Y37791D01*
X13028Y42475D01*
Y76181D01*
X14567D01*
Y76181D01*
X14961D01*
Y76181D01*
X26272D01*
X26378Y76181D01*
Y76181D01*
X26772D01*
Y76181D01*
X38189D01*
Y78772D01*
X38304Y78820D01*
X39085Y79419D01*
X41053Y81388D01*
X41653Y82169D01*
X42030Y83079D01*
X42158Y84055D01*
Y84055D01*
X50000D01*
X50394Y83798D01*
Y76181D01*
X51933D01*
Y38780D01*
X52075Y37700D01*
X52131Y37564D01*
Y18377D01*
X49930Y16176D01*
X44818D01*
X44741Y16276D01*
X43548Y17191D01*
X42160Y17766D01*
X40669Y17963D01*
X39179Y17766D01*
X37790Y17191D01*
X36598Y16276D01*
X35683Y15084D01*
X35108Y13695D01*
X34911Y12205D01*
X35108Y10714D01*
X35683Y9326D01*
X36598Y8133D01*
X37790Y7218D01*
X39179Y6643D01*
X40669Y6447D01*
X42160Y6643D01*
X43548Y7218D01*
X44741Y8133D01*
X44818Y8234D01*
X51575D01*
X52603Y8369D01*
X53560Y8766D01*
X54383Y9397D01*
X58910Y13924D01*
X59541Y14747D01*
X59938Y15705D01*
X60073Y16732D01*
Y37564D01*
X60130Y37700D01*
X60272Y38780D01*
Y76181D01*
X61811D01*
Y84055D01*
Y95079D01*
X54366D01*
Y99803D01*
X54224Y100882D01*
X53937Y101576D01*
Y111024D01*
X52761D01*
X52515Y111524D01*
X53215Y112436D01*
X53790Y113825D01*
X53986Y115315D01*
X53790Y116805D01*
X53215Y118194D01*
X52300Y119386D01*
X51107Y120301D01*
X49719Y120877D01*
X48228Y121073D01*
D02*
G37*
G36*
X38386Y40584D02*
X36718Y40453D01*
X35091Y40062D01*
X33545Y39422D01*
X32118Y38548D01*
X30846Y37461D01*
X29759Y36189D01*
X28885Y34762D01*
X28245Y33216D01*
X27854Y31589D01*
X27723Y29921D01*
X27854Y28253D01*
X28245Y26626D01*
X28885Y25080D01*
X29759Y23654D01*
X30846Y22381D01*
X32118Y21295D01*
X33545Y20421D01*
X35091Y19780D01*
X36718Y19390D01*
X38386Y19259D01*
X40054Y19390D01*
X41681Y19780D01*
X43227Y20421D01*
X44653Y21295D01*
X45926Y22381D01*
X47012Y23654D01*
X47886Y25080D01*
X48527Y26626D01*
X48917Y28253D01*
X49049Y29921D01*
X48917Y31589D01*
X48527Y33216D01*
X47886Y34762D01*
X47012Y36189D01*
X45926Y37461D01*
X44653Y38548D01*
X43227Y39422D01*
X41681Y40062D01*
X40054Y40453D01*
X38386Y40584D01*
D02*
G37*
%LPD*%
D10*
X32480Y89567D02*
D03*
Y81693D02*
D03*
X44291Y89567D02*
D03*
Y81693D02*
D03*
X8858Y89567D02*
D03*
Y81693D02*
D03*
X56102D02*
D03*
Y89567D02*
D03*
X20669D02*
D03*
Y81693D02*
D03*
D11*
X56102Y16732D02*
Y38780D01*
X51575Y12205D02*
X56102Y16732D01*
X40669Y12205D02*
X51575D01*
D12*
X41496Y115709D02*
X48228D01*
X32480Y89567D02*
Y89961D01*
X28543D02*
X32480D01*
X20669Y82086D02*
X24606D01*
X26575Y87992D02*
X28543Y89961D01*
X26575Y84055D02*
Y87992D01*
X24606Y82086D02*
X26575Y84055D01*
X40354Y89961D02*
X44291D01*
X32480Y82086D02*
X36417D01*
X38386Y84055D01*
Y87992D01*
X40354Y89961D01*
X39370Y113583D02*
X41496Y115709D01*
X39370Y99803D02*
Y113583D01*
X32480Y92913D02*
X39370Y99803D01*
X32480Y89961D02*
Y92913D01*
D13*
X8858Y82086D02*
X20669D01*
X44291Y89961D02*
X56102D01*
X50197D02*
Y99803D01*
X48228Y101772D02*
X50197Y99803D01*
X48228Y101772D02*
Y105709D01*
X20669Y95866D02*
X30512Y105709D01*
X20669Y89961D02*
Y95866D01*
X12795Y101772D02*
Y105709D01*
X8858Y97835D02*
X12795Y101772D01*
X8858Y89961D02*
Y97835D01*
Y40748D02*
Y81693D01*
Y40748D02*
X14764Y34843D01*
Y23031D02*
Y34843D01*
X20669Y12205D02*
Y17126D01*
X14764Y23031D02*
X20669Y17126D01*
X56102Y38780D02*
Y82087D01*
D14*
X12795Y115315D02*
D03*
X40669Y12205D02*
D03*
X30669D02*
D03*
X48228Y115315D02*
D03*
X30512D02*
D03*
D15*
X12795Y105315D02*
D03*
X48228D02*
D03*
X30512D02*
D03*
D16*
X20669Y12205D02*
D03*
D17*
X38386Y29921D02*
D03*
M02*
