G04*
G04 #@! TF.GenerationSoftware,Altium Limited,Altium Designer,18.0.9 (584)*
G04*
G04 Layer_Color=0*
%FSLAX25Y25*%
%MOIN*%
G70*
G01*
G75*
%ADD68C,0.00197*%
D68*
X87697Y202539D02*
X101279D01*
X87697D02*
Y230532D01*
X101279D01*
Y202539D02*
Y230532D01*
X184843Y189685D02*
X220276D01*
Y156772D02*
Y189685D01*
X184843Y156772D02*
X220276D01*
X184843D02*
Y189685D01*
X185236Y194173D02*
X220669D01*
X185236D02*
Y227087D01*
X220669D01*
Y194173D02*
Y227087D01*
X326969Y192205D02*
X362402D01*
X326969D02*
Y225118D01*
X362402D01*
Y192205D02*
Y225118D01*
X326575Y189685D02*
X362008D01*
Y156772D02*
Y189685D01*
X326575Y156772D02*
X362008D01*
X326575D02*
Y189685D01*
X47441Y200079D02*
X82874D01*
X47441D02*
Y232992D01*
X82874D01*
Y200079D02*
Y232992D01*
X423032Y138504D02*
X458465D01*
Y105591D02*
Y138504D01*
X423032Y105591D02*
X458465D01*
X423032D02*
Y138504D01*
X47441Y163661D02*
X82874D01*
X47441D02*
Y196575D01*
X82874D01*
Y163661D02*
Y196575D01*
X8071Y112480D02*
X43504D01*
X8071D02*
Y145394D01*
X43504D01*
Y112480D02*
Y145394D01*
X8071Y149882D02*
X43504D01*
X8071D02*
Y182795D01*
X43504D01*
Y149882D02*
Y182795D01*
X10039Y22913D02*
X45472D01*
X10039D02*
Y55827D01*
X45472D01*
Y22913D02*
Y55827D01*
X5709Y232992D02*
X41142D01*
Y200079D02*
Y232992D01*
X5709Y200079D02*
X41142D01*
X5709D02*
Y232992D01*
X262598Y102087D02*
X298031D01*
Y69173D02*
Y102087D01*
X262598Y69173D02*
X298031D01*
X262598D02*
Y102087D01*
X381890Y18701D02*
X401575D01*
X381890D02*
Y44291D01*
X401575D01*
Y18701D02*
Y44291D01*
X244094Y18701D02*
X263779D01*
X244094D02*
Y44291D01*
X263779D01*
Y18701D02*
Y44291D01*
X310039Y18701D02*
X329724D01*
X310039D02*
Y44291D01*
X329724D01*
Y18701D02*
Y44291D01*
X106890Y163031D02*
Y187362D01*
X112402D01*
Y189291D01*
X138858D01*
Y187008D02*
Y189291D01*
Y187008D02*
X152953D01*
Y163386D02*
Y187008D01*
X138858Y163386D02*
X152953D01*
X138858Y161102D02*
Y163386D01*
X112402Y161102D02*
X138858D01*
X112402D02*
Y163031D01*
X106890D02*
X112402D01*
X47874Y109843D02*
X72205D01*
X47874D02*
Y115354D01*
X45945D02*
X47874D01*
X45945D02*
Y141811D01*
X48228D01*
Y155905D01*
X71850D01*
Y141811D02*
Y155905D01*
Y141811D02*
X74134D01*
Y115354D02*
Y141811D01*
X72205Y115354D02*
X74134D01*
X72205Y109843D02*
Y115354D01*
X89665Y161201D02*
X103248D01*
X89665D02*
Y189193D01*
X103248D01*
Y161201D02*
Y189193D01*
X207283Y76417D02*
Y100748D01*
X212795D01*
Y102677D01*
X239252D01*
Y100394D02*
Y102677D01*
Y100394D02*
X253346D01*
Y76772D02*
Y100394D01*
X239252Y76772D02*
X253346D01*
X239252Y74488D02*
Y76772D01*
X212795Y74488D02*
X239252D01*
X212795D02*
Y76417D01*
X207283D02*
X212795D01*
X242717Y161063D02*
Y185394D01*
X248228D01*
Y187323D01*
X274685D01*
Y185039D02*
Y187323D01*
Y185039D02*
X288779D01*
Y161417D02*
Y185039D01*
X274685Y161417D02*
X288779D01*
X274685Y159134D02*
Y161417D01*
X248228Y159134D02*
X274685D01*
X248228D02*
Y161063D01*
X242717D02*
X248228D01*
X242717Y202402D02*
Y226732D01*
X248228D01*
Y228661D01*
X274685D01*
Y226378D02*
Y228661D01*
Y226378D02*
X288779D01*
Y202756D02*
Y226378D01*
X274685Y202756D02*
X288779D01*
X274685Y200472D02*
Y202756D01*
X248228Y200472D02*
X274685D01*
X248228D02*
Y202402D01*
X242717D02*
X248228D01*
X386417Y159095D02*
Y183425D01*
X391929D01*
Y185354D01*
X418386D01*
Y183071D02*
Y185354D01*
Y183071D02*
X432480D01*
Y159449D02*
Y183071D01*
X418386Y159449D02*
X432480D01*
X418386Y157165D02*
Y159449D01*
X391929Y157165D02*
X418386D01*
X391929D02*
Y159095D01*
X386417D02*
X391929D01*
X388386Y198465D02*
Y222795D01*
X393898D01*
Y224724D01*
X420354D01*
Y222441D02*
Y224724D01*
Y222441D02*
X434449D01*
Y198819D02*
Y222441D01*
X420354Y198819D02*
X434449D01*
X420354Y196535D02*
Y198819D01*
X393898Y196535D02*
X420354D01*
X393898D02*
Y198465D01*
X388386D02*
X393898D01*
X104921Y206339D02*
Y230669D01*
X110433D01*
Y232598D01*
X136890D01*
Y230315D02*
Y232598D01*
Y230315D02*
X150984D01*
Y206693D02*
Y230315D01*
X136890Y206693D02*
X150984D01*
X136890Y204409D02*
Y206693D01*
X110433Y204409D02*
X136890D01*
X110433D02*
Y206339D01*
X104921D02*
X110433D01*
X376575Y70512D02*
Y94842D01*
X382087D01*
Y96772D01*
X408543D01*
Y94488D02*
Y96772D01*
Y94488D02*
X422638D01*
Y70866D02*
Y94488D01*
X408543Y70866D02*
X422638D01*
X408543Y68583D02*
Y70866D01*
X382087Y68583D02*
X408543D01*
X382087D02*
Y70512D01*
X376575D02*
X382087D01*
X225492Y186240D02*
X239075D01*
Y158248D02*
Y186240D01*
X225492Y158248D02*
X239075D01*
X225492D02*
Y186240D01*
X225492Y198602D02*
X239075D01*
X225492D02*
Y226594D01*
X239075D01*
Y198602D02*
Y226594D01*
X369193Y186240D02*
X382776D01*
Y158248D02*
Y186240D01*
X369193Y158248D02*
X382776D01*
X369193D02*
Y186240D01*
X369193Y196634D02*
X382776D01*
X369193D02*
Y224626D01*
X382776D01*
Y196634D02*
Y224626D01*
M02*
