G04*
G04 #@! TF.GenerationSoftware,Altium Limited,Altium Designer,18.0.9 (584)*
G04*
G04 Layer_Color=32768*
%FSLAX25Y25*%
%MOIN*%
G70*
G01*
G75*
%ADD67C,0.00394*%
D67*
X102559Y27559D02*
Y41339D01*
X117913Y27559D02*
Y41339D01*
X102559D02*
X117913D01*
X102559Y27559D02*
X117913D01*
X108268Y34449D02*
X112205D01*
X110236Y32480D02*
Y36417D01*
X289370Y32480D02*
X293307D01*
X291339Y30512D02*
Y34449D01*
X305512Y15354D02*
Y49606D01*
X277165Y15354D02*
Y49606D01*
X305512D01*
X277165Y15354D02*
X305512D01*
X113189Y50591D02*
X119095D01*
X113189Y61614D02*
X119095D01*
X113189Y50591D02*
Y61614D01*
X119095Y50591D02*
Y61614D01*
X116142Y54134D02*
Y58071D01*
X114173Y56102D02*
X118110D01*
X150591Y47638D02*
X156496D01*
X150591Y58661D02*
X156496D01*
X150591Y47638D02*
Y58661D01*
X156496Y47638D02*
Y58661D01*
X153543Y51181D02*
Y55118D01*
X151575Y53150D02*
X155512D01*
X49213D02*
X53150D01*
X51181Y51181D02*
Y55118D01*
X54134Y47638D02*
Y58661D01*
X48228Y47638D02*
Y58661D01*
X54134D01*
X48228Y47638D02*
X54134D01*
X51378Y26575D02*
Y40354D01*
X66732Y26575D02*
Y40354D01*
X51378D02*
X66732D01*
X51378Y26575D02*
X66732D01*
X57087Y33465D02*
X61024D01*
X59055Y31496D02*
Y35433D01*
X161417Y179134D02*
X165354D01*
X163386Y177165D02*
Y181102D01*
X160433Y173622D02*
Y184646D01*
X166339Y173622D02*
Y184646D01*
X160433Y173622D02*
X166339D01*
X160433Y184646D02*
X166339D01*
X161417Y163386D02*
X165354D01*
X163386Y161417D02*
Y165354D01*
X166339Y157874D02*
Y168898D01*
X160433Y157874D02*
Y168898D01*
X166339D01*
X160433Y157874D02*
X166339D01*
X216535Y53150D02*
X220472D01*
X218504Y51181D02*
Y55118D01*
X215551Y47638D02*
Y58661D01*
X221457Y47638D02*
Y58661D01*
X215551Y47638D02*
X221457D01*
X215551Y58661D02*
X221457D01*
X165354Y53150D02*
X169291D01*
X167323Y51181D02*
Y55118D01*
X164370Y47638D02*
Y58661D01*
X170276Y47638D02*
Y58661D01*
X164370Y47638D02*
X170276D01*
X164370Y58661D02*
X170276D01*
X62992Y53150D02*
X66929D01*
X64961Y51181D02*
Y55118D01*
X62008Y47638D02*
Y58661D01*
X67913Y47638D02*
Y58661D01*
X62008Y47638D02*
X67913D01*
X62008Y58661D02*
X67913D01*
X206890Y26575D02*
Y40354D01*
X222244Y26575D02*
Y40354D01*
X206890D02*
X222244D01*
X206890Y26575D02*
X222244D01*
X212598Y33465D02*
X216535D01*
X214567Y31496D02*
Y35433D01*
X153740Y26575D02*
Y40354D01*
X169095Y26575D02*
Y40354D01*
X153740D02*
X169095D01*
X153740Y26575D02*
X169095D01*
X159449Y33465D02*
X163386D01*
X161417Y31496D02*
Y35433D01*
X57087Y158465D02*
Y162402D01*
X55118Y160433D02*
X59055D01*
X51575Y157480D02*
X62598D01*
X51575Y163386D02*
X62598D01*
Y157480D02*
Y163386D01*
X51575Y157480D02*
Y163386D01*
X73819Y158465D02*
Y162402D01*
X71850Y160433D02*
X75787D01*
X68307Y163386D02*
X79331D01*
X68307Y157480D02*
X79331D01*
X68307D02*
Y163386D01*
X79331Y157480D02*
Y163386D01*
X202756Y53150D02*
X206693D01*
X204724Y51181D02*
Y55118D01*
X207677Y47638D02*
Y58661D01*
X201772Y47638D02*
Y58661D01*
X207677D01*
X201772Y47638D02*
X207677D01*
X100394Y56102D02*
X104331D01*
X102362Y54134D02*
Y58071D01*
X99410Y50591D02*
Y61614D01*
X105315Y50591D02*
Y61614D01*
X99410Y50591D02*
X105315D01*
X99410Y61614D02*
X105315D01*
X251969Y59055D02*
Y62992D01*
X250000Y61024D02*
X253937D01*
X246457Y63976D02*
X257480D01*
X246457Y58071D02*
X257480D01*
X246457D02*
Y63976D01*
X257480Y58071D02*
Y63976D01*
X297244Y181102D02*
X301181D01*
X299213Y179134D02*
Y183071D01*
X296260Y175591D02*
Y186614D01*
X302165Y175591D02*
Y186614D01*
X296260Y175591D02*
X302165D01*
X296260Y186614D02*
X302165D01*
X299213Y220472D02*
X303150D01*
X301181Y218504D02*
Y222441D01*
X298228Y214961D02*
Y225984D01*
X304134Y214961D02*
Y225984D01*
X298228Y214961D02*
X304134D01*
X298228Y225984D02*
X304134D01*
X238189Y59055D02*
Y62992D01*
X236221Y61024D02*
X240158D01*
X232677Y58071D02*
X243701D01*
X232677Y63976D02*
X243701D01*
Y58071D02*
Y63976D01*
X232677Y58071D02*
Y63976D01*
X297244Y161417D02*
X301181D01*
X299213Y159449D02*
Y163386D01*
X302165Y155905D02*
Y166929D01*
X296260Y155905D02*
Y166929D01*
X302165D01*
X296260Y155905D02*
X302165D01*
X299213Y202756D02*
X303150D01*
X301181Y200787D02*
Y204724D01*
X304134Y197244D02*
Y208268D01*
X298228Y197244D02*
Y208268D01*
X304134D01*
X298228Y197244D02*
X304134D01*
X446850Y177165D02*
X450787D01*
X448819Y175197D02*
Y179134D01*
X445866Y171653D02*
Y182677D01*
X451772Y171653D02*
Y182677D01*
X445866Y171653D02*
X451772D01*
X445866Y182677D02*
X451772D01*
X444882Y216535D02*
X448819D01*
X446850Y214567D02*
Y218504D01*
X443898Y211024D02*
Y222047D01*
X449803Y211024D02*
Y222047D01*
X443898Y211024D02*
X449803D01*
X443898Y222047D02*
X449803D01*
X418307Y57087D02*
Y61024D01*
X416339Y59055D02*
X420276D01*
X412795Y62008D02*
X423819D01*
X412795Y56102D02*
X423819D01*
X412795D02*
Y62008D01*
X423819Y56102D02*
Y62008D01*
X161417Y222441D02*
X165354D01*
X163386Y220472D02*
Y224410D01*
X160433Y216929D02*
Y227953D01*
X166339Y216929D02*
Y227953D01*
X160433Y216929D02*
X166339D01*
X160433Y227953D02*
X166339D01*
X446850Y157480D02*
X450787D01*
X448819Y155512D02*
Y159449D01*
X451772Y151969D02*
Y162992D01*
X445866Y151969D02*
Y162992D01*
X451772D01*
X445866Y151969D02*
X451772D01*
X444882Y198819D02*
X448819D01*
X446850Y196850D02*
Y200787D01*
X449803Y193307D02*
Y204331D01*
X443898Y193307D02*
Y204331D01*
X449803D01*
X443898Y193307D02*
X449803D01*
X161417Y206693D02*
X165354D01*
X163386Y204724D02*
Y208661D01*
X166339Y201181D02*
Y212205D01*
X160433Y201181D02*
Y212205D01*
X166339D01*
X160433Y201181D02*
X166339D01*
X388779Y57087D02*
Y61024D01*
X386811Y59055D02*
X390748D01*
X383268Y56102D02*
X394291D01*
X383268Y62008D02*
X394291D01*
Y56102D02*
Y62008D01*
X383268Y56102D02*
Y62008D01*
X412008Y17323D02*
Y45669D01*
X446260Y17323D02*
Y45669D01*
X412008D02*
X446260D01*
X412008Y17323D02*
X446260D01*
X427165Y31496D02*
X431102D01*
X429134Y29528D02*
Y33465D01*
X335236Y14370D02*
X363583D01*
X335236Y48622D02*
X363583D01*
X335236Y14370D02*
Y48622D01*
X363583Y14370D02*
Y48622D01*
X349410Y29528D02*
Y33465D01*
X347441Y31496D02*
X351378D01*
M02*
