G04*
G04 #@! TF.GenerationSoftware,Altium Limited,Altium Designer,18.0.9 (584)*
G04*
G04 Layer_Color=32896*
%FSLAX25Y25*%
%MOIN*%
G70*
G01*
G75*
%ADD11C,0.00787*%
%ADD12C,0.00800*%
%ADD13C,0.00945*%
%ADD14C,0.00500*%
D11*
X94882Y201752D02*
G03*
X94882Y201752I-394J0D01*
G01*
D02*
G03*
X94882Y201752I-394J0D01*
G01*
X223622Y181024D02*
G03*
X223622Y181024I-394J0D01*
G01*
D02*
G03*
X223622Y181024I-394J0D01*
G01*
X182677Y202835D02*
G03*
X182677Y202835I-394J0D01*
G01*
D02*
G03*
X182677Y202835I-394J0D01*
G01*
X324410Y200866D02*
G03*
X324410Y200866I-394J0D01*
G01*
D02*
G03*
X324410Y200866I-394J0D01*
G01*
X365354Y181024D02*
G03*
X365354Y181024I-394J0D01*
G01*
D02*
G03*
X365354Y181024I-394J0D01*
G01*
X44882Y208740D02*
G03*
X44882Y208740I-394J0D01*
G01*
D02*
G03*
X44882Y208740I-394J0D01*
G01*
X461811Y129842D02*
G03*
X461811Y129842I-394J0D01*
G01*
D02*
G03*
X461811Y129842I-394J0D01*
G01*
X44882Y172323D02*
G03*
X44882Y172323I-394J0D01*
G01*
D02*
G03*
X44882Y172323I-394J0D01*
G01*
X5512Y121142D02*
G03*
X5512Y121142I-394J0D01*
G01*
D02*
G03*
X5512Y121142I-394J0D01*
G01*
Y158543D02*
G03*
X5512Y158543I-394J0D01*
G01*
D02*
G03*
X5512Y158543I-394J0D01*
G01*
X7480Y31575D02*
G03*
X7480Y31575I-394J0D01*
G01*
D02*
G03*
X7480Y31575I-394J0D01*
G01*
X44488Y224331D02*
G03*
X44488Y224331I-394J0D01*
G01*
D02*
G03*
X44488Y224331I-394J0D01*
G01*
X301378Y93425D02*
G03*
X301378Y93425I-394J0D01*
G01*
D02*
G03*
X301378Y93425I-394J0D01*
G01*
X392126Y17913D02*
G03*
X392126Y17913I-394J0D01*
G01*
D02*
G03*
X392126Y17913I-394J0D01*
G01*
X254331D02*
G03*
X254331Y17913I-394J0D01*
G01*
D02*
G03*
X254331Y17913I-394J0D01*
G01*
X320276D02*
G03*
X320276Y17913I-394J0D01*
G01*
D02*
G03*
X320276Y17913I-394J0D01*
G01*
X96850Y160413D02*
G03*
X96850Y160413I-394J0D01*
G01*
D02*
G03*
X96850Y160413I-394J0D01*
G01*
X232677Y187028D02*
G03*
X232677Y187028I-394J0D01*
G01*
D02*
G03*
X232677Y187028I-394J0D01*
G01*
X232677Y197815D02*
G03*
X232677Y197815I-394J0D01*
G01*
D02*
G03*
X232677Y197815I-394J0D01*
G01*
X376378Y187028D02*
G03*
X376378Y187028I-394J0D01*
G01*
D02*
G03*
X376378Y187028I-394J0D01*
G01*
X376378Y195846D02*
G03*
X376378Y195846I-394J0D01*
G01*
D02*
G03*
X376378Y195846I-394J0D01*
G01*
D12*
X448539Y92348D02*
G03*
X441422Y92348I-3559J-11640D01*
G01*
X441225Y69069D02*
G03*
X448342Y69069I3559J11640D01*
G01*
X448539Y92348D02*
G03*
X441422Y92348I-3559J-11640D01*
G01*
X441225Y69069D02*
G03*
X448342Y69069I3559J11640D01*
G01*
X355035Y96286D02*
G03*
X347918Y96286I-3559J-11640D01*
G01*
X347721Y73006D02*
G03*
X354838Y73006I3559J11640D01*
G01*
X355035Y96286D02*
G03*
X347918Y96286I-3559J-11640D01*
G01*
X347721Y73006D02*
G03*
X354838Y73006I3559J11640D01*
G01*
X323539Y96286D02*
G03*
X316422Y96286I-3559J-11640D01*
G01*
X316225Y73006D02*
G03*
X323342Y73006I3559J11640D01*
G01*
X323539Y96286D02*
G03*
X316422Y96286I-3559J-11640D01*
G01*
X316225Y73006D02*
G03*
X323342Y73006I3559J11640D01*
G01*
X440551Y93701D02*
X449213D01*
X440551Y67716D02*
X449213D01*
X440551Y93701D02*
X449213D01*
X440551Y67716D02*
X449213D01*
X347047Y97638D02*
X355709D01*
X347047Y71653D02*
X355709D01*
X347047Y97638D02*
X355709D01*
X347047Y71653D02*
X355709D01*
X315551Y97638D02*
X324213D01*
X315551Y71653D02*
X324213D01*
X315551Y97638D02*
X324213D01*
X315551Y71653D02*
X324213D01*
D13*
X147323Y161811D02*
G03*
X147323Y161811I-472J0D01*
G01*
D02*
G03*
X147323Y161811I-472J0D01*
G01*
X73898Y149803D02*
G03*
X73898Y149803I-472J0D01*
G01*
D02*
G03*
X73898Y149803I-472J0D01*
G01*
X247716Y75197D02*
G03*
X247716Y75197I-472J0D01*
G01*
D02*
G03*
X247716Y75197I-472J0D01*
G01*
X283150Y159843D02*
G03*
X283150Y159843I-472J0D01*
G01*
D02*
G03*
X283150Y159843I-472J0D01*
G01*
Y201181D02*
G03*
X283150Y201181I-472J0D01*
G01*
D02*
G03*
X283150Y201181I-472J0D01*
G01*
X426850Y157874D02*
G03*
X426850Y157874I-472J0D01*
G01*
D02*
G03*
X426850Y157874I-472J0D01*
G01*
X428819Y197244D02*
G03*
X428819Y197244I-472J0D01*
G01*
D02*
G03*
X428819Y197244I-472J0D01*
G01*
X145354Y205118D02*
G03*
X145354Y205118I-472J0D01*
G01*
D02*
G03*
X145354Y205118I-472J0D01*
G01*
X417008Y69291D02*
G03*
X417008Y69291I-472J0D01*
G01*
D02*
G03*
X417008Y69291I-472J0D01*
G01*
D14*
X100295Y205512D02*
Y227559D01*
X88681Y205512D02*
X100295D01*
X88681D02*
Y227559D01*
X100295D01*
Y205512D02*
Y227559D01*
X88681Y205512D02*
X100295D01*
X88681D02*
Y227559D01*
X100295D01*
X185827Y188701D02*
X219291D01*
Y157756D02*
Y188701D01*
X185827Y157756D02*
X219291D01*
X185827D02*
Y188701D01*
X219291D01*
Y157756D02*
Y188701D01*
X185827Y157756D02*
X219291D01*
X185827D02*
Y188701D01*
X186221Y195158D02*
X219685D01*
X186221D02*
Y226102D01*
X219685D01*
Y195158D02*
Y226102D01*
X186221Y195158D02*
X219685D01*
X186221D02*
Y226102D01*
X219685D01*
Y195158D02*
Y226102D01*
X327953Y193189D02*
X361417D01*
X327953D02*
Y224134D01*
X361417D01*
Y193189D02*
Y224134D01*
X327953Y193189D02*
X361417D01*
X327953D02*
Y224134D01*
X361417D01*
Y193189D02*
Y224134D01*
X327559Y188701D02*
X361024D01*
Y157756D02*
Y188701D01*
X327559Y157756D02*
X361024D01*
X327559D02*
Y188701D01*
X361024D01*
Y157756D02*
Y188701D01*
X327559Y157756D02*
X361024D01*
X327559D02*
Y188701D01*
X48425Y201063D02*
X81890D01*
X48425D02*
Y232008D01*
X81890D01*
Y201063D02*
Y232008D01*
X48425Y201063D02*
X81890D01*
X48425D02*
Y232008D01*
X81890D01*
Y201063D02*
Y232008D01*
X424016Y137520D02*
X457480D01*
Y106575D02*
Y137520D01*
X424016Y106575D02*
X457480D01*
X424016D02*
Y137520D01*
X457480D01*
Y106575D02*
Y137520D01*
X424016Y106575D02*
X457480D01*
X424016D02*
Y137520D01*
X48425Y164646D02*
X81890D01*
X48425D02*
Y195590D01*
X81890D01*
Y164646D02*
Y195590D01*
X48425Y164646D02*
X81890D01*
X48425D02*
Y195590D01*
X81890D01*
Y164646D02*
Y195590D01*
X9055Y113465D02*
X42520D01*
X9055D02*
Y144409D01*
X42520D01*
Y113465D02*
Y144409D01*
X9055Y113465D02*
X42520D01*
X9055D02*
Y144409D01*
X42520D01*
Y113465D02*
Y144409D01*
X9055Y150866D02*
X42520D01*
X9055D02*
Y181811D01*
X42520D01*
Y150866D02*
Y181811D01*
X9055Y150866D02*
X42520D01*
X9055D02*
Y181811D01*
X42520D01*
Y150866D02*
Y181811D01*
X11024Y23898D02*
X44488D01*
X11024D02*
Y54843D01*
X44488D01*
Y23898D02*
Y54843D01*
X11024Y23898D02*
X44488D01*
X11024D02*
Y54843D01*
X44488D01*
Y23898D02*
Y54843D01*
X6693Y232008D02*
X40157D01*
Y201063D02*
Y232008D01*
X6693Y201063D02*
X40157D01*
X6693D02*
Y232008D01*
X40157D01*
Y201063D02*
Y232008D01*
X6693Y201063D02*
X40157D01*
X6693D02*
Y232008D01*
X263583Y101102D02*
X297047D01*
Y70157D02*
Y101102D01*
X263583Y70157D02*
X297047D01*
X263583D02*
Y101102D01*
X297047D01*
Y70157D02*
Y101102D01*
X263583Y70157D02*
X297047D01*
X263583D02*
Y101102D01*
X387795Y22638D02*
X395669D01*
X382874Y27559D02*
X387795Y22638D01*
X382874Y27559D02*
Y40354D01*
X400591D01*
Y27559D02*
Y40354D01*
X395669Y22638D02*
X400591Y27559D01*
X387795Y22638D02*
X395669D01*
X382874Y27559D02*
X387795Y22638D01*
X382874Y27559D02*
Y40354D01*
X400591D01*
Y27559D02*
Y40354D01*
X395669Y22638D02*
X400591Y27559D01*
X250000Y22638D02*
X257874D01*
X245079Y27559D02*
X250000Y22638D01*
X245079Y27559D02*
Y40354D01*
X262795D01*
Y27559D02*
Y40354D01*
X257874Y22638D02*
X262795Y27559D01*
X250000Y22638D02*
X257874D01*
X245079Y27559D02*
X250000Y22638D01*
X245079Y27559D02*
Y40354D01*
X262795D01*
Y27559D02*
Y40354D01*
X257874Y22638D02*
X262795Y27559D01*
X315945Y22638D02*
X323819D01*
X311024Y27559D02*
X315945Y22638D01*
X311024Y27559D02*
Y40354D01*
X328740D01*
Y27559D02*
Y40354D01*
X323819Y22638D02*
X328740Y27559D01*
X315945Y22638D02*
X323819D01*
X311024Y27559D02*
X315945Y22638D01*
X311024Y27559D02*
Y40354D01*
X328740D01*
Y27559D02*
Y40354D01*
X323819Y22638D02*
X328740Y27559D01*
X113386Y162087D02*
Y188307D01*
X137874D01*
Y162087D02*
Y188307D01*
X113386Y162087D02*
X137874D01*
X113386D02*
Y188307D01*
X137874D01*
Y162087D02*
Y188307D01*
X113386Y162087D02*
X137874D01*
X46929Y116339D02*
X73150D01*
X46929D02*
Y140827D01*
X73150D01*
Y116339D02*
Y140827D01*
X46929Y116339D02*
X73150D01*
X46929D02*
Y140827D01*
X73150D01*
Y116339D02*
Y140827D01*
X102264Y164173D02*
Y186221D01*
X90650Y164173D02*
X102264D01*
X90650D02*
Y186221D01*
X102264D01*
Y164173D02*
Y186221D01*
X90650Y164173D02*
X102264D01*
X90650D02*
Y186221D01*
X102264D01*
X213779Y75472D02*
Y101693D01*
X238268D01*
Y75472D02*
Y101693D01*
X213779Y75472D02*
X238268D01*
X213779D02*
Y101693D01*
X238268D01*
Y75472D02*
Y101693D01*
X213779Y75472D02*
X238268D01*
X249213Y160118D02*
Y186339D01*
X273701D01*
Y160118D02*
Y186339D01*
X249213Y160118D02*
X273701D01*
X249213D02*
Y186339D01*
X273701D01*
Y160118D02*
Y186339D01*
X249213Y160118D02*
X273701D01*
X249213Y201457D02*
Y227677D01*
X273701D01*
Y201457D02*
Y227677D01*
X249213Y201457D02*
X273701D01*
X249213D02*
Y227677D01*
X273701D01*
Y201457D02*
Y227677D01*
X249213Y201457D02*
X273701D01*
X392913Y158150D02*
Y184370D01*
X417402D01*
Y158150D02*
Y184370D01*
X392913Y158150D02*
X417402D01*
X392913D02*
Y184370D01*
X417402D01*
Y158150D02*
Y184370D01*
X392913Y158150D02*
X417402D01*
X394882Y197520D02*
Y223740D01*
X419370D01*
Y197520D02*
Y223740D01*
X394882Y197520D02*
X419370D01*
X394882D02*
Y223740D01*
X419370D01*
Y197520D02*
Y223740D01*
X394882Y197520D02*
X419370D01*
X111417Y205394D02*
Y231614D01*
X135906D01*
Y205394D02*
Y231614D01*
X111417Y205394D02*
X135906D01*
X111417D02*
Y231614D01*
X135906D01*
Y205394D02*
Y231614D01*
X111417Y205394D02*
X135906D01*
X383071Y69567D02*
Y95787D01*
X407559D01*
Y69567D02*
Y95787D01*
X383071Y69567D02*
X407559D01*
X383071D02*
Y95787D01*
X407559D01*
Y69567D02*
Y95787D01*
X383071Y69567D02*
X407559D01*
X226476Y161221D02*
Y183268D01*
X238090D01*
Y161221D02*
Y183268D01*
X226476Y161221D02*
X238090D01*
X226476D02*
Y183268D01*
X238090D01*
Y161221D02*
Y183268D01*
X226476Y161221D02*
X238090D01*
X238091Y201575D02*
Y223622D01*
X226476Y201575D02*
X238091D01*
X226476D02*
Y223622D01*
X238091D01*
Y201575D02*
Y223622D01*
X226476Y201575D02*
X238091D01*
X226476D02*
Y223622D01*
X238091D01*
X370177Y161221D02*
Y183268D01*
X381791D01*
Y161221D02*
Y183268D01*
X370177Y161221D02*
X381791D01*
X370177D02*
Y183268D01*
X381791D01*
Y161221D02*
Y183268D01*
X370177Y161221D02*
X381791D01*
X381791Y199606D02*
Y221654D01*
X370177Y199606D02*
X381791D01*
X370177D02*
Y221654D01*
X381791D01*
Y199606D02*
Y221654D01*
X370177Y199606D02*
X381791D01*
X370177D02*
Y221654D01*
X381791D01*
M02*
