G04*
G04 #@! TF.GenerationSoftware,Altium Limited,Altium Designer,18.0.9 (584)*
G04*
G04 Layer_Color=16711935*
%FSLAX25Y25*%
%MOIN*%
G70*
G01*
G75*
%ADD44R,0.10544X0.10544*%
%ADD45C,0.10544*%
%ADD46C,0.06706*%
%ADD47R,0.06706X0.06706*%
%ADD48R,0.06706X0.06706*%
%ADD49C,0.12611*%
%ADD50C,0.04737*%
D44*
X204724Y181024D02*
D03*
X200787Y202835D02*
D03*
X342520Y200866D02*
D03*
X346457Y181024D02*
D03*
X62992Y208740D02*
D03*
X442913Y129842D02*
D03*
X62992Y172323D02*
D03*
X23622Y121142D02*
D03*
Y158543D02*
D03*
X25591Y31575D02*
D03*
Y224331D02*
D03*
X282480Y93425D02*
D03*
D45*
X204724Y165433D02*
D03*
X200787Y218425D02*
D03*
X342520Y216457D02*
D03*
X346457Y165433D02*
D03*
X62992Y224331D02*
D03*
X442913Y114252D02*
D03*
X62992Y187913D02*
D03*
X23622Y136732D02*
D03*
Y174134D02*
D03*
X25591Y47165D02*
D03*
Y208740D02*
D03*
X282480Y77835D02*
D03*
D46*
X182559Y98425D02*
D03*
X172559D02*
D03*
X162559D02*
D03*
X182559Y114173D02*
D03*
X172559D02*
D03*
X162559D02*
D03*
X127795Y102362D02*
D03*
X117795D02*
D03*
X107795D02*
D03*
X97795D02*
D03*
X87795D02*
D03*
X77795D02*
D03*
X67795D02*
D03*
X57795D02*
D03*
X47795D02*
D03*
X37795D02*
D03*
X27795D02*
D03*
X17795D02*
D03*
X232283Y39528D02*
D03*
X181102D02*
D03*
X128937Y41496D02*
D03*
X78740Y39528D02*
D03*
D47*
X152559Y98425D02*
D03*
Y114173D02*
D03*
X137795Y102362D02*
D03*
D48*
X232283Y29528D02*
D03*
X181102D02*
D03*
X128937Y31496D02*
D03*
X78740Y29528D02*
D03*
D49*
X458661Y9843D02*
D03*
X11811Y11811D02*
D03*
X13780Y242126D02*
D03*
X452756Y236221D02*
D03*
D50*
X241142Y149606D02*
D03*
X322835Y141732D02*
D03*
X126969Y196850D02*
D03*
X407480Y190945D02*
D03*
X265748Y193898D02*
D03*
X376969Y48228D02*
D03*
X194882Y37402D02*
D03*
X143701D02*
D03*
X86614Y58071D02*
D03*
M02*
