G04*
G04 #@! TF.GenerationSoftware,Altium Limited,Altium Designer,18.0.9 (584)*
G04*
G04 Layer_Color=8388736*
%FSLAX25Y25*%
%MOIN*%
G70*
G01*
G75*
%ADD30R,0.05328X0.03162*%
%ADD31R,0.13792X0.10249*%
%ADD32R,0.04737X0.10249*%
%ADD33R,0.05918X0.04737*%
%ADD34R,0.06942X0.09973*%
%ADD35R,0.07099X0.14580*%
%ADD36R,0.07099X0.10642*%
%ADD37R,0.10721X0.04501*%
%ADD38R,0.25328X0.23123*%
%ADD39R,0.04737X0.05918*%
%ADD40R,0.04501X0.10721*%
%ADD41R,0.23123X0.25328*%
%ADD42R,0.10249X0.04737*%
%ADD43R,0.10249X0.13792*%
%ADD44R,0.10544X0.10544*%
%ADD45C,0.10544*%
%ADD46C,0.06706*%
%ADD47R,0.06706X0.06706*%
%ADD48R,0.06706X0.06706*%
%ADD49C,0.12611*%
%ADD50C,0.04737*%
D30*
X366634Y38189D02*
D03*
Y30709D02*
D03*
X357776Y34449D02*
D03*
X417815Y37205D02*
D03*
Y29724D02*
D03*
X408957Y33465D02*
D03*
X262303Y37205D02*
D03*
Y29724D02*
D03*
X253445Y33465D02*
D03*
X315453Y37205D02*
D03*
Y29724D02*
D03*
X306594Y33465D02*
D03*
D31*
X181102Y43898D02*
D03*
X123031Y42913D02*
D03*
D32*
X172047Y21063D02*
D03*
X181102D02*
D03*
X190157D02*
D03*
X132087Y20079D02*
D03*
X123031D02*
D03*
X113976D02*
D03*
D33*
X356299Y52953D02*
D03*
Y59252D02*
D03*
X318898Y50000D02*
D03*
Y56299D02*
D03*
X421260D02*
D03*
Y50000D02*
D03*
X309055Y175984D02*
D03*
Y182283D02*
D03*
Y166535D02*
D03*
Y160236D02*
D03*
X253937Y50000D02*
D03*
Y56299D02*
D03*
X305118Y50000D02*
D03*
Y56299D02*
D03*
X407480Y50000D02*
D03*
Y56299D02*
D03*
X267717Y56299D02*
D03*
Y50000D02*
D03*
X370079Y52953D02*
D03*
Y59252D02*
D03*
X173228Y177953D02*
D03*
Y184252D02*
D03*
X171260Y217323D02*
D03*
Y223622D02*
D03*
X173228Y164567D02*
D03*
Y158268D02*
D03*
X171260Y205906D02*
D03*
Y199606D02*
D03*
X23622Y174016D02*
D03*
Y180315D02*
D03*
X25591Y213386D02*
D03*
Y219685D02*
D03*
X309055Y219291D02*
D03*
Y225590D02*
D03*
X23622Y160630D02*
D03*
Y154331D02*
D03*
X25591Y201969D02*
D03*
Y195669D02*
D03*
X309055Y209842D02*
D03*
Y203543D02*
D03*
D34*
X377953Y208110D02*
D03*
Y224961D02*
D03*
X375984Y166772D02*
D03*
Y183622D02*
D03*
X240158Y180669D02*
D03*
Y163819D02*
D03*
X240158Y204173D02*
D03*
Y221024D02*
D03*
X96457Y180669D02*
D03*
Y163819D02*
D03*
X96457Y202205D02*
D03*
Y219055D02*
D03*
D35*
X27559Y70079D02*
D03*
Y91339D02*
D03*
X121063Y74016D02*
D03*
Y95276D02*
D03*
X152559Y74016D02*
D03*
Y95276D02*
D03*
D36*
X80709Y24606D02*
D03*
Y38386D02*
D03*
X218504Y24606D02*
D03*
Y38386D02*
D03*
X152559Y24606D02*
D03*
Y38386D02*
D03*
D37*
X325433Y166220D02*
D03*
Y184173D02*
D03*
X225039Y79606D02*
D03*
Y97559D02*
D03*
X189606Y164252D02*
D03*
Y182205D02*
D03*
Y205591D02*
D03*
Y223543D02*
D03*
X45906Y162283D02*
D03*
Y180236D02*
D03*
X43937Y201654D02*
D03*
Y219606D02*
D03*
X327402Y209528D02*
D03*
Y227480D02*
D03*
X55748Y73701D02*
D03*
Y91654D02*
D03*
D38*
X352284Y175197D02*
D03*
X251890Y88583D02*
D03*
X216457Y173228D02*
D03*
Y214567D02*
D03*
X72756Y171260D02*
D03*
X70787Y210630D02*
D03*
X354252Y218504D02*
D03*
X82598Y82677D02*
D03*
D39*
X412205Y160433D02*
D03*
X418504D02*
D03*
X401772D02*
D03*
X395472D02*
D03*
X223622Y61024D02*
D03*
X217323D02*
D03*
X231102D02*
D03*
X237402D02*
D03*
X57284Y59055D02*
D03*
X50984D02*
D03*
X80512D02*
D03*
X86811D02*
D03*
D40*
X403425Y149961D02*
D03*
X421378D02*
D03*
D41*
X412402Y123110D02*
D03*
D42*
X54724Y40551D02*
D03*
Y31496D02*
D03*
Y22441D02*
D03*
D43*
X31890Y31496D02*
D03*
D44*
X267717Y181024D02*
D03*
X271654Y202835D02*
D03*
X129921Y200866D02*
D03*
X125984Y181024D02*
D03*
X409449Y208740D02*
D03*
X29528Y129842D02*
D03*
X409449Y172323D02*
D03*
X448819Y121142D02*
D03*
Y158543D02*
D03*
X446850Y31575D02*
D03*
Y224331D02*
D03*
X189961Y93425D02*
D03*
D45*
X267717Y165433D02*
D03*
X271654Y218425D02*
D03*
X129921Y216457D02*
D03*
X125984Y165433D02*
D03*
X409449Y224331D02*
D03*
X29528Y114252D02*
D03*
X409449Y187913D02*
D03*
X448819Y136732D02*
D03*
Y174134D02*
D03*
X446850Y47165D02*
D03*
Y208740D02*
D03*
X189961Y77835D02*
D03*
D46*
X289882Y98425D02*
D03*
X299882D02*
D03*
X309882D02*
D03*
X289882Y114173D02*
D03*
X299882D02*
D03*
X309882D02*
D03*
X344646Y102362D02*
D03*
X354646D02*
D03*
X364646D02*
D03*
X374646D02*
D03*
X384646D02*
D03*
X394646D02*
D03*
X404646D02*
D03*
X414646D02*
D03*
X424646D02*
D03*
X434646D02*
D03*
X444646D02*
D03*
X454646D02*
D03*
X240158Y39528D02*
D03*
X291339D02*
D03*
X343504Y41496D02*
D03*
X393701Y39528D02*
D03*
D47*
X319882Y98425D02*
D03*
Y114173D02*
D03*
X334646Y102362D02*
D03*
D48*
X240158Y29528D02*
D03*
X291339D02*
D03*
X343504Y31496D02*
D03*
X393701Y29528D02*
D03*
D49*
X13780Y9843D02*
D03*
X460630Y11811D02*
D03*
X458661Y242126D02*
D03*
X19685Y236221D02*
D03*
D50*
X231299Y149606D02*
D03*
X149606Y141732D02*
D03*
X345472Y196850D02*
D03*
X64961Y190945D02*
D03*
X206693Y193898D02*
D03*
X95472Y48228D02*
D03*
X277559Y37402D02*
D03*
X328740D02*
D03*
X385827Y58071D02*
D03*
M02*
