G04*
G04 #@! TF.GenerationSoftware,Altium Limited,Altium Designer,18.0.9 (584)*
G04*
G04 Layer_Color=65535*
%FSLAX25Y25*%
%MOIN*%
G70*
G01*
G75*
%ADD10C,0.00984*%
%ADD11C,0.00787*%
%ADD12C,0.00800*%
%ADD13C,0.00945*%
%ADD14C,0.00500*%
%ADD15C,0.01000*%
D10*
X366142Y41535D02*
G03*
X366142Y41535I492J0D01*
G01*
X193799Y21063D02*
G03*
X193799Y21063I492J0D01*
G01*
X417323Y40551D02*
G03*
X417323Y40551I492J0D01*
G01*
X261811D02*
G03*
X261811Y40551I492J0D01*
G01*
X314961D02*
G03*
X314961Y40551I492J0D01*
G01*
X54232Y44685D02*
G03*
X54232Y44685I492J0D01*
G01*
X135728Y20079D02*
G03*
X135728Y20079I492J0D01*
G01*
D11*
X377559Y201752D02*
G03*
X377559Y201752I394J0D01*
G01*
X248819Y181024D02*
G03*
X248819Y181024I394J0D01*
G01*
X289764Y202835D02*
G03*
X289764Y202835I394J0D01*
G01*
X148031Y200866D02*
G03*
X148031Y200866I394J0D01*
G01*
X107087Y181024D02*
G03*
X107087Y181024I394J0D01*
G01*
X427559Y208740D02*
G03*
X427559Y208740I394J0D01*
G01*
X10630Y129842D02*
G03*
X10630Y129842I394J0D01*
G01*
X427559Y172323D02*
G03*
X427559Y172323I394J0D01*
G01*
X466929Y121142D02*
G03*
X466929Y121142I394J0D01*
G01*
Y158543D02*
G03*
X466929Y158543I394J0D01*
G01*
X464961Y31575D02*
G03*
X464961Y31575I394J0D01*
G01*
X427953Y224331D02*
G03*
X427953Y224331I394J0D01*
G01*
X171063Y93425D02*
G03*
X171063Y93425I394J0D01*
G01*
X80315Y17913D02*
G03*
X80315Y17913I394J0D01*
G01*
X218110D02*
G03*
X218110Y17913I394J0D01*
G01*
X152165D02*
G03*
X152165Y17913I394J0D01*
G01*
X375590Y160413D02*
G03*
X375590Y160413I394J0D01*
G01*
X239764Y187028D02*
G03*
X239764Y187028I394J0D01*
G01*
X239764Y197815D02*
G03*
X239764Y197815I394J0D01*
G01*
X96063Y187028D02*
G03*
X96063Y187028I394J0D01*
G01*
X96063Y195846D02*
G03*
X96063Y195846I394J0D01*
G01*
X362992Y40354D02*
X359449D01*
Y37205D02*
Y40354D01*
X362992Y28543D02*
X359449D01*
Y31693D01*
X167913Y26969D02*
Y37992D01*
X194291Y26969D02*
Y37992D01*
X167913D01*
X194291Y26969D02*
X167913D01*
X358465Y56102D02*
X354134D01*
X321063Y53150D02*
X316732D01*
X423425D02*
X419095D01*
X414173Y39370D02*
X410630D01*
Y36220D02*
Y39370D01*
X414173Y27559D02*
X410630D01*
Y30709D01*
X324882Y93425D02*
Y103425D01*
X284882D01*
X324882Y93425D02*
X284882D01*
Y103425D01*
X324882Y109173D02*
Y119173D01*
X284882D01*
X324882Y109173D02*
X284882D01*
Y119173D01*
X459646Y97362D02*
Y107362D01*
X329646D01*
Y97362D02*
Y107362D01*
X337146Y97362D02*
X329646D01*
X459646D02*
X337146D01*
X245158Y44528D02*
X235157D01*
Y24528D02*
Y44528D01*
X245158Y24528D02*
X235157D01*
X245158D02*
Y44528D01*
X296339D02*
X286339D01*
Y24528D02*
Y44528D01*
X296339Y24528D02*
X286339D01*
X296339D02*
Y44528D01*
X348504Y46496D02*
X338504D01*
Y26496D02*
Y46496D01*
X348504Y26496D02*
X338504D01*
X348504D02*
Y46496D01*
X398701Y44528D02*
X388701D01*
Y24528D02*
Y44528D01*
X398701Y24528D02*
X388701D01*
X398701D02*
Y44528D01*
X311221Y179134D02*
X306890D01*
X311221Y163386D02*
X306890D01*
X256102Y53150D02*
X251772D01*
X307283D02*
X302953D01*
X409646D02*
X405315D01*
X258661Y39370D02*
X255118D01*
Y36220D02*
Y39370D01*
X258661Y27559D02*
X255118D01*
Y30709D01*
X311811Y39370D02*
X308268D01*
Y36220D02*
Y39370D01*
X311811Y27559D02*
X308268D01*
Y30709D01*
X415354Y158268D02*
Y162598D01*
X398622Y158268D02*
Y162598D01*
X269882Y53150D02*
X265551D01*
X372244Y56102D02*
X367913D01*
X220472Y58858D02*
Y63189D01*
X175394Y181102D02*
X171063D01*
X173425Y220472D02*
X169095D01*
X234252Y58858D02*
Y63189D01*
X175394Y161417D02*
X171063D01*
X173425Y202756D02*
X169095D01*
X25787Y177165D02*
X21457D01*
X27756Y216535D02*
X23425D01*
X54134Y56890D02*
Y61221D01*
X311221Y222441D02*
X306890D01*
X25787Y157480D02*
X21457D01*
X27756Y198819D02*
X23425D01*
X311221Y206693D02*
X306890D01*
X83661Y56890D02*
Y61221D01*
X48819Y18307D02*
Y44685D01*
X37795Y18307D02*
Y44685D01*
X48819D02*
X37795D01*
X48819Y18307D02*
X37795D01*
X136221Y25984D02*
X109843D01*
X136221Y37008D02*
X109843D01*
X136221Y25984D02*
Y37008D01*
X109843Y25984D02*
Y37008D01*
D12*
X31320Y69101D02*
G03*
X31118Y92318I-3761J11576D01*
G01*
X23798Y92316D02*
G03*
X24000Y69099I3761J-11576D01*
G01*
X124824Y73038D02*
G03*
X124622Y96255I-3761J11576D01*
G01*
X117302Y96253D02*
G03*
X117504Y73036I3761J-11576D01*
G01*
X156321Y73038D02*
G03*
X156118Y96255I-3761J11576D01*
G01*
X148798Y96253D02*
G03*
X149000Y73036I3761J-11576D01*
G01*
X40551Y71260D02*
Y93701D01*
X31890D01*
X23228D02*
X14567D01*
Y71260D02*
Y93701D01*
X23228Y67716D02*
X18110D01*
X37008D02*
X31890D01*
X40551Y71260D02*
X37008Y67716D01*
X18110D02*
X14567Y71260D01*
X134055Y75197D02*
Y97638D01*
X125394D01*
X116732D02*
X108071D01*
Y75197D02*
Y97638D01*
X116732Y71653D02*
X111614D01*
X130512D02*
X125394D01*
X134055Y75197D02*
X130512Y71653D01*
X111614D02*
X108071Y75197D01*
X165551D02*
Y97638D01*
X156890D01*
X148228D02*
X139567D01*
Y75197D02*
Y97638D01*
X148228Y71653D02*
X143110D01*
X162008D02*
X156890D01*
X165551Y75197D02*
X162008Y71653D01*
X143110D02*
X139567Y75197D01*
D13*
X325118Y161811D02*
G03*
X325118Y161811I472J0D01*
G01*
X398543Y149803D02*
G03*
X398543Y149803I472J0D01*
G01*
X224724Y75197D02*
G03*
X224724Y75197I472J0D01*
G01*
X189291Y159843D02*
G03*
X189291Y159843I472J0D01*
G01*
Y201181D02*
G03*
X189291Y201181I472J0D01*
G01*
X45590Y157874D02*
G03*
X45590Y157874I472J0D01*
G01*
X43622Y197244D02*
G03*
X43622Y197244I472J0D01*
G01*
X327087Y205118D02*
G03*
X327087Y205118I472J0D01*
G01*
X55433Y69291D02*
G03*
X55433Y69291I472J0D01*
G01*
D14*
X383760Y205512D02*
X382283D01*
X383760D02*
Y227559D01*
X382283D01*
X373622D02*
X372146D01*
Y205512D02*
Y227559D01*
X373622Y205512D02*
X372146D01*
X286614Y188701D02*
X253150D01*
Y157756D02*
Y188701D01*
X286614Y157756D02*
X253150D01*
X286614D02*
Y188701D01*
X286221Y195158D02*
X252756D01*
X286221D02*
Y226102D01*
X252756D01*
Y195158D02*
Y226102D01*
X144488Y193189D02*
X111024D01*
X144488D02*
Y224134D01*
X111024D01*
Y193189D02*
Y224134D01*
X144882Y188701D02*
X111417D01*
Y157756D02*
Y188701D01*
X144882Y157756D02*
X111417D01*
X144882D02*
Y188701D01*
X424016Y201063D02*
X390551D01*
X424016D02*
Y232008D01*
X390551D01*
Y201063D02*
Y232008D01*
X48425Y137520D02*
X14961D01*
Y106575D02*
Y137520D01*
X48425Y106575D02*
X14961D01*
X48425D02*
Y137520D01*
X424016Y164646D02*
X390551D01*
X424016D02*
Y195590D01*
X390551D01*
Y164646D02*
Y195590D01*
X463386Y113465D02*
X429921D01*
X463386D02*
Y144409D01*
X429921D01*
Y113465D02*
Y144409D01*
X463386Y150866D02*
X429921D01*
X463386D02*
Y181811D01*
X429921D01*
Y150866D02*
Y181811D01*
X461417Y23898D02*
X427953D01*
X461417D02*
Y54843D01*
X427953D01*
Y23898D02*
Y54843D01*
X465748Y232008D02*
X432283D01*
Y201063D02*
Y232008D01*
X465748Y201063D02*
X432283D01*
X465748D02*
Y232008D01*
X208858Y101102D02*
X175394D01*
Y70157D02*
Y101102D01*
X208858Y70157D02*
X175394D01*
X208858D02*
Y101102D01*
X89567Y27559D02*
X85118Y23110D01*
X89567Y27559D02*
Y40354D01*
X85118D01*
X71850Y27559D02*
Y40354D01*
X76299Y23110D02*
X71850Y27559D01*
X76299Y40354D02*
X71850D01*
X227362Y27559D02*
X222913Y23110D01*
X227362Y27559D02*
Y40354D01*
X222913D01*
X209646Y27559D02*
Y40354D01*
X214094Y23110D02*
X209646Y27559D01*
X214094Y40354D02*
X209646D01*
X161417Y27559D02*
X156968Y23110D01*
X161417Y27559D02*
Y40354D01*
X156968D01*
X143701Y27559D02*
Y40354D01*
X148150Y23110D02*
X143701Y27559D01*
X148150Y40354D02*
X143701D01*
X359055Y162087D02*
Y162992D01*
Y162087D02*
X334567D01*
Y188307D01*
X359055D02*
X334567D01*
X359055Y187402D02*
Y188307D01*
X400197Y116339D02*
X399291D01*
Y140827D01*
X425512D02*
X399291D01*
X425512Y116339D02*
Y140827D01*
Y116339D02*
X424606D01*
X381791Y164173D02*
X380315D01*
X381791D02*
Y186221D01*
X380315D01*
X371654D02*
X370177D01*
Y164173D02*
Y186221D01*
X371654Y164173D02*
X370177D01*
X258661Y75472D02*
Y76378D01*
Y75472D02*
X234173D01*
Y101693D01*
X258661D02*
X234173D01*
X258661Y100787D02*
Y101693D01*
X223228Y160118D02*
Y161024D01*
Y160118D02*
X198740D01*
Y186339D01*
X223228D02*
X198740D01*
X223228Y185433D02*
Y186339D01*
Y201457D02*
Y202362D01*
Y201457D02*
X198740D01*
Y227677D01*
X223228D02*
X198740D01*
X223228Y226772D02*
Y227677D01*
X79527Y158150D02*
Y159055D01*
Y158150D02*
X55039D01*
Y184370D01*
X79527D02*
X55039D01*
X79527Y183465D02*
Y184370D01*
X77559Y197520D02*
Y198425D01*
Y197520D02*
X53071D01*
Y223740D01*
X77559D02*
X53071D01*
X77559Y222835D02*
Y223740D01*
X361024Y205394D02*
Y206299D01*
Y205394D02*
X336535D01*
Y231614D01*
X361024D02*
X336535D01*
X361024Y230709D02*
Y231614D01*
X89370Y69567D02*
Y70473D01*
Y69567D02*
X64882D01*
Y95787D01*
X89370D02*
X64882D01*
X89370Y94882D02*
Y95787D01*
X235827Y183268D02*
X234350D01*
Y161221D02*
Y183268D01*
X235827Y161221D02*
X234350D01*
X245965D02*
X244488D01*
X245965D02*
Y183268D01*
X244488D01*
X245965Y201575D02*
X244488D01*
X245965D02*
Y223622D01*
X244488D01*
X235827D02*
X234350D01*
Y201575D02*
Y223622D01*
X235827Y201575D02*
X234350D01*
X92126Y183268D02*
X90650D01*
Y161221D02*
Y183268D01*
X92126Y161221D02*
X90650D01*
X102264D02*
X100787D01*
X102264D02*
Y183268D01*
X100787D01*
X102264Y199606D02*
X100787D01*
X102264D02*
Y221654D01*
X100787D01*
X92126D02*
X90650D01*
Y199606D02*
Y221654D01*
X92126Y199606D02*
X90650D01*
D15*
X365042Y46500D02*
Y50498D01*
X366042Y51498D01*
X368041D01*
X369041Y50498D01*
Y46500D01*
X368041Y45500D01*
X366042D01*
X367042Y47499D02*
X365042Y45500D01*
X366042D02*
X365042Y46500D01*
X363043Y45500D02*
X361044D01*
X362043D01*
Y51498D01*
X363043Y50498D01*
X358045Y51498D02*
X354046D01*
Y50498D01*
X358045Y46500D01*
Y45500D01*
X383798Y239587D02*
Y233589D01*
X380799D01*
X379800Y234589D01*
Y238587D01*
X380799Y239587D01*
X383798D01*
X373802Y233589D02*
X377800D01*
X373802Y237588D01*
Y238587D01*
X374801Y239587D01*
X376801D01*
X377800Y238587D01*
X285927Y236172D02*
X287927D01*
X286927D01*
Y231174D01*
X287927Y230174D01*
X288926D01*
X289926Y231174D01*
X283928Y230174D02*
X281929D01*
X282928D01*
Y236172D01*
X283928Y235172D01*
X274931Y230174D02*
X278929D01*
X274931Y234173D01*
Y235172D01*
X275931Y236172D01*
X277930D01*
X278929Y235172D01*
X282659Y198820D02*
X284658D01*
X283658D01*
Y193822D01*
X284658Y192822D01*
X285658D01*
X286658Y193822D01*
X280659Y192822D02*
X278660D01*
X279660D01*
Y198820D01*
X280659Y197820D01*
X275661Y192822D02*
X273662D01*
X274661D01*
Y198820D01*
X275661Y197820D01*
X59657Y50846D02*
Y56844D01*
X56658D01*
X55658Y55844D01*
Y53845D01*
X56658Y52845D01*
X59657D01*
X57658D02*
X55658Y50846D01*
X50660D02*
X52659D01*
X53659Y51846D01*
Y53845D01*
X52659Y54845D01*
X50660D01*
X49660Y53845D01*
Y52845D01*
X53659D01*
X45662Y48847D02*
X44662D01*
X43662Y49846D01*
Y54845D01*
X46661D01*
X47661Y53845D01*
Y51846D01*
X46661Y50846D01*
X43662D01*
X41663Y55844D02*
X40663Y56844D01*
X38664D01*
X37664Y55844D01*
Y54845D01*
X38664Y53845D01*
X39663D01*
X38664D01*
X37664Y52845D01*
Y51846D01*
X38664Y50846D01*
X40663D01*
X41663Y51846D01*
X136420Y53806D02*
Y59804D01*
X133421D01*
X132421Y58804D01*
Y56805D01*
X133421Y55805D01*
X136420D01*
X134420D02*
X132421Y53806D01*
X127423D02*
X129422D01*
X130422Y54805D01*
Y56805D01*
X129422Y57804D01*
X127423D01*
X126423Y56805D01*
Y55805D01*
X130422D01*
X122424Y51806D02*
X121424D01*
X120425Y52806D01*
Y57804D01*
X123424D01*
X124424Y56805D01*
Y54805D01*
X123424Y53806D01*
X120425D01*
X114427D02*
X118426D01*
X114427Y57804D01*
Y58804D01*
X115427Y59804D01*
X117426D01*
X118426Y58804D01*
X194498Y54837D02*
Y60835D01*
X191499D01*
X190500Y59835D01*
Y57836D01*
X191499Y56836D01*
X194498D01*
X192499D02*
X190500Y54837D01*
X185501D02*
X187501D01*
X188500Y55837D01*
Y57836D01*
X187501Y58836D01*
X185501D01*
X184502Y57836D01*
Y56836D01*
X188500D01*
X180503Y52838D02*
X179503D01*
X178504Y53837D01*
Y58836D01*
X181503D01*
X182502Y57836D01*
Y55837D01*
X181503Y54837D01*
X178504D01*
X176504D02*
X174505D01*
X175505D01*
Y60835D01*
X176504Y59835D01*
X175334Y189790D02*
Y195789D01*
X172335D01*
X171335Y194789D01*
Y192790D01*
X172335Y191790D01*
X175334D01*
X173335D02*
X171335Y189790D01*
X165337D02*
X169336D01*
X165337Y193789D01*
Y194789D01*
X166337Y195789D01*
X168336D01*
X169336Y194789D01*
X159339Y195789D02*
X161338Y194789D01*
X163338Y192790D01*
Y190790D01*
X162338Y189790D01*
X160339D01*
X159339Y190790D01*
Y191790D01*
X160339Y192790D01*
X163338D01*
X269904Y61837D02*
Y67835D01*
X266905D01*
X265905Y66835D01*
Y64836D01*
X266905Y63836D01*
X269904D01*
X267905D02*
X265905Y61837D01*
X259907D02*
X263906D01*
X259907Y65836D01*
Y66835D01*
X260907Y67835D01*
X262906D01*
X263906Y66835D01*
X253909Y67835D02*
X257908D01*
Y64836D01*
X255908Y65836D01*
X254909D01*
X253909Y64836D01*
Y62837D01*
X254909Y61837D01*
X256908D01*
X257908Y62837D01*
X175378Y170167D02*
Y176165D01*
X172379D01*
X171380Y175166D01*
Y173166D01*
X172379Y172167D01*
X175378D01*
X173379D02*
X171380Y170167D01*
X165382D02*
X169380D01*
X165382Y174166D01*
Y175166D01*
X166381Y176165D01*
X168381D01*
X169380Y175166D01*
X160383Y170167D02*
Y176165D01*
X163382Y173166D01*
X159383D01*
X256104Y61837D02*
Y67835D01*
X253105D01*
X252105Y66835D01*
Y64836D01*
X253105Y63836D01*
X256104D01*
X254105D02*
X252105Y61837D01*
X246107D02*
X250106D01*
X246107Y65836D01*
Y66835D01*
X247107Y67835D01*
X249106D01*
X250106Y66835D01*
X244108D02*
X243108Y67835D01*
X241109D01*
X240109Y66835D01*
Y65836D01*
X241109Y64836D01*
X242108D01*
X241109D01*
X240109Y63836D01*
Y62837D01*
X241109Y61837D01*
X243108D01*
X244108Y62837D01*
X173439Y229222D02*
Y235220D01*
X170440D01*
X169441Y234220D01*
Y232221D01*
X170440Y231221D01*
X173439D01*
X171440D02*
X169441Y229222D01*
X163443D02*
X167441D01*
X163443Y233221D01*
Y234220D01*
X164442Y235220D01*
X166442D01*
X167441Y234220D01*
X157445Y229222D02*
X161443D01*
X157445Y233221D01*
Y234220D01*
X158444Y235220D01*
X160444D01*
X161443Y234220D01*
X324803Y62992D02*
Y68990D01*
X321804D01*
X320804Y67990D01*
Y65991D01*
X321804Y64991D01*
X324803D01*
X322804D02*
X320804Y62992D01*
X314806D02*
X318805D01*
X314806Y66991D01*
Y67990D01*
X315806Y68990D01*
X317805D01*
X318805Y67990D01*
X312807Y62992D02*
X310808D01*
X311807D01*
Y68990D01*
X312807Y67990D01*
X173410Y211506D02*
Y217504D01*
X170411D01*
X169411Y216504D01*
Y214505D01*
X170411Y213505D01*
X173410D01*
X171411D02*
X169411Y211506D01*
X163413D02*
X167412D01*
X163413Y215505D01*
Y216504D01*
X164413Y217504D01*
X166412D01*
X167412Y216504D01*
X161414D02*
X160414Y217504D01*
X158415D01*
X157415Y216504D01*
Y212506D01*
X158415Y211506D01*
X160414D01*
X161414Y212506D01*
Y216504D01*
X307304Y61837D02*
Y67835D01*
X304305D01*
X303305Y66835D01*
Y64836D01*
X304305Y63836D01*
X307304D01*
X305305D02*
X303305Y61837D01*
X301306D02*
X299307D01*
X300306D01*
Y67835D01*
X301306Y66835D01*
X296307Y62837D02*
X295308Y61837D01*
X293308D01*
X292309Y62837D01*
Y66835D01*
X293308Y67835D01*
X295308D01*
X296307Y66835D01*
Y65836D01*
X295308Y64836D01*
X292309D01*
X372241Y64853D02*
Y70851D01*
X369242D01*
X368242Y69851D01*
Y67852D01*
X369242Y66852D01*
X372241D01*
X370242D02*
X368242Y64853D01*
X366243D02*
X364244D01*
X365243D01*
Y70851D01*
X366243Y69851D01*
X361245D02*
X360245Y70851D01*
X358245D01*
X357246Y69851D01*
Y68852D01*
X358245Y67852D01*
X357246Y66852D01*
Y65852D01*
X358245Y64853D01*
X360245D01*
X361245Y65852D01*
Y66852D01*
X360245Y67852D01*
X361245Y68852D01*
Y69851D01*
X360245Y67852D02*
X358245D01*
X25809Y185889D02*
Y191887D01*
X22810D01*
X21810Y190887D01*
Y188888D01*
X22810Y187888D01*
X25809D01*
X23809D02*
X21810Y185889D01*
X19811D02*
X17811D01*
X18811D01*
Y191887D01*
X19811Y190887D01*
X14812Y191887D02*
X10813D01*
Y190887D01*
X14812Y186889D01*
Y185889D01*
X358268Y46260D02*
Y40262D01*
X361267D01*
X362266Y41262D01*
Y43261D01*
X361267Y44260D01*
X358268D01*
X360267D02*
X362266Y46260D01*
X364266D02*
X366265D01*
X365265D01*
Y40262D01*
X364266Y41262D01*
X373263Y40262D02*
X371264Y41262D01*
X369264Y43261D01*
Y45260D01*
X370264Y46260D01*
X372263D01*
X373263Y45260D01*
Y44260D01*
X372263Y43261D01*
X369264D01*
X25729Y166178D02*
Y172176D01*
X22730D01*
X21730Y171176D01*
Y169177D01*
X22730Y168177D01*
X25729D01*
X23730D02*
X21730Y166178D01*
X19731D02*
X17732D01*
X18731D01*
Y172176D01*
X19731Y171176D01*
X10734Y172176D02*
X14733D01*
Y169177D01*
X12733Y170177D01*
X11734D01*
X10734Y169177D01*
Y167178D01*
X11734Y166178D01*
X13733D01*
X14733Y167178D01*
X433071Y61024D02*
Y67022D01*
X430072D01*
X429072Y66022D01*
Y64023D01*
X430072Y63023D01*
X433071D01*
X431072D02*
X429072Y61024D01*
X427073D02*
X425073D01*
X426073D01*
Y67022D01*
X427073Y66022D01*
X419075Y61024D02*
Y67022D01*
X422074Y64023D01*
X418076D01*
X27719Y225198D02*
Y231196D01*
X24720D01*
X23720Y230196D01*
Y228197D01*
X24720Y227197D01*
X27719D01*
X25719D02*
X23720Y225198D01*
X21721D02*
X19722D01*
X20721D01*
Y231196D01*
X21721Y230196D01*
X16722D02*
X15723Y231196D01*
X13723D01*
X12724Y230196D01*
Y229196D01*
X13723Y228197D01*
X14723D01*
X13723D01*
X12724Y227197D01*
Y226197D01*
X13723Y225198D01*
X15723D01*
X16722Y226197D01*
X27740Y207569D02*
Y213567D01*
X24742D01*
X23742Y212567D01*
Y210568D01*
X24742Y209568D01*
X27740D01*
X25741D02*
X23742Y207569D01*
X21743D02*
X19743D01*
X20743D01*
Y213567D01*
X21743Y212567D01*
X12745Y207569D02*
X16744D01*
X12745Y211568D01*
Y212567D01*
X13745Y213567D01*
X15744D01*
X16744Y212567D01*
X409580Y61850D02*
Y67848D01*
X406581D01*
X405582Y66848D01*
Y64849D01*
X406581Y63849D01*
X409580D01*
X407581D02*
X405582Y61850D01*
X403582D02*
X401583D01*
X402583D01*
Y67848D01*
X403582Y66848D01*
X398584Y61850D02*
X396585D01*
X397584D01*
Y67848D01*
X398584Y66848D01*
X311167Y231126D02*
Y237124D01*
X308168D01*
X307168Y236124D01*
Y234125D01*
X308168Y233125D01*
X311167D01*
X309168D02*
X307168Y231126D01*
X305169D02*
X303169D01*
X304169D01*
Y237124D01*
X305169Y236124D01*
X300170D02*
X299171Y237124D01*
X297171D01*
X296172Y236124D01*
Y232126D01*
X297171Y231126D01*
X299171D01*
X300170Y232126D01*
Y236124D01*
X311210Y187820D02*
Y193818D01*
X308210D01*
X307211Y192819D01*
Y190820D01*
X308210Y189820D01*
X311210D01*
X309210D02*
X307211Y187820D01*
X305211Y188820D02*
X304212Y187820D01*
X302212D01*
X301213Y188820D01*
Y192819D01*
X302212Y193818D01*
X304212D01*
X305211Y192819D01*
Y191819D01*
X304212Y190820D01*
X301213D01*
X311215Y215421D02*
Y221418D01*
X308216D01*
X307216Y220419D01*
Y218420D01*
X308216Y217420D01*
X311215D01*
X309216D02*
X307216Y215421D01*
X305217Y220419D02*
X304217Y221418D01*
X302218D01*
X301218Y220419D01*
Y219419D01*
X302218Y218420D01*
X301218Y217420D01*
Y216420D01*
X302218Y215421D01*
X304217D01*
X305217Y216420D01*
Y217420D01*
X304217Y218420D01*
X305217Y219419D01*
Y220419D01*
X304217Y218420D02*
X302218D01*
X311172Y172052D02*
Y178050D01*
X308173D01*
X307174Y177050D01*
Y175051D01*
X308173Y174051D01*
X311172D01*
X309173D02*
X307174Y172052D01*
X305174Y178050D02*
X301176D01*
Y177050D01*
X305174Y173052D01*
Y172052D01*
X58809Y65228D02*
Y71226D01*
X55810D01*
X54810Y70227D01*
Y68227D01*
X55810Y67228D01*
X58809D01*
X56809D02*
X54810Y65228D01*
X48812Y71226D02*
X50811Y70227D01*
X52811Y68227D01*
Y66228D01*
X51811Y65228D01*
X49812D01*
X48812Y66228D01*
Y67228D01*
X49812Y68227D01*
X52811D01*
X420065Y166588D02*
Y172586D01*
X417066D01*
X416067Y171587D01*
Y169587D01*
X417066Y168588D01*
X420065D01*
X418066D02*
X416067Y166588D01*
X410069Y172586D02*
X414067D01*
Y169587D01*
X412068Y170587D01*
X411068D01*
X410069Y169587D01*
Y167588D01*
X411068Y166588D01*
X413068D01*
X414067Y167588D01*
X88411Y65205D02*
Y71203D01*
X85412D01*
X84413Y70204D01*
Y68204D01*
X85412Y67204D01*
X88411D01*
X86412D02*
X84413Y65205D01*
X79414D02*
Y71203D01*
X82413Y68204D01*
X78415D01*
X403281Y166588D02*
Y172586D01*
X400282D01*
X399282Y171587D01*
Y169587D01*
X400282Y168588D01*
X403281D01*
X401282D02*
X399282Y166588D01*
X397283Y171587D02*
X396283Y172586D01*
X394284D01*
X393284Y171587D01*
Y170587D01*
X394284Y169587D01*
X395284D01*
X394284D01*
X393284Y168588D01*
Y167588D01*
X394284Y166588D01*
X396283D01*
X397283Y167588D01*
X225141Y67137D02*
Y73135D01*
X222142D01*
X221142Y72135D01*
Y70136D01*
X222142Y69136D01*
X225141D01*
X223142D02*
X221142Y67137D01*
X215144D02*
X219143D01*
X215144Y71136D01*
Y72135D01*
X216144Y73135D01*
X218143D01*
X219143Y72135D01*
X239002Y67174D02*
Y73172D01*
X236003D01*
X235003Y72172D01*
Y70173D01*
X236003Y69173D01*
X239002D01*
X237003D02*
X235003Y67174D01*
X233004D02*
X231005D01*
X232004D01*
Y73172D01*
X233004Y72172D01*
X260774Y45500D02*
Y49498D01*
X261773Y50498D01*
X263773D01*
X264772Y49498D01*
Y45500D01*
X263773Y44500D01*
X261773D01*
X262773Y46499D02*
X260774Y44500D01*
X261773D02*
X260774Y45500D01*
X258774Y44500D02*
X256775D01*
X257775D01*
Y50498D01*
X258774Y49498D01*
X253776Y44500D02*
X251777D01*
X252776D01*
Y50498D01*
X253776Y49498D01*
X224867Y191375D02*
Y195374D01*
X225866Y196374D01*
X227866D01*
X228865Y195374D01*
Y191375D01*
X227866Y190376D01*
X225866D01*
X226866Y192375D02*
X224867Y190376D01*
X225866D02*
X224867Y191375D01*
X222867Y190376D02*
X220868D01*
X221868D01*
Y196374D01*
X222867Y195374D01*
X217869D02*
X216869Y196374D01*
X214870D01*
X213870Y195374D01*
Y191375D01*
X214870Y190376D01*
X216869D01*
X217869Y191375D01*
Y195374D01*
X224841Y232770D02*
Y236768D01*
X225840Y237768D01*
X227840D01*
X228839Y236768D01*
Y232770D01*
X227840Y231770D01*
X225840D01*
X226840Y233769D02*
X224841Y231770D01*
X225840D02*
X224841Y232770D01*
X222841D02*
X221842Y231770D01*
X219842D01*
X218843Y232770D01*
Y236768D01*
X219842Y237768D01*
X221842D01*
X222841Y236768D01*
Y235769D01*
X221842Y234769D01*
X218843D01*
X313942Y45500D02*
Y49498D01*
X314942Y50498D01*
X316941D01*
X317941Y49498D01*
Y45500D01*
X316941Y44500D01*
X314942D01*
X315942Y46499D02*
X313942Y44500D01*
X314942D02*
X313942Y45500D01*
X311943Y49498D02*
X310943Y50498D01*
X308944D01*
X307944Y49498D01*
Y48499D01*
X308944Y47499D01*
X307944Y46499D01*
Y45500D01*
X308944Y44500D01*
X310943D01*
X311943Y45500D01*
Y46499D01*
X310943Y47499D01*
X311943Y48499D01*
Y49498D01*
X310943Y47499D02*
X308944D01*
X81154Y189443D02*
Y193442D01*
X82154Y194441D01*
X84153D01*
X85153Y193442D01*
Y189443D01*
X84153Y188443D01*
X82154D01*
X83153Y190443D02*
X81154Y188443D01*
X82154D02*
X81154Y189443D01*
X75156Y194441D02*
X77155Y193442D01*
X79155Y191442D01*
Y189443D01*
X78155Y188443D01*
X76156D01*
X75156Y189443D01*
Y190443D01*
X76156Y191442D01*
X79155D01*
X413448Y48213D02*
Y44214D01*
X412448Y43214D01*
X410449D01*
X409449Y44214D01*
Y48213D01*
X410449Y49213D01*
X412448D01*
X411448Y47213D02*
X413448Y49213D01*
X412448D02*
X413448Y48213D01*
X419446Y43214D02*
X415447D01*
Y46214D01*
X417446Y45214D01*
X418446D01*
X419446Y46214D01*
Y48213D01*
X418446Y49213D01*
X416447D01*
X415447Y48213D01*
X79145Y228834D02*
Y232833D01*
X80144Y233833D01*
X82144D01*
X83143Y232833D01*
Y228834D01*
X82144Y227835D01*
X80144D01*
X81144Y229834D02*
X79145Y227835D01*
X80144D02*
X79145Y228834D01*
X74146Y227835D02*
Y233833D01*
X77145Y230834D01*
X73146D01*
X362610Y236669D02*
Y240668D01*
X363610Y241667D01*
X365609D01*
X366609Y240668D01*
Y236669D01*
X365609Y235669D01*
X363610D01*
X364609Y237669D02*
X362610Y235669D01*
X363610D02*
X362610Y236669D01*
X360611Y240668D02*
X359611Y241667D01*
X357612D01*
X356612Y240668D01*
Y239668D01*
X357612Y238668D01*
X358611D01*
X357612D01*
X356612Y237669D01*
Y236669D01*
X357612Y235669D01*
X359611D01*
X360611Y236669D01*
X360605Y193420D02*
Y197419D01*
X361605Y198418D01*
X363604D01*
X364604Y197419D01*
Y193420D01*
X363604Y192420D01*
X361605D01*
X362605Y194420D02*
X360605Y192420D01*
X361605D02*
X360605Y193420D01*
X354607Y192420D02*
X358606D01*
X354607Y196419D01*
Y197419D01*
X355607Y198418D01*
X357606D01*
X358606Y197419D01*
X421619Y160025D02*
Y164024D01*
X422619Y165023D01*
X424618D01*
X425618Y164024D01*
Y160025D01*
X424618Y159025D01*
X422619D01*
X423619Y161025D02*
X421619Y159025D01*
X422619D02*
X421619Y160025D01*
X419620Y159025D02*
X417621D01*
X418620D01*
Y165023D01*
X419620Y164024D01*
X324255Y106869D02*
Y112867D01*
X321256D01*
X320256Y111867D01*
Y109868D01*
X321256Y108868D01*
X324255D01*
X318257Y112867D02*
X314258D01*
Y111867D01*
X318257Y107868D01*
Y106869D01*
X244504Y47937D02*
Y53935D01*
X241505D01*
X240505Y52935D01*
Y50936D01*
X241505Y49936D01*
X244504D01*
X234507Y53935D02*
X236507Y52935D01*
X238506Y50936D01*
Y48937D01*
X237506Y47937D01*
X235507D01*
X234507Y48937D01*
Y49936D01*
X235507Y50936D01*
X238506D01*
X324255Y122569D02*
Y128567D01*
X321256D01*
X320256Y127567D01*
Y125567D01*
X321256Y124568D01*
X324255D01*
X314258Y128567D02*
X318257D01*
Y125567D01*
X316258Y126567D01*
X315258D01*
X314258Y125567D01*
Y123568D01*
X315258Y122569D01*
X317257D01*
X318257Y123568D01*
X295704Y47937D02*
Y53935D01*
X292705D01*
X291705Y52935D01*
Y50936D01*
X292705Y49936D01*
X295704D01*
X286707Y47937D02*
Y53935D01*
X289706Y50936D01*
X285707D01*
X347941Y49842D02*
Y55840D01*
X344942D01*
X343942Y54840D01*
Y52841D01*
X344942Y51841D01*
X347941D01*
X341943Y54840D02*
X340943Y55840D01*
X338944D01*
X337944Y54840D01*
Y53840D01*
X338944Y52841D01*
X339944D01*
X338944D01*
X337944Y51841D01*
Y50841D01*
X338944Y49842D01*
X340943D01*
X341943Y50841D01*
X398104Y47937D02*
Y53935D01*
X395105D01*
X394105Y52935D01*
Y50936D01*
X395105Y49936D01*
X398104D01*
X388107Y47937D02*
X392106D01*
X388107Y51936D01*
Y52935D01*
X389107Y53935D01*
X391106D01*
X392106Y52935D01*
X459084Y110789D02*
Y116787D01*
X456085D01*
X455086Y115787D01*
Y113788D01*
X456085Y112788D01*
X459084D01*
X453086Y110789D02*
X451087D01*
X452086D01*
Y116787D01*
X453086Y115787D01*
X94915Y99831D02*
Y105830D01*
X92916Y103830D01*
X90916Y105830D01*
Y99831D01*
X84918D02*
X88917D01*
X84918Y103830D01*
Y104830D01*
X85918Y105830D01*
X87917D01*
X88917Y104830D01*
X264247Y105748D02*
Y111746D01*
X262247Y109747D01*
X260248Y111746D01*
Y105748D01*
X258248D02*
X256249D01*
X257249D01*
Y111746D01*
X258248Y110746D01*
X144178Y234196D02*
X146177D01*
X145177D01*
Y229197D01*
X146177Y228198D01*
X147177D01*
X148176Y229197D01*
X142178Y228198D02*
X140179D01*
X141179D01*
Y234196D01*
X142178Y233196D01*
X137180D02*
X136180Y234196D01*
X134181D01*
X133181Y233196D01*
Y229197D01*
X134181Y228198D01*
X136180D01*
X137180Y229197D01*
Y233196D01*
X140941Y198822D02*
X142940D01*
X141940D01*
Y193823D01*
X142940Y192824D01*
X143940D01*
X144939Y193823D01*
X138941D02*
X137942Y192824D01*
X135942D01*
X134943Y193823D01*
Y197822D01*
X135942Y198822D01*
X137942D01*
X138941Y197822D01*
Y196822D01*
X137942Y195823D01*
X134943D01*
X423742Y242050D02*
X425742D01*
X424742D01*
Y237052D01*
X425742Y236052D01*
X426741D01*
X427741Y237052D01*
X421743Y241050D02*
X420743Y242050D01*
X418744D01*
X417744Y241050D01*
Y240051D01*
X418744Y239051D01*
X417744Y238051D01*
Y237052D01*
X418744Y236052D01*
X420743D01*
X421743Y237052D01*
Y238051D01*
X420743Y239051D01*
X421743Y240051D01*
Y241050D01*
X420743Y239051D02*
X418744D01*
X44527Y147578D02*
X46527D01*
X45527D01*
Y142579D01*
X46527Y141579D01*
X47526D01*
X48526Y142579D01*
X42528Y147578D02*
X38529D01*
Y146578D01*
X42528Y142579D01*
Y141579D01*
X423748Y205677D02*
X425747D01*
X424747D01*
Y200678D01*
X425747Y199679D01*
X426747D01*
X427746Y200678D01*
X417750Y205677D02*
X419749Y204677D01*
X421748Y202678D01*
Y200678D01*
X420749Y199679D01*
X418749D01*
X417750Y200678D01*
Y201678D01*
X418749Y202678D01*
X421748D01*
X463104Y154529D02*
X465103D01*
X464103D01*
Y149530D01*
X465103Y148531D01*
X466103D01*
X467102Y149530D01*
X457106Y154529D02*
X461104D01*
Y151530D01*
X459105Y152529D01*
X458105D01*
X457106Y151530D01*
Y149530D01*
X458105Y148531D01*
X460105D01*
X461104Y149530D01*
X463104Y191929D02*
X465103D01*
X464103D01*
Y186930D01*
X465103Y185931D01*
X466103D01*
X467102Y186930D01*
X458105Y185931D02*
Y191929D01*
X461104Y188930D01*
X457106D01*
X461135Y64904D02*
X463134D01*
X462135D01*
Y59905D01*
X463134Y58906D01*
X464134D01*
X465134Y59905D01*
X459136Y63904D02*
X458136Y64904D01*
X456137D01*
X455137Y63904D01*
Y62904D01*
X456137Y61905D01*
X457136D01*
X456137D01*
X455137Y60905D01*
Y59905D01*
X456137Y58906D01*
X458136D01*
X459136Y59905D01*
X461837Y242050D02*
X463836D01*
X462836D01*
Y237052D01*
X463836Y236052D01*
X464836D01*
X465835Y237052D01*
X455839Y236052D02*
X459837D01*
X455839Y240051D01*
Y241050D01*
X456838Y242050D01*
X458838D01*
X459837Y241050D01*
X204950Y111188D02*
X206949D01*
X205950D01*
Y106189D01*
X206949Y105190D01*
X207949D01*
X208949Y106189D01*
X202951Y105190D02*
X200951D01*
X201951D01*
Y111188D01*
X202951Y110188D01*
X246041Y196782D02*
Y190784D01*
X243042D01*
X242042Y191784D01*
Y195783D01*
X243042Y196782D01*
X246041D01*
X236044D02*
X238043Y195783D01*
X240043Y193783D01*
Y191784D01*
X239043Y190784D01*
X237044D01*
X236044Y191784D01*
Y192784D01*
X237044Y193783D01*
X240043D01*
X246041Y235698D02*
Y229700D01*
X243042D01*
X242042Y230700D01*
Y234698D01*
X243042Y235698D01*
X246041D01*
X236044D02*
X240043D01*
Y232699D01*
X238043Y233699D01*
X237044D01*
X236044Y232699D01*
Y230700D01*
X237044Y229700D01*
X239043D01*
X240043Y230700D01*
X102341Y196851D02*
Y190853D01*
X99342D01*
X98342Y191852D01*
Y195851D01*
X99342Y196851D01*
X102341D01*
X93344Y190853D02*
Y196851D01*
X96343Y193852D01*
X92344D01*
X102341Y233698D02*
Y227700D01*
X99342D01*
X98342Y228700D01*
Y232698D01*
X99342Y233698D01*
X102341D01*
X96343Y232698D02*
X95343Y233698D01*
X93344D01*
X92344Y232698D01*
Y231699D01*
X93344Y230699D01*
X94344D01*
X93344D01*
X92344Y229699D01*
Y228700D01*
X93344Y227700D01*
X95343D01*
X96343Y228700D01*
X381834Y198245D02*
Y192247D01*
X378835D01*
X377835Y193246D01*
Y197245D01*
X378835Y198245D01*
X381834D01*
X375836Y192247D02*
X373837D01*
X374836D01*
Y198245D01*
X375836Y197245D01*
X85642Y52367D02*
X86642Y53367D01*
X88641D01*
X89641Y52367D01*
Y48368D01*
X88641Y47368D01*
X86642D01*
X85642Y48368D01*
X79644Y53367D02*
X81643Y52367D01*
X83643Y50367D01*
Y48368D01*
X82643Y47368D01*
X80644D01*
X79644Y48368D01*
Y49368D01*
X80644Y50367D01*
X83643D01*
X35937Y106593D02*
X36936Y107593D01*
X38936D01*
X39935Y106593D01*
Y102594D01*
X38936Y101594D01*
X36936D01*
X35937Y102594D01*
X29939Y107593D02*
X33937D01*
Y104594D01*
X31938Y105593D01*
X30938D01*
X29939Y104594D01*
Y102594D01*
X30938Y101594D01*
X32938D01*
X33937Y102594D01*
X218605Y48335D02*
X219605Y49335D01*
X221604D01*
X222604Y48335D01*
Y44337D01*
X221604Y43337D01*
X219605D01*
X218605Y44337D01*
X213607Y43337D02*
Y49335D01*
X216606Y46336D01*
X212607D01*
X137778Y118872D02*
X138778Y119872D01*
X140778D01*
X141777Y118872D01*
Y114874D01*
X140778Y113874D01*
X138778D01*
X137778Y114874D01*
X135779Y118872D02*
X134780Y119872D01*
X132780D01*
X131781Y118872D01*
Y117873D01*
X132780Y116873D01*
X133780D01*
X132780D01*
X131781Y115873D01*
Y114874D01*
X132780Y113874D01*
X134780D01*
X135779Y114874D01*
X169293Y118872D02*
X170293Y119872D01*
X172292D01*
X173292Y118872D01*
Y114874D01*
X172292Y113874D01*
X170293D01*
X169293Y114874D01*
X163295Y113874D02*
X167294D01*
X163295Y117873D01*
Y118872D01*
X164295Y119872D01*
X166295D01*
X167294Y118872D01*
X157521Y52383D02*
X158521Y53382D01*
X160520D01*
X161520Y52383D01*
Y48384D01*
X160520Y47384D01*
X158521D01*
X157521Y48384D01*
X155522Y47384D02*
X153522D01*
X154522D01*
Y53382D01*
X155522Y52383D01*
M02*
