G04*
G04 #@! TF.GenerationSoftware,Altium Limited,Altium Designer,18.0.9 (584)*
G04*
G04 Layer_Physical_Order=1*
G04 Layer_Color=255*
%FSLAX25Y25*%
%MOIN*%
G70*
G01*
G75*
%ADD15C,0.01000*%
%ADD16R,0.04528X0.02362*%
%ADD17R,0.12992X0.09449*%
%ADD18R,0.03937X0.09449*%
%ADD19R,0.05118X0.03937*%
%ADD20R,0.06142X0.09173*%
%ADD21R,0.06299X0.13780*%
%ADD22R,0.06299X0.09843*%
%ADD23R,0.09921X0.03701*%
%ADD24R,0.24528X0.22323*%
%ADD25R,0.03937X0.05118*%
%ADD26R,0.03701X0.09921*%
%ADD27R,0.22323X0.24528*%
%ADD28R,0.09449X0.03937*%
%ADD29R,0.09449X0.12992*%
%ADD51C,0.02362*%
%ADD52C,0.03150*%
%ADD53C,0.07874*%
%ADD54C,0.04724*%
%ADD55C,0.03937*%
%ADD56C,0.02756*%
%ADD57C,0.05906*%
%ADD58C,0.01968*%
%ADD59R,0.09744X0.09744*%
%ADD60C,0.09744*%
%ADD61C,0.05906*%
%ADD62R,0.05906X0.05906*%
%ADD63R,0.05906X0.05906*%
%ADD64C,0.11811*%
%ADD65C,0.03937*%
G36*
X0Y0D02*
X10597D01*
X10671Y500D01*
X9995Y705D01*
X8285Y1619D01*
X6786Y2849D01*
X5556Y4348D01*
X4642Y6058D01*
X4079Y7913D01*
X3889Y9843D01*
X4079Y11772D01*
X4642Y13627D01*
X5556Y15337D01*
X6786Y16836D01*
X8285Y18066D01*
X9995Y18980D01*
X10283Y19067D01*
X10436Y19543D01*
X10341Y19668D01*
X9944Y20626D01*
X9809Y21654D01*
X9809Y64060D01*
X9384Y64288D01*
X8185Y65271D01*
X7201Y66470D01*
X6470Y67838D01*
X6019Y69323D01*
X5867Y70866D01*
Y113189D01*
X6019Y114733D01*
X6470Y116217D01*
X7201Y117585D01*
X8185Y118784D01*
X9248Y119847D01*
X10447Y120831D01*
X11815Y121562D01*
X13299Y122012D01*
X14842Y122164D01*
X20719D01*
Y134601D01*
X18701D01*
X18701Y134601D01*
X17365Y134777D01*
X16120Y135293D01*
X15051Y136114D01*
X10129Y141035D01*
X10129Y141035D01*
X9309Y142104D01*
X8793Y143349D01*
X8617Y144685D01*
X8617Y144685D01*
Y190945D01*
X8793Y192281D01*
X9309Y193526D01*
X10129Y194595D01*
X10129Y194595D01*
X14854Y199320D01*
X15923Y200140D01*
X17168Y200656D01*
X18504Y200832D01*
X18504Y200832D01*
X19094D01*
Y207480D01*
X19094D01*
Y219291D01*
X22031D01*
Y222654D01*
X25091D01*
Y219685D01*
X26090D01*
Y222654D01*
X29150D01*
Y219291D01*
X32087D01*
Y207874D01*
X32087D01*
Y207329D01*
X35039D01*
Y207441D01*
X52835D01*
Y195866D01*
X35039D01*
Y196608D01*
X32087D01*
Y189764D01*
X19899D01*
X18942Y188807D01*
Y179921D01*
X20063D01*
Y183283D01*
X23122D01*
Y180315D01*
X24122D01*
Y183283D01*
X27181D01*
Y179921D01*
X30118D01*
Y168110D01*
X30118D01*
X30200Y167644D01*
X37008D01*
Y168071D01*
X54803D01*
Y156496D01*
X37008D01*
Y156923D01*
X30118D01*
Y154724D01*
Y150832D01*
X122047D01*
X122047Y150832D01*
X123383Y150656D01*
X124628Y150140D01*
X125698Y149320D01*
X125698Y149320D01*
X141902Y133115D01*
X167986D01*
X168178Y133577D01*
X155247Y146507D01*
X154876Y146171D01*
X155363Y145579D01*
X156002Y144382D01*
X156396Y143083D01*
X156529Y141732D01*
X156396Y140382D01*
X156002Y139083D01*
X155363Y137886D01*
X154502Y136837D01*
X153453Y135976D01*
X152256Y135336D01*
X150957Y134942D01*
X149606Y134809D01*
X144685D01*
X143334Y134942D01*
X142036Y135336D01*
X140839Y135976D01*
X139790Y136837D01*
X121089Y155538D01*
X120228Y156587D01*
X119588Y157784D01*
X119194Y159082D01*
X119112Y159922D01*
X118624Y160515D01*
X117806Y162046D01*
X117303Y163706D01*
X117133Y165433D01*
X117303Y167160D01*
X117806Y168820D01*
X118624Y170351D01*
X119725Y171692D01*
X119788Y171744D01*
X119620Y172215D01*
X117175D01*
Y189833D01*
X134793D01*
Y189014D01*
X136486D01*
X137757Y190285D01*
Y192057D01*
X121112D01*
Y192954D01*
X104369D01*
Y177717D01*
X104217Y176173D01*
X103767Y174689D01*
X103465Y174124D01*
Y172146D01*
Y155295D01*
X89449D01*
Y155474D01*
X74803D01*
X73260Y155626D01*
X71775Y156076D01*
X71615Y156161D01*
X56555D01*
Y186358D01*
X88545D01*
Y200787D01*
X88697Y202331D01*
X89147Y203815D01*
X89449Y204380D01*
Y210592D01*
X86988D01*
Y195531D01*
X54587D01*
Y225728D01*
X71615D01*
X71775Y225814D01*
X73260Y226264D01*
X74803Y226416D01*
X89449D01*
Y227579D01*
X103464D01*
Y222097D01*
X103767Y221532D01*
X104217Y220047D01*
X104369Y218504D01*
X104217Y216960D01*
X103767Y215476D01*
X103464Y214911D01*
Y210531D01*
Y208778D01*
X121112D01*
Y209675D01*
X123557D01*
X123725Y210146D01*
X123662Y210198D01*
X122561Y211539D01*
X121743Y213069D01*
X121240Y214730D01*
X121070Y216457D01*
X121240Y218184D01*
X121743Y219844D01*
X122561Y221374D01*
X123662Y222716D01*
X125004Y223817D01*
X126534Y224635D01*
X128194Y225138D01*
X129921Y225308D01*
X131648Y225138D01*
X133309Y224635D01*
X133806Y224369D01*
X141811D01*
X143355Y224217D01*
X144839Y223766D01*
X146207Y223035D01*
X147406Y222051D01*
X151264Y218193D01*
X152248Y216994D01*
X152979Y215626D01*
X153429Y214142D01*
X153581Y212598D01*
Y193031D01*
X154043Y192840D01*
X164460Y203257D01*
X164764Y203490D01*
Y205512D01*
Y211417D01*
Y219126D01*
X164681Y219226D01*
X163950Y220594D01*
X163500Y222078D01*
X163348Y223622D01*
X163500Y225166D01*
X163950Y226650D01*
X164681Y228018D01*
X165665Y229217D01*
X166864Y230201D01*
X168232Y230932D01*
X169716Y231382D01*
X171260Y231534D01*
X188189D01*
X189733Y231382D01*
X191217Y230932D01*
X192585Y230201D01*
X193784Y229217D01*
X194768Y228018D01*
X195499Y226650D01*
X195949Y225166D01*
X196101Y223622D01*
X195949Y222078D01*
X195567Y220819D01*
Y220693D01*
X195529D01*
X195499Y220594D01*
X194768Y219226D01*
X193784Y218027D01*
X192585Y217043D01*
X191217Y216312D01*
X189733Y215862D01*
X188189Y215710D01*
X177756D01*
Y210951D01*
X180709D01*
Y211378D01*
X198504D01*
Y199803D01*
X180709D01*
Y200230D01*
X177756D01*
Y193701D01*
X169505D01*
X161658Y185854D01*
Y154697D01*
X167604Y148751D01*
X168066Y148943D01*
Y152362D01*
X166732D01*
Y158661D01*
Y170472D01*
X167868D01*
Y172047D01*
X166732D01*
Y183858D01*
X169669D01*
Y187221D01*
X172728D01*
Y184252D01*
X173728D01*
Y187221D01*
X176787D01*
Y183858D01*
X179724D01*
Y172047D01*
X178589D01*
Y170472D01*
X179724D01*
Y169811D01*
X180709D01*
Y170039D01*
X198504D01*
Y158465D01*
X180709D01*
Y158693D01*
X179724D01*
Y152362D01*
X178391D01*
Y149776D01*
X183241Y144926D01*
X224339D01*
X224605Y145426D01*
X223989Y146579D01*
X223539Y148063D01*
X223387Y149606D01*
X223539Y151150D01*
X223989Y152634D01*
X224721Y154002D01*
X225705Y155201D01*
X226904Y156185D01*
X228271Y156916D01*
X228357Y156942D01*
X228283Y157442D01*
X220472D01*
X218929Y157594D01*
X217445Y158045D01*
X217285Y158130D01*
X200256D01*
Y188327D01*
X232245D01*
Y199469D01*
X200256D01*
Y229665D01*
X232658D01*
Y229566D01*
X233150Y229547D01*
Y229547D01*
X247165D01*
Y222679D01*
X247366Y222016D01*
X247518Y220472D01*
X247366Y218929D01*
X247165Y218266D01*
Y212500D01*
Y210668D01*
X262844D01*
Y211644D01*
X265289D01*
X265457Y212115D01*
X265394Y212166D01*
X264294Y213508D01*
X263476Y215038D01*
X262972Y216698D01*
X262802Y218425D01*
X262972Y220152D01*
X263476Y221813D01*
X264294Y223343D01*
X265394Y224684D01*
X266736Y225785D01*
X268266Y226603D01*
X269927Y227107D01*
X271654Y227277D01*
X273380Y227107D01*
X275041Y226603D01*
X275538Y226337D01*
X283543D01*
X285087Y226185D01*
X286571Y225735D01*
X287939Y225004D01*
X289138Y224020D01*
X292996Y220162D01*
X293980Y218963D01*
X294711Y217595D01*
X295162Y216110D01*
X295314Y214567D01*
Y205827D01*
X295776Y205635D01*
X297334Y207194D01*
X298403Y208014D01*
X299648Y208530D01*
X300984Y208706D01*
X300984Y208706D01*
X302559D01*
Y213386D01*
Y225197D01*
X305496D01*
Y228559D01*
X308555D01*
Y225590D01*
X309555D01*
Y228559D01*
X312614D01*
Y225197D01*
X315551D01*
Y215203D01*
X318504D01*
Y215315D01*
X336299D01*
Y203740D01*
X318504D01*
Y204482D01*
X315551D01*
Y197638D01*
X303391D01*
Y181890D01*
X305496D01*
Y185252D01*
X308555D01*
Y182283D01*
X309555D01*
Y185252D01*
X312614D01*
Y181890D01*
X315551D01*
Y172441D01*
Y171581D01*
X316535D01*
Y172008D01*
X334331D01*
Y160433D01*
X316535D01*
Y160860D01*
X315551D01*
Y156737D01*
X371063Y156737D01*
X371063Y156737D01*
X372399Y156561D01*
X373644Y156045D01*
X374713Y155225D01*
X374713Y155225D01*
X388296Y141642D01*
X388983Y140746D01*
X389483Y140916D01*
Y159606D01*
X389567Y160241D01*
Y165500D01*
X389105Y165692D01*
X386254Y162841D01*
X385103Y161957D01*
X383762Y161402D01*
X382992Y161300D01*
Y158248D01*
X368976D01*
Y160079D01*
X368484Y160098D01*
X368476Y160098D01*
X358388D01*
X358189Y160072D01*
X357990Y160098D01*
X336083D01*
Y190295D01*
X368476D01*
X368484Y190295D01*
X368976Y190314D01*
Y192146D01*
X373318D01*
X374681Y193508D01*
X375880Y194492D01*
X377248Y195223D01*
X378732Y195674D01*
X380276Y195826D01*
X382611D01*
Y199587D01*
X370945D01*
Y200198D01*
X360787D01*
X359244Y200350D01*
X357760Y200800D01*
X356392Y201532D01*
X355193Y202516D01*
X354303Y203405D01*
X338051D01*
Y233602D01*
X370453D01*
Y233503D01*
X370945Y233484D01*
Y233484D01*
X384961D01*
Y232873D01*
X407262D01*
X407722Y233012D01*
X409449Y233182D01*
X411176Y233012D01*
X412006Y232761D01*
X412410Y232721D01*
X413894Y232271D01*
X413946Y232243D01*
X428334D01*
X429134Y232322D01*
X429933Y232243D01*
X436761D01*
Y247155D01*
X450189D01*
X450438Y247621D01*
X451668Y249119D01*
X453167Y250349D01*
X454877Y251263D01*
X455553Y251468D01*
X455479Y251969D01*
X430134D01*
Y239158D01*
X365278D01*
Y251969D01*
X0D01*
Y0D01*
D02*
G37*
G36*
X461770Y251468D02*
X462446Y251263D01*
X464156Y250349D01*
X465655Y249119D01*
X466885Y247621D01*
X467799Y245911D01*
X468362Y244056D01*
X468552Y242126D01*
X468362Y240196D01*
X467799Y238341D01*
X466885Y236631D01*
X465655Y235133D01*
X464156Y233903D01*
X462446Y232989D01*
X461630Y232741D01*
Y231283D01*
X455659D01*
Y215522D01*
X438041D01*
Y216419D01*
X437046D01*
Y206693D01*
X436894Y205149D01*
X436444Y203665D01*
X435712Y202297D01*
X434729Y201098D01*
X417019Y183388D01*
X416809Y182996D01*
X415708Y181654D01*
X415645Y181603D01*
X415813Y181132D01*
X418258D01*
Y167929D01*
X418758Y167722D01*
X430065Y179029D01*
X431114Y179890D01*
X432311Y180530D01*
X433610Y180924D01*
X434961Y181057D01*
X443369D01*
X443901Y181494D01*
X445432Y182312D01*
X447092Y182816D01*
X448819Y182985D01*
X450546Y182816D01*
X452206Y182312D01*
X453296Y181729D01*
X453724Y181987D01*
Y185637D01*
X468321D01*
Y150575D01*
X457628D01*
Y149734D01*
X456731D01*
Y143513D01*
X469306D01*
Y113173D01*
X457628D01*
Y112333D01*
X440010D01*
Y113230D01*
X427500D01*
Y108649D01*
X428492Y108119D01*
X429280Y107472D01*
X429646Y107305D01*
X430012Y107472D01*
X430799Y108119D01*
X431996Y108758D01*
X433295Y109152D01*
X434646Y109285D01*
X435996Y109152D01*
X437295Y108758D01*
X438492Y108119D01*
X439280Y107472D01*
X439646Y107305D01*
X440012Y107472D01*
X440799Y108119D01*
X441996Y108758D01*
X443295Y109152D01*
X444646Y109285D01*
X445996Y109152D01*
X447295Y108758D01*
X448492Y108119D01*
X449280Y107472D01*
X449646Y107305D01*
X450012Y107472D01*
X450799Y108119D01*
X451996Y108758D01*
X453295Y109152D01*
X454646Y109285D01*
X455996Y109152D01*
X457295Y108758D01*
X458492Y108119D01*
X459541Y107258D01*
X460402Y106209D01*
X461042Y105012D01*
X461436Y103713D01*
X461569Y102362D01*
X461436Y101012D01*
X461042Y99713D01*
X460402Y98516D01*
X459808Y97792D01*
Y68819D01*
X459808Y68819D01*
X459632Y67483D01*
X459116Y66238D01*
X458296Y65169D01*
X454438Y61310D01*
X454438Y61310D01*
X453369Y60490D01*
X452123Y59974D01*
X450787Y59798D01*
X450787Y59798D01*
X413976D01*
Y55559D01*
X414764D01*
Y55905D01*
X417701D01*
Y59268D01*
X420760D01*
Y56299D01*
X421760D01*
Y59268D01*
X424819D01*
Y55905D01*
X427756D01*
Y47091D01*
X428256Y46884D01*
X432733Y51361D01*
X433632Y52099D01*
X434658Y52648D01*
X435772Y52985D01*
X436929Y53099D01*
X446850D01*
X448008Y52985D01*
X449121Y52648D01*
X450147Y52099D01*
X451046Y51361D01*
X451784Y50462D01*
X452333Y49436D01*
X452670Y48323D01*
X452784Y47165D01*
X452670Y46008D01*
X452333Y44894D01*
X451784Y43869D01*
X451046Y42969D01*
X450147Y42231D01*
X449121Y41683D01*
X448008Y41345D01*
X446850Y41231D01*
X439387D01*
X439002Y40846D01*
X439193Y40384D01*
X455659D01*
Y24715D01*
X462614D01*
Y21495D01*
X464415Y20948D01*
X466125Y20034D01*
X467623Y18804D01*
X468853Y17306D01*
X469767Y15596D01*
X470330Y13740D01*
X470520Y11811D01*
X470330Y9882D01*
X469767Y8026D01*
X468853Y6316D01*
X467623Y4818D01*
X466125Y3588D01*
X464415Y2674D01*
X462559Y2111D01*
X460630Y1921D01*
X458701Y2111D01*
X456845Y2674D01*
X455135Y3588D01*
X453637Y4818D01*
X452407Y6316D01*
X451493Y8026D01*
X451245Y8843D01*
X442743D01*
Y14983D01*
X442243Y15273D01*
X441399Y14821D01*
X440211Y14461D01*
X438976Y14340D01*
X434071D01*
Y2937D01*
X385209D01*
Y14340D01*
X382890D01*
Y2937D01*
X335028D01*
Y14340D01*
X329740D01*
Y2937D01*
X280879D01*
Y14340D01*
X276590D01*
Y2937D01*
X227729D01*
Y14340D01*
X224410D01*
X223175Y14461D01*
X221987Y14821D01*
X220893Y15406D01*
X220477Y15748D01*
X211417D01*
Y16111D01*
X208101D01*
Y15748D01*
X207980Y14513D01*
X207620Y13326D01*
X207035Y12231D01*
X206247Y11272D01*
X198373Y3398D01*
X197414Y2611D01*
X196320Y2026D01*
X195133Y1666D01*
X193898Y1544D01*
X98425D01*
X97190Y1666D01*
X96003Y2026D01*
X94909Y2611D01*
X93949Y3398D01*
X81600Y15748D01*
X73622D01*
Y18277D01*
X69551D01*
X69239Y17965D01*
X68280Y17178D01*
X67186Y16593D01*
X65999Y16233D01*
X64764Y16111D01*
X55709D01*
X54474Y16233D01*
X53476Y16535D01*
X46063D01*
Y25591D01*
Y37402D01*
X48575D01*
X49000Y37583D01*
X49000Y37902D01*
Y40051D01*
X54724D01*
X60449D01*
Y37902D01*
X60449Y37583D01*
X60874Y37402D01*
X63386D01*
Y30422D01*
X63886Y30122D01*
X64507Y30454D01*
X65694Y30814D01*
X66929Y30936D01*
X73622D01*
Y33465D01*
X76559D01*
Y37886D01*
X80709D01*
X84858D01*
Y33465D01*
X87795D01*
Y27455D01*
X101047Y14204D01*
X108071D01*
Y28740D01*
X128937D01*
Y26228D01*
X129118Y25803D01*
X129437Y25803D01*
X131587D01*
Y20079D01*
X132087D01*
Y19579D01*
X135055D01*
Y14704D01*
X135055Y14354D01*
X135493Y14204D01*
X145636D01*
Y15748D01*
X145472D01*
Y33465D01*
X148409D01*
Y37886D01*
X152559D01*
X156709D01*
Y33465D01*
X159646D01*
Y15748D01*
X159482D01*
Y14204D01*
X166113D01*
Y21063D01*
X166142Y21353D01*
Y29724D01*
X187008D01*
Y27212D01*
X187189Y26787D01*
X189657D01*
Y21063D01*
X190157D01*
Y20563D01*
X193126D01*
Y16707D01*
X193588Y16516D01*
X195442Y18370D01*
Y20309D01*
X195170Y21206D01*
X195048Y22441D01*
X195170Y23676D01*
X195530Y24863D01*
X196115Y25958D01*
X196902Y26917D01*
X197861Y27704D01*
X198956Y28289D01*
X200143Y28649D01*
X201378Y28771D01*
X211417D01*
Y33465D01*
X214354D01*
Y37886D01*
X218504D01*
X222654D01*
Y33465D01*
X225590D01*
Y27880D01*
X226472Y26999D01*
X233268D01*
Y36417D01*
X233521D01*
X233744Y36789D01*
X233750Y36917D01*
X233367Y38177D01*
X233234Y39528D01*
X233367Y40878D01*
X233761Y42177D01*
X234401Y43374D01*
X235262Y44423D01*
X236311Y45284D01*
X237508Y45924D01*
X238807Y46318D01*
X240158Y46451D01*
X241508Y46318D01*
X242807Y45924D01*
X244004Y45284D01*
X244244Y45087D01*
X244921D01*
X246360Y44897D01*
X247025Y44622D01*
X247441Y44900D01*
Y50394D01*
Y62205D01*
X248775D01*
Y62992D01*
X248775Y62992D01*
X248867Y63694D01*
X248394Y63928D01*
X243307Y58841D01*
Y54528D01*
X217717D01*
Y57465D01*
X214354D01*
Y60524D01*
X217323D01*
Y61524D01*
X214354D01*
Y64583D01*
X217717D01*
Y67520D01*
X223458D01*
X223650Y67982D01*
X221249Y70383D01*
X220397Y71493D01*
X219861Y72786D01*
X219725Y73819D01*
X216142D01*
Y85394D01*
X233937D01*
Y73819D01*
X233628D01*
X233437Y73357D01*
X234106Y72688D01*
X234958Y71578D01*
X235493Y70285D01*
X235676Y68898D01*
Y67520D01*
X237385D01*
X242887Y73022D01*
X242696Y73484D01*
X235689D01*
Y101345D01*
X198770D01*
Y84616D01*
X196325D01*
X196157Y84145D01*
X196220Y84094D01*
X197320Y82752D01*
X198138Y81222D01*
X198642Y79562D01*
X198812Y77835D01*
X198642Y76108D01*
X198138Y74447D01*
X197320Y72917D01*
X196879Y72379D01*
Y53740D01*
X196765Y52583D01*
X196427Y51469D01*
X195879Y50443D01*
X195141Y49544D01*
X191535Y45939D01*
Y35236D01*
X170669D01*
Y43273D01*
X156709D01*
Y38886D01*
X152559D01*
X148409D01*
Y43273D01*
X133465D01*
Y34252D01*
X112598D01*
Y51575D01*
X113151D01*
Y74016D01*
X113303Y75559D01*
X113753Y77044D01*
X113976Y77461D01*
Y84842D01*
X128150D01*
Y79950D01*
X145473D01*
Y84842D01*
X159646D01*
Y83769D01*
X183435D01*
X183702Y84094D01*
X183765Y84145D01*
X183596Y84616D01*
X181152D01*
Y102234D01*
X183037D01*
Y103347D01*
X183170Y104697D01*
X183564Y105996D01*
X184204Y107193D01*
X185065Y108242D01*
X187341Y110518D01*
X187150Y110979D01*
X159465D01*
Y97425D01*
X156709D01*
Y95776D01*
X152559D01*
X148409D01*
Y97425D01*
X125213D01*
Y95776D01*
X121063D01*
X116913D01*
Y97425D01*
X113382D01*
Y108381D01*
X112920Y108572D01*
X105556Y101208D01*
Y62992D01*
X105556Y62992D01*
X105380Y61656D01*
X104864Y60411D01*
X104044Y59342D01*
X100107Y55405D01*
X100107Y55405D01*
X99038Y54584D01*
X97793Y54069D01*
X96457Y53893D01*
X96457Y53893D01*
X92716D01*
Y52559D01*
X74606D01*
Y53121D01*
X63189D01*
Y52559D01*
X51378D01*
Y55496D01*
X48016D01*
Y58555D01*
X50984D01*
Y59555D01*
X48016D01*
Y62614D01*
X51378D01*
Y65551D01*
X52390D01*
X52611Y66000D01*
X52444Y66217D01*
X52222Y66753D01*
X51908Y67510D01*
X51855Y67913D01*
X46850D01*
Y79488D01*
X64646D01*
Y68920D01*
X64814Y68751D01*
X64814Y68751D01*
X65898Y67668D01*
X66398Y67875D01*
Y97776D01*
X74765D01*
Y106959D01*
X61303Y120421D01*
X60841Y120230D01*
Y105299D01*
X46244D01*
Y121930D01*
X38337D01*
Y121034D01*
X35892D01*
X35724Y120563D01*
X35787Y120511D01*
X36887Y119170D01*
X37705Y117639D01*
X38209Y115979D01*
X38379Y114252D01*
X38209Y112525D01*
X37705Y110865D01*
X36887Y109334D01*
X35787Y107993D01*
X34445Y106892D01*
X32915Y106074D01*
X31254Y105570D01*
X29528Y105400D01*
X27801Y105570D01*
X26140Y106074D01*
X25643Y106340D01*
X21692D01*
Y80905D01*
X34646D01*
Y71361D01*
X35680Y70326D01*
X36532Y69216D01*
X37068Y67923D01*
X37251Y66535D01*
Y41929D01*
X40551D01*
Y21063D01*
X35351D01*
X35294Y20626D01*
X35287Y20608D01*
X35284Y20589D01*
X35088Y20130D01*
X34897Y19668D01*
X34885Y19653D01*
X34878Y19635D01*
X34570Y19242D01*
X34266Y18846D01*
X34251Y18834D01*
X34239Y18819D01*
X33840Y18519D01*
X33444Y18215D01*
X33426Y18207D01*
X33411Y18196D01*
X32948Y18009D01*
X32486Y17818D01*
X32467Y17815D01*
X32449Y17808D01*
X31953Y17748D01*
X31458Y17683D01*
X20483D01*
X20315Y17212D01*
X20773Y16836D01*
X22003Y15337D01*
X22917Y13627D01*
X23480Y11772D01*
X23670Y9843D01*
X23480Y7913D01*
X22917Y6058D01*
X22003Y4348D01*
X20773Y2849D01*
X19274Y1619D01*
X17564Y705D01*
X16888Y500D01*
X16962Y0D01*
X472441D01*
Y251969D01*
X461844D01*
X461770Y251468D01*
D02*
G37*
G36*
X362795Y62188D02*
Y58314D01*
X363583D01*
Y58858D01*
X366520D01*
Y62221D01*
X369579D01*
Y59252D01*
X370579D01*
Y62221D01*
X373638D01*
Y58858D01*
X376575D01*
Y47047D01*
X371995D01*
Y43307D01*
X372835D01*
Y33071D01*
X370323D01*
X369898Y32890D01*
Y31209D01*
X366634D01*
Y30709D01*
X366134D01*
Y28528D01*
X363370D01*
Y29331D01*
X351575D01*
Y33068D01*
X350856Y33787D01*
X350394Y33596D01*
Y26999D01*
X386811D01*
Y36417D01*
X387065D01*
X387287Y36789D01*
X387293Y36917D01*
X386911Y38177D01*
X386778Y39528D01*
X386911Y40878D01*
X387305Y42177D01*
X387944Y43374D01*
X388805Y44423D01*
X389855Y45284D01*
X391051Y45924D01*
X392350Y46318D01*
X393701Y46451D01*
X395051Y46318D01*
X396350Y45924D01*
X397547Y45284D01*
X397787Y45087D01*
X400984D01*
Y50394D01*
Y62205D01*
X402473D01*
X402494Y62360D01*
X403010Y63605D01*
X403481Y64220D01*
X403235Y64720D01*
X365327D01*
X362795Y62188D01*
D02*
G37*
G36*
X310280Y63807D02*
Y62205D01*
X311614D01*
Y55361D01*
X312402D01*
Y55905D01*
X315339D01*
Y59268D01*
X318398D01*
Y56299D01*
X319398D01*
Y59268D01*
X322457D01*
Y55905D01*
X325394D01*
Y44094D01*
X324457D01*
Y40650D01*
X324268Y39211D01*
X323712Y37870D01*
X322829Y36718D01*
X321654Y35543D01*
Y32087D01*
X319142D01*
X318717Y31905D01*
Y30224D01*
X315453D01*
Y29724D01*
X314953D01*
Y27543D01*
X312189D01*
Y28346D01*
X308641D01*
X308033Y28095D01*
X306594Y27905D01*
X303150D01*
X301711Y28095D01*
X301103Y28346D01*
X300394D01*
Y28640D01*
X300370Y28650D01*
X299219Y29533D01*
X299102Y29650D01*
X298653Y29392D01*
Y28212D01*
X299866Y26999D01*
X336614D01*
Y38386D01*
X336868D01*
X337090Y38757D01*
X337096Y38886D01*
X336714Y40145D01*
X336581Y41496D01*
X336714Y42847D01*
X337108Y44145D01*
X337748Y45342D01*
X338609Y46391D01*
X339658Y47252D01*
X340855Y47892D01*
X342153Y48286D01*
X343504Y48419D01*
X344855Y48286D01*
X346153Y47892D01*
X347350Y47252D01*
X347832Y46857D01*
X349382D01*
X349803Y47047D01*
Y53347D01*
Y65158D01*
X351656D01*
X351829Y65573D01*
X352649Y66642D01*
X352649Y66642D01*
X355186Y69179D01*
X354994Y69641D01*
X316115D01*
X310280Y63807D01*
D02*
G37*
G36*
X297596Y60958D02*
X296260Y60783D01*
X296260Y60783D01*
X260433D01*
Y54964D01*
X261221D01*
Y55905D01*
X264158D01*
Y59268D01*
X267217D01*
Y56299D01*
X268217D01*
Y59268D01*
X271276D01*
Y55905D01*
X274213D01*
Y44094D01*
X269831D01*
Y37205D01*
X269642Y35766D01*
X269086Y34425D01*
X268504Y33666D01*
Y32087D01*
X266318D01*
X265710Y31835D01*
X265567Y31816D01*
Y30224D01*
X262303D01*
Y29724D01*
X261803D01*
Y27543D01*
X259039D01*
Y28346D01*
X257460D01*
X256852Y28095D01*
X255413Y27905D01*
X250984D01*
X249545Y28095D01*
X248937Y28346D01*
X247471D01*
Y26999D01*
X284449D01*
Y36417D01*
X284702D01*
X284925Y36789D01*
X284931Y36917D01*
X284548Y38177D01*
X284416Y39528D01*
X284548Y40878D01*
X284943Y42177D01*
X285582Y43374D01*
X286443Y44423D01*
X287492Y45284D01*
X288689Y45924D01*
X289988Y46318D01*
X291339Y46451D01*
X292689Y46318D01*
X293988Y45924D01*
X295185Y45284D01*
X295425Y45087D01*
X297087D01*
X298122Y44951D01*
X298622Y45375D01*
Y50394D01*
Y60934D01*
X298206Y61211D01*
X297596Y60958D01*
D02*
G37*
G36*
X148819Y74016D02*
X121063D01*
X123031Y47244D01*
X184055D01*
X190945Y54134D01*
Y76850D01*
X153465D01*
X152559Y77756D01*
X148819Y74016D01*
D02*
G37*
G36*
X13780Y21654D02*
X31458D01*
X31890Y66535D01*
X27559Y70866D01*
X13780D01*
X13780Y21654D01*
D02*
G37*
%LPC*%
G36*
X256473Y245187D02*
X292339D01*
Y229315D01*
X256473D01*
Y245187D01*
D02*
G37*
G36*
X321441Y230331D02*
X326902D01*
Y227980D01*
X321441D01*
Y230331D01*
D02*
G37*
G36*
X327902D02*
X333362D01*
Y227980D01*
X327902D01*
Y230331D01*
D02*
G37*
G36*
X108804Y243218D02*
X146669D01*
Y227346D01*
X108804D01*
Y243218D01*
D02*
G37*
G36*
X19685Y246111D02*
X21614Y245921D01*
X23470Y245358D01*
X25180Y244444D01*
X26678Y243214D01*
X27908Y241715D01*
X28822Y240005D01*
X29385Y238150D01*
X29575Y236221D01*
X29385Y234291D01*
X28822Y232436D01*
X27908Y230726D01*
X26678Y229227D01*
X25180Y227997D01*
X23470Y227083D01*
X21614Y226520D01*
X19685Y226330D01*
X17756Y226520D01*
X15900Y227083D01*
X14190Y227997D01*
X12692Y229227D01*
X11462Y230726D01*
X10548Y232436D01*
X9985Y234291D01*
X9795Y236221D01*
X9985Y238150D01*
X10548Y240005D01*
X11462Y241715D01*
X12692Y243214D01*
X14190Y244444D01*
X15900Y245358D01*
X17756Y245921D01*
X19685Y246111D01*
D02*
G37*
G36*
X321441Y226980D02*
X326902D01*
Y224630D01*
X321441D01*
Y226980D01*
D02*
G37*
G36*
X327902D02*
X333362D01*
Y224630D01*
X327902D01*
Y226980D01*
D02*
G37*
G36*
X37976Y222457D02*
X43437D01*
Y220106D01*
X37976D01*
Y222457D01*
D02*
G37*
G36*
X44437D02*
X49898D01*
Y220106D01*
X44437D01*
Y222457D01*
D02*
G37*
G36*
X37976Y219106D02*
X43437D01*
Y216756D01*
X37976D01*
Y219106D01*
D02*
G37*
G36*
X44437D02*
X49898D01*
Y216756D01*
X44437D01*
Y219106D01*
D02*
G37*
G36*
X344972Y199779D02*
Y197350D01*
X342544D01*
X342580Y197625D01*
X342879Y198347D01*
X343355Y198968D01*
X343975Y199443D01*
X344697Y199742D01*
X344972Y199779D01*
D02*
G37*
G36*
X345972D02*
X346247Y199742D01*
X346970Y199443D01*
X347590Y198968D01*
X348065Y198347D01*
X348364Y197625D01*
X348401Y197350D01*
X345972D01*
Y199779D01*
D02*
G37*
G36*
X206193Y196826D02*
Y194398D01*
X203765D01*
X203801Y194673D01*
X204100Y195395D01*
X204576Y196015D01*
X205196Y196491D01*
X205918Y196790D01*
X206193Y196826D01*
D02*
G37*
G36*
X207193D02*
X207468Y196790D01*
X208190Y196491D01*
X208810Y196015D01*
X209286Y195395D01*
X209585Y194673D01*
X209621Y194398D01*
X207193D01*
Y196826D01*
D02*
G37*
G36*
X342544Y196350D02*
X344972D01*
Y193922D01*
X344697Y193958D01*
X343975Y194257D01*
X343355Y194733D01*
X342879Y195353D01*
X342580Y196075D01*
X342544Y196350D01*
D02*
G37*
G36*
X345972D02*
X348401D01*
X348364Y196075D01*
X348065Y195353D01*
X347590Y194733D01*
X346970Y194257D01*
X346247Y193958D01*
X345972Y193922D01*
Y196350D01*
D02*
G37*
G36*
X64461Y193873D02*
Y191445D01*
X62032D01*
X62068Y191720D01*
X62368Y192442D01*
X62844Y193062D01*
X63464Y193538D01*
X64186Y193837D01*
X64461Y193873D01*
D02*
G37*
G36*
X65461D02*
X65736Y193837D01*
X66458Y193538D01*
X67078Y193062D01*
X67554Y192442D01*
X67853Y191720D01*
X67889Y191445D01*
X65461D01*
Y193873D01*
D02*
G37*
G36*
X203765Y193398D02*
X206193D01*
Y190969D01*
X205918Y191006D01*
X205196Y191305D01*
X204576Y191780D01*
X204100Y192401D01*
X203801Y193123D01*
X203765Y193398D01*
D02*
G37*
G36*
X207193D02*
X209621D01*
X209585Y193123D01*
X209286Y192401D01*
X208810Y191780D01*
X208190Y191305D01*
X207468Y191006D01*
X207193Y190969D01*
Y193398D01*
D02*
G37*
G36*
X62032Y190445D02*
X64461D01*
Y188017D01*
X64186Y188053D01*
X63464Y188352D01*
X62844Y188828D01*
X62368Y189448D01*
X62068Y190170D01*
X62032Y190445D01*
D02*
G37*
G36*
X65461D02*
X67889D01*
X67853Y190170D01*
X67554Y189448D01*
X67078Y188828D01*
X66458Y188352D01*
X65736Y188053D01*
X65461Y188017D01*
Y190445D01*
D02*
G37*
G36*
X319472Y187024D02*
X324933D01*
Y184673D01*
X319472D01*
Y187024D01*
D02*
G37*
G36*
X325933D02*
X331394D01*
Y184673D01*
X325933D01*
Y187024D01*
D02*
G37*
G36*
X183646Y185055D02*
X189106D01*
Y182705D01*
X183646D01*
Y185055D01*
D02*
G37*
G36*
X190106D02*
X195567D01*
Y182705D01*
X190106D01*
Y185055D01*
D02*
G37*
G36*
X319472Y183673D02*
X324933D01*
Y181323D01*
X319472D01*
Y183673D01*
D02*
G37*
G36*
X325933D02*
X331394D01*
Y181323D01*
X325933D01*
Y183673D01*
D02*
G37*
G36*
X39945Y183087D02*
X45406D01*
Y180736D01*
X39945D01*
Y183087D01*
D02*
G37*
G36*
X46406D02*
X51866D01*
Y180736D01*
X46406D01*
Y183087D01*
D02*
G37*
G36*
X183646Y181705D02*
X189106D01*
Y179354D01*
X183646D01*
Y181705D01*
D02*
G37*
G36*
X190106D02*
X195567D01*
Y179354D01*
X190106D01*
Y181705D01*
D02*
G37*
G36*
X39945Y179736D02*
X45406D01*
Y177386D01*
X39945D01*
Y179736D01*
D02*
G37*
G36*
X46406D02*
X51866D01*
Y177386D01*
X46406D01*
Y179736D01*
D02*
G37*
G36*
X446350Y214591D02*
Y209240D01*
X440999D01*
X441063Y209891D01*
X441399Y210998D01*
X441944Y212018D01*
X442678Y212912D01*
X443572Y213646D01*
X444592Y214191D01*
X445699Y214527D01*
X446350Y214591D01*
D02*
G37*
G36*
X447350D02*
X448001Y214527D01*
X449108Y214191D01*
X450129Y213646D01*
X451023Y212912D01*
X451756Y212018D01*
X452302Y210998D01*
X452637Y209891D01*
X452702Y209240D01*
X447350D01*
Y214591D01*
D02*
G37*
G36*
Y208240D02*
X452702D01*
X452637Y207589D01*
X452302Y206482D01*
X451756Y205462D01*
X451023Y204568D01*
X450129Y203834D01*
X449108Y203289D01*
X448001Y202953D01*
X447350Y202889D01*
Y208240D01*
D02*
G37*
G36*
X440999D02*
X446350D01*
Y202889D01*
X445699Y202953D01*
X444592Y203289D01*
X443572Y203834D01*
X442678Y204568D01*
X441944Y205462D01*
X441399Y206482D01*
X441063Y207589D01*
X440999Y208240D01*
D02*
G37*
G36*
X219079Y100409D02*
X224539D01*
Y98059D01*
X219079D01*
Y100409D01*
D02*
G37*
G36*
X225539D02*
X231000D01*
Y98059D01*
X225539D01*
Y100409D01*
D02*
G37*
G36*
X219079Y97059D02*
X224539D01*
Y94709D01*
X219079D01*
Y97059D01*
D02*
G37*
G36*
X225539D02*
X231000D01*
Y94709D01*
X225539D01*
Y97059D01*
D02*
G37*
G36*
X49787Y94504D02*
X55248D01*
Y92154D01*
X49787D01*
Y94504D01*
D02*
G37*
G36*
X56248D02*
X61709D01*
Y92154D01*
X56248D01*
Y94504D01*
D02*
G37*
G36*
X23410Y99228D02*
X27059D01*
Y91839D01*
X23410D01*
Y99228D01*
D02*
G37*
G36*
X28059D02*
X31709D01*
Y91839D01*
X28059D01*
Y99228D01*
D02*
G37*
G36*
X49787Y91154D02*
X55248D01*
Y88803D01*
X49787D01*
Y91154D01*
D02*
G37*
G36*
X56248D02*
X61709D01*
Y88803D01*
X56248D01*
Y91154D01*
D02*
G37*
G36*
X116913Y94776D02*
X120563D01*
Y87386D01*
X116913D01*
Y94776D01*
D02*
G37*
G36*
X121563D02*
X125213D01*
Y87386D01*
X121563D01*
Y94776D01*
D02*
G37*
G36*
X148409Y94776D02*
X152059D01*
Y87386D01*
X148409D01*
Y94776D01*
D02*
G37*
G36*
X153059D02*
X156709D01*
Y87386D01*
X153059D01*
Y94776D01*
D02*
G37*
G36*
X23410Y90839D02*
X27059D01*
Y83449D01*
X23410D01*
Y90839D01*
D02*
G37*
G36*
X28059D02*
X31709D01*
Y83449D01*
X28059D01*
Y90839D01*
D02*
G37*
G36*
X94972Y51157D02*
Y48728D01*
X92544D01*
X92580Y49003D01*
X92879Y49725D01*
X93355Y50345D01*
X93975Y50821D01*
X94697Y51120D01*
X94972Y51157D01*
D02*
G37*
G36*
X95972D02*
X96247Y51120D01*
X96969Y50821D01*
X97590Y50345D01*
X98065Y49725D01*
X98365Y49003D01*
X98401Y48728D01*
X95972D01*
Y51157D01*
D02*
G37*
G36*
X92544Y47728D02*
X94972D01*
Y45300D01*
X94697Y45336D01*
X93975Y45635D01*
X93355Y46111D01*
X92879Y46731D01*
X92580Y47453D01*
X92544Y47728D01*
D02*
G37*
G36*
X95972D02*
X98401D01*
X98365Y47453D01*
X98065Y46731D01*
X97590Y46111D01*
X96969Y45635D01*
X96247Y45336D01*
X95972Y45300D01*
Y47728D01*
D02*
G37*
G36*
X49000Y43520D02*
X54224D01*
Y41051D01*
X49000D01*
Y43520D01*
D02*
G37*
G36*
X55224D02*
X60449D01*
Y41051D01*
X55224D01*
Y43520D01*
D02*
G37*
G36*
X76559Y44307D02*
X80209D01*
Y38886D01*
X76559D01*
Y44307D01*
D02*
G37*
G36*
X214354D02*
X218004D01*
Y38886D01*
X214354D01*
Y44307D01*
D02*
G37*
G36*
X81209D02*
X84858D01*
Y38886D01*
X81209D01*
Y44307D01*
D02*
G37*
G36*
X219004D02*
X222654D01*
Y38886D01*
X219004D01*
Y44307D01*
D02*
G37*
G36*
X190657Y26787D02*
X193126D01*
Y21563D01*
X190657D01*
Y26787D01*
D02*
G37*
G36*
X132587Y25803D02*
X135055D01*
Y20579D01*
X132587D01*
Y25803D01*
D02*
G37*
G36*
X385327Y60999D02*
Y58571D01*
X382898D01*
X382935Y58846D01*
X383234Y59568D01*
X383710Y60188D01*
X384330Y60664D01*
X385052Y60963D01*
X385327Y60999D01*
D02*
G37*
G36*
X386327D02*
X386602Y60963D01*
X387324Y60664D01*
X387944Y60188D01*
X388420Y59568D01*
X388719Y58846D01*
X388755Y58571D01*
X386327D01*
Y60999D01*
D02*
G37*
G36*
X382898Y57571D02*
X385327D01*
Y55143D01*
X385052Y55179D01*
X384330Y55478D01*
X383710Y55954D01*
X383234Y56574D01*
X382935Y57296D01*
X382898Y57571D01*
D02*
G37*
G36*
X386327D02*
X388755D01*
X388719Y57296D01*
X388420Y56574D01*
X387944Y55954D01*
X387324Y55478D01*
X386602Y55179D01*
X386327Y55143D01*
Y57571D01*
D02*
G37*
G36*
X367134Y30209D02*
X369898D01*
Y28528D01*
X367134D01*
Y30209D01*
D02*
G37*
G36*
X328240Y40330D02*
Y37902D01*
X325812D01*
X325848Y38177D01*
X326147Y38899D01*
X326623Y39519D01*
X327243Y39995D01*
X327965Y40294D01*
X328240Y40330D01*
D02*
G37*
G36*
X329240D02*
X329515Y40294D01*
X330237Y39995D01*
X330857Y39519D01*
X331333Y38899D01*
X331632Y38177D01*
X331668Y37902D01*
X329240D01*
Y40330D01*
D02*
G37*
G36*
X325812Y36902D02*
X328240D01*
Y34473D01*
X327965Y34510D01*
X327243Y34809D01*
X326623Y35284D01*
X326147Y35904D01*
X325848Y36627D01*
X325812Y36902D01*
D02*
G37*
G36*
X329240D02*
X331668D01*
X331632Y36627D01*
X331333Y35904D01*
X330857Y35284D01*
X330237Y34809D01*
X329515Y34510D01*
X329240Y34473D01*
Y36902D01*
D02*
G37*
G36*
X315953Y29224D02*
X318717D01*
Y27543D01*
X315953D01*
Y29224D01*
D02*
G37*
G36*
X277059Y40330D02*
Y37902D01*
X274631D01*
X274667Y38177D01*
X274966Y38899D01*
X275442Y39519D01*
X276062Y39995D01*
X276784Y40294D01*
X277059Y40330D01*
D02*
G37*
G36*
X278059D02*
X278334Y40294D01*
X279056Y39995D01*
X279676Y39519D01*
X280152Y38899D01*
X280451Y38177D01*
X280487Y37902D01*
X278059D01*
Y40330D01*
D02*
G37*
G36*
X274631Y36902D02*
X277059D01*
Y34473D01*
X276784Y34510D01*
X276062Y34809D01*
X275442Y35284D01*
X274966Y35904D01*
X274667Y36627D01*
X274631Y36902D01*
D02*
G37*
G36*
X278059D02*
X280487D01*
X280451Y36627D01*
X280152Y35904D01*
X279676Y35284D01*
X279056Y34809D01*
X278334Y34510D01*
X278059Y34473D01*
Y36902D01*
D02*
G37*
G36*
X262803Y29224D02*
X265567D01*
Y27543D01*
X262803D01*
Y29224D01*
D02*
G37*
%LPD*%
D15*
X459646Y118110D02*
X464368D01*
X462794Y119685D01*
X464368Y121259D01*
X459646D01*
Y123620D02*
Y125195D01*
X460433Y125982D01*
X462007D01*
X462794Y125195D01*
Y123620D01*
X462007Y122833D01*
X460433D01*
X459646Y123620D01*
X463581Y128343D02*
X462794D01*
Y127556D01*
Y129130D01*
Y128343D01*
X460433D01*
X459646Y129130D01*
Y132279D02*
Y133853D01*
X460433Y134640D01*
X462007D01*
X462794Y133853D01*
Y132279D01*
X462007Y131492D01*
X460433D01*
X459646Y132279D01*
X462794Y136215D02*
X459646D01*
X461220D01*
X462007Y137002D01*
X462794Y137789D01*
Y138576D01*
X463384Y155512D02*
X458661D01*
Y157873D01*
X459449Y158660D01*
X462597D01*
X463384Y157873D01*
Y155512D01*
X461810Y160235D02*
X458661D01*
X460236D01*
X461023Y161022D01*
X461810Y161809D01*
Y162596D01*
X458661Y164958D02*
Y166532D01*
Y165745D01*
X461810D01*
Y164958D01*
Y168893D02*
X458661Y170468D01*
X461810Y172042D01*
X458661Y175978D02*
Y174403D01*
X459449Y173616D01*
X461023D01*
X461810Y174403D01*
Y175978D01*
X461023Y176765D01*
X460236D01*
Y173616D01*
X461810Y178339D02*
X458661D01*
X460236D01*
X461023Y179126D01*
X461810Y179913D01*
Y180701D01*
X453678Y19778D02*
X457677D01*
Y16779D01*
X455678Y17778D01*
X454678D01*
X453678Y16779D01*
Y14779D01*
X454678Y13780D01*
X456677D01*
X457677Y14779D01*
X451679Y19778D02*
Y15779D01*
X449680Y13780D01*
X447680Y15779D01*
Y19778D01*
X456693Y236221D02*
X454694D01*
X455693D01*
Y242218D01*
X456693Y241219D01*
X447696Y236221D02*
X451694D01*
X447696Y240219D01*
Y241219D01*
X448696Y242218D01*
X450695D01*
X451694Y241219D01*
X445696Y242218D02*
Y238220D01*
X443697Y236221D01*
X441698Y238220D01*
Y242218D01*
X143701Y154528D02*
X146325D01*
X147636Y155840D01*
X146325Y157151D01*
X143701D01*
X145669D01*
Y154528D01*
X146981Y161087D02*
X147636Y160431D01*
Y159119D01*
X146981Y158463D01*
X144357D01*
X143701Y159119D01*
Y160431D01*
X144357Y161087D01*
X146981Y165023D02*
X147636Y164367D01*
Y163055D01*
X146981Y162399D01*
X146325D01*
X145669Y163055D01*
Y164367D01*
X145013Y165023D01*
X144357D01*
X143701Y164367D01*
Y163055D01*
X144357Y162399D01*
X147636Y166335D02*
Y168959D01*
X146981D01*
X144357Y166335D01*
X143701D01*
Y170271D02*
Y171582D01*
Y170926D01*
X147636D01*
X146981Y170271D01*
X143701Y176174D02*
Y173550D01*
X146325Y176174D01*
X146981D01*
X147636Y175518D01*
Y174206D01*
X146981Y173550D01*
X137734Y237282D02*
X138733Y238281D01*
X140733D01*
X141732Y237282D01*
Y233283D01*
X140733Y232283D01*
X138733D01*
X137734Y233283D01*
X135734Y238281D02*
Y232283D01*
Y235282D01*
X131736D01*
Y238281D01*
Y232283D01*
X129736D02*
Y238281D01*
X126737D01*
X125737Y237282D01*
Y235282D01*
X126737Y234283D01*
X129736D01*
X127737D02*
X125737Y232283D01*
X119739Y237282D02*
X120739Y238281D01*
X122738D01*
X123738Y237282D01*
Y233283D01*
X122738Y232283D01*
X120739D01*
X119739Y233283D01*
Y235282D01*
X121739D01*
X113741Y232283D02*
X117740D01*
X113741Y236282D01*
Y237282D01*
X114741Y238281D01*
X116740D01*
X117740Y237282D01*
X286417Y151575D02*
X289041D01*
X290353Y152887D01*
X289041Y154199D01*
X286417D01*
X288385D01*
Y151575D01*
X289697Y158134D02*
X290353Y157478D01*
Y156167D01*
X289697Y155510D01*
X287073D01*
X286417Y156167D01*
Y157478D01*
X287073Y158134D01*
X289697Y162070D02*
X290353Y161414D01*
Y160102D01*
X289697Y159446D01*
X289041D01*
X288385Y160102D01*
Y161414D01*
X287729Y162070D01*
X287073D01*
X286417Y161414D01*
Y160102D01*
X287073Y159446D01*
X290353Y163382D02*
Y166006D01*
X289697D01*
X287073Y163382D01*
X286417D01*
Y167318D02*
Y168630D01*
Y167974D01*
X290353D01*
X289697Y167318D01*
X286417Y173221D02*
Y170598D01*
X289041Y173221D01*
X289697D01*
X290353Y172565D01*
Y171254D01*
X289697Y170598D01*
X283403Y239250D02*
X284402Y240250D01*
X286402D01*
X287402Y239250D01*
Y235252D01*
X286402Y234252D01*
X284402D01*
X283403Y235252D01*
X281403Y240250D02*
Y234252D01*
Y237251D01*
X277405D01*
Y240250D01*
Y234252D01*
X275406D02*
Y240250D01*
X272406D01*
X271407Y239250D01*
Y237251D01*
X272406Y236251D01*
X275406D01*
X273406D02*
X271407Y234252D01*
X265409Y239250D02*
X266408Y240250D01*
X268408D01*
X269407Y239250D01*
Y235252D01*
X268408Y234252D01*
X266408D01*
X265409Y235252D01*
Y237251D01*
X267408D01*
X263409Y234252D02*
X261410D01*
X262410D01*
Y240250D01*
X263409Y239250D01*
X399545Y201864D02*
X403543D01*
Y198865D01*
X401544D01*
X403543D01*
Y195866D01*
X396546Y199865D02*
X394546D01*
X393547Y198865D01*
Y195866D01*
X396546D01*
X397545Y196866D01*
X396546Y197865D01*
X393547D01*
X391547Y195866D02*
Y199865D01*
X388548D01*
X387548Y198865D01*
Y195866D01*
X425197Y250093D02*
Y244094D01*
X421198D01*
X415200Y248093D02*
X418199D01*
X419199Y247094D01*
Y245094D01*
X418199Y244094D01*
X415200D01*
X413201D02*
Y250093D01*
Y246094D02*
X410202Y248093D01*
X413201Y246094D02*
X410202Y244094D01*
X403204Y249093D02*
X404204Y250093D01*
X406203D01*
X407203Y249093D01*
Y245094D01*
X406203Y244094D01*
X404204D01*
X403204Y245094D01*
X400205Y244094D02*
X398206D01*
X397206Y245094D01*
Y247094D01*
X398206Y248093D01*
X400205D01*
X401205Y247094D01*
Y245094D01*
X400205Y244094D01*
X395207D02*
Y248093D01*
X392208D01*
X391208Y247094D01*
Y244094D01*
X388209Y249093D02*
Y248093D01*
X389209D01*
X387209D01*
X388209D01*
Y245094D01*
X387209Y244094D01*
X384210Y248093D02*
Y244094D01*
Y246094D01*
X383210Y247094D01*
X382211Y248093D01*
X381211D01*
X377212Y244094D02*
X375213D01*
X374213Y245094D01*
Y247094D01*
X375213Y248093D01*
X377212D01*
X378212Y247094D01*
Y245094D01*
X377212Y244094D01*
X372214D02*
X370215D01*
X371214D01*
Y250093D01*
X372214D01*
X51181Y110236D02*
X55904D01*
Y112598D01*
X55117Y113385D01*
X53543D01*
X52755Y112598D01*
Y110236D01*
Y111811D02*
X51181Y113385D01*
Y117321D02*
Y115746D01*
X51968Y114959D01*
X53543D01*
X54330Y115746D01*
Y117321D01*
X53543Y118108D01*
X52755D01*
Y114959D01*
X55904Y122831D02*
X51181D01*
Y120469D01*
X51968Y119682D01*
X53543D01*
X54330Y120469D01*
Y122831D01*
X55904Y124405D02*
X51181D01*
Y127553D01*
X55904Y132276D02*
Y129128D01*
X51181D01*
Y132276D01*
X53543Y129128D02*
Y130702D01*
X55904Y133851D02*
X51181D01*
Y136212D01*
X51968Y136999D01*
X55117D01*
X55904Y136212D01*
Y133851D01*
X151379Y106298D02*
X152166Y107085D01*
X153740D01*
X154527Y106298D01*
Y103149D01*
X153740Y102362D01*
X152166D01*
X151379Y103149D01*
Y104724D01*
X152953D01*
X149805Y105511D02*
Y102362D01*
Y103937D01*
X149018Y104724D01*
X148230Y105511D01*
X147443D01*
X142720Y102362D02*
X144295D01*
X145082Y103149D01*
Y104724D01*
X144295Y105511D01*
X142720D01*
X141933Y104724D01*
Y103937D01*
X145082D01*
X137997Y102362D02*
X139572D01*
X140359Y103149D01*
Y104724D01*
X139572Y105511D01*
X137997D01*
X137210Y104724D01*
Y103937D01*
X140359D01*
X135636Y102362D02*
Y105511D01*
X133275D01*
X132487Y104724D01*
Y102362D01*
X130913Y107085D02*
Y102362D01*
X127765D01*
X123042Y107085D02*
X126190D01*
Y102362D01*
X123042D01*
X126190Y104724D02*
X124616D01*
X121467Y107085D02*
Y102362D01*
X119106D01*
X118319Y103149D01*
Y106298D01*
X119106Y107085D01*
X121467D01*
X271654Y7874D02*
Y13872D01*
X268654D01*
X267655Y12872D01*
Y10873D01*
X268654Y9873D01*
X271654D01*
X261657Y12872D02*
X262656Y13872D01*
X264656D01*
X265655Y12872D01*
Y11873D01*
X264656Y10873D01*
X262656D01*
X261657Y9873D01*
Y8874D01*
X262656Y7874D01*
X264656D01*
X265655Y8874D01*
X256658Y7874D02*
X258658D01*
X259657Y8874D01*
Y10873D01*
X258658Y11873D01*
X256658D01*
X255659Y10873D01*
Y9873D01*
X259657D01*
X253659Y7874D02*
Y11873D01*
X250660D01*
X249661Y10873D01*
Y7874D01*
X247661D02*
X244662D01*
X243663Y8874D01*
X244662Y9873D01*
X246662D01*
X247661Y10873D01*
X246662Y11873D01*
X243663D01*
X240664Y7874D02*
X238664D01*
X237665Y8874D01*
Y10873D01*
X238664Y11873D01*
X240664D01*
X241663Y10873D01*
Y8874D01*
X240664Y7874D01*
X235665Y11873D02*
Y7874D01*
Y9873D01*
X234665Y10873D01*
X233666Y11873D01*
X232666D01*
X324803Y13872D02*
Y7874D01*
X320804D01*
X314806Y12872D02*
X315806Y13872D01*
X317805D01*
X318805Y12872D01*
Y11873D01*
X317805Y10873D01*
X315806D01*
X314806Y9873D01*
Y8874D01*
X315806Y7874D01*
X317805D01*
X318805Y8874D01*
X309808Y7874D02*
X311807D01*
X312807Y8874D01*
Y10873D01*
X311807Y11873D01*
X309808D01*
X308808Y10873D01*
Y9873D01*
X312807D01*
X306809Y7874D02*
Y11873D01*
X303810D01*
X302810Y10873D01*
Y7874D01*
X300811D02*
X297812D01*
X296812Y8874D01*
X297812Y9873D01*
X299811D01*
X300811Y10873D01*
X299811Y11873D01*
X296812D01*
X293813Y7874D02*
X291814D01*
X290814Y8874D01*
Y10873D01*
X291814Y11873D01*
X293813D01*
X294813Y10873D01*
Y8874D01*
X293813Y7874D01*
X288815Y11873D02*
Y7874D01*
Y9873D01*
X287815Y10873D01*
X286815Y11873D01*
X285816D01*
X377953Y7874D02*
Y13872D01*
X375953Y11873D01*
X373954Y13872D01*
Y7874D01*
X367956Y12872D02*
X368956Y13872D01*
X370955D01*
X371955Y12872D01*
Y11873D01*
X370955Y10873D01*
X368956D01*
X367956Y9873D01*
Y8874D01*
X368956Y7874D01*
X370955D01*
X371955Y8874D01*
X365957Y11873D02*
Y8874D01*
X364957Y7874D01*
X363957Y8874D01*
X362958Y7874D01*
X361958Y8874D01*
Y11873D01*
X359959Y7874D02*
X357959D01*
X358959D01*
Y11873D01*
X359959D01*
X353960Y12872D02*
Y11873D01*
X354960D01*
X352961D01*
X353960D01*
Y8874D01*
X352961Y7874D01*
X345963Y11873D02*
X348962D01*
X349962Y10873D01*
Y8874D01*
X348962Y7874D01*
X345963D01*
X343964Y13872D02*
Y7874D01*
Y10873D01*
X342964Y11873D01*
X340965D01*
X339965Y10873D01*
Y7874D01*
X425135Y13872D02*
X429134D01*
Y7874D01*
X425135D01*
X429134Y10873D02*
X427135D01*
X423136Y7874D02*
Y11873D01*
X420137D01*
X419137Y10873D01*
Y7874D01*
X413139Y11873D02*
X416138D01*
X417138Y10873D01*
Y8874D01*
X416138Y7874D01*
X413139D01*
X410140D02*
X408141D01*
X407141Y8874D01*
Y10873D01*
X408141Y11873D01*
X410140D01*
X411140Y10873D01*
Y8874D01*
X410140Y7874D01*
X401143Y13872D02*
Y7874D01*
X404142D01*
X405142Y8874D01*
Y10873D01*
X404142Y11873D01*
X401143D01*
X396145Y7874D02*
X398144D01*
X399144Y8874D01*
Y10873D01*
X398144Y11873D01*
X396145D01*
X395145Y10873D01*
Y9873D01*
X399144D01*
X393145Y11873D02*
Y7874D01*
Y9873D01*
X392146Y10873D01*
X391146Y11873D01*
X390146D01*
D16*
X366634Y38189D02*
D03*
Y30709D02*
D03*
X357776Y34449D02*
D03*
X417815Y37205D02*
D03*
Y29724D02*
D03*
X408957Y33465D02*
D03*
X262303Y37205D02*
D03*
Y29724D02*
D03*
X253445Y33465D02*
D03*
X315453Y37205D02*
D03*
Y29724D02*
D03*
X306594Y33465D02*
D03*
D17*
X181102Y43898D02*
D03*
X123031Y42913D02*
D03*
D18*
X172047Y21063D02*
D03*
X181102D02*
D03*
X190157D02*
D03*
X132087Y20079D02*
D03*
X123031D02*
D03*
X113976D02*
D03*
D19*
X356299Y52953D02*
D03*
Y59252D02*
D03*
X318898Y50000D02*
D03*
Y56299D02*
D03*
X421260D02*
D03*
Y50000D02*
D03*
X309055Y175984D02*
D03*
Y182283D02*
D03*
Y166535D02*
D03*
Y160236D02*
D03*
X253937Y50000D02*
D03*
Y56299D02*
D03*
X305118Y50000D02*
D03*
Y56299D02*
D03*
X407480Y50000D02*
D03*
Y56299D02*
D03*
X267717Y56299D02*
D03*
Y50000D02*
D03*
X370079Y52953D02*
D03*
Y59252D02*
D03*
X173228Y177953D02*
D03*
Y184252D02*
D03*
X171260Y217323D02*
D03*
Y223622D02*
D03*
X173228Y164567D02*
D03*
Y158268D02*
D03*
X171260Y205906D02*
D03*
Y199606D02*
D03*
X23622Y174016D02*
D03*
Y180315D02*
D03*
X25591Y213386D02*
D03*
Y219685D02*
D03*
X309055Y219291D02*
D03*
Y225590D02*
D03*
X23622Y160630D02*
D03*
Y154331D02*
D03*
X25591Y201969D02*
D03*
Y195669D02*
D03*
X309055Y209842D02*
D03*
Y203543D02*
D03*
D20*
X377953Y208110D02*
D03*
Y224961D02*
D03*
X375984Y166772D02*
D03*
Y183622D02*
D03*
X240158Y180669D02*
D03*
Y163819D02*
D03*
X240158Y204173D02*
D03*
Y221024D02*
D03*
X96457Y180669D02*
D03*
Y163819D02*
D03*
X96457Y202205D02*
D03*
Y219055D02*
D03*
D21*
X27559Y70079D02*
D03*
Y91339D02*
D03*
X121063Y74016D02*
D03*
Y95276D02*
D03*
X152559Y74016D02*
D03*
Y95276D02*
D03*
D22*
X80709Y24606D02*
D03*
Y38386D02*
D03*
X218504Y24606D02*
D03*
Y38386D02*
D03*
X152559Y24606D02*
D03*
Y38386D02*
D03*
D23*
X325433Y166220D02*
D03*
Y184173D02*
D03*
X225039Y79606D02*
D03*
Y97559D02*
D03*
X189606Y164252D02*
D03*
Y182205D02*
D03*
Y205591D02*
D03*
Y223543D02*
D03*
X45906Y162283D02*
D03*
Y180236D02*
D03*
X43937Y201654D02*
D03*
Y219606D02*
D03*
X327402Y209528D02*
D03*
Y227480D02*
D03*
X55748Y73701D02*
D03*
Y91654D02*
D03*
D24*
X352284Y175197D02*
D03*
X251890Y88583D02*
D03*
X216457Y173228D02*
D03*
Y214567D02*
D03*
X72756Y171260D02*
D03*
X70787Y210630D02*
D03*
X354252Y218504D02*
D03*
X82598Y82677D02*
D03*
D25*
X412205Y160433D02*
D03*
X418504D02*
D03*
X401772D02*
D03*
X395472D02*
D03*
X223622Y61024D02*
D03*
X217323D02*
D03*
X231102D02*
D03*
X237402D02*
D03*
X57284Y59055D02*
D03*
X50984D02*
D03*
X80512D02*
D03*
X86811D02*
D03*
D26*
X403425Y149961D02*
D03*
X421378D02*
D03*
D27*
X412402Y123110D02*
D03*
D28*
X54724Y40551D02*
D03*
Y31496D02*
D03*
Y22441D02*
D03*
D29*
X31890Y31496D02*
D03*
D51*
X156496Y152559D02*
Y187992D01*
X174213Y134843D02*
X156496Y152559D01*
X339567Y134843D02*
X174213Y134843D01*
X300984Y203543D02*
X298228Y200787D01*
Y152559D02*
Y200787D01*
X305118Y145669D02*
X298228Y152559D01*
X309055Y203543D02*
X300984D01*
X100394Y62992D02*
Y103347D01*
X113189Y116142D02*
X100394Y103347D01*
X260827Y116142D02*
X113189D01*
X100394Y62992D02*
X96457Y59055D01*
X285433Y91535D02*
X260827Y116142D01*
X395472Y160433D02*
X394646Y159606D01*
Y102362D02*
Y159606D01*
X384646Y102362D02*
Y137992D01*
X371063Y151575D01*
X374646Y102362D02*
Y135197D01*
X364173Y145669D01*
X364646Y126496D02*
X364646Y102362D01*
X364646Y126496D02*
X351378Y139764D01*
X354646Y102362D02*
Y119764D01*
X339567Y134843D01*
X344646Y102362D02*
Y116969D01*
X333661Y127953D01*
X334646Y102362D02*
Y115157D01*
X327756Y122047D01*
X412205Y160433D02*
X401772D01*
X403425Y158780D02*
X401772Y160433D01*
X403425Y149961D02*
Y158780D01*
X333661Y127953D02*
X139764Y127953D01*
X122047Y145669D01*
X27559D01*
X23622Y149606D01*
Y154331D01*
X327756Y122047D02*
X135827Y122047D01*
X118110Y139764D01*
X18701D01*
X13780Y144685D01*
Y190945D01*
X18504Y195669D02*
X13780Y190945D01*
X25591Y195669D02*
X18504D01*
X351378Y139764D02*
X181102Y139764D01*
X173228Y147638D01*
Y158268D01*
X168110Y199606D02*
X156496Y187992D01*
X171260Y199606D02*
X168110D01*
X371063Y151575D02*
X312992Y151575D01*
X309055Y155512D01*
Y160236D01*
X364173Y145669D02*
X305118Y145669D01*
X404646Y94606D02*
Y102362D01*
Y94606D02*
X401575Y91535D01*
X285433D01*
X96457Y59055D02*
X86811D01*
X414646Y91811D02*
Y102362D01*
Y91811D02*
X408465Y85630D01*
X306102D01*
X291339Y70866D01*
X248031D01*
X238189Y61024D01*
X237402D01*
X424646Y85079D02*
Y102362D01*
Y85079D02*
X419291Y79724D01*
X310039D01*
X296260Y65945D01*
X256890D01*
X253937Y62992D01*
Y56299D02*
Y62992D01*
X434646Y79331D02*
Y102362D01*
Y79331D02*
X430118Y74803D01*
X313976D01*
X305118Y65945D01*
Y56299D02*
Y65945D01*
X437992Y69882D02*
X420276D01*
X444646Y76535D02*
X437992Y69882D01*
X363189D02*
X356299Y62992D01*
X420276Y69882D02*
X363189D01*
X444646Y76535D02*
Y102362D01*
X356299Y59252D02*
Y62992D01*
X454646Y68819D02*
Y102362D01*
Y68819D02*
X450787Y64961D01*
X411417D01*
X407480Y61024D01*
Y56299D02*
Y61024D01*
D52*
X417815Y39665D02*
X407480Y50000D01*
X417815Y39370D02*
Y39665D01*
X267717Y50000D02*
X264272Y46555D01*
Y37205D02*
Y46555D01*
X255413Y33465D02*
X250984D01*
X244921Y39528D01*
X240158D01*
X306594Y33465D02*
X303150D01*
X297087Y39528D01*
X291339D01*
X318898Y40650D02*
X316289Y38041D01*
X318898Y40650D02*
Y50000D01*
X393701Y21654D02*
Y29528D01*
X408957Y33465D02*
X402894Y39528D01*
X393701D01*
X421260Y50000D02*
X421260Y50000D01*
X407480D01*
X343504Y21654D02*
Y31496D01*
X416260Y121142D02*
X413386Y124016D01*
X409449Y172323D02*
X387874D01*
X382323Y166772D01*
X375984D01*
X189606Y164252D02*
X174331D01*
D53*
X279449Y181024D02*
X267717D01*
X287402Y188976D02*
X279449Y181024D01*
X287402Y188976D02*
Y214567D01*
X267717Y153543D02*
Y165433D01*
Y153543D02*
X263779Y149606D01*
X231299D01*
X410866Y224961D02*
X378937D01*
X429134Y206693D02*
X409370Y186929D01*
X29528Y114252D02*
X14842D01*
X13780Y113189D01*
Y70866D02*
Y113189D01*
X82677Y83661D02*
Y110236D01*
X63071Y129842D01*
X29528D01*
X121063Y49213D02*
Y74016D01*
X123031Y47244D02*
X121063Y49213D01*
X123031Y42913D02*
Y47244D01*
X448819Y121142D02*
X416260D01*
X380276Y187913D02*
X377185Y184823D01*
X409449Y187913D02*
X380276D01*
X429134Y224331D02*
X409449D01*
X446850D02*
X429134D01*
Y224410D01*
Y206693D02*
Y224331D01*
X448819Y136732D02*
Y158543D01*
X94488Y163386D02*
X74803D01*
X129921Y200866D02*
X96535D01*
X96457Y177717D02*
Y200787D01*
Y218504D02*
X74803D01*
X239606Y220472D02*
X218504D01*
X287402Y214567D02*
X283543Y218425D01*
X271654D01*
Y202756D02*
X241575D01*
X240158Y181102D02*
Y200787D01*
X237638Y165354D02*
X220472D01*
X188189Y223622D02*
X171260D01*
X141811Y216457D02*
X129921D01*
X145669Y212598D02*
X141811Y216457D01*
X145669Y187008D02*
Y212598D01*
Y187008D02*
X139764Y181102D01*
X125984D01*
X409449Y208740D02*
X408819Y208110D01*
X377953D01*
X360787D01*
X354252Y214646D01*
Y218504D01*
X410866Y224961D02*
X410315Y224410D01*
D54*
X241142Y23622D02*
Y29528D01*
X292323Y25591D02*
Y29528D01*
X215551Y22441D02*
X201378D01*
X201772Y15748D02*
Y22047D01*
X64764Y22441D02*
X55709D01*
X66929Y24606D02*
X64764Y22441D01*
X81693Y24606D02*
X66929D01*
X98425Y7874D02*
X81693Y24606D01*
X162402Y7874D02*
X98425D01*
X201772Y15748D02*
X193898Y7874D01*
X162402D01*
X244094Y20669D02*
X224410D01*
X297244D02*
X244094D01*
X241142Y23622D01*
X438976Y20669D02*
X297244D01*
X292323Y25591D01*
X446988Y28681D02*
X438976Y20669D01*
X446988Y28681D02*
Y29594D01*
D55*
X446850Y47165D02*
X436929D01*
X432087Y42323D01*
Y35433D02*
Y42323D01*
X80512Y59055D02*
X57284D01*
X190945Y53740D02*
X181102Y43898D01*
X190945Y53740D02*
Y76850D01*
X189961Y77835D01*
X156378D01*
X152559Y74016D01*
X121063D01*
X172047Y7677D02*
Y21063D01*
X114173Y7874D02*
Y18701D01*
X223425Y21654D02*
X220472Y24606D01*
X216535D01*
D56*
X432087Y35433D02*
X426378Y29724D01*
X417815D01*
X357529Y34695D02*
X350728Y41496D01*
X343504D01*
X370079Y52953D02*
X366634Y49508D01*
Y39370D02*
Y49508D01*
X370079Y52953D02*
X356299D01*
X65945Y60039D02*
X61024Y64961D01*
X61024D02*
X61024D01*
X61024D02*
X57087Y68898D01*
X319882Y98425D02*
Y114173D01*
X309882Y98425D02*
Y114173D01*
X300197D02*
X299882Y113858D01*
Y98425D02*
Y113858D01*
X289882Y98425D02*
Y114173D01*
X96457Y161417D02*
X94488Y163386D01*
X96535Y200866D02*
X96457Y200787D01*
X240158Y221024D02*
X239606Y220472D01*
X241575Y202756D02*
X240158Y204173D01*
X242126Y202756D02*
X240158Y200787D01*
X174331Y164252D02*
X173228Y165354D01*
Y177953D01*
X189606Y205591D02*
X171575D01*
X171260Y205906D01*
Y217323D01*
X45906Y162283D02*
X25276D01*
X23622Y160630D01*
Y174016D01*
X129921Y200866D02*
X128032Y202756D01*
X39685Y201969D02*
X25591D01*
Y211417D01*
X358189Y165433D02*
X356299Y167323D01*
X309055Y166535D02*
Y175984D01*
X309370Y166220D02*
X309055Y166535D01*
X325433Y166220D02*
X309370D01*
X327402Y209528D02*
X327087Y209842D01*
X325118D02*
X309055D01*
Y219291D01*
X57087Y68898D02*
Y72835D01*
X31890Y66535D02*
X27559Y70866D01*
X31890Y31496D02*
Y66535D01*
X230315Y61024D02*
X223622D01*
X230315D02*
Y68898D01*
X225039Y74173D01*
Y77638D01*
X318898Y50000D02*
X305118D01*
X446004Y49279D02*
Y51043D01*
X440748Y56299D01*
X421260D01*
D57*
X149606Y141732D02*
X144685D01*
X125984Y160433D01*
Y165433D01*
X251890Y92520D02*
Y98504D01*
X242126Y108268D01*
X194882D01*
X189961Y103347D01*
Y97362D02*
Y103347D01*
X152559Y8858D02*
Y24606D01*
X421378Y160315D02*
X421260Y160433D01*
X421378Y149961D02*
Y160315D01*
X421260Y160433D02*
X418504D01*
X448819Y174134D02*
X434961D01*
X421260Y160433D01*
D58*
X267717Y50000D02*
X253937D01*
X253937Y50000D01*
D59*
X267717Y181024D02*
D03*
X271654Y202835D02*
D03*
X129921Y200866D02*
D03*
X125984Y181024D02*
D03*
X409449Y208740D02*
D03*
X29528Y129842D02*
D03*
X409449Y172323D02*
D03*
X448819Y121142D02*
D03*
Y158543D02*
D03*
X446850Y31575D02*
D03*
Y224331D02*
D03*
X189961Y93425D02*
D03*
D60*
X267717Y165433D02*
D03*
X271654Y218425D02*
D03*
X129921Y216457D02*
D03*
X125984Y165433D02*
D03*
X409449Y224331D02*
D03*
X29528Y114252D02*
D03*
X409449Y187913D02*
D03*
X448819Y136732D02*
D03*
Y174134D02*
D03*
X446850Y47165D02*
D03*
Y208740D02*
D03*
X189961Y77835D02*
D03*
D61*
X289882Y98425D02*
D03*
X299882D02*
D03*
X309882D02*
D03*
X289882Y114173D02*
D03*
X299882D02*
D03*
X309882D02*
D03*
X344646Y102362D02*
D03*
X354646D02*
D03*
X364646D02*
D03*
X374646D02*
D03*
X384646D02*
D03*
X394646D02*
D03*
X404646D02*
D03*
X414646D02*
D03*
X424646D02*
D03*
X434646D02*
D03*
X444646D02*
D03*
X454646D02*
D03*
X240158Y39528D02*
D03*
X291339D02*
D03*
X343504Y41496D02*
D03*
X393701Y39528D02*
D03*
D62*
X319882Y98425D02*
D03*
Y114173D02*
D03*
X334646Y102362D02*
D03*
D63*
X240158Y29528D02*
D03*
X291339D02*
D03*
X343504Y31496D02*
D03*
X393701Y29528D02*
D03*
D64*
X13780Y9843D02*
D03*
X460630Y11811D02*
D03*
X458661Y242126D02*
D03*
X19685Y236221D02*
D03*
D65*
X231299Y149606D02*
D03*
X149606Y141732D02*
D03*
X345472Y196850D02*
D03*
X64961Y190945D02*
D03*
X206693Y193898D02*
D03*
X95472Y48228D02*
D03*
X277559Y37402D02*
D03*
X328740D02*
D03*
X385827Y58071D02*
D03*
M02*
