G04*
G04 #@! TF.GenerationSoftware,Altium Limited,Altium Designer,18.0.9 (584)*
G04*
G04 Layer_Physical_Order=1*
G04 Layer_Color=255*
%FSLAX25Y25*%
%MOIN*%
G70*
G01*
G75*
%ADD10R,0.06142X0.09173*%
%ADD11R,0.04528X0.02362*%
%ADD12R,0.12992X0.09449*%
%ADD13R,0.03937X0.09449*%
%ADD14R,0.05118X0.03937*%
%ADD15R,0.06299X0.13780*%
%ADD16R,0.06299X0.09843*%
%ADD17R,0.09921X0.03701*%
%ADD18R,0.24528X0.22323*%
%ADD19R,0.03937X0.05118*%
%ADD20R,0.03701X0.09921*%
%ADD21R,0.22323X0.24528*%
%ADD22R,0.09449X0.03937*%
%ADD23R,0.09449X0.12992*%
%ADD24C,0.02362*%
%ADD25C,0.04724*%
%ADD26C,0.03937*%
%ADD27C,0.07874*%
%ADD28C,0.09843*%
%ADD29C,0.05906*%
%ADD30C,0.03150*%
%ADD31C,0.02756*%
%ADD32C,0.01968*%
%ADD33R,0.05906X0.05906*%
%ADD34C,0.05906*%
%ADD35R,0.05906X0.05906*%
%ADD36C,0.06000*%
%ADD37R,0.09744X0.09744*%
%ADD38C,0.09744*%
G36*
X472441Y0D02*
X0D01*
Y251969D01*
X472441D01*
Y0D01*
D02*
G37*
%LPC*%
G36*
X13780Y251225D02*
X12004Y251050D01*
X10298Y250532D01*
X8724Y249692D01*
X7346Y248560D01*
X6214Y247181D01*
X5373Y245608D01*
X4855Y243901D01*
X4681Y242126D01*
X4855Y240351D01*
X5373Y238644D01*
X6214Y237071D01*
X7346Y235692D01*
X8724Y234560D01*
X10298Y233720D01*
X12004Y233202D01*
X13780Y233027D01*
X15555Y233202D01*
X17262Y233720D01*
X18835Y234560D01*
X20213Y235692D01*
X21345Y237071D01*
X22186Y238644D01*
X22704Y240351D01*
X22878Y242126D01*
X22704Y243901D01*
X22186Y245608D01*
X21345Y247181D01*
X20213Y248560D01*
X18835Y249692D01*
X17262Y250532D01*
X15555Y251050D01*
X13780Y251225D01*
D02*
G37*
G36*
X271398Y228878D02*
X240571D01*
Y227593D01*
X238504D01*
Y228760D01*
X226063D01*
Y222562D01*
X225851Y221862D01*
X225714Y220472D01*
X225851Y219083D01*
X226063Y218383D01*
Y213287D01*
X238504D01*
Y213351D01*
X240571D01*
Y200256D01*
X271398D01*
Y228878D01*
D02*
G37*
G36*
X452756Y245319D02*
X450981Y245145D01*
X449274Y244627D01*
X447701Y243786D01*
X446322Y242654D01*
X445190Y241276D01*
X444350Y239703D01*
X443832Y237996D01*
X443657Y236221D01*
X443832Y234445D01*
X444350Y232738D01*
X445190Y231165D01*
X446322Y229786D01*
X447701Y228655D01*
X449274Y227814D01*
X450981Y227296D01*
X452756Y227121D01*
X454531Y227296D01*
X456238Y227814D01*
X457811Y228655D01*
X459190Y229786D01*
X460321Y231165D01*
X461162Y232738D01*
X461680Y234445D01*
X461855Y236221D01*
X461680Y237996D01*
X461162Y239703D01*
X460321Y241276D01*
X459190Y242654D01*
X457811Y243786D01*
X456238Y244627D01*
X454531Y245145D01*
X452756Y245319D01*
D02*
G37*
G36*
X316929Y238730D02*
X315733Y238613D01*
X314583Y238264D01*
X313522Y237697D01*
X312593Y236934D01*
X311831Y236005D01*
X311264Y234945D01*
X310915Y233795D01*
X310797Y232598D01*
X310915Y231402D01*
X311264Y230252D01*
X311831Y229192D01*
X312593Y228262D01*
X313098Y227848D01*
Y227348D01*
X312593Y226934D01*
X311831Y226005D01*
X311264Y224945D01*
X310915Y223795D01*
X310797Y222598D01*
X310915Y221402D01*
X311264Y220252D01*
X311831Y219192D01*
X311863Y219153D01*
X311649Y218701D01*
X310827D01*
Y206496D01*
X323031D01*
Y218701D01*
X322209D01*
X321996Y219153D01*
X322028Y219192D01*
X322594Y220252D01*
X322943Y221402D01*
X323061Y222598D01*
X322943Y223795D01*
X322594Y224945D01*
X322028Y226005D01*
X321265Y226934D01*
X320760Y227348D01*
Y227848D01*
X321265Y228262D01*
X322028Y229192D01*
X322594Y230252D01*
X322943Y231402D01*
X323061Y232598D01*
X322943Y233795D01*
X322594Y234945D01*
X322028Y236005D01*
X321265Y236934D01*
X320336Y237697D01*
X319276Y238264D01*
X318125Y238613D01*
X316929Y238730D01*
D02*
G37*
G36*
X175295Y238927D02*
X174099Y238809D01*
X172949Y238460D01*
X171889Y237894D01*
X170959Y237131D01*
X170197Y236202D01*
X169630Y235142D01*
X169281Y233992D01*
X169163Y232795D01*
X169281Y231599D01*
X169630Y230449D01*
X170197Y229389D01*
X170959Y228459D01*
X171464Y228045D01*
Y227545D01*
X170959Y227131D01*
X170197Y226202D01*
X169630Y225142D01*
X169487Y224669D01*
X169095Y224410D01*
X157677D01*
Y214409D01*
X153150D01*
Y214528D01*
X136929D01*
Y204528D01*
X153150D01*
Y205276D01*
X157677D01*
Y198425D01*
X169095D01*
Y199175D01*
X169647D01*
X169844Y198978D01*
Y155549D01*
X169095D01*
Y161417D01*
Y170866D01*
Y181102D01*
X157677D01*
Y170787D01*
X155118D01*
Y171221D01*
X138898D01*
Y161221D01*
X155118D01*
Y161654D01*
X157677D01*
Y160705D01*
X156852Y159880D01*
X105315D01*
X104184Y159731D01*
X103177Y159314D01*
X102994Y159380D01*
X102677Y159577D01*
Y174508D01*
X91054D01*
X90133Y175429D01*
X90383Y175886D01*
X90675Y175886D01*
X102677D01*
Y177490D01*
X104744D01*
Y160886D01*
X114105D01*
X114252Y160866D01*
X114399Y160886D01*
X135571D01*
Y189508D01*
X113351D01*
X112928Y189636D01*
X111732Y189754D01*
X102677D01*
Y191358D01*
X90236D01*
Y176361D01*
X90236Y176032D01*
X89779Y175783D01*
X88903Y176659D01*
X87974Y177421D01*
X86914Y177988D01*
X85763Y178337D01*
X84567Y178455D01*
X72982D01*
Y180344D01*
X68878D01*
X68752Y180844D01*
X69439Y181211D01*
X70660Y182214D01*
X71663Y183435D01*
X72408Y184829D01*
X72866Y186341D01*
X73021Y187913D01*
X72866Y189486D01*
X72408Y190998D01*
X71663Y192392D01*
X70660Y193613D01*
X69439Y194615D01*
X68045Y195360D01*
X66533Y195819D01*
X64961Y195974D01*
X64174Y195896D01*
X59814Y200257D01*
X60005Y200718D01*
X66033D01*
X66929Y200630D01*
X88268D01*
Y200374D01*
X100709D01*
Y215799D01*
X100709Y215846D01*
X100822Y216300D01*
X102776D01*
Y204193D01*
X133602D01*
Y232815D01*
X102776D01*
Y232519D01*
X100709D01*
Y232697D01*
X88268D01*
Y217350D01*
X88268Y217224D01*
X87964Y216850D01*
X69043D01*
X68918Y217350D01*
X69439Y217629D01*
X70660Y218631D01*
X71663Y219853D01*
X72408Y221246D01*
X72866Y222758D01*
X73021Y224331D01*
X72866Y225903D01*
X72408Y227415D01*
X71663Y228809D01*
X70660Y230030D01*
X69439Y231033D01*
X68045Y231778D01*
X66533Y232236D01*
X64961Y232391D01*
X63388Y232236D01*
X61876Y231778D01*
X61266Y231452D01*
X44107D01*
X43307Y231530D01*
X42508Y231452D01*
X33612D01*
Y232352D01*
X17569D01*
Y216309D01*
X33612D01*
Y217210D01*
X36186D01*
Y206693D01*
X36255Y205998D01*
X36323Y205304D01*
X36728Y203968D01*
X37386Y202737D01*
X38272Y201658D01*
X57051Y182878D01*
X58131Y181993D01*
X59362Y181334D01*
X60697Y180929D01*
X60755Y180844D01*
X60492Y180344D01*
X56939D01*
Y166142D01*
X54144D01*
X41816Y178470D01*
X40887Y179232D01*
X39827Y179799D01*
X38677Y180148D01*
X37480Y180266D01*
X28795D01*
X28100Y180836D01*
X26707Y181581D01*
X25195Y182039D01*
X23622Y182194D01*
X22050Y182039D01*
X20537Y181581D01*
X19144Y180836D01*
X17922Y179833D01*
X16920Y178612D01*
X16175Y177218D01*
X15717Y175706D01*
X15562Y174134D01*
X15717Y172561D01*
X16175Y171049D01*
X16920Y169656D01*
X17922Y168434D01*
X19144Y167432D01*
X19830Y167065D01*
X19705Y166565D01*
X15600D01*
Y150522D01*
X16542D01*
X16581Y142852D01*
X16274Y142278D01*
X15815Y140765D01*
X15660Y139193D01*
X15815Y137620D01*
X16274Y136108D01*
X17018Y134715D01*
X18021Y133493D01*
X19242Y132491D01*
X19929Y132124D01*
X19804Y131624D01*
X15699D01*
Y115581D01*
X31742D01*
Y116481D01*
X45728D01*
Y107697D01*
X46591D01*
X46616Y107197D01*
X46599Y107195D01*
X45449Y106846D01*
X44389Y106280D01*
X43459Y105517D01*
X43045Y105012D01*
X42545D01*
X42131Y105517D01*
X41202Y106280D01*
X40142Y106846D01*
X38992Y107195D01*
X37795Y107313D01*
X36599Y107195D01*
X35449Y106846D01*
X34389Y106280D01*
X33459Y105517D01*
X33045Y105012D01*
X32545D01*
X32131Y105517D01*
X31202Y106280D01*
X30142Y106846D01*
X28992Y107195D01*
X27795Y107313D01*
X26599Y107195D01*
X25449Y106846D01*
X24389Y106280D01*
X24350Y106248D01*
X23898Y106461D01*
Y107283D01*
X11693D01*
Y95079D01*
X13427D01*
Y68819D01*
X13576Y67688D01*
X14012Y66635D01*
X14707Y65730D01*
X18565Y61872D01*
X19469Y61178D01*
X20523Y60741D01*
X21654Y60593D01*
X59214D01*
X59252Y60555D01*
Y54765D01*
X56890D01*
Y55118D01*
X45472D01*
Y44882D01*
X52450D01*
X52642Y44420D01*
X51257Y43035D01*
X50499Y42048D01*
X50287Y41535D01*
X49213D01*
Y32874D01*
X58071D01*
Y29134D01*
X68898D01*
Y32139D01*
X71521Y34762D01*
X72638D01*
Y26229D01*
X35767D01*
X33612Y28384D01*
Y39596D01*
X17569D01*
Y23553D01*
X22719D01*
X29533Y16738D01*
X30685Y15855D01*
X32026Y15299D01*
X33465Y15110D01*
X251969D01*
X253407Y15299D01*
X254748Y15855D01*
X255635Y16535D01*
X264862D01*
X265110Y16138D01*
Y15748D01*
X265299Y14309D01*
X265855Y12968D01*
X266738Y11817D01*
X274612Y3943D01*
X275764Y3060D01*
X277104Y2504D01*
X278543Y2315D01*
X374016D01*
X375455Y2504D01*
X376795Y3060D01*
X377947Y3943D01*
X390539Y16535D01*
X398031D01*
Y19047D01*
X403209D01*
X403746Y18510D01*
X404897Y17626D01*
X406238Y17071D01*
X407677Y16882D01*
X416732D01*
X418171Y17071D01*
X418779Y17323D01*
X425591D01*
Y26378D01*
Y36614D01*
X409842D01*
Y28769D01*
X409342Y28614D01*
X408291Y29421D01*
X406951Y29976D01*
X405512Y30166D01*
X398031D01*
Y32677D01*
X385433D01*
Y27154D01*
X371713Y13433D01*
X363583D01*
Y27953D01*
X344291D01*
Y13433D01*
X326014D01*
Y16535D01*
X326181D01*
Y32677D01*
X313583D01*
Y16535D01*
X313750D01*
Y13433D01*
X305556D01*
Y21063D01*
X305512Y21398D01*
Y28937D01*
X286221D01*
Y13433D01*
X280846D01*
X276229Y18051D01*
Y20472D01*
X276039Y21911D01*
X275484Y23252D01*
X274600Y24404D01*
X272632Y26372D01*
X271480Y27255D01*
X270140Y27811D01*
X268701Y28000D01*
X264862D01*
Y32677D01*
X252264D01*
Y28263D01*
X252255Y28257D01*
X250227Y26229D01*
X238386D01*
Y35630D01*
X237564D01*
X237350Y36082D01*
X237382Y36121D01*
X237949Y37181D01*
X238298Y38331D01*
X238415Y39528D01*
X238298Y40724D01*
X237949Y41874D01*
X237382Y42934D01*
X236619Y43863D01*
X236115Y44278D01*
Y44778D01*
X236619Y45192D01*
X237382Y46121D01*
X237949Y47181D01*
X238298Y48331D01*
X238415Y49528D01*
X238298Y50724D01*
X237949Y51874D01*
X237382Y52934D01*
X236619Y53864D01*
X235690Y54626D01*
X235337Y54815D01*
X235462Y55315D01*
X253937D01*
Y66732D01*
X247126D01*
X246919Y67232D01*
X250631Y70944D01*
X250631Y70944D01*
X251356Y71890D01*
X251813Y72991D01*
X251968Y74173D01*
X252137Y74606D01*
X255512D01*
Y84606D01*
X239291D01*
Y74606D01*
X240723D01*
X240915Y74144D01*
X238897Y72127D01*
X238171Y71181D01*
X237715Y70080D01*
X237559Y68898D01*
X237559Y68898D01*
Y66732D01*
X234721D01*
X227681Y73772D01*
X227888Y74272D01*
X235965D01*
Y102136D01*
X274820D01*
X274964Y101947D01*
X274716Y101447D01*
X274459D01*
Y85404D01*
X278563D01*
X278689Y84904D01*
X278002Y84537D01*
X276781Y83534D01*
X275778Y82313D01*
X275033Y80919D01*
X274575Y79407D01*
X274420Y77835D01*
X274575Y76262D01*
X275033Y74750D01*
X275778Y73356D01*
X276334Y72680D01*
Y53740D01*
X276334Y53740D01*
X276510Y52404D01*
X277025Y51159D01*
X277846Y50090D01*
X281693Y46243D01*
Y36024D01*
X300984D01*
Y44067D01*
X339764D01*
Y35039D01*
X359055D01*
Y50787D01*
X358499D01*
Y74016D01*
X358362Y75405D01*
X357957Y76741D01*
X357677Y77264D01*
Y84055D01*
X345079D01*
Y79178D01*
X326181D01*
Y84055D01*
X313583D01*
Y82997D01*
X288621D01*
X288180Y83534D01*
X286959Y84537D01*
X286272Y84904D01*
X286397Y85404D01*
X290502D01*
Y101447D01*
X288612D01*
Y103347D01*
X288494Y104543D01*
X288145Y105693D01*
X287579Y106753D01*
X286816Y107682D01*
X283187Y111312D01*
X283378Y111774D01*
X357443D01*
X367679Y101537D01*
Y62992D01*
X367828Y61862D01*
X368264Y60808D01*
X368958Y59903D01*
X372896Y55966D01*
X373800Y55272D01*
X374854Y54836D01*
X375984Y54687D01*
X380512D01*
Y53347D01*
X397047D01*
Y53893D01*
X410039D01*
Y53347D01*
X420276D01*
Y58720D01*
X420320Y59055D01*
X420276Y59390D01*
Y64764D01*
X418332D01*
X418141Y65226D01*
X418583Y65668D01*
X418583Y65668D01*
X419309Y66614D01*
X419765Y67716D01*
X419895Y68701D01*
X424803D01*
Y78701D01*
X408583D01*
Y68701D01*
X408583Y68701D01*
X408583D01*
X408319Y68321D01*
X408188Y68190D01*
X408188Y68190D01*
X404216Y64217D01*
X397047D01*
Y64764D01*
X380512D01*
Y63423D01*
X377794D01*
X376415Y64802D01*
Y68366D01*
X405256D01*
Y96988D01*
X396885D01*
Y107287D01*
X412320Y122722D01*
X434892D01*
Y121821D01*
X438996D01*
X439122Y121321D01*
X438435Y120954D01*
X437214Y119952D01*
X436211Y118730D01*
X435466Y117337D01*
X435008Y115824D01*
X434853Y114252D01*
X435008Y112679D01*
X435466Y111167D01*
X436211Y109774D01*
X437214Y108552D01*
X438435Y107550D01*
X439829Y106805D01*
X441341Y106346D01*
X442913Y106192D01*
X444486Y106346D01*
X445998Y106805D01*
X446608Y107131D01*
X451541D01*
Y80458D01*
X451181Y80118D01*
X438583D01*
Y71025D01*
X437322Y69765D01*
X436596Y68819D01*
X436140Y67717D01*
X435985Y66535D01*
X435985Y66535D01*
Y41142D01*
X432677D01*
Y21850D01*
X437804D01*
X437806Y21623D01*
X437862Y21228D01*
X437914Y20831D01*
X437920Y20817D01*
X437922Y20802D01*
X438078Y20435D01*
X438232Y20065D01*
X438241Y20053D01*
X438247Y20039D01*
X438493Y19724D01*
X438736Y19407D01*
X438749Y19398D01*
X438758Y19386D01*
X439077Y19146D01*
X439394Y18902D01*
X439408Y18896D01*
X439421Y18887D01*
X439791Y18738D01*
X440161Y18585D01*
X440176Y18583D01*
X440190Y18577D01*
X440586Y18529D01*
X440983Y18477D01*
X454545D01*
X454670Y17977D01*
X453606Y17408D01*
X452227Y16276D01*
X451096Y14898D01*
X450255Y13325D01*
X449737Y11618D01*
X449563Y9843D01*
X449737Y8067D01*
X450255Y6361D01*
X451096Y4787D01*
X452227Y3409D01*
X453606Y2277D01*
X455179Y1436D01*
X456886Y918D01*
X458661Y744D01*
X460436Y918D01*
X462143Y1436D01*
X463717Y2277D01*
X465095Y3409D01*
X466227Y4787D01*
X467068Y6361D01*
X467586Y8067D01*
X467760Y9843D01*
X467586Y11618D01*
X467068Y13325D01*
X466227Y14898D01*
X465095Y16276D01*
X463717Y17408D01*
X462143Y18249D01*
X460765Y18667D01*
X460664Y19220D01*
X460908Y19407D01*
X461413Y20065D01*
X461730Y20831D01*
X461838Y21654D01*
X461838Y64529D01*
X462618Y64945D01*
X463697Y65831D01*
X464582Y66910D01*
X465240Y68141D01*
X465646Y69477D01*
X465782Y70866D01*
Y113189D01*
X465646Y114578D01*
X465240Y115914D01*
X464582Y117145D01*
X463697Y118224D01*
X462634Y119287D01*
X461555Y120173D01*
X460323Y120831D01*
X458988Y121236D01*
X458293Y121305D01*
X457598Y121373D01*
X451061D01*
X450935Y121821D01*
X450935D01*
Y135396D01*
X453740D01*
X454871Y135545D01*
X455924Y135981D01*
X456829Y136675D01*
X461750Y141596D01*
X462444Y142501D01*
X462881Y143554D01*
X463029Y144685D01*
Y190945D01*
X462881Y192075D01*
X462444Y193129D01*
X461750Y194034D01*
X457026Y198758D01*
X456121Y199452D01*
X455068Y199889D01*
X453937Y200037D01*
X452559D01*
Y207087D01*
X451417D01*
Y208268D01*
X452559D01*
Y218504D01*
X441142D01*
Y208268D01*
X442284D01*
Y207087D01*
X441142D01*
Y206535D01*
X436614D01*
Y206653D01*
X420394D01*
Y196653D01*
X436614D01*
Y197402D01*
X441142D01*
Y190551D01*
X452559D01*
X452559Y190551D01*
Y190551D01*
X453016Y190413D01*
X454293Y189136D01*
Y179134D01*
X443110D01*
Y168898D01*
X444252D01*
Y166850D01*
X434646D01*
Y167283D01*
X418425D01*
Y157283D01*
X434646D01*
Y157717D01*
X443110D01*
Y155512D01*
Y150075D01*
X443073Y150037D01*
X350394D01*
X349263Y149889D01*
X348210Y149452D01*
X347305Y148758D01*
X341498Y142951D01*
X313167D01*
X312976Y143413D01*
X319034Y149470D01*
X319728Y150375D01*
X320164Y151428D01*
X320313Y152559D01*
Y187992D01*
X320164Y189123D01*
X319728Y190176D01*
X319034Y191081D01*
X307419Y202695D01*
X306890Y203101D01*
Y204724D01*
Y211024D01*
X305748D01*
Y212205D01*
X306890D01*
Y222441D01*
X295472D01*
Y212205D01*
X296615D01*
Y211024D01*
X295472D01*
Y210157D01*
X290945D01*
Y210591D01*
X274724D01*
Y200590D01*
X290945D01*
Y201024D01*
X295472D01*
Y194488D01*
X303271D01*
X311577Y186183D01*
Y154368D01*
X304490Y147282D01*
X303928D01*
X303581Y147782D01*
Y153150D01*
X304921D01*
Y159449D01*
Y169685D01*
X303779D01*
Y172835D01*
X304921D01*
Y183071D01*
X293504D01*
Y172835D01*
X294646D01*
Y169685D01*
X293504D01*
Y169017D01*
X290945D01*
Y169252D01*
X274724D01*
Y159252D01*
X290945D01*
Y159487D01*
X293504D01*
Y153150D01*
X294845D01*
Y151218D01*
X178844Y151218D01*
X178470Y151718D01*
X178581Y152559D01*
Y200787D01*
X178432Y201918D01*
X177996Y202972D01*
X177301Y203876D01*
X174985Y206193D01*
X175192Y206693D01*
X181398D01*
Y218898D01*
X180576D01*
X180362Y219350D01*
X180394Y219389D01*
X180960Y220449D01*
X181309Y221599D01*
X181427Y222795D01*
X181309Y223992D01*
X180960Y225142D01*
X180394Y226202D01*
X179631Y227131D01*
X179127Y227545D01*
Y228045D01*
X179631Y228459D01*
X180394Y229389D01*
X180960Y230449D01*
X181309Y231599D01*
X181427Y232795D01*
X181309Y233992D01*
X180960Y235142D01*
X180394Y236202D01*
X179631Y237131D01*
X178702Y237894D01*
X177642Y238460D01*
X176492Y238809D01*
X175295Y238927D01*
D02*
G37*
G36*
X382205Y226791D02*
X369764D01*
Y221900D01*
X369405Y221229D01*
X369000Y219893D01*
X368863Y218504D01*
X369000Y217115D01*
X369405Y215779D01*
X369764Y215108D01*
Y211319D01*
X382205D01*
Y211383D01*
X386240D01*
Y196319D01*
X417067D01*
Y224941D01*
X400628D01*
X400363Y225083D01*
X399027Y225488D01*
X397638Y225625D01*
X382205D01*
Y226791D01*
D02*
G37*
G36*
X238504Y188406D02*
X226063D01*
Y183581D01*
X225732Y182492D01*
X225596Y181102D01*
X225732Y179713D01*
X226063Y178623D01*
Y172933D01*
X238504D01*
Y173981D01*
X240571D01*
Y158917D01*
X271398D01*
Y187539D01*
X256927D01*
X256662Y187681D01*
X255326Y188086D01*
X253937Y188223D01*
X238504D01*
Y188406D01*
D02*
G37*
G36*
X342520Y224517D02*
X340947Y224362D01*
X339435Y223904D01*
X338042Y223159D01*
X336820Y222156D01*
X335818Y220935D01*
X335073Y219541D01*
X334614Y218029D01*
X334459Y216457D01*
X334614Y214884D01*
X335073Y213372D01*
X335818Y211979D01*
X336820Y210757D01*
X338042Y209755D01*
X338728Y209388D01*
X338603Y208888D01*
X334498D01*
Y192844D01*
X335399D01*
Y184718D01*
X335073Y184108D01*
X334614Y182596D01*
X334459Y181024D01*
X334614Y179451D01*
X335073Y177939D01*
X335818Y176546D01*
X336820Y175324D01*
X338041Y174322D01*
X338728Y173955D01*
X338603Y173455D01*
X334498D01*
Y157411D01*
X341009D01*
X341330Y157240D01*
X342666Y156835D01*
X343360Y156766D01*
X344055Y156698D01*
X369764D01*
Y156083D01*
X382205D01*
Y160423D01*
X382563Y161094D01*
X382968Y162430D01*
X383105Y163819D01*
X382968Y165208D01*
X382563Y166544D01*
X382205Y167215D01*
Y170580D01*
X382634Y170837D01*
X383102Y170587D01*
X384272Y170232D01*
Y156949D01*
X415098D01*
Y185571D01*
X387492D01*
X387358Y185705D01*
X386279Y186590D01*
X385048Y187248D01*
X383712Y187653D01*
X383017Y187722D01*
X382323Y187790D01*
X382205D01*
Y188406D01*
X369764D01*
Y184065D01*
X369405Y183394D01*
X369000Y182059D01*
X368863Y180669D01*
X369000Y179280D01*
X369405Y177944D01*
X369764Y177274D01*
Y172933D01*
X379989D01*
X380791Y172130D01*
X380919Y172026D01*
X380750Y171555D01*
X369764D01*
Y170940D01*
X350541D01*
Y173455D01*
X346437D01*
X346311Y173955D01*
X346998Y174322D01*
X348219Y175324D01*
X349222Y176546D01*
X349967Y177939D01*
X350425Y179451D01*
X350580Y181024D01*
X350425Y182596D01*
X349967Y184108D01*
X349641Y184718D01*
Y192844D01*
X350541D01*
Y193745D01*
X375905D01*
X377295Y193882D01*
X378631Y194287D01*
X378970Y194468D01*
X382205D01*
Y197618D01*
X382484Y198141D01*
X382890Y199477D01*
X383026Y200866D01*
X382890Y202255D01*
X382484Y203591D01*
X382205Y204114D01*
Y209941D01*
X369764D01*
Y207987D01*
X350541D01*
Y208888D01*
X346437D01*
X346311Y209388D01*
X346998Y209755D01*
X348219Y210757D01*
X349222Y211979D01*
X349967Y213372D01*
X350425Y214884D01*
X350580Y216457D01*
X350425Y218029D01*
X349967Y219541D01*
X349222Y220935D01*
X348219Y222156D01*
X346998Y223159D01*
X345604Y223904D01*
X344092Y224362D01*
X342520Y224517D01*
D02*
G37*
G36*
X200787Y226486D02*
X199215Y226331D01*
X197703Y225872D01*
X196309Y225127D01*
X195088Y224125D01*
X194085Y222903D01*
X193341Y221510D01*
X192882Y219998D01*
X192727Y218425D01*
X192882Y216853D01*
X193341Y215341D01*
X194085Y213947D01*
X195088Y212726D01*
X196309Y211723D01*
X196996Y211356D01*
X196870Y210856D01*
X192766D01*
Y203652D01*
X192677Y202756D01*
X192766Y201860D01*
Y194813D01*
X193667D01*
Y184718D01*
X193341Y184108D01*
X192882Y182596D01*
X192727Y181024D01*
X192882Y179451D01*
X193341Y177939D01*
X194085Y176546D01*
X195088Y175324D01*
X196309Y174322D01*
X196996Y173955D01*
X196870Y173455D01*
X192766D01*
Y157411D01*
X203293D01*
X203613Y157240D01*
X204949Y156835D01*
X206339Y156698D01*
X226063D01*
Y156083D01*
X238504D01*
Y160423D01*
X238862Y161094D01*
X239267Y162430D01*
X239404Y163819D01*
X239267Y165208D01*
X238862Y166544D01*
X238504Y167215D01*
Y171555D01*
X226063D01*
Y170940D01*
X208809D01*
Y173455D01*
X204704D01*
X204579Y173955D01*
X205265Y174322D01*
X206487Y175324D01*
X207489Y176546D01*
X208234Y177939D01*
X208693Y179451D01*
X208848Y181024D01*
X208693Y182596D01*
X208234Y184108D01*
X207908Y184718D01*
Y194646D01*
X230866D01*
X232448Y194802D01*
X233970Y195263D01*
X235372Y196013D01*
X235889Y196437D01*
X238504D01*
Y200131D01*
X238820Y201174D01*
X238976Y202756D01*
X238820Y204338D01*
X238504Y205381D01*
Y211909D01*
X226063D01*
Y210866D01*
X204722D01*
X204597Y211366D01*
X205266Y211723D01*
X206487Y212726D01*
X207489Y213947D01*
X208234Y215341D01*
X208693Y216853D01*
X208848Y218425D01*
X208693Y219998D01*
X208234Y221510D01*
X207489Y222903D01*
X206487Y224125D01*
X205266Y225127D01*
X203872Y225872D01*
X202360Y226331D01*
X200787Y226486D01*
D02*
G37*
G36*
X11811Y20910D02*
X10036Y20735D01*
X8329Y20217D01*
X6756Y19376D01*
X5377Y18245D01*
X4245Y16866D01*
X3405Y15293D01*
X2887Y13586D01*
X2712Y11811D01*
X2887Y10036D01*
X3405Y8329D01*
X4245Y6756D01*
X5377Y5377D01*
X6756Y4245D01*
X8329Y3405D01*
X10036Y2887D01*
X11811Y2712D01*
X13586Y2887D01*
X15293Y3405D01*
X16866Y4245D01*
X18245Y5377D01*
X19376Y6756D01*
X20217Y8329D01*
X20735Y10036D01*
X20910Y11811D01*
X20735Y13586D01*
X20217Y15293D01*
X19376Y16866D01*
X18245Y18245D01*
X16866Y19376D01*
X15293Y20217D01*
X13586Y20735D01*
X11811Y20910D01*
D02*
G37*
%LPD*%
G36*
X110433Y62523D02*
Y57519D01*
X108071D01*
Y58071D01*
X96653D01*
Y47835D01*
X101022D01*
X101241Y47616D01*
Y42520D01*
X100394D01*
Y33858D01*
X109252D01*
Y30118D01*
X120079D01*
Y33404D01*
X122373Y35698D01*
X122835Y35507D01*
Y26229D01*
X84842D01*
Y35630D01*
X84021D01*
X83807Y36082D01*
X83839Y36121D01*
X84405Y37181D01*
X84754Y38331D01*
X84872Y39528D01*
X84754Y40724D01*
X84405Y41874D01*
X83839Y42934D01*
X83076Y43863D01*
X82572Y44278D01*
Y44778D01*
X83076Y45192D01*
X83839Y46121D01*
X84405Y47181D01*
X84754Y48331D01*
X84872Y49528D01*
X84754Y50724D01*
X84405Y51874D01*
X83839Y52934D01*
X83076Y53864D01*
X82147Y54626D01*
X81087Y55193D01*
X79936Y55542D01*
X78740Y55660D01*
X77544Y55542D01*
X76394Y55193D01*
X75333Y54626D01*
X74404Y53864D01*
X73642Y52934D01*
X73075Y51874D01*
X72726Y50724D01*
X72608Y49528D01*
X72726Y48331D01*
X73075Y47181D01*
X73642Y46121D01*
X74404Y45192D01*
X74890Y44793D01*
X74711Y44293D01*
X69547D01*
X68314Y44130D01*
X67165Y43654D01*
X66178Y42897D01*
X61076Y37795D01*
X60039D01*
Y38340D01*
X66581Y44882D01*
X70669D01*
Y51181D01*
Y61417D01*
X69277D01*
X69180Y62154D01*
X68743Y63208D01*
X68049Y64112D01*
X67110Y65052D01*
X67301Y65514D01*
X107443D01*
X110433Y62523D01*
D02*
G37*
G36*
X162955Y64136D02*
Y61417D01*
X161614D01*
Y54567D01*
X159252D01*
Y55118D01*
X147835D01*
Y44882D01*
X148778D01*
Y40650D01*
X148941Y39416D01*
X149416Y38267D01*
X150174Y37280D01*
X151575Y35879D01*
Y32874D01*
X160433D01*
Y29134D01*
X163956D01*
X164613Y28862D01*
X165847Y28699D01*
X169291D01*
X170525Y28862D01*
X171182Y29134D01*
X171260D01*
Y29166D01*
X171674Y29338D01*
X172661Y30095D01*
X174538Y31972D01*
X175000Y31781D01*
Y31574D01*
X174748Y30966D01*
X174559Y29528D01*
Y27893D01*
X172894Y26229D01*
X135039D01*
Y37598D01*
X134217D01*
X134003Y38050D01*
X134036Y38089D01*
X134602Y39149D01*
X134951Y40300D01*
X135069Y41496D01*
X134951Y42692D01*
X134602Y43843D01*
X134036Y44903D01*
X133273Y45832D01*
X132768Y46246D01*
Y46746D01*
X133273Y47160D01*
X134036Y48089D01*
X134602Y49150D01*
X134951Y50300D01*
X135069Y51496D01*
X134951Y52692D01*
X134602Y53843D01*
X134036Y54903D01*
X133273Y55832D01*
X132344Y56595D01*
X131284Y57161D01*
X130133Y57510D01*
X128937Y57628D01*
X127741Y57510D01*
X126590Y57161D01*
X125530Y56595D01*
X124601Y55832D01*
X123838Y54903D01*
X123272Y53843D01*
X122923Y52692D01*
X122805Y51496D01*
X122923Y50300D01*
X123272Y49150D01*
X123838Y48089D01*
X124601Y47160D01*
X124924Y46895D01*
X124942Y46313D01*
X124682Y46063D01*
X121713D01*
X121713Y46063D01*
X120531Y45907D01*
X119429Y45451D01*
X118483Y44725D01*
X118483Y44725D01*
X112538Y38780D01*
X111221D01*
Y42520D01*
X110374D01*
Y47359D01*
X110433Y47835D01*
X121850D01*
Y54134D01*
Y64370D01*
X120258D01*
X119925Y65176D01*
X119230Y66081D01*
X115338Y69973D01*
X115530Y70435D01*
X156655D01*
X162955Y64136D01*
D02*
G37*
G36*
X173092Y62856D02*
X173997Y62162D01*
X175051Y61726D01*
X176181Y61577D01*
X212361D01*
X212795Y61417D01*
Y54169D01*
X210433D01*
Y55118D01*
X199016D01*
Y44882D01*
X203103D01*
X203404Y44581D01*
Y37205D01*
X203567Y35971D01*
X204043Y34822D01*
X204724Y33933D01*
Y32874D01*
X206279D01*
X206936Y32602D01*
X208169Y32440D01*
X209403Y32602D01*
X210059Y32874D01*
X212340D01*
X212425Y32231D01*
X212901Y31082D01*
X213583Y30193D01*
Y29134D01*
X215137D01*
X215794Y28862D01*
X217028Y28699D01*
X221457D01*
X222690Y28862D01*
X223347Y29134D01*
X224410D01*
Y29775D01*
X224826Y30095D01*
X225384Y30652D01*
X225857Y30419D01*
X225740Y29528D01*
Y26229D01*
X187205D01*
Y35630D01*
X186383D01*
X186169Y36082D01*
X186201Y36121D01*
X186767Y37181D01*
X187116Y38331D01*
X187234Y39528D01*
X187116Y40724D01*
X186767Y41874D01*
X186201Y42934D01*
X185438Y43863D01*
X184934Y44278D01*
Y44778D01*
X185438Y45192D01*
X186201Y46121D01*
X186767Y47181D01*
X187116Y48331D01*
X187234Y49528D01*
X187116Y50724D01*
X186767Y51874D01*
X186201Y52934D01*
X185438Y53864D01*
X184509Y54626D01*
X183449Y55193D01*
X182299Y55542D01*
X181102Y55660D01*
X179906Y55542D01*
X178756Y55193D01*
X177696Y54626D01*
X176767Y53864D01*
X176004Y52934D01*
X175437Y51874D01*
X175088Y50724D01*
X174970Y49528D01*
X175088Y48331D01*
X175437Y47181D01*
X176004Y46121D01*
X176767Y45192D01*
X177252Y44793D01*
X177074Y44293D01*
X175354D01*
X174121Y44130D01*
X172972Y43654D01*
X171985Y42897D01*
X167317Y38230D01*
X165847D01*
X164613Y38067D01*
X163956Y37795D01*
X162402D01*
Y41535D01*
X159397D01*
X158308Y42623D01*
Y44882D01*
X159252D01*
Y45433D01*
X161614D01*
Y44882D01*
X173031D01*
Y51181D01*
Y61417D01*
X171691D01*
Y63604D01*
X172153Y63796D01*
X173092Y62856D01*
D02*
G37*
G36*
X323622Y74016D02*
X351378D01*
X349410Y47244D01*
X288386D01*
X281496Y54134D01*
Y76850D01*
X318976D01*
X319882Y77756D01*
X323622Y74016D01*
D02*
G37*
G36*
X458661Y21654D02*
X440983D01*
X440551Y66535D01*
X444882Y70866D01*
X458661D01*
X458661Y21654D01*
D02*
G37*
D10*
X232283Y163819D02*
D03*
Y180669D02*
D03*
X94488Y208110D02*
D03*
Y224961D02*
D03*
X96457Y166772D02*
D03*
Y183622D02*
D03*
X232283Y204173D02*
D03*
Y221024D02*
D03*
X375984Y180669D02*
D03*
Y163819D02*
D03*
X375984Y202205D02*
D03*
Y219055D02*
D03*
D11*
X105807Y38189D02*
D03*
Y30709D02*
D03*
X114665Y34449D02*
D03*
X54626Y37205D02*
D03*
Y29724D02*
D03*
X63484Y33465D02*
D03*
X210138Y37205D02*
D03*
Y29724D02*
D03*
X218996Y33465D02*
D03*
X156988Y37205D02*
D03*
Y29724D02*
D03*
X165847Y33465D02*
D03*
D12*
X291339Y43898D02*
D03*
X349410Y42913D02*
D03*
D13*
X300394Y21063D02*
D03*
X291339D02*
D03*
X282283D02*
D03*
X340354Y20079D02*
D03*
X349410D02*
D03*
X358465D02*
D03*
D14*
X116142Y52953D02*
D03*
Y59252D02*
D03*
X153543Y50000D02*
D03*
Y56299D02*
D03*
X51181D02*
D03*
Y50000D02*
D03*
X163386Y175984D02*
D03*
Y182283D02*
D03*
Y166535D02*
D03*
Y160236D02*
D03*
X218504Y50000D02*
D03*
Y56299D02*
D03*
X167323Y50000D02*
D03*
Y56299D02*
D03*
X64961Y50000D02*
D03*
Y56299D02*
D03*
X204724Y56299D02*
D03*
Y50000D02*
D03*
X102362Y52953D02*
D03*
Y59252D02*
D03*
X299213Y177953D02*
D03*
Y184252D02*
D03*
X301181Y217323D02*
D03*
Y223622D02*
D03*
X299213Y164567D02*
D03*
Y158268D02*
D03*
X301181Y205906D02*
D03*
Y199606D02*
D03*
X448819Y174016D02*
D03*
Y180315D02*
D03*
X446850Y213386D02*
D03*
Y219685D02*
D03*
X163386Y219291D02*
D03*
Y225590D02*
D03*
X448819Y160630D02*
D03*
Y154331D02*
D03*
X446850Y201969D02*
D03*
Y195669D02*
D03*
X163386Y209842D02*
D03*
Y203543D02*
D03*
D15*
X444882Y70079D02*
D03*
Y91339D02*
D03*
X351378Y74016D02*
D03*
Y95276D02*
D03*
X319882Y74016D02*
D03*
Y95276D02*
D03*
D16*
X391732Y24606D02*
D03*
Y38386D02*
D03*
X258563Y24606D02*
D03*
Y38386D02*
D03*
X319882Y24606D02*
D03*
Y38386D02*
D03*
D17*
X147008Y166220D02*
D03*
Y184173D02*
D03*
X247402Y79606D02*
D03*
Y97559D02*
D03*
X282835Y164252D02*
D03*
Y182205D02*
D03*
Y205591D02*
D03*
Y223543D02*
D03*
X426535Y162283D02*
D03*
Y180236D02*
D03*
X428504Y201654D02*
D03*
Y219606D02*
D03*
X145039Y209528D02*
D03*
Y227480D02*
D03*
X416693Y73701D02*
D03*
Y91654D02*
D03*
D18*
X120158Y175197D02*
D03*
X220551Y88583D02*
D03*
X255984Y173228D02*
D03*
Y214567D02*
D03*
X399685Y171260D02*
D03*
X401653Y210630D02*
D03*
X118189Y218504D02*
D03*
X389843Y82677D02*
D03*
D19*
X60236Y160433D02*
D03*
X53937D02*
D03*
X70669D02*
D03*
X76968D02*
D03*
X248819Y61024D02*
D03*
X255118D02*
D03*
X241339D02*
D03*
X235039D02*
D03*
X415158Y59055D02*
D03*
X421457D02*
D03*
X391929D02*
D03*
X385630D02*
D03*
D20*
X69016Y149961D02*
D03*
X51063D02*
D03*
D21*
X60039Y123110D02*
D03*
D22*
X417717Y40551D02*
D03*
Y31496D02*
D03*
Y22441D02*
D03*
D23*
X440551Y31496D02*
D03*
D24*
X78976Y122047D02*
Y158425D01*
X76968Y160433D02*
X78976Y158425D01*
X88976Y122047D02*
Y139173D01*
X98976Y122047D02*
Y141102D01*
X108976Y122047D02*
Y138898D01*
X138976Y122047D02*
Y130315D01*
X142913Y134252D01*
X156890D01*
X128976Y122047D02*
Y135276D01*
X132283Y138583D01*
X149409D01*
X118976Y122047D02*
Y136299D01*
X125591Y142913D01*
X140945D01*
X108976Y138898D02*
X116929Y146850D01*
X128150D01*
X109055Y151181D02*
X113779D01*
X98976Y141102D02*
X109055Y151181D01*
X113779D02*
X172835Y151181D01*
X348819Y134252D02*
X354331Y139764D01*
X156890Y134252D02*
X348819Y134252D01*
X343307Y138583D02*
X350394Y145669D01*
X149409Y138583D02*
X343307Y138583D01*
X306299Y142913D02*
X315945Y152559D01*
X140945Y142913D02*
X306299Y142913D01*
X298425Y146850D02*
X299213Y147638D01*
X128150Y146850D02*
X298425Y146850D01*
X172835Y151181D02*
X174213Y152559D01*
X158661Y155512D02*
X163386Y160236D01*
X105315Y155512D02*
X158661D01*
X88976Y139173D02*
X105315Y155512D01*
X70866Y91535D02*
X198819D01*
X200787Y93504D01*
X67795Y94606D02*
X70866Y91535D01*
X200787Y93504D02*
Y112205D01*
X204724Y116142D01*
X211614D01*
X315945Y152559D02*
Y187992D01*
X171457Y203543D02*
X174213Y200787D01*
Y152559D02*
Y200787D01*
X163386Y203543D02*
X171457D01*
X372047Y62992D02*
Y103347D01*
X359252Y116142D02*
X372047Y103347D01*
X211614Y116142D02*
X359252D01*
X372047Y62992D02*
X375984Y59055D01*
X76968Y160433D02*
X77795Y159606D01*
X60236Y160433D02*
X70669D01*
X69016Y158780D02*
X70669Y160433D01*
X69016Y149961D02*
Y158780D01*
X350394Y145669D02*
X444882D01*
X448819Y149606D01*
Y154331D01*
X354331Y139764D02*
X453740D01*
X458661Y144685D01*
Y190945D01*
X453937Y195669D02*
X458661Y190945D01*
X446850Y195669D02*
X453937D01*
X299213Y147638D02*
Y158268D01*
X304331Y199606D02*
X315945Y187992D01*
X301181Y199606D02*
X304331D01*
X67795Y94606D02*
Y102362D01*
X375984Y59055D02*
X385630D01*
X57795Y91811D02*
Y102362D01*
Y91811D02*
X63976Y85630D01*
X166339D01*
X181102Y70866D01*
X224410D01*
X234252Y61024D01*
X235039D01*
X47795Y85079D02*
Y102362D01*
Y85079D02*
X53150Y79724D01*
X162402D01*
X176181Y65945D01*
X215551D01*
X218504Y62992D01*
Y56299D02*
Y62992D01*
X37795Y79331D02*
Y102362D01*
Y79331D02*
X42323Y74803D01*
X158465D01*
X167323Y65945D01*
Y56299D02*
Y65945D01*
X34449Y69882D02*
X52165D01*
X27795Y76535D02*
X34449Y69882D01*
X109252D02*
X116142Y62992D01*
X52165Y69882D02*
X109252D01*
X27795Y76535D02*
Y102362D01*
X116142Y59252D02*
Y62992D01*
X17795Y68819D02*
Y102362D01*
Y68819D02*
X21654Y64961D01*
X61024D01*
X64961Y61024D01*
Y56299D02*
Y61024D01*
D25*
X231299Y23622D02*
Y29528D01*
X180118Y25591D02*
Y29528D01*
X259252Y22441D02*
X268701D01*
X228346Y20669D02*
X251969D01*
X270669Y15748D02*
Y20472D01*
X268701Y22441D02*
X270669Y20472D01*
X391732Y24606D02*
X405512D01*
X390748D02*
X391732D01*
X358268Y7874D02*
X374016D01*
X300394D02*
X358268D01*
X278543D02*
X300394D01*
X407677Y22441D02*
X416732D01*
X405512Y24606D02*
X407677Y22441D01*
X374016Y7874D02*
X390748Y24606D01*
X270669Y15748D02*
X278543Y7874D01*
X175197Y20669D02*
X228346D01*
X231299Y23622D01*
X33465Y20669D02*
X175197D01*
X180118Y25591D01*
X25453Y28681D02*
X33465Y20669D01*
X25453Y28681D02*
Y29594D01*
D26*
X251969Y20669D02*
X255906Y24606D01*
X300394Y7874D02*
Y21063D01*
Y7677D02*
Y7874D01*
X391929Y59055D02*
X415158D01*
X281496Y53740D02*
X291339Y43898D01*
X281496Y53740D02*
Y76850D01*
X282480Y77835D01*
X316063D01*
X319882Y74016D01*
X351378D01*
X358268Y7874D02*
Y18701D01*
D27*
X23720Y123602D02*
X57402D01*
X342520Y200866D02*
X342520Y200866D01*
X342520Y181102D02*
Y200866D01*
Y165354D02*
X344055Y163819D01*
X375984D01*
Y180669D02*
X382323D01*
X385827Y177165D01*
X395669D01*
X200787Y181024D02*
Y202756D01*
X206339Y163819D02*
X232283D01*
X232716Y181102D02*
X253937D01*
X62087Y187913D02*
X64961D01*
X43307Y206693D02*
X62087Y187913D01*
X442913Y114252D02*
X457598D01*
X458661Y113189D01*
Y70866D02*
Y113189D01*
X389764Y83661D02*
Y110236D01*
X409370Y129842D01*
X442913D01*
X351378Y49213D02*
Y74016D01*
X349410Y47244D02*
X351378Y49213D01*
X349410Y42913D02*
Y47244D01*
X43307Y224331D02*
X64961D01*
X25591D02*
X43307D01*
Y224410D01*
Y206693D02*
Y224331D01*
X23622Y158543D02*
X23720Y139193D01*
X342520Y200866D02*
X375905D01*
X375984Y218504D02*
X397638D01*
X232835Y220472D02*
X253937D01*
X118189Y214646D02*
Y218504D01*
D28*
X66929Y208740D02*
X92441D01*
X96457Y224410D02*
X116142D01*
X200787Y202756D02*
X230866D01*
D29*
X111732Y183622D02*
X122047Y173307D01*
X96457Y183622D02*
X111732D01*
X220551Y92520D02*
Y98504D01*
X230315Y108268D01*
X277559D01*
X282480Y103347D01*
Y97362D02*
Y103347D01*
X319882Y8858D02*
Y24606D01*
X51063Y160315D02*
X51181Y160433D01*
X51063Y149961D02*
Y160315D01*
X64961Y172323D02*
X84567D01*
X90118Y166772D01*
X96457D01*
X23622Y174134D02*
X37480D01*
X51181Y160433D01*
D30*
X54626Y39665D02*
X64961Y50000D01*
X54626Y39370D02*
Y39665D01*
X204724Y50000D02*
X208169Y46555D01*
Y37205D02*
Y46555D01*
X217028Y33465D02*
X221457D01*
X227520Y39528D01*
X232283D01*
X165847Y33465D02*
X169291D01*
X175354Y39528D01*
X181102D01*
X153543Y40650D02*
X156152Y38041D01*
X153543Y40650D02*
Y50000D01*
X78740Y21654D02*
Y29528D01*
X64222Y34203D02*
X69547Y39528D01*
X78740D01*
X51181Y50000D02*
X51181Y50000D01*
X64961D01*
X128937Y21654D02*
Y31496D01*
X56181Y121142D02*
X59055Y124016D01*
X282835Y164252D02*
X298110D01*
D31*
X114911Y34695D02*
X121713Y41496D01*
X128937D01*
X102362Y52953D02*
X105807Y49508D01*
Y39370D02*
Y49508D01*
X102362Y52953D02*
X116142D01*
X406496Y60039D02*
X411417Y64961D01*
X411417D02*
X411417D01*
X411417D02*
X415354Y68898D01*
X375984Y161417D02*
X377953Y163386D01*
X375905Y200866D02*
X375984Y200787D01*
X232283Y221024D02*
X232835Y220472D01*
X230866Y202756D02*
X232283Y204173D01*
X230315Y202756D02*
X232283Y200787D01*
X298110Y164252D02*
X299213Y165354D01*
Y177953D01*
X282835Y205591D02*
X300866D01*
X301181Y205906D01*
Y217323D01*
X426535Y162283D02*
X447165D01*
X448819Y160630D01*
Y174016D01*
X342520Y200866D02*
X344409Y202756D01*
X432756Y201969D02*
X446850D01*
Y211417D01*
X114252Y165433D02*
X116142Y167323D01*
X163386Y166535D02*
Y175984D01*
X163071Y166220D02*
X163386Y166535D01*
X147008Y166220D02*
X163071D01*
X145039Y209528D02*
X145354Y209842D01*
X147323D02*
X163386D01*
Y219291D01*
X415354Y68898D02*
Y72835D01*
X440551Y66535D02*
X444882Y70866D01*
X440551Y31496D02*
Y66535D01*
X242126Y61024D02*
X248819D01*
X242126D02*
Y68898D01*
X247402Y74173D01*
Y77638D01*
X153543Y50000D02*
X167323D01*
D32*
X204724Y50000D02*
X218504D01*
X218504Y50000D01*
D33*
X17795Y101181D02*
D03*
X138976Y122047D02*
D03*
X161909Y122933D02*
D03*
D34*
X27795Y101181D02*
D03*
X37795D02*
D03*
X47795D02*
D03*
X57795D02*
D03*
X67795D02*
D03*
X78976Y122047D02*
D03*
X88976D02*
D03*
X98976D02*
D03*
X108976D02*
D03*
X128976D02*
D03*
X118976D02*
D03*
X232283Y39528D02*
D03*
Y49528D02*
D03*
X181102Y39528D02*
D03*
Y49528D02*
D03*
X128937Y41496D02*
D03*
Y51496D02*
D03*
X78740Y39528D02*
D03*
Y49528D02*
D03*
X175295Y222795D02*
D03*
Y232795D02*
D03*
X316929Y222598D02*
D03*
Y232598D02*
D03*
X191909Y122933D02*
D03*
X181909D02*
D03*
X171909D02*
D03*
X428051Y182579D02*
D03*
X307874Y177854D02*
D03*
X308071Y160433D02*
D03*
X423228Y100394D02*
D03*
X322835D02*
D03*
X267717Y246063D02*
D03*
X393701D02*
D03*
X126969Y196850D02*
D03*
X407480Y190945D02*
D03*
X265748Y193898D02*
D03*
X376969Y48228D02*
D03*
X194882Y37402D02*
D03*
X143701D02*
D03*
X86614Y58071D02*
D03*
D35*
X232283Y29528D02*
D03*
X181102D02*
D03*
X128937Y31496D02*
D03*
X78740Y29528D02*
D03*
X175295Y212795D02*
D03*
X316929Y212598D02*
D03*
D36*
X458661Y9843D02*
D03*
X452756Y236221D02*
D03*
X13780Y242126D02*
D03*
X11811Y11811D02*
D03*
D37*
X200787Y165433D02*
D03*
X200787Y202835D02*
D03*
X342520Y200866D02*
D03*
X342520Y165433D02*
D03*
X64961Y208740D02*
D03*
X442913Y129842D02*
D03*
X64961Y172323D02*
D03*
X23720Y123602D02*
D03*
X23622Y158543D02*
D03*
X25591Y31575D02*
D03*
Y224331D02*
D03*
X282480Y93425D02*
D03*
D38*
X200787Y181024D02*
D03*
X200787Y218425D02*
D03*
X342520Y216457D02*
D03*
X342520Y181024D02*
D03*
X64961Y224331D02*
D03*
X442913Y114252D02*
D03*
X64961Y187913D02*
D03*
X23720Y139193D02*
D03*
X23622Y174134D02*
D03*
X25591Y47165D02*
D03*
Y208740D02*
D03*
X282480Y77835D02*
D03*
M02*
