G04*
G04 #@! TF.GenerationSoftware,Altium Limited,Altium Designer,18.0.9 (584)*
G04*
G04 Layer_Color=255*
%FSLAX25Y25*%
%MOIN*%
G70*
G01*
G75*
%ADD16R,0.04528X0.02362*%
%ADD17R,0.12992X0.09449*%
%ADD18R,0.03937X0.09449*%
%ADD19R,0.05118X0.03937*%
%ADD20R,0.06142X0.09173*%
%ADD21R,0.06299X0.13780*%
%ADD22R,0.06299X0.09843*%
%ADD23R,0.09921X0.03701*%
%ADD24R,0.24528X0.22323*%
%ADD25R,0.03937X0.05118*%
%ADD26R,0.03701X0.09921*%
%ADD27R,0.22323X0.24528*%
%ADD28R,0.09449X0.03937*%
%ADD29R,0.09449X0.12992*%
%ADD59R,0.09744X0.09744*%
%ADD60C,0.09744*%
%ADD61C,0.05906*%
%ADD62R,0.05906X0.05906*%
%ADD63R,0.05906X0.05906*%
D16*
X105807Y38189D02*
D03*
Y30709D02*
D03*
X114665Y34449D02*
D03*
X54626Y37205D02*
D03*
Y29724D02*
D03*
X63484Y33465D02*
D03*
X210138Y37205D02*
D03*
Y29724D02*
D03*
X218996Y33465D02*
D03*
X156988Y37205D02*
D03*
Y29724D02*
D03*
X165847Y33465D02*
D03*
D17*
X291339Y43898D02*
D03*
X349410Y42913D02*
D03*
D18*
X300394Y21063D02*
D03*
X291339D02*
D03*
X282283D02*
D03*
X340354Y20079D02*
D03*
X349410D02*
D03*
X358465D02*
D03*
D19*
X116142Y52953D02*
D03*
Y59252D02*
D03*
X153543Y50000D02*
D03*
Y56299D02*
D03*
X51181D02*
D03*
Y50000D02*
D03*
X163386Y175984D02*
D03*
Y182283D02*
D03*
Y166535D02*
D03*
Y160236D02*
D03*
X218504Y50000D02*
D03*
Y56299D02*
D03*
X167323Y50000D02*
D03*
Y56299D02*
D03*
X64961Y50000D02*
D03*
Y56299D02*
D03*
X204724Y56299D02*
D03*
Y50000D02*
D03*
X102362Y52953D02*
D03*
Y59252D02*
D03*
X299213Y177953D02*
D03*
Y184252D02*
D03*
X301181Y217323D02*
D03*
Y223622D02*
D03*
X299213Y164567D02*
D03*
Y158268D02*
D03*
X301181Y205906D02*
D03*
Y199606D02*
D03*
X448819Y174016D02*
D03*
Y180315D02*
D03*
X446850Y213386D02*
D03*
Y219685D02*
D03*
X163386Y219291D02*
D03*
Y225590D02*
D03*
X448819Y160630D02*
D03*
Y154331D02*
D03*
X446850Y201969D02*
D03*
Y195669D02*
D03*
X163386Y209842D02*
D03*
Y203543D02*
D03*
D20*
X94488Y208110D02*
D03*
Y224961D02*
D03*
X96457Y166772D02*
D03*
Y183622D02*
D03*
X232283Y180669D02*
D03*
Y163819D02*
D03*
X232283Y204173D02*
D03*
Y221024D02*
D03*
X375984Y180669D02*
D03*
Y163819D02*
D03*
X375984Y202205D02*
D03*
Y219055D02*
D03*
D21*
X444882Y70079D02*
D03*
Y91339D02*
D03*
X351378Y74016D02*
D03*
Y95276D02*
D03*
X319882Y74016D02*
D03*
Y95276D02*
D03*
D22*
X391732Y24606D02*
D03*
Y38386D02*
D03*
X253937Y24606D02*
D03*
Y38386D02*
D03*
X319882Y24606D02*
D03*
Y38386D02*
D03*
D23*
X147008Y166220D02*
D03*
Y184173D02*
D03*
X247402Y79606D02*
D03*
Y97559D02*
D03*
X282835Y164252D02*
D03*
Y182205D02*
D03*
Y205591D02*
D03*
Y223543D02*
D03*
X426535Y162283D02*
D03*
Y180236D02*
D03*
X428504Y201654D02*
D03*
Y219606D02*
D03*
X145039Y209528D02*
D03*
Y227480D02*
D03*
X416693Y73701D02*
D03*
Y91654D02*
D03*
D24*
X120158Y175197D02*
D03*
X220551Y88583D02*
D03*
X255984Y173228D02*
D03*
Y214567D02*
D03*
X399685Y171260D02*
D03*
X401653Y210630D02*
D03*
X118189Y218504D02*
D03*
X389843Y82677D02*
D03*
D25*
X60236Y160433D02*
D03*
X53937D02*
D03*
X70669D02*
D03*
X76968D02*
D03*
X248819Y61024D02*
D03*
X255118D02*
D03*
X241339D02*
D03*
X235039D02*
D03*
X415158Y59055D02*
D03*
X421457D02*
D03*
X391929D02*
D03*
X385630D02*
D03*
D26*
X69016Y149961D02*
D03*
X51063D02*
D03*
D27*
X60039Y123110D02*
D03*
D28*
X417717Y40551D02*
D03*
Y31496D02*
D03*
Y22441D02*
D03*
D29*
X440551Y31496D02*
D03*
D59*
X204724Y181024D02*
D03*
X200787Y202835D02*
D03*
X342520Y200866D02*
D03*
X346457Y181024D02*
D03*
X62992Y208740D02*
D03*
X442913Y129842D02*
D03*
X62992Y172323D02*
D03*
X23622Y121142D02*
D03*
Y158543D02*
D03*
X25591Y31575D02*
D03*
Y224331D02*
D03*
X282480Y93425D02*
D03*
D60*
X204724Y165433D02*
D03*
X200787Y218425D02*
D03*
X342520Y216457D02*
D03*
X346457Y165433D02*
D03*
X62992Y224331D02*
D03*
X442913Y114252D02*
D03*
X62992Y187913D02*
D03*
X23622Y136732D02*
D03*
Y174134D02*
D03*
X25591Y47165D02*
D03*
Y208740D02*
D03*
X282480Y77835D02*
D03*
D61*
X182559Y98425D02*
D03*
X172559D02*
D03*
X162559D02*
D03*
X182559Y114173D02*
D03*
X172559D02*
D03*
X162559D02*
D03*
X127795Y102362D02*
D03*
X117795D02*
D03*
X107795D02*
D03*
X97795D02*
D03*
X87795D02*
D03*
X77795D02*
D03*
X67795D02*
D03*
X57795D02*
D03*
X47795D02*
D03*
X37795D02*
D03*
X27795D02*
D03*
X17795D02*
D03*
X232283Y39528D02*
D03*
X181102D02*
D03*
X128937Y41496D02*
D03*
X78740Y39528D02*
D03*
D62*
X152559Y98425D02*
D03*
Y114173D02*
D03*
X137795Y102362D02*
D03*
D63*
X232283Y29528D02*
D03*
X181102D02*
D03*
X128937Y31496D02*
D03*
X78740Y29528D02*
D03*
M02*
