G04*
G04 #@! TF.GenerationSoftware,Altium Limited,Altium Designer,18.0.9 (584)*
G04*
G04 Layer_Color=8421504*
%FSLAX25Y25*%
%MOIN*%
G70*
G01*
G75*
%ADD16R,0.04528X0.02362*%
%ADD17R,0.12992X0.09449*%
%ADD18R,0.03937X0.09449*%
%ADD19R,0.05118X0.03937*%
%ADD20R,0.06142X0.09173*%
%ADD21R,0.06299X0.13780*%
%ADD22R,0.06299X0.09843*%
%ADD23R,0.09921X0.03701*%
%ADD24R,0.24528X0.22323*%
%ADD25R,0.03937X0.05118*%
%ADD26R,0.03701X0.09921*%
%ADD27R,0.22323X0.24528*%
%ADD28R,0.09449X0.03937*%
%ADD29R,0.09449X0.12992*%
G36*
X343110Y223366D02*
X349016D01*
Y228524D01*
X343110D01*
Y223366D01*
D02*
G37*
G36*
X351299D02*
X357205D01*
Y228524D01*
X351299D01*
Y223366D01*
D02*
G37*
G36*
X359488D02*
X365394D01*
Y228524D01*
X359488D01*
Y223366D01*
D02*
G37*
G36*
X205315Y219429D02*
X211221D01*
Y224587D01*
X205315D01*
Y219429D01*
D02*
G37*
G36*
X213504D02*
X219409D01*
Y224587D01*
X213504D01*
Y219429D01*
D02*
G37*
G36*
X221693D02*
X227598D01*
Y224587D01*
X221693D01*
Y219429D01*
D02*
G37*
G36*
X343110Y215925D02*
X349016D01*
Y221083D01*
X343110D01*
Y215925D01*
D02*
G37*
G36*
X351299D02*
X357205D01*
Y221083D01*
X351299D01*
Y215925D01*
D02*
G37*
G36*
X359488D02*
X365394D01*
Y221083D01*
X359488D01*
Y215925D01*
D02*
G37*
G36*
X59646Y215492D02*
X65551D01*
Y220650D01*
X59646D01*
Y215492D01*
D02*
G37*
G36*
X67835D02*
X73740D01*
Y220650D01*
X67835D01*
Y215492D01*
D02*
G37*
G36*
X76024D02*
X81929D01*
Y220650D01*
X76024D01*
Y215492D01*
D02*
G37*
G36*
X205315Y211988D02*
X211221D01*
Y217146D01*
X205315D01*
Y211988D01*
D02*
G37*
G36*
X213504D02*
X219409D01*
Y217146D01*
X213504D01*
Y211988D01*
D02*
G37*
G36*
X221693D02*
X227598D01*
Y217146D01*
X221693D01*
Y211988D01*
D02*
G37*
G36*
X343110Y208484D02*
X349016D01*
Y213642D01*
X343110D01*
Y208484D01*
D02*
G37*
G36*
X351299D02*
X357205D01*
Y213642D01*
X351299D01*
Y208484D01*
D02*
G37*
G36*
X359488D02*
X365394D01*
Y213642D01*
X359488D01*
Y208484D01*
D02*
G37*
G36*
X59646Y208051D02*
X65551D01*
Y213209D01*
X59646D01*
Y208051D01*
D02*
G37*
G36*
X67835D02*
X73740D01*
Y213209D01*
X67835D01*
Y208051D01*
D02*
G37*
G36*
X76024D02*
X81929D01*
Y213209D01*
X76024D01*
Y208051D01*
D02*
G37*
G36*
X205315Y204547D02*
X211221D01*
Y209705D01*
X205315D01*
Y204547D01*
D02*
G37*
G36*
X213504D02*
X219409D01*
Y209705D01*
X213504D01*
Y204547D01*
D02*
G37*
G36*
X221693D02*
X227598D01*
Y209705D01*
X221693D01*
Y204547D01*
D02*
G37*
G36*
X59646Y200610D02*
X65551D01*
Y205768D01*
X59646D01*
Y200610D01*
D02*
G37*
G36*
X67835D02*
X73740D01*
Y205768D01*
X67835D01*
Y200610D01*
D02*
G37*
G36*
X76024D02*
X81929D01*
Y205768D01*
X76024D01*
Y200610D01*
D02*
G37*
G36*
X341142Y180059D02*
X347047D01*
Y185216D01*
X341142D01*
Y180059D01*
D02*
G37*
G36*
X349331D02*
X355236D01*
Y185216D01*
X349331D01*
Y180059D01*
D02*
G37*
G36*
X357520D02*
X363425D01*
Y185216D01*
X357520D01*
Y180059D01*
D02*
G37*
G36*
X205315Y178091D02*
X211221D01*
Y183248D01*
X205315D01*
Y178091D01*
D02*
G37*
G36*
X213504D02*
X219409D01*
Y183248D01*
X213504D01*
Y178091D01*
D02*
G37*
G36*
X221693D02*
X227598D01*
Y183248D01*
X221693D01*
Y178091D01*
D02*
G37*
G36*
X61614Y176122D02*
X67520D01*
Y181280D01*
X61614D01*
Y176122D01*
D02*
G37*
G36*
X69803D02*
X75709D01*
Y181280D01*
X69803D01*
Y176122D01*
D02*
G37*
G36*
X77992D02*
X83898D01*
Y181280D01*
X77992D01*
Y176122D01*
D02*
G37*
G36*
X341142Y172618D02*
X347047D01*
Y177776D01*
X341142D01*
Y172618D01*
D02*
G37*
G36*
X349331D02*
X355236D01*
Y177776D01*
X349331D01*
Y172618D01*
D02*
G37*
G36*
X357520D02*
X363425D01*
Y177776D01*
X357520D01*
Y172618D01*
D02*
G37*
G36*
X205315Y170650D02*
X211221D01*
Y175807D01*
X205315D01*
Y170650D01*
D02*
G37*
G36*
X213504D02*
X219409D01*
Y175807D01*
X213504D01*
Y170650D01*
D02*
G37*
G36*
X221693D02*
X227598D01*
Y175807D01*
X221693D01*
Y170650D01*
D02*
G37*
G36*
X61614Y168681D02*
X67520D01*
Y173839D01*
X61614D01*
Y168681D01*
D02*
G37*
G36*
X69803D02*
X75709D01*
Y173839D01*
X69803D01*
Y168681D01*
D02*
G37*
G36*
X77992D02*
X83898D01*
Y173839D01*
X77992D01*
Y168681D01*
D02*
G37*
G36*
X341142Y165177D02*
X347047D01*
Y170335D01*
X341142D01*
Y165177D01*
D02*
G37*
G36*
X349331D02*
X355236D01*
Y170335D01*
X349331D01*
Y165177D01*
D02*
G37*
G36*
X357520D02*
X363425D01*
Y170335D01*
X357520D01*
Y165177D01*
D02*
G37*
G36*
X205315Y163209D02*
X211221D01*
Y168366D01*
X205315D01*
Y163209D01*
D02*
G37*
G36*
X213504D02*
X219409D01*
Y168366D01*
X213504D01*
Y163209D01*
D02*
G37*
G36*
X221693D02*
X227598D01*
Y168366D01*
X221693D01*
Y163209D01*
D02*
G37*
G36*
X61614Y161240D02*
X67520D01*
Y166398D01*
X61614D01*
Y161240D01*
D02*
G37*
G36*
X69803D02*
X75709D01*
Y166398D01*
X69803D01*
Y161240D01*
D02*
G37*
G36*
X77992D02*
X83898D01*
Y166398D01*
X77992D01*
Y161240D01*
D02*
G37*
G36*
X402382Y128347D02*
X407539D01*
Y134252D01*
X402382D01*
Y128347D01*
D02*
G37*
G36*
X409823D02*
X414980D01*
Y134252D01*
X409823D01*
Y128347D01*
D02*
G37*
G36*
X417264D02*
X422421D01*
Y134252D01*
X417264D01*
Y128347D01*
D02*
G37*
G36*
X402382Y120158D02*
X407539D01*
Y126063D01*
X402382D01*
Y120158D01*
D02*
G37*
G36*
X409823D02*
X414980D01*
Y126063D01*
X409823D01*
Y120158D01*
D02*
G37*
G36*
X417264D02*
X422421D01*
Y126063D01*
X417264D01*
Y120158D01*
D02*
G37*
G36*
X402382Y111969D02*
X407539D01*
Y117874D01*
X402382D01*
Y111969D01*
D02*
G37*
G36*
X409823D02*
X414980D01*
Y117874D01*
X409823D01*
Y111969D01*
D02*
G37*
G36*
X417264D02*
X422421D01*
Y117874D01*
X417264D01*
Y111969D01*
D02*
G37*
G36*
X240748Y93445D02*
X246654D01*
Y98602D01*
X240748D01*
Y93445D01*
D02*
G37*
G36*
X248937D02*
X254842D01*
Y98602D01*
X248937D01*
Y93445D01*
D02*
G37*
G36*
X257126D02*
X263032D01*
Y98602D01*
X257126D01*
Y93445D01*
D02*
G37*
G36*
X71457Y87539D02*
X77362D01*
Y92697D01*
X71457D01*
Y87539D01*
D02*
G37*
G36*
X79646D02*
X85551D01*
Y92697D01*
X79646D01*
Y87539D01*
D02*
G37*
G36*
X87835D02*
X93740D01*
Y92697D01*
X87835D01*
Y87539D01*
D02*
G37*
G36*
X240748Y86004D02*
X246654D01*
Y91161D01*
X240748D01*
Y86004D01*
D02*
G37*
G36*
X248937D02*
X254842D01*
Y91161D01*
X248937D01*
Y86004D01*
D02*
G37*
G36*
X257126D02*
X263032D01*
Y91161D01*
X257126D01*
Y86004D01*
D02*
G37*
G36*
X71457Y80098D02*
X77362D01*
Y85256D01*
X71457D01*
Y80098D01*
D02*
G37*
G36*
X79646D02*
X85551D01*
Y85256D01*
X79646D01*
Y80098D01*
D02*
G37*
G36*
X87835D02*
X93740D01*
Y85256D01*
X87835D01*
Y80098D01*
D02*
G37*
G36*
X240748Y78563D02*
X246654D01*
Y83720D01*
X240748D01*
Y78563D01*
D02*
G37*
G36*
X248937D02*
X254842D01*
Y83720D01*
X248937D01*
Y78563D01*
D02*
G37*
G36*
X257126D02*
X263032D01*
Y83720D01*
X257126D01*
Y78563D01*
D02*
G37*
G36*
X71457Y72658D02*
X77362D01*
Y77815D01*
X71457D01*
Y72658D01*
D02*
G37*
G36*
X79646D02*
X85551D01*
Y77815D01*
X79646D01*
Y72658D01*
D02*
G37*
G36*
X87835D02*
X93740D01*
Y77815D01*
X87835D01*
Y72658D01*
D02*
G37*
D16*
X366634Y38189D02*
D03*
Y30709D02*
D03*
X357776Y34449D02*
D03*
X417815Y37205D02*
D03*
Y29724D02*
D03*
X408957Y33465D02*
D03*
X262303Y37205D02*
D03*
Y29724D02*
D03*
X253445Y33465D02*
D03*
X315453Y37205D02*
D03*
Y29724D02*
D03*
X306594Y33465D02*
D03*
D17*
X181102Y43898D02*
D03*
X123031Y42913D02*
D03*
D18*
X172047Y21063D02*
D03*
X181102D02*
D03*
X190157D02*
D03*
X132087Y20079D02*
D03*
X123031D02*
D03*
X113976D02*
D03*
D19*
X356299Y52953D02*
D03*
Y59252D02*
D03*
X318898Y50000D02*
D03*
Y56299D02*
D03*
X421260D02*
D03*
Y50000D02*
D03*
X309055Y175984D02*
D03*
Y182283D02*
D03*
Y166535D02*
D03*
Y160236D02*
D03*
X253937Y50000D02*
D03*
Y56299D02*
D03*
X305118Y50000D02*
D03*
Y56299D02*
D03*
X407480Y50000D02*
D03*
Y56299D02*
D03*
X267717Y56299D02*
D03*
Y50000D02*
D03*
X370079Y52953D02*
D03*
Y59252D02*
D03*
X173228Y177953D02*
D03*
Y184252D02*
D03*
X171260Y217323D02*
D03*
Y223622D02*
D03*
X173228Y164567D02*
D03*
Y158268D02*
D03*
X171260Y205906D02*
D03*
Y199606D02*
D03*
X23622Y174016D02*
D03*
Y180315D02*
D03*
X25591Y213386D02*
D03*
Y219685D02*
D03*
X309055Y219291D02*
D03*
Y225590D02*
D03*
X23622Y160630D02*
D03*
Y154331D02*
D03*
X25591Y201969D02*
D03*
Y195669D02*
D03*
X309055Y209842D02*
D03*
Y203543D02*
D03*
D20*
X377953Y208110D02*
D03*
Y224961D02*
D03*
X375984Y166772D02*
D03*
Y183622D02*
D03*
X240158Y180669D02*
D03*
Y163819D02*
D03*
X240158Y204173D02*
D03*
Y221024D02*
D03*
X96457Y180669D02*
D03*
Y163819D02*
D03*
X96457Y202205D02*
D03*
Y219055D02*
D03*
D21*
X27559Y70079D02*
D03*
Y91339D02*
D03*
X121063Y74016D02*
D03*
Y95276D02*
D03*
X152559Y74016D02*
D03*
Y95276D02*
D03*
D22*
X80709Y24606D02*
D03*
Y38386D02*
D03*
X218504Y24606D02*
D03*
Y38386D02*
D03*
X152559Y24606D02*
D03*
Y38386D02*
D03*
D23*
X325433Y166220D02*
D03*
Y184173D02*
D03*
X225039Y79606D02*
D03*
Y97559D02*
D03*
X189606Y164252D02*
D03*
Y182205D02*
D03*
Y205591D02*
D03*
Y223543D02*
D03*
X45906Y162283D02*
D03*
Y180236D02*
D03*
X43937Y201654D02*
D03*
Y219606D02*
D03*
X327402Y209528D02*
D03*
Y227480D02*
D03*
X55748Y73701D02*
D03*
Y91654D02*
D03*
D24*
X352284Y175197D02*
D03*
X251890Y88583D02*
D03*
X216457Y173228D02*
D03*
Y214567D02*
D03*
X72756Y171260D02*
D03*
X70787Y210630D02*
D03*
X354252Y218504D02*
D03*
X82598Y82677D02*
D03*
D25*
X412205Y160433D02*
D03*
X418504D02*
D03*
X401772D02*
D03*
X395472D02*
D03*
X223622Y61024D02*
D03*
X217323D02*
D03*
X231102D02*
D03*
X237402D02*
D03*
X57284Y59055D02*
D03*
X50984D02*
D03*
X80512D02*
D03*
X86811D02*
D03*
D26*
X403425Y149961D02*
D03*
X421378D02*
D03*
D27*
X412402Y123110D02*
D03*
D28*
X54724Y40551D02*
D03*
Y31496D02*
D03*
Y22441D02*
D03*
D29*
X31890Y31496D02*
D03*
M02*
