G04*
G04 #@! TF.GenerationSoftware,Altium Limited,Altium Designer,18.0.9 (584)*
G04*
G04 Layer_Color=65535*
%FSLAX25Y25*%
%MOIN*%
G70*
G01*
G75*
%ADD10C,0.01000*%
%ADD11C,0.00787*%
%ADD12C,0.00984*%
%ADD13C,0.00500*%
%ADD14R,0.39500X0.11000*%
D10*
X16735Y65945D02*
G03*
X16735Y65945I24505J0D01*
G01*
X110904Y105041D02*
Y100042D01*
X109904Y99042D01*
X107905D01*
X106905Y100042D01*
Y105041D01*
X100907Y99042D02*
X104906D01*
X100907Y103041D01*
Y104041D01*
X101907Y105041D01*
X103906D01*
X104906Y104041D01*
X97342Y49213D02*
X103341D01*
Y52212D01*
X102341Y53211D01*
X100341D01*
X99342Y52212D01*
Y49213D01*
Y51212D02*
X97342Y53211D01*
X103341Y59209D02*
X102341Y57210D01*
X100341Y55211D01*
X98342D01*
X97342Y56210D01*
Y58210D01*
X98342Y59209D01*
X99342D01*
X100341Y58210D01*
Y55211D01*
X88283Y72137D02*
Y78135D01*
X85284D01*
X84284Y77135D01*
Y75136D01*
X85284Y74136D01*
X88283D01*
X86283D02*
X84284Y72137D01*
X78286Y78135D02*
X82285D01*
Y75136D01*
X80285Y76136D01*
X79286D01*
X78286Y75136D01*
Y73137D01*
X79286Y72137D01*
X81285D01*
X82285Y73137D01*
X94188Y59268D02*
Y65267D01*
X91189D01*
X90189Y64267D01*
Y62268D01*
X91189Y61268D01*
X94188D01*
X92189D02*
X90189Y59268D01*
X85191D02*
Y65267D01*
X88190Y62268D01*
X84191D01*
X103057Y47537D02*
Y53535D01*
X100058D01*
X99058Y52535D01*
Y50536D01*
X100058Y49536D01*
X103057D01*
X101057D02*
X99058Y47537D01*
X97059Y52535D02*
X96059Y53535D01*
X94060D01*
X93060Y52535D01*
Y51536D01*
X94060Y50536D01*
X95059D01*
X94060D01*
X93060Y49536D01*
Y48537D01*
X94060Y47537D01*
X96059D01*
X97059Y48537D01*
X110294Y41168D02*
Y47167D01*
X107295D01*
X106295Y46167D01*
Y44168D01*
X107295Y43168D01*
X110294D01*
X108294D02*
X106295Y41168D01*
X100297D02*
X104296D01*
X100297Y45167D01*
Y46167D01*
X101297Y47167D01*
X103296D01*
X104296Y46167D01*
X126620Y74042D02*
Y80040D01*
X123621D01*
X122621Y79040D01*
Y77041D01*
X123621Y76041D01*
X126620D01*
X124620D02*
X122621Y74042D01*
X120622D02*
X118622D01*
X119622D01*
Y80040D01*
X120622Y79040D01*
X65768Y105145D02*
Y99146D01*
X61769D01*
X59770D02*
X57770D01*
X58770D01*
Y105145D01*
X59770Y104145D01*
X91251Y49340D02*
Y43342D01*
X88252D01*
X87252Y44341D01*
Y48340D01*
X88252Y49340D01*
X91251D01*
X85253Y43342D02*
X83254D01*
X84253D01*
Y49340D01*
X85253Y48340D01*
X134682Y60116D02*
X135682Y61116D01*
X137681D01*
X138681Y60116D01*
Y56118D01*
X137681Y55118D01*
X135682D01*
X134682Y56118D01*
X128684Y61116D02*
X130684Y60116D01*
X132683Y58117D01*
Y56118D01*
X131683Y55118D01*
X129684D01*
X128684Y56118D01*
Y57117D01*
X129684Y58117D01*
X132683D01*
X20711Y24583D02*
X21710Y25582D01*
X23710D01*
X24710Y24583D01*
Y20584D01*
X23710Y19584D01*
X21710D01*
X20711Y20584D01*
X14713Y25582D02*
X18711D01*
Y22583D01*
X16712Y23583D01*
X15712D01*
X14713Y22583D01*
Y20584D01*
X15712Y19584D01*
X17712D01*
X18711Y20584D01*
X30490Y24583D02*
X31489Y25582D01*
X33489D01*
X34488Y24583D01*
Y20584D01*
X33489Y19584D01*
X31489D01*
X30490Y20584D01*
X25491Y19584D02*
Y25582D01*
X28490Y22583D01*
X24491D01*
X77358Y21967D02*
X78358Y22967D01*
X80357D01*
X81357Y21967D01*
Y17968D01*
X80357Y16969D01*
X78358D01*
X77358Y17968D01*
X75359Y21967D02*
X74359Y22967D01*
X72360D01*
X71360Y21967D01*
Y20967D01*
X72360Y19967D01*
X73359D01*
X72360D01*
X71360Y18968D01*
Y17968D01*
X72360Y16969D01*
X74359D01*
X75359Y17968D01*
D11*
X91063Y33465D02*
G03*
X91063Y33465I394J0D01*
G01*
X121949Y57874D02*
Y62205D01*
X105413Y62992D02*
X101083D01*
X121949Y65748D02*
Y70079D01*
X24705Y10827D02*
X20374D01*
X34547D02*
X30217D01*
X76673Y8661D02*
Y12992D01*
X83563Y63779D02*
Y68110D01*
X94390Y75787D02*
Y95472D01*
X102264Y75787D02*
Y95472D01*
Y75787D02*
X94390D01*
X102264Y95472D02*
X94390D01*
X98327Y39173D02*
Y43504D01*
X89468Y50984D02*
Y55315D01*
X110335Y32480D02*
X106004D01*
D12*
X88583Y74783D02*
G03*
X88583Y74783I492J0D01*
G01*
X41740Y40945D02*
X18240D01*
X16740Y42445D01*
Y89945D01*
X17740Y90945D02*
X16740Y89945D01*
X65240Y90945D02*
X17740D01*
X66240Y89945D02*
X65240Y90945D01*
X66240Y41445D02*
Y89945D01*
Y41445D02*
X65740Y40945D01*
X41740D01*
D13*
X87697Y37795D02*
Y39272D01*
X65650D01*
Y37795D02*
Y39272D01*
Y27657D02*
Y29134D01*
X87697Y27657D02*
X65650D01*
X87697D02*
Y29134D01*
D14*
X40990Y65945D02*
D03*
M02*
