G04*
G04 #@! TF.GenerationSoftware,Altium Limited,Altium Designer,18.0.9 (584)*
G04*
G04 Layer_Color=255*
%FSLAX25Y25*%
%MOIN*%
G70*
G01*
G75*
%ADD15R,0.03937X0.05118*%
%ADD16R,0.05118X0.03937*%
%ADD17R,0.39370X0.19685*%
%ADD18R,0.09173X0.06142*%
%ADD19O,0.07480X0.02362*%
%ADD39R,0.05622X0.05622*%
%ADD40C,0.05622*%
%ADD41C,0.13055*%
%ADD42O,0.07874X0.05512*%
%ADD43R,0.07874X0.05512*%
%ADD44C,0.05906*%
%ADD45R,0.09744X0.09744*%
%ADD46C,0.09744*%
D15*
X57874Y60039D02*
D03*
X64173D02*
D03*
X57874Y67913D02*
D03*
X64173D02*
D03*
X103150Y10827D02*
D03*
X109449D02*
D03*
X96260Y65945D02*
D03*
X102559D02*
D03*
X81496Y41339D02*
D03*
X87795D02*
D03*
X90354Y53150D02*
D03*
X96653D02*
D03*
D16*
X79724Y59842D02*
D03*
Y66142D02*
D03*
X160433Y13976D02*
D03*
Y7677D02*
D03*
X150591Y13976D02*
D03*
Y7677D02*
D03*
X74803Y29331D02*
D03*
Y35630D02*
D03*
D17*
X142232Y85945D02*
D03*
Y45945D02*
D03*
D18*
X97874Y33465D02*
D03*
X114724D02*
D03*
D19*
X93898Y78130D02*
D03*
Y83130D02*
D03*
Y88130D02*
D03*
Y93130D02*
D03*
X75394Y78130D02*
D03*
Y83130D02*
D03*
Y88130D02*
D03*
Y93130D02*
D03*
D39*
X38346Y61024D02*
D03*
D40*
Y70866D02*
D03*
Y78740D02*
D03*
Y88583D02*
D03*
D41*
X27677Y48937D02*
D03*
Y100669D02*
D03*
D42*
X57087Y40945D02*
D03*
Y34252D02*
D03*
Y27559D02*
D03*
Y20866D02*
D03*
D43*
Y14173D02*
D03*
D44*
X163386Y24606D02*
D03*
X143701D02*
D03*
X96457Y21654D02*
D03*
X116142D02*
D03*
D45*
X21654Y29449D02*
D03*
D46*
Y13858D02*
D03*
M02*
