G04*
G04 #@! TF.GenerationSoftware,Altium Limited,Altium Designer,18.0.9 (584)*
G04*
G04 Layer_Color=16711935*
%FSLAX25Y25*%
%MOIN*%
G70*
G01*
G75*
%ADD49C,0.00394*%
D49*
X90748Y79527D02*
G03*
X90748Y79527I-1969J0D01*
G01*
X55984Y38937D02*
Y42953D01*
X58189Y38937D02*
Y42953D01*
X55984D02*
X58189D01*
X55984Y38937D02*
X58189D01*
X55984Y32244D02*
Y36260D01*
X58189Y32244D02*
Y36260D01*
X55984D02*
X58189D01*
X55984Y32244D02*
X58189D01*
X55984Y12165D02*
Y16181D01*
X58189Y12165D02*
Y16181D01*
X55984D02*
X58189D01*
X55984Y12165D02*
X58189D01*
X55984Y18858D02*
Y22874D01*
X58189Y18858D02*
Y22874D01*
X55984D02*
X58189D01*
X55984Y18858D02*
X58189D01*
X55984Y25551D02*
Y29567D01*
X58189Y25551D02*
Y29567D01*
X55984D02*
X58189D01*
X55984Y25551D02*
X58189D01*
X68110Y6693D02*
Y48425D01*
X48819Y6693D02*
Y48425D01*
Y6693D02*
X68110D01*
X66142D02*
Y48425D01*
X48819D02*
X68110D01*
X56791Y62795D02*
X65256D01*
X56791Y57284D02*
X65256D01*
X56791D02*
Y62795D01*
X65256Y57284D02*
Y62795D01*
X76968Y58760D02*
Y67224D01*
X82480Y58760D02*
Y67224D01*
X76968Y58760D02*
X82480D01*
X76968Y67224D02*
X82480D01*
X56791Y70669D02*
X65256D01*
X56791Y65158D02*
X65256D01*
X56791D02*
Y70669D01*
X65256Y65158D02*
Y70669D01*
X163189Y6594D02*
Y15059D01*
X157677Y6594D02*
Y15059D01*
X163189D01*
X157677Y6594D02*
X163189D01*
X153347D02*
Y15059D01*
X147835Y6594D02*
Y15059D01*
X153347D01*
X147835Y6594D02*
X153347D01*
X102067Y13583D02*
X110531D01*
X102067Y8071D02*
X110531D01*
X102067D02*
Y13583D01*
X110531Y8071D02*
Y13583D01*
X95177Y68701D02*
X103642D01*
X95177Y63189D02*
X103642D01*
X95177D02*
Y68701D01*
X103642Y63189D02*
Y68701D01*
X92323Y75984D02*
Y95276D01*
X76968Y75984D02*
Y95276D01*
Y75984D02*
X92323D01*
X76968Y95276D02*
X92323D01*
X80413Y44094D02*
X88878D01*
X80413Y38583D02*
X88878D01*
X80413D02*
Y44094D01*
X88878Y38583D02*
Y44094D01*
X89272Y55905D02*
X97736D01*
X89272Y50394D02*
X97736D01*
X89272D02*
Y55905D01*
X97736Y50394D02*
Y55905D01*
X72047Y28248D02*
Y36713D01*
X77559Y28248D02*
Y36713D01*
X72047Y28248D02*
X77559D01*
X72047Y36713D02*
X77559D01*
M02*
