G04*
G04 #@! TF.GenerationSoftware,Altium Limited,Altium Designer,18.0.9 (584)*
G04*
G04 Layer_Color=32768*
%FSLAX25Y25*%
%MOIN*%
G70*
G01*
G75*
%ADD49C,0.00394*%
D49*
X57087Y25591D02*
Y29528D01*
X55118Y27559D02*
X59055D01*
X61024Y58071D02*
Y62008D01*
X59055Y60039D02*
X62992D01*
X55512Y62992D02*
X66535D01*
X55512Y57087D02*
X66535D01*
X55512D02*
Y62992D01*
X66535Y57087D02*
Y62992D01*
X77756Y62992D02*
X81693D01*
X79724Y61024D02*
Y64961D01*
X76772Y57480D02*
Y68504D01*
X82677Y57480D02*
Y68504D01*
X76772Y57480D02*
X82677D01*
X76772Y68504D02*
X82677D01*
X61024Y65945D02*
Y69882D01*
X59055Y67913D02*
X62992D01*
X55512Y70866D02*
X66535D01*
X55512Y64961D02*
X66535D01*
X55512D02*
Y70866D01*
X66535Y64961D02*
Y70866D01*
X158465Y10827D02*
X162402D01*
X160433Y8858D02*
Y12795D01*
X163386Y5315D02*
Y16339D01*
X157480Y5315D02*
Y16339D01*
X163386D01*
X157480Y5315D02*
X163386D01*
X148622Y10827D02*
X152559D01*
X150591Y8858D02*
Y12795D01*
X153543Y5315D02*
Y16339D01*
X147638Y5315D02*
Y16339D01*
X153543D01*
X147638Y5315D02*
X153543D01*
X106299Y8858D02*
Y12795D01*
X104331Y10827D02*
X108268D01*
X100787Y13780D02*
X111811D01*
X100787Y7874D02*
X111811D01*
X100787D02*
Y13780D01*
X111811Y7874D02*
Y13780D01*
X99409Y63976D02*
Y67913D01*
X97441Y65945D02*
X101378D01*
X93898Y68898D02*
X104921D01*
X93898Y62992D02*
X104921D01*
X93898D02*
Y68898D01*
X104921Y62992D02*
Y68898D01*
X98032Y75394D02*
Y95866D01*
X71260Y75394D02*
Y95866D01*
Y75394D02*
X98032D01*
X71260Y95866D02*
X98032D01*
X82677Y85630D02*
X86614D01*
X84646Y83661D02*
Y87598D01*
Y39370D02*
Y43307D01*
X82677Y41339D02*
X86614D01*
X79134Y44291D02*
X90158D01*
X79134Y38386D02*
X90158D01*
X79134D02*
Y44291D01*
X90158Y38386D02*
Y44291D01*
X93504Y51181D02*
Y55118D01*
X91535Y53150D02*
X95472D01*
X87992Y56102D02*
X99016D01*
X87992Y50197D02*
X99016D01*
X87992D02*
Y56102D01*
X99016Y50197D02*
Y56102D01*
X72835Y32480D02*
X76772D01*
X74803Y30512D02*
Y34449D01*
X71850Y26969D02*
Y37992D01*
X77756Y26969D02*
Y37992D01*
X71850Y26969D02*
X77756D01*
X71850Y37992D02*
X77756D01*
M02*
