G04*
G04 #@! TF.GenerationSoftware,Altium Limited,Altium Designer,18.0.9 (584)*
G04*
G04 Layer_Physical_Order=1*
G04 Layer_Color=255*
%FSLAX25Y25*%
%MOIN*%
G70*
G01*
G75*
%ADD10R,0.03937X0.05118*%
%ADD11R,0.05118X0.03937*%
%ADD12R,0.09173X0.06142*%
%ADD13O,0.07480X0.02362*%
%ADD14C,0.02362*%
%ADD15C,0.01968*%
%ADD16C,0.03937*%
%ADD17C,0.01575*%
%ADD18C,0.03150*%
%ADD19C,0.06000*%
%ADD20R,0.05622X0.05622*%
%ADD21C,0.05622*%
%ADD22C,0.13055*%
%ADD23O,0.07874X0.05512*%
%ADD24R,0.07874X0.05512*%
%ADD25C,0.05906*%
%ADD26R,0.09744X0.09744*%
%ADD27C,0.09744*%
%ADD28C,0.11811*%
G36*
X138722Y82435D02*
X139750Y81646D01*
X140948Y81150D01*
X142232Y80981D01*
X163968D01*
X164720Y80229D01*
X164529Y79767D01*
X137795D01*
X137795Y79767D01*
X136511Y79598D01*
X135313Y79102D01*
X134285Y78313D01*
X134285Y78313D01*
X126881Y70909D01*
X107480D01*
Y71457D01*
X100429D01*
Y75768D01*
X100314Y76641D01*
X100484Y77051D01*
X100626Y78130D01*
X100484Y79209D01*
X100068Y80215D01*
X99749Y80630D01*
X100068Y81045D01*
X100484Y82051D01*
X100626Y83130D01*
X100484Y84209D01*
X100068Y85215D01*
X99405Y86078D01*
X98541Y86741D01*
X97536Y87157D01*
X96457Y87299D01*
X91339D01*
X90763Y87224D01*
X90387Y87553D01*
Y88706D01*
X90763Y89036D01*
X91339Y88960D01*
X96457D01*
X97536Y89102D01*
X98541Y89519D01*
X99405Y90182D01*
X100068Y91045D01*
X100484Y92051D01*
X100626Y93130D01*
X100484Y94209D01*
X100068Y95215D01*
X99405Y96078D01*
X98541Y96741D01*
X97536Y97157D01*
X96457Y97299D01*
X91339D01*
X90259Y97157D01*
X89644Y96902D01*
X88209D01*
X87232Y96774D01*
X86754Y96576D01*
X86254Y96910D01*
Y100000D01*
X86119Y101028D01*
X85722Y101986D01*
X85091Y102808D01*
X85091Y102808D01*
X83517Y104383D01*
X82694Y105014D01*
X81736Y105411D01*
X80709Y105546D01*
X64173D01*
X63146Y105411D01*
X62188Y105014D01*
X61365Y104383D01*
X57784Y100801D01*
X57284Y101008D01*
Y101969D01*
X47441D01*
Y90945D01*
X47441D01*
X47583Y90601D01*
X46405Y89422D01*
X45774Y88600D01*
X45377Y87642D01*
X45242Y86614D01*
Y83535D01*
X44418Y82711D01*
X42564D01*
X42457Y82851D01*
X41253Y83775D01*
X39851Y84356D01*
X38346Y84554D01*
X36842Y84356D01*
X35440Y83775D01*
X34236Y82851D01*
X33312Y81647D01*
X32731Y80245D01*
X32533Y78740D01*
X32731Y77236D01*
X33291Y75883D01*
X33286Y75782D01*
X33062Y75338D01*
X32941Y75318D01*
X31138Y77121D01*
Y80709D01*
X31890D01*
Y91732D01*
X22047D01*
Y80709D01*
X22799D01*
Y75394D01*
X22846Y75039D01*
X22372Y74805D01*
X14806Y82371D01*
Y104637D01*
X17410Y107241D01*
X113916D01*
X138722Y82435D01*
D02*
G37*
G36*
X196850Y0D02*
X0D01*
Y116142D01*
X11660D01*
X11676Y116105D01*
X11772Y115642D01*
X6333Y110203D01*
X5544Y109175D01*
X5048Y107978D01*
X4879Y106693D01*
Y105512D01*
Y80315D01*
X5048Y79030D01*
X5544Y77833D01*
X6333Y76805D01*
X25624Y57514D01*
X25624Y57514D01*
X26652Y56725D01*
X27849Y56229D01*
X29134Y56060D01*
X29134Y56060D01*
X32583D01*
Y55260D01*
X44110D01*
Y56854D01*
X47244D01*
X48323Y56996D01*
X49329Y57413D01*
X50192Y58075D01*
X54519Y62402D01*
X59252D01*
Y54528D01*
X69095D01*
Y62402D01*
Y63744D01*
X71850D01*
X72930Y63886D01*
X73713Y64210D01*
X74213Y63927D01*
Y61221D01*
X85236D01*
Y65272D01*
X85698Y65463D01*
X86582Y64579D01*
Y58661D01*
X85433D01*
Y54125D01*
X84847Y53539D01*
X84184Y52675D01*
X83768Y51670D01*
X83626Y50591D01*
Y46850D01*
X76575D01*
Y45508D01*
X75787D01*
X74708Y45366D01*
X73703Y44949D01*
X72839Y44287D01*
X71855Y43303D01*
X71192Y42439D01*
X70776Y41434D01*
X70664Y40587D01*
X68898D01*
X67818Y40445D01*
X66813Y40028D01*
X65949Y39366D01*
X65005Y38421D01*
X62211D01*
X61147Y39239D01*
X59758Y39814D01*
X58268Y40010D01*
X55905D01*
X54415Y39814D01*
X53026Y39239D01*
X51834Y38323D01*
X50919Y37131D01*
X50344Y35742D01*
X50148Y34252D01*
X50344Y32762D01*
X50919Y31373D01*
X51834Y30180D01*
X53026Y29265D01*
X54415Y28690D01*
X55905Y28494D01*
X58268D01*
X59758Y28690D01*
X61147Y29265D01*
X62211Y30082D01*
X66732D01*
X67811Y30224D01*
X68817Y30641D01*
X69056Y30825D01*
X69291Y30709D01*
Y30709D01*
X80315D01*
Y35827D01*
X88193D01*
X88384Y35365D01*
X78850Y25830D01*
X61176D01*
X61147Y25853D01*
X59758Y26428D01*
X58268Y26624D01*
X55905D01*
X54415Y26428D01*
X53026Y25853D01*
X51834Y24938D01*
X50919Y23745D01*
X50344Y22356D01*
X50148Y20866D01*
X50267Y19962D01*
X50197Y19882D01*
X50197D01*
Y18740D01*
X27770D01*
X27213Y19418D01*
X26022Y20396D01*
X24663Y21122D01*
X23188Y21570D01*
X21654Y21721D01*
X20120Y21570D01*
X18645Y21122D01*
X17285Y20396D01*
X16094Y19418D01*
X15116Y18226D01*
X14389Y16867D01*
X13942Y15392D01*
X13791Y13858D01*
X13942Y12324D01*
X14389Y10849D01*
X15116Y9490D01*
X16094Y8298D01*
X17285Y7321D01*
X18645Y6594D01*
X20120Y6147D01*
X21654Y5996D01*
X23188Y6147D01*
X24663Y6594D01*
X26022Y7321D01*
X27213Y8298D01*
X28191Y9490D01*
X28253Y9607D01*
X50197D01*
Y8465D01*
X63976D01*
Y9607D01*
X88322D01*
X88873Y9379D01*
X90158Y9210D01*
X95553D01*
X97165Y7598D01*
X97165Y7598D01*
X98110Y6872D01*
X98228Y6823D01*
Y5315D01*
X108071D01*
Y15720D01*
X108473Y16017D01*
X109079Y15834D01*
X110236Y15720D01*
X111394Y15834D01*
X112507Y16171D01*
X113533Y16720D01*
X114432Y17458D01*
X115170Y18357D01*
X115719Y19383D01*
X116056Y20496D01*
X116170Y21654D01*
X116056Y22811D01*
X115719Y23924D01*
X115170Y24950D01*
X114432Y25850D01*
X113533Y26588D01*
X112507Y27136D01*
X111394Y27474D01*
X110236Y27588D01*
X109079Y27474D01*
X107965Y27136D01*
X106995Y26617D01*
X103347D01*
X103347Y26617D01*
X102062Y26448D01*
X100865Y25952D01*
X99837Y25163D01*
X99836Y25163D01*
X93810Y19137D01*
X90158D01*
X88873Y18968D01*
X88322Y18740D01*
X86452D01*
X86261Y19202D01*
X94500Y27441D01*
X105413D01*
Y39488D01*
X105232D01*
X105041Y39950D01*
X106387Y41296D01*
X132874D01*
X134159Y41465D01*
X135356Y41961D01*
X136384Y42750D01*
X149694Y56060D01*
X154032D01*
X155123Y54730D01*
X156472Y53623D01*
X158011Y52800D01*
X159681Y52293D01*
X161417Y52122D01*
X163154Y52293D01*
X164824Y52800D01*
X165867Y53358D01*
X166296Y53101D01*
Y32568D01*
X163285Y29557D01*
X162101Y29401D01*
X160904Y28905D01*
X159876Y28116D01*
X159087Y27088D01*
X158591Y25891D01*
X158422Y24606D01*
Y18985D01*
X158377Y18940D01*
X150591D01*
X150268Y18898D01*
X145079D01*
Y9055D01*
X150268D01*
X150591Y9013D01*
X160433D01*
X160756Y9055D01*
X165945D01*
Y12468D01*
X166896Y13419D01*
X166896Y13419D01*
X167684Y14447D01*
X168180Y15644D01*
X168350Y16929D01*
Y20701D01*
X168864Y21096D01*
X174770Y27002D01*
X175559Y28030D01*
X176054Y29227D01*
X176224Y30512D01*
Y31409D01*
X176415Y31600D01*
X177468Y31919D01*
X178494Y32468D01*
X179393Y33206D01*
X180131Y34105D01*
X180679Y35131D01*
X181017Y36244D01*
X181131Y37402D01*
X181017Y38559D01*
X180679Y39672D01*
X180131Y40698D01*
X179393Y41598D01*
X178494Y42336D01*
X177468Y42884D01*
X176355Y43222D01*
X176224Y43235D01*
Y80709D01*
X176054Y81993D01*
X175559Y83191D01*
X174770Y84219D01*
X174770Y84219D01*
X169534Y89455D01*
X168506Y90244D01*
X167308Y90740D01*
X166024Y90909D01*
X144288D01*
X119555Y115642D01*
X119658Y116142D01*
X196850D01*
Y0D01*
D02*
G37*
%LPC*%
G36*
X185039Y103389D02*
X183303Y103218D01*
X181633Y102712D01*
X180094Y101889D01*
X178745Y100782D01*
X177638Y99433D01*
X176816Y97895D01*
X176309Y96225D01*
X176138Y94488D01*
X176309Y92752D01*
X176816Y91082D01*
X177638Y89543D01*
X178745Y88194D01*
X180094Y87087D01*
X181633Y86265D01*
X183303Y85758D01*
X185039Y85587D01*
X186776Y85758D01*
X188446Y86265D01*
X189985Y87087D01*
X191333Y88194D01*
X192440Y89543D01*
X193263Y91082D01*
X193770Y92752D01*
X193940Y94488D01*
X193770Y96225D01*
X193263Y97895D01*
X192440Y99433D01*
X191333Y100782D01*
X189985Y101889D01*
X188446Y102712D01*
X186776Y103218D01*
X185039Y103389D01*
D02*
G37*
G36*
Y22681D02*
X183303Y22510D01*
X181633Y22003D01*
X180094Y21181D01*
X178745Y20074D01*
X177638Y18725D01*
X176816Y17186D01*
X176309Y15516D01*
X176138Y13780D01*
X176309Y12043D01*
X176816Y10373D01*
X177638Y8834D01*
X178745Y7485D01*
X180094Y6379D01*
X181633Y5556D01*
X183303Y5049D01*
X185039Y4878D01*
X186776Y5049D01*
X188446Y5556D01*
X189985Y6379D01*
X191333Y7485D01*
X192440Y8834D01*
X193263Y10373D01*
X193770Y12043D01*
X193940Y13780D01*
X193770Y15516D01*
X193263Y17186D01*
X192440Y18725D01*
X191333Y20074D01*
X189985Y21181D01*
X188446Y22003D01*
X186776Y22510D01*
X185039Y22681D01*
D02*
G37*
%LPD*%
D10*
X52362Y96457D02*
D03*
X46063D02*
D03*
X20669Y86221D02*
D03*
X26969D02*
D03*
X57874Y60039D02*
D03*
X64173D02*
D03*
X57874Y67913D02*
D03*
X64173D02*
D03*
X103150Y10827D02*
D03*
X109449D02*
D03*
X96260Y65945D02*
D03*
X102559D02*
D03*
X81496Y41339D02*
D03*
X87795D02*
D03*
X90354Y53150D02*
D03*
X96653D02*
D03*
D11*
X79724Y59842D02*
D03*
Y66142D02*
D03*
X160433Y13976D02*
D03*
Y7677D02*
D03*
X150591Y13976D02*
D03*
Y7677D02*
D03*
X74803Y29331D02*
D03*
Y35630D02*
D03*
D12*
X97874Y33465D02*
D03*
X114724D02*
D03*
D13*
X93898Y78130D02*
D03*
Y83130D02*
D03*
Y88130D02*
D03*
Y93130D02*
D03*
X75394Y78130D02*
D03*
Y83130D02*
D03*
Y88130D02*
D03*
Y93130D02*
D03*
D14*
X26969Y75394D02*
Y86221D01*
Y75394D02*
X31496Y70866D01*
X38346D01*
X52362Y96457D02*
X58661D01*
X61024Y83661D02*
Y89764D01*
X38346Y70866D02*
X48228D01*
X61024Y83661D01*
X93898Y78130D02*
X96260Y75768D01*
Y65945D02*
Y75768D01*
X87795Y50591D02*
X90354Y53150D01*
X87795Y41339D02*
Y50591D01*
X75394Y83130D02*
X80256D01*
X64173Y60039D02*
Y67913D01*
X71850D01*
X75394Y71457D01*
Y78130D01*
X38346Y61024D02*
X47244D01*
X54134Y67913D01*
X57874D01*
X57087Y34252D02*
X66732D01*
X68898Y36417D01*
X74016D01*
X74803Y35630D01*
Y40354D01*
X75787Y41339D01*
X81496D01*
X93504Y33465D02*
X97874D01*
D15*
X64173Y101575D02*
X80709D01*
X49213Y86614D02*
X64173Y101575D01*
X49213Y81890D02*
Y86614D01*
X61024Y89764D02*
X64390Y93130D01*
X75394D01*
X38346Y78740D02*
X46063D01*
X49213Y81890D01*
X80709Y101575D02*
X82284Y100000D01*
Y91142D02*
Y100000D01*
X79272Y88130D02*
X82284Y91142D01*
X75394Y88130D02*
X79272D01*
D16*
X171260Y33465D02*
X175197Y37402D01*
X175197D01*
X90158Y14173D02*
X95866D01*
X103347Y21654D01*
X110236D01*
X137795Y74803D02*
X171260D01*
X128937Y65945D02*
X137795Y74803D01*
X102559Y65945D02*
X128937D01*
X102559D02*
X103347Y65158D01*
X147638Y61024D02*
X161417D01*
X132874Y46260D02*
X147638Y61024D01*
X104331Y46260D02*
X132874D01*
X97874Y39803D02*
X104331Y46260D01*
X115972Y112205D02*
X142232Y85945D01*
X114567Y112205D02*
X115972D01*
X15354D02*
X114567D01*
X9843Y106693D02*
X15354Y112205D01*
X9843Y105512D02*
Y106693D01*
Y80315D02*
Y105512D01*
Y80315D02*
X29134Y61024D01*
X38346D01*
X96653Y53150D02*
X100394D01*
X103347Y56102D01*
Y65158D01*
X142232Y85945D02*
X166024D01*
X171260Y80709D01*
Y30512D02*
Y80709D01*
X165354Y24606D02*
X171260Y30512D01*
X163386Y24606D02*
X165354D01*
X150591Y13976D02*
X160433D01*
X163386Y16929D01*
Y24606D01*
X57087Y20866D02*
X80905D01*
X93504Y33465D01*
X97874D02*
Y39803D01*
D17*
X86614Y91535D02*
X88209Y93130D01*
X86614Y69882D02*
Y91535D01*
Y69882D02*
X90354Y66142D01*
X88209Y93130D02*
X93898D01*
X90354Y53150D02*
Y66142D01*
X79724Y66142D02*
X82677Y69095D01*
Y80709D01*
X80256Y83130D02*
X82677Y80709D01*
D18*
X96457Y14764D02*
X100394Y10827D01*
X101378D01*
X103150D01*
X57087Y14173D02*
X90158D01*
X21969D02*
X57087D01*
D19*
X185039Y94488D02*
D03*
Y13780D02*
D03*
D20*
X38346Y61024D02*
D03*
D21*
Y70866D02*
D03*
Y78740D02*
D03*
Y88583D02*
D03*
D22*
X27677Y48937D02*
D03*
Y100669D02*
D03*
D23*
X57087Y40945D02*
D03*
Y34252D02*
D03*
Y27559D02*
D03*
Y20866D02*
D03*
D24*
Y14173D02*
D03*
D25*
X175197Y37402D02*
D03*
X155512D02*
D03*
X110236Y21654D02*
D03*
X129921D02*
D03*
D26*
X21654Y29449D02*
D03*
D27*
Y13858D02*
D03*
D28*
X108661Y98819D02*
D03*
X161417Y61024D02*
D03*
M02*
